G04 (created by PCBNEW-RS274X (2011-11-27 BZR 3249)-stable) date 19.12.2011 19:15:57*
G01*
G70*
G90*
%MOIN*%
G04 Gerber Fmt 3.4, Leading zero omitted, Abs format*
%FSLAX34Y34*%
G04 APERTURE LIST*
%ADD10C,0.006000*%
%ADD11C,0.015000*%
%ADD12R,0.060000X0.060000*%
%ADD13C,0.060000*%
%ADD14C,0.080000*%
%ADD15C,0.070000*%
%ADD16R,0.055000X0.055000*%
%ADD17C,0.055000*%
%ADD18C,0.150000*%
%ADD19C,0.035000*%
%ADD20C,0.019800*%
G04 APERTURE END LIST*
G54D10*
G54D11*
X18573Y-53543D02*
X18549Y-53785D01*
X18478Y-54019D01*
X18364Y-54234D01*
X18209Y-54423D01*
X18021Y-54579D01*
X17807Y-54695D01*
X17574Y-54767D01*
X17331Y-54792D01*
X17089Y-54770D01*
X16855Y-54701D01*
X16639Y-54588D01*
X16449Y-54436D01*
X16292Y-54249D01*
X16175Y-54035D01*
X16101Y-53802D01*
X16074Y-53560D01*
X16094Y-53318D01*
X16161Y-53083D01*
X16273Y-52866D01*
X16424Y-52675D01*
X16610Y-52517D01*
X16823Y-52398D01*
X17055Y-52323D01*
X17297Y-52294D01*
X17540Y-52312D01*
X17775Y-52378D01*
X17992Y-52488D01*
X18185Y-52638D01*
X18344Y-52823D01*
X18464Y-53035D01*
X18541Y-53267D01*
X18572Y-53509D01*
X18573Y-53543D01*
X14823Y-53543D02*
X19823Y-53543D01*
X17323Y-51043D02*
X17323Y-56043D01*
X74872Y-17717D02*
X74848Y-17959D01*
X74777Y-18193D01*
X74663Y-18408D01*
X74508Y-18597D01*
X74320Y-18753D01*
X74106Y-18869D01*
X73873Y-18941D01*
X73630Y-18966D01*
X73388Y-18944D01*
X73154Y-18875D01*
X72938Y-18762D01*
X72748Y-18610D01*
X72591Y-18423D01*
X72474Y-18209D01*
X72400Y-17976D01*
X72373Y-17734D01*
X72393Y-17492D01*
X72460Y-17257D01*
X72572Y-17040D01*
X72723Y-16849D01*
X72909Y-16691D01*
X73122Y-16572D01*
X73354Y-16497D01*
X73596Y-16468D01*
X73839Y-16486D01*
X74074Y-16552D01*
X74291Y-16662D01*
X74484Y-16812D01*
X74643Y-16997D01*
X74763Y-17209D01*
X74840Y-17441D01*
X74871Y-17683D01*
X74872Y-17717D01*
X71122Y-17717D02*
X76122Y-17717D01*
X73622Y-15217D02*
X73622Y-20217D01*
X74872Y-53543D02*
X74848Y-53785D01*
X74777Y-54019D01*
X74663Y-54234D01*
X74508Y-54423D01*
X74320Y-54579D01*
X74106Y-54695D01*
X73873Y-54767D01*
X73630Y-54792D01*
X73388Y-54770D01*
X73154Y-54701D01*
X72938Y-54588D01*
X72748Y-54436D01*
X72591Y-54249D01*
X72474Y-54035D01*
X72400Y-53802D01*
X72373Y-53560D01*
X72393Y-53318D01*
X72460Y-53083D01*
X72572Y-52866D01*
X72723Y-52675D01*
X72909Y-52517D01*
X73122Y-52398D01*
X73354Y-52323D01*
X73596Y-52294D01*
X73839Y-52312D01*
X74074Y-52378D01*
X74291Y-52488D01*
X74484Y-52638D01*
X74643Y-52823D01*
X74763Y-53035D01*
X74840Y-53267D01*
X74871Y-53509D01*
X74872Y-53543D01*
X71122Y-53543D02*
X76122Y-53543D01*
X73622Y-51043D02*
X73622Y-56043D01*
X18967Y-17717D02*
X18943Y-17959D01*
X18872Y-18193D01*
X18758Y-18408D01*
X18603Y-18597D01*
X18415Y-18753D01*
X18201Y-18869D01*
X17968Y-18941D01*
X17725Y-18966D01*
X17483Y-18944D01*
X17249Y-18875D01*
X17033Y-18762D01*
X16843Y-18610D01*
X16686Y-18423D01*
X16569Y-18209D01*
X16495Y-17976D01*
X16468Y-17734D01*
X16488Y-17492D01*
X16555Y-17257D01*
X16667Y-17040D01*
X16818Y-16849D01*
X17004Y-16691D01*
X17217Y-16572D01*
X17449Y-16497D01*
X17691Y-16468D01*
X17934Y-16486D01*
X18169Y-16552D01*
X18386Y-16662D01*
X18579Y-16812D01*
X18738Y-16997D01*
X18858Y-17209D01*
X18935Y-17441D01*
X18966Y-17683D01*
X18967Y-17717D01*
X15217Y-17717D02*
X20217Y-17717D01*
X17717Y-15217D02*
X17717Y-20217D01*
X78740Y-15748D02*
X15748Y-15748D01*
X78740Y-55118D02*
X78740Y-15748D01*
X15748Y-55118D02*
X78740Y-55118D01*
X15748Y-15748D02*
X15748Y-55118D01*
G54D12*
X19972Y-39051D03*
G54D13*
X20972Y-39051D03*
X19972Y-40051D03*
X20972Y-40051D03*
X19972Y-41051D03*
X20972Y-41051D03*
X19972Y-42051D03*
X20972Y-42051D03*
G54D12*
X19972Y-48106D03*
G54D13*
X20972Y-48106D03*
X19972Y-49106D03*
X20972Y-49106D03*
X19972Y-50106D03*
X20972Y-50106D03*
X19972Y-51106D03*
X20972Y-51106D03*
G54D12*
X19972Y-28815D03*
G54D13*
X20972Y-28815D03*
X19972Y-29815D03*
X20972Y-29815D03*
X19972Y-30815D03*
X20972Y-30815D03*
X19972Y-31815D03*
X20972Y-31815D03*
G54D12*
X19972Y-19760D03*
G54D13*
X20972Y-19760D03*
X19972Y-20760D03*
X20972Y-20760D03*
X19972Y-21760D03*
X20972Y-21760D03*
X19972Y-22760D03*
X20972Y-22760D03*
G54D14*
X63811Y-37795D03*
G54D15*
X59811Y-37795D03*
G54D16*
X66291Y-25933D03*
G54D17*
X66291Y-26933D03*
X66291Y-27933D03*
X66291Y-28933D03*
X66291Y-29933D03*
X66291Y-30933D03*
X66291Y-31933D03*
X66291Y-32933D03*
X66291Y-33933D03*
X66291Y-34933D03*
X66291Y-35933D03*
X66291Y-36933D03*
X66291Y-37933D03*
X66291Y-38933D03*
X66291Y-39933D03*
X66291Y-40933D03*
X66291Y-41933D03*
X66291Y-42933D03*
X66291Y-43933D03*
X66291Y-44933D03*
X72291Y-44933D03*
X72291Y-43933D03*
X72291Y-42933D03*
X72291Y-41933D03*
X72291Y-40933D03*
X72291Y-39933D03*
X72291Y-38933D03*
X72291Y-37933D03*
X72291Y-36933D03*
X72291Y-35933D03*
X72291Y-34933D03*
X72291Y-33933D03*
X72291Y-32933D03*
X72291Y-31933D03*
X72291Y-30933D03*
X72291Y-29933D03*
X72291Y-28933D03*
X72291Y-27933D03*
X72291Y-26933D03*
X72291Y-25933D03*
G54D16*
X42201Y-37445D03*
G54D17*
X42201Y-38445D03*
X42201Y-39445D03*
X42201Y-40445D03*
X42201Y-41445D03*
X42201Y-42445D03*
X42201Y-43445D03*
X42201Y-44445D03*
X45201Y-44445D03*
X45201Y-43445D03*
X45201Y-42445D03*
X45201Y-41445D03*
X45201Y-40445D03*
X45201Y-39445D03*
X45201Y-38445D03*
X45201Y-37445D03*
G54D16*
X41807Y-24453D03*
G54D17*
X41807Y-25453D03*
X41807Y-26453D03*
X41807Y-27453D03*
X41807Y-28453D03*
X41807Y-29453D03*
X41807Y-30453D03*
X41807Y-31453D03*
X44807Y-31453D03*
X44807Y-30453D03*
X44807Y-29453D03*
X44807Y-28453D03*
X44807Y-27453D03*
X44807Y-26453D03*
X44807Y-25453D03*
X44807Y-24453D03*
G54D18*
X76665Y-17933D03*
X76665Y-52933D03*
G54D13*
X77665Y-21933D03*
X77665Y-22933D03*
X77665Y-23933D03*
X77665Y-24933D03*
X77665Y-25933D03*
X77665Y-26933D03*
X77665Y-27933D03*
X77665Y-28933D03*
X77665Y-29933D03*
X77665Y-30933D03*
X77665Y-31933D03*
X77665Y-32933D03*
X77665Y-33933D03*
X77665Y-34933D03*
X77665Y-35933D03*
X77665Y-36933D03*
X77665Y-37933D03*
X77665Y-38933D03*
X77665Y-39933D03*
X77665Y-40933D03*
X77665Y-41933D03*
X77665Y-42933D03*
X77665Y-43933D03*
X77665Y-44933D03*
X77665Y-45933D03*
X77665Y-46933D03*
X77665Y-47933D03*
X77665Y-48933D03*
X77665Y-49933D03*
X77665Y-50933D03*
X77665Y-20933D03*
G54D12*
X77665Y-19933D03*
G54D13*
X76665Y-19933D03*
X76665Y-20933D03*
X76665Y-21933D03*
X76665Y-22933D03*
X76665Y-23933D03*
X76665Y-24933D03*
X76665Y-25933D03*
X76665Y-26933D03*
X76665Y-27933D03*
X76665Y-28933D03*
X76665Y-29933D03*
X76665Y-30933D03*
X76665Y-31933D03*
X76665Y-32933D03*
X76665Y-33933D03*
X76665Y-34933D03*
X76665Y-35933D03*
X76665Y-36933D03*
X76665Y-37933D03*
X76665Y-38933D03*
X76665Y-39933D03*
X76665Y-40933D03*
X76665Y-41933D03*
X76665Y-42933D03*
X76665Y-43933D03*
X76665Y-44933D03*
X76665Y-45933D03*
X76665Y-46933D03*
X76665Y-47933D03*
X76665Y-48933D03*
X76665Y-49933D03*
X76665Y-50933D03*
G54D12*
X43701Y-34146D03*
G54D13*
X43701Y-35146D03*
G54D12*
X39370Y-30209D03*
G54D13*
X39370Y-31209D03*
G54D12*
X46851Y-24303D03*
G54D13*
X46851Y-25303D03*
G54D12*
X47244Y-37295D03*
G54D13*
X47244Y-38295D03*
G54D12*
X39370Y-27453D03*
G54D13*
X39370Y-28453D03*
G54D12*
X39370Y-24303D03*
G54D13*
X39370Y-25303D03*
G54D12*
X39370Y-40445D03*
G54D13*
X39370Y-41445D03*
G54D12*
X39370Y-37295D03*
G54D13*
X39370Y-38295D03*
G54D19*
X54392Y-40836D03*
X46381Y-29950D03*
X73167Y-37385D03*
X54639Y-51107D03*
G54D20*
X46381Y-32825D02*
X46381Y-29950D01*
X54392Y-40836D02*
X46381Y-32825D01*
X54639Y-51107D02*
X67065Y-51107D01*
X67065Y-51107D02*
X73167Y-45005D01*
X73167Y-45005D02*
X73167Y-37385D01*
M02*
