0
SECTION
2
HEADER
9
$ANGBASE
50
0.0
9
$ANGDIR
70
0
0
ENDSEC
0
SECTION
2
TABLES
0
TABLE
2
LTYPE
70
1
0
LTYPE
2
CONTINUOUS
70
0
3
Solid line
72
65
73
0
40
0.0
0
ENDTAB
0
TABLE
2
LAYER
70
24
0
LAYER
2
BLACK
70
0
62
1
6
CONTINUOUS
0
LAYER
2
BLUE
70
0
62
2
6
CONTINUOUS
0
LAYER
2
GREEN
70
0
62
3
6
CONTINUOUS
0
LAYER
2
CYAN
70
0
62
4
6
CONTINUOUS
0
LAYER
2
RED
70
0
62
5
6
CONTINUOUS
0
LAYER
2
MAGENTA
70
0
62
6
6
CONTINUOUS
0
LAYER
2
BROWN
70
0
62
7
6
CONTINUOUS
0
LAYER
2
GRAY
70
0
62
8
6
CONTINUOUS
0
LAYER
2
DARKGRAY
70
0
62
9
6
CONTINUOUS
0
LAYER
2
LIGHTBLUE
70
0
62
10
6
CONTINUOUS
0
LAYER
2
LIGHTGREEN
70
0
62
11
6
CONTINUOUS
0
LAYER
2
LIGHTCYAN
70
0
62
12
6
CONTINUOUS
0
LAYER
2
LIGHTRED
70
0
62
13
6
CONTINUOUS
0
LAYER
2
LIGHTMAGENTA
70
0
62
14
6
CONTINUOUS
0
LAYER
2
YELLOW
70
0
62
15
6
CONTINUOUS
0
LAYER
2
WHITE
70
0
62
16
6
CONTINUOUS
0
LAYER
2
DARKDARKGRAY
70
0
62
17
6
CONTINUOUS
0
LAYER
2
DARKBLUE
70
0
62
18
6
CONTINUOUS
0
LAYER
2
DARKGREEN
70
0
62
19
6
CONTINUOUS
0
LAYER
2
DARKCYAN
70
0
62
20
6
CONTINUOUS
0
LAYER
2
DARKRED
70
0
62
21
6
CONTINUOUS
0
LAYER
2
DARKMAGENTA
70
0
62
22
6
CONTINUOUS
0
LAYER
2
DARKBROWN
70
0
62
23
6
CONTINUOUS
0
LAYER
2
LIGHTYELLOW
70
0
62
24
6
CONTINUOUS
0
ENDTAB
0
ENDSEC
0
SECTION
2
ENTITIES
0
CIRCLE
8
BLACK
10
17323.0
20
29127.0
40
1250
0
LINE
8
BLACK
10
14823.0
20
29052.0
11
19823.0
21
29052.0
0
LINE
8
BLACK
10
14823.0
20
29202.0
11
19823.0
21
29202.0
0
ARC
8
BLACK
10
19823.0
20
29127.0
40
75.0
50
270.0
51
450.0
0
ARC
8
BLACK
10
14823.0
20
29127.0
40
75.0
50
90.0
51
270.0
0
LINE
8
BLACK
10
17398.0
20
26627.0
11
17398.0
21
31627.0
0
LINE
8
BLACK
10
17248.0
20
26627.0
11
17248.0
21
31627.0
0
ARC
8
BLACK
10
17323.0
20
31627.0
40
75.0
50
360.0
51
540.0
0
ARC
8
BLACK
10
17323.0
20
26627.0
40
75.0
50
180.0
51
360.0
0
CIRCLE
8
BLACK
10
73622.0
20
64953.0
40
1250
0
LINE
8
BLACK
10
71122.0
20
64878.0
11
76122.0
21
64878.0
0
LINE
8
BLACK
10
71122.0
20
65028.0
11
76122.0
21
65028.0
0
ARC
8
BLACK
10
76122.0
20
64953.0
40
75.0
50
270.0
51
450.0
0
ARC
8
BLACK
10
71122.0
20
64953.0
40
75.0
50
90.0
51
270.0
0
LINE
8
BLACK
10
73697.0
20
62453.0
11
73697.0
21
67453.0
0
LINE
8
BLACK
10
73547.0
20
62453.0
11
73547.0
21
67453.0
0
ARC
8
BLACK
10
73622.0
20
67453.0
40
75.0
50
360.0
51
540.0
0
ARC
8
BLACK
10
73622.0
20
62453.0
40
75.0
50
180.0
51
360.0
0
CIRCLE
8
BLACK
10
73622.0
20
29127.0
40
1250
0
LINE
8
BLACK
10
71122.0
20
29052.0
11
76122.0
21
29052.0
0
LINE
8
BLACK
10
71122.0
20
29202.0
11
76122.0
21
29202.0
0
ARC
8
BLACK
10
76122.0
20
29127.0
40
75.0
50
270.0
51
450.0
0
ARC
8
BLACK
10
71122.0
20
29127.0
40
75.0
50
90.0
51
270.0
0
LINE
8
BLACK
10
73697.0
20
26627.0
11
73697.0
21
31627.0
0
LINE
8
BLACK
10
73547.0
20
26627.0
11
73547.0
21
31627.0
0
ARC
8
BLACK
10
73622.0
20
31627.0
40
75.0
50
360.0
51
540.0
0
ARC
8
BLACK
10
73622.0
20
26627.0
40
75.0
50
180.0
51
360.0
0
CIRCLE
8
BLACK
10
17717.0
20
64953.0
40
1250
0
LINE
8
BLACK
10
15217.0
20
64878.0
11
20217.0
21
64878.0
0
LINE
8
BLACK
10
15217.0
20
65028.0
11
20217.0
21
65028.0
0
ARC
8
BLACK
10
20217.0
20
64953.0
40
75.0
50
270.0
51
450.0
0
ARC
8
BLACK
10
15217.0
20
64953.0
40
75.0
50
90.0
51
270.0
0
LINE
8
BLACK
10
17792.0
20
62453.0
11
17792.0
21
67453.0
0
LINE
8
BLACK
10
17642.0
20
62453.0
11
17642.0
21
67453.0
0
ARC
8
BLACK
10
17717.0
20
67453.0
40
75.0
50
360.0
51
540.0
0
ARC
8
BLACK
10
17717.0
20
62453.0
40
75.0
50
180.0
51
360.0
0
LINE
8
BLACK
10
15748.0
20
66847.0
11
78740.0
21
66847.0
0
LINE
8
BLACK
10
15748.0
20
66997.0
11
78740.0
21
66997.0
0
ARC
8
BLACK
10
78740.0
20
66922.0
40
75.0
50
270.0
51
450.0
0
ARC
8
BLACK
10
15748.0
20
66922.0
40
75.0
50
90.0
51
270.0
0
LINE
8
BLACK
10
78815.0
20
27552.0
11
78815.0
21
66922.0
0
LINE
8
BLACK
10
78665.0
20
27552.0
11
78665.0
21
66922.0
0
ARC
8
BLACK
10
78740.0
20
66922.0
40
75.0
50
360.0
51
540.0
0
ARC
8
BLACK
10
78740.0
20
27552.0
40
75.0
50
180.0
51
360.0
0
LINE
8
BLACK
10
15748.0
20
27477.0
11
78740.0
21
27477.0
0
LINE
8
BLACK
10
15748.0
20
27627.0
11
78740.0
21
27627.0
0
ARC
8
BLACK
10
78740.0
20
27552.0
40
75.0
50
270.0
51
450.0
0
ARC
8
BLACK
10
15748.0
20
27552.0
40
75.0
50
90.0
51
270.0
0
LINE
8
BLACK
10
15823.0
20
27552.0
11
15823.0
21
66922.0
0
LINE
8
BLACK
10
15673.0
20
27552.0
11
15673.0
21
66922.0
0
ARC
8
BLACK
10
15748.0
20
66922.0
40
75.0
50
360.0
51
540.0
0
ARC
8
BLACK
10
15748.0
20
27552.0
40
75.0
50
180.0
51
360.0
0
LINE
8
BLACK
10
21532.0
20
40119.0
11
21532.0
21
44119.0
0
LINE
8
BLACK
10
21412.0
20
40119.0
11
21412.0
21
44119.0
0
ARC
8
BLACK
10
21472.0
20
44119.0
40
60.0
50
360.0
51
540.0
0
ARC
8
BLACK
10
21472.0
20
40119.0
40
60.0
50
180.0
51
360.0
0
LINE
8
BLACK
10
19472.0
20
40059.0
11
21472.0
21
40059.0
0
LINE
8
BLACK
10
19472.0
20
40179.0
11
21472.0
21
40179.0
0
ARC
8
BLACK
10
21472.0
20
40119.0
40
60.0
50
270.0
51
450.0
0
ARC
8
BLACK
10
19472.0
20
40119.0
40
60.0
50
90.0
51
270.0
0
LINE
8
BLACK
10
19532.0
20
40119.0
11
19532.0
21
44119.0
0
LINE
8
BLACK
10
19412.0
20
40119.0
11
19412.0
21
44119.0
0
ARC
8
BLACK
10
19472.0
20
44119.0
40
60.0
50
360.0
51
540.0
0
ARC
8
BLACK
10
19472.0
20
40119.0
40
60.0
50
180.0
51
360.0
0
LINE
8
BLACK
10
19472.0
20
44059.0
11
21472.0
21
44059.0
0
LINE
8
BLACK
10
19472.0
20
44179.0
11
21472.0
21
44179.0
0
ARC
8
BLACK
10
21472.0
20
44119.0
40
60.0
50
270.0
51
450.0
0
ARC
8
BLACK
10
19472.0
20
44119.0
40
60.0
50
90.0
51
270.0
0
LINE
8
BLACK
10
21532.0
20
31064.0
11
21532.0
21
35064.0
0
LINE
8
BLACK
10
21412.0
20
31064.0
11
21412.0
21
35064.0
0
ARC
8
BLACK
10
21472.0
20
35064.0
40
60.0
50
360.0
51
540.0
0
ARC
8
BLACK
10
21472.0
20
31064.0
40
60.0
50
180.0
51
360.0
0
LINE
8
BLACK
10
19472.0
20
31004.0
11
21472.0
21
31004.0
0
LINE
8
BLACK
10
19472.0
20
31124.0
11
21472.0
21
31124.0
0
ARC
8
BLACK
10
21472.0
20
31064.0
40
60.0
50
270.0
51
450.0
0
ARC
8
BLACK
10
19472.0
20
31064.0
40
60.0
50
90.0
51
270.0
0
LINE
8
BLACK
10
19532.0
20
31064.0
11
19532.0
21
35064.0
0
LINE
8
BLACK
10
19412.0
20
31064.0
11
19412.0
21
35064.0
0
ARC
8
BLACK
10
19472.0
20
35064.0
40
60.0
50
360.0
51
540.0
0
ARC
8
BLACK
10
19472.0
20
31064.0
40
60.0
50
180.0
51
360.0
0
LINE
8
BLACK
10
19472.0
20
35004.0
11
21472.0
21
35004.0
0
LINE
8
BLACK
10
19472.0
20
35124.0
11
21472.0
21
35124.0
0
ARC
8
BLACK
10
21472.0
20
35064.0
40
60.0
50
270.0
51
450.0
0
ARC
8
BLACK
10
19472.0
20
35064.0
40
60.0
50
90.0
51
270.0
0
LINE
8
BLACK
10
21532.0
20
50355.0
11
21532.0
21
54355.0
0
LINE
8
BLACK
10
21412.0
20
50355.0
11
21412.0
21
54355.0
0
ARC
8
BLACK
10
21472.0
20
54355.0
40
60.0
50
360.0
51
540.0
0
ARC
8
BLACK
10
21472.0
20
50355.0
40
60.0
50
180.0
51
360.0
0
LINE
8
BLACK
10
19472.0
20
50295.0
11
21472.0
21
50295.0
0
LINE
8
BLACK
10
19472.0
20
50415.0
11
21472.0
21
50415.0
0
ARC
8
BLACK
10
21472.0
20
50355.0
40
60.0
50
270.0
51
450.0
0
ARC
8
BLACK
10
19472.0
20
50355.0
40
60.0
50
90.0
51
270.0
0
LINE
8
BLACK
10
19532.0
20
50355.0
11
19532.0
21
54355.0
0
LINE
8
BLACK
10
19412.0
20
50355.0
11
19412.0
21
54355.0
0
ARC
8
BLACK
10
19472.0
20
54355.0
40
60.0
50
360.0
51
540.0
0
ARC
8
BLACK
10
19472.0
20
50355.0
40
60.0
50
180.0
51
360.0
0
LINE
8
BLACK
10
19472.0
20
54295.0
11
21472.0
21
54295.0
0
LINE
8
BLACK
10
19472.0
20
54415.0
11
21472.0
21
54415.0
0
ARC
8
BLACK
10
21472.0
20
54355.0
40
60.0
50
270.0
51
450.0
0
ARC
8
BLACK
10
19472.0
20
54355.0
40
60.0
50
90.0
51
270.0
0
LINE
8
BLACK
10
21532.0
20
59410.0
11
21532.0
21
63410.0
0
LINE
8
BLACK
10
21412.0
20
59410.0
11
21412.0
21
63410.0
0
ARC
8
BLACK
10
21472.0
20
63410.0
40
60.0
50
360.0
51
540.0
0
ARC
8
BLACK
10
21472.0
20
59410.0
40
60.0
50
180.0
51
360.0
0
LINE
8
BLACK
10
19472.0
20
59350.0
11
21472.0
21
59350.0
0
LINE
8
BLACK
10
19472.0
20
59470.0
11
21472.0
21
59470.0
0
ARC
8
BLACK
10
21472.0
20
59410.0
40
60.0
50
270.0
51
450.0
0
ARC
8
BLACK
10
19472.0
20
59410.0
40
60.0
50
90.0
51
270.0
0
LINE
8
BLACK
10
19532.0
20
59410.0
11
19532.0
21
63410.0
0
LINE
8
BLACK
10
19412.0
20
59410.0
11
19412.0
21
63410.0
0
ARC
8
BLACK
10
19472.0
20
63410.0
40
60.0
50
360.0
51
540.0
0
ARC
8
BLACK
10
19472.0
20
59410.0
40
60.0
50
180.0
51
360.0
0
LINE
8
BLACK
10
19472.0
20
63350.0
11
21472.0
21
63350.0
0
LINE
8
BLACK
10
19472.0
20
63470.0
11
21472.0
21
63470.0
0
ARC
8
BLACK
10
21472.0
20
63410.0
40
60.0
50
270.0
51
450.0
0
ARC
8
BLACK
10
19472.0
20
63410.0
40
60.0
50
90.0
51
270.0
0
LINE
8
BLACK
10
59811.0
20
46585.0
11
63811.0
21
46585.0
0
LINE
8
BLACK
10
59811.0
20
46665.0
11
63811.0
21
46665.0
0
ARC
8
BLACK
10
63811.0
20
46625.0
40
40.0
50
270.0
51
450.0
0
ARC
8
BLACK
10
59811.0
20
46625.0
40
40.0
50
90.0
51
270.0
0
ARC
8
BLACK
10
59811.0
20
44875.0
40
1750.0
50
90.0
51
180.0
0
LINE
8
BLACK
10
59811.0
20
43085.0
11
63811.0
21
43085.0
0
LINE
8
BLACK
10
59811.0
20
43165.0
11
63811.0
21
43165.0
0
ARC
8
BLACK
10
63811.0
20
43125.0
40
40.0
50
270.0
51
450.0
0
ARC
8
BLACK
10
59811.0
20
43125.0
40
40.0
50
90.0
51
270.0
0
ARC
8
BLACK
10
59811.0
20
44875.0
40
1750.0
50
-180.0
51
-90.0
0
ARC
8
BLACK
10
63811.0
20
44875.0
40
1750.0
50
0.0
51
90.0
0
ARC
8
BLACK
10
63811.0
20
44875.0
40
1750.0
50
-90.0
51
0.0
0
LINE
8
BLACK
10
69866.0
20
57237.0
11
69866.0
21
57737.0
0
LINE
8
BLACK
10
69716.0
20
57237.0
11
69716.0
21
57737.0
0
ARC
8
BLACK
10
69791.0
20
57737.0
40
75.0
50
360.0
51
540.0
0
ARC
8
BLACK
10
69791.0
20
57237.0
40
75.0
50
180.0
51
360.0
0
LINE
8
BLACK
10
68791.0
20
57162.0
11
69791.0
21
57162.0
0
LINE
8
BLACK
10
68791.0
20
57312.0
11
69791.0
21
57312.0
0
ARC
8
BLACK
10
69791.0
20
57237.0
40
75.0
50
270.0
51
450.0
0
ARC
8
BLACK
10
68791.0
20
57237.0
40
75.0
50
90.0
51
270.0
0
LINE
8
BLACK
10
68866.0
20
57237.0
11
68866.0
21
57737.0
0
LINE
8
BLACK
10
68716.0
20
57237.0
11
68716.0
21
57737.0
0
ARC
8
BLACK
10
68791.0
20
57737.0
40
75.0
50
360.0
51
540.0
0
ARC
8
BLACK
10
68791.0
20
57237.0
40
75.0
50
180.0
51
360.0
0
LINE
8
BLACK
10
71866.0
20
36737.0
11
71866.0
21
57737.0
0
LINE
8
BLACK
10
71716.0
20
36737.0
11
71716.0
21
57737.0
0
ARC
8
BLACK
10
71791.0
20
57737.0
40
75.0
50
360.0
51
540.0
0
ARC
8
BLACK
10
71791.0
20
36737.0
40
75.0
50
180.0
51
360.0
0
LINE
8
BLACK
10
66791.0
20
36662.0
11
71791.0
21
36662.0
0
LINE
8
BLACK
10
66791.0
20
36812.0
11
71791.0
21
36812.0
0
ARC
8
BLACK
10
71791.0
20
36737.0
40
75.0
50
270.0
51
450.0
0
ARC
8
BLACK
10
66791.0
20
36737.0
40
75.0
50
90.0
51
270.0
0
LINE
8
BLACK
10
66866.0
20
36737.0
11
66866.0
21
57737.0
0
LINE
8
BLACK
10
66716.0
20
36737.0
11
66716.0
21
57737.0
0
ARC
8
BLACK
10
66791.0
20
57737.0
40
75.0
50
360.0
51
540.0
0
ARC
8
BLACK
10
66791.0
20
36737.0
40
75.0
50
180.0
51
360.0
0
LINE
8
BLACK
10
66791.0
20
57662.0
11
71791.0
21
57662.0
0
LINE
8
BLACK
10
66791.0
20
57812.0
11
71791.0
21
57812.0
0
ARC
8
BLACK
10
71791.0
20
57737.0
40
75.0
50
270.0
51
450.0
0
ARC
8
BLACK
10
66791.0
20
57737.0
40
75.0
50
90.0
51
270.0
0
ARC
8
BLACK
10
44201.0
20
46225.0
40
75.0
50
180.0
51
360.0
0
ARC
8
BLACK
10
44201.0
20
46225.0
40
75.0
50
0.0
51
180.0
0
LINE
8
BLACK
10
44276.0
20
45725.0
11
44276.0
21
46225.0
0
LINE
8
BLACK
10
44126.0
20
45725.0
11
44126.0
21
46225.0
0
ARC
8
BLACK
10
44201.0
20
46225.0
40
75.0
50
360.0
51
540.0
0
ARC
8
BLACK
10
44201.0
20
45725.0
40
75.0
50
180.0
51
360.0
0
LINE
8
BLACK
10
43201.0
20
45650.0
11
44201.0
21
45650.0
0
LINE
8
BLACK
10
43201.0
20
45800.0
11
44201.0
21
45800.0
0
ARC
8
BLACK
10
44201.0
20
45725.0
40
75.0
50
270.0
51
450.0
0
ARC
8
BLACK
10
43201.0
20
45725.0
40
75.0
50
90.0
51
270.0
0
LINE
8
BLACK
10
43276.0
20
45725.0
11
43276.0
21
46225.0
0
LINE
8
BLACK
10
43126.0
20
45725.0
11
43126.0
21
46225.0
0
ARC
8
BLACK
10
43201.0
20
46225.0
40
75.0
50
360.0
51
540.0
0
ARC
8
BLACK
10
43201.0
20
45725.0
40
75.0
50
180.0
51
360.0
0
LINE
8
BLACK
10
44776.0
20
37225.0
11
44776.0
21
46225.0
0
LINE
8
BLACK
10
44626.0
20
37225.0
11
44626.0
21
46225.0
0
ARC
8
BLACK
10
44701.0
20
46225.0
40
75.0
50
360.0
51
540.0
0
ARC
8
BLACK
10
44701.0
20
37225.0
40
75.0
50
180.0
51
360.0
0
LINE
8
BLACK
10
42701.0
20
37150.0
11
44701.0
21
37150.0
0
LINE
8
BLACK
10
42701.0
20
37300.0
11
44701.0
21
37300.0
0
ARC
8
BLACK
10
44701.0
20
37225.0
40
75.0
50
270.0
51
450.0
0
ARC
8
BLACK
10
42701.0
20
37225.0
40
75.0
50
90.0
51
270.0
0
LINE
8
BLACK
10
42776.0
20
37225.0
11
42776.0
21
46225.0
0
LINE
8
BLACK
10
42626.0
20
37225.0
11
42626.0
21
46225.0
0
ARC
8
BLACK
10
42701.0
20
46225.0
40
75.0
50
360.0
51
540.0
0
ARC
8
BLACK
10
42701.0
20
37225.0
40
75.0
50
180.0
51
360.0
0
LINE
8
BLACK
10
42701.0
20
46150.0
11
44701.0
21
46150.0
0
LINE
8
BLACK
10
42701.0
20
46300.0
11
44701.0
21
46300.0
0
ARC
8
BLACK
10
44701.0
20
46225.0
40
75.0
50
270.0
51
450.0
0
ARC
8
BLACK
10
42701.0
20
46225.0
40
75.0
50
90.0
51
270.0
0
ARC
8
BLACK
10
43807.0
20
59217.0
40
75.0
50
180.0
51
360.0
0
ARC
8
BLACK
10
43807.0
20
59217.0
40
75.0
50
0.0
51
180.0
0
LINE
8
BLACK
10
43882.0
20
58717.0
11
43882.0
21
59217.0
0
LINE
8
BLACK
10
43732.0
20
58717.0
11
43732.0
21
59217.0
0
ARC
8
BLACK
10
43807.0
20
59217.0
40
75.0
50
360.0
51
540.0
0
ARC
8
BLACK
10
43807.0
20
58717.0
40
75.0
50
180.0
51
360.0
0
LINE
8
BLACK
10
42807.0
20
58642.0
11
43807.0
21
58642.0
0
LINE
8
BLACK
10
42807.0
20
58792.0
11
43807.0
21
58792.0
0
ARC
8
BLACK
10
43807.0
20
58717.0
40
75.0
50
270.0
51
450.0
0
ARC
8
BLACK
10
42807.0
20
58717.0
40
75.0
50
90.0
51
270.0
0
LINE
8
BLACK
10
42882.0
20
58717.0
11
42882.0
21
59217.0
0
LINE
8
BLACK
10
42732.0
20
58717.0
11
42732.0
21
59217.0
0
ARC
8
BLACK
10
42807.0
20
59217.0
40
75.0
50
360.0
51
540.0
0
ARC
8
BLACK
10
42807.0
20
58717.0
40
75.0
50
180.0
51
360.0
0
LINE
8
BLACK
10
44382.0
20
50217.0
11
44382.0
21
59217.0
0
LINE
8
BLACK
10
44232.0
20
50217.0
11
44232.0
21
59217.0
0
ARC
8
BLACK
10
44307.0
20
59217.0
40
75.0
50
360.0
51
540.0
0
ARC
8
BLACK
10
44307.0
20
50217.0
40
75.0
50
180.0
51
360.0
0
LINE
8
BLACK
10
42307.0
20
50142.0
11
44307.0
21
50142.0
0
LINE
8
BLACK
10
42307.0
20
50292.0
11
44307.0
21
50292.0
0
ARC
8
BLACK
10
44307.0
20
50217.0
40
75.0
50
270.0
51
450.0
0
ARC
8
BLACK
10
42307.0
20
50217.0
40
75.0
50
90.0
51
270.0
0
LINE
8
BLACK
10
42382.0
20
50217.0
11
42382.0
21
59217.0
0
LINE
8
BLACK
10
42232.0
20
50217.0
11
42232.0
21
59217.0
0
ARC
8
BLACK
10
42307.0
20
59217.0
40
75.0
50
360.0
51
540.0
0
ARC
8
BLACK
10
42307.0
20
50217.0
40
75.0
50
180.0
51
360.0
0
LINE
8
BLACK
10
42307.0
20
59142.0
11
44307.0
21
59142.0
0
LINE
8
BLACK
10
42307.0
20
59292.0
11
44307.0
21
59292.0
0
ARC
8
BLACK
10
44307.0
20
59217.0
40
75.0
50
270.0
51
450.0
0
ARC
8
BLACK
10
42307.0
20
59217.0
40
75.0
50
90.0
51
270.0
0
LINE
8
BLACK
10
78725.0
20
28737.0
11
78725.0
21
65737.0
0
LINE
8
BLACK
10
78605.0
20
28737.0
11
78605.0
21
65737.0
0
ARC
8
BLACK
10
78665.0
20
65737.0
40
60.0
50
360.0
51
540.0
0
ARC
8
BLACK
10
78665.0
20
28737.0
40
60.0
50
180.0
51
360.0
0
LINE
8
BLACK
10
75665.0
20
28677.0
11
78665.0
21
28677.0
0
LINE
8
BLACK
10
75665.0
20
28797.0
11
78665.0
21
28797.0
0
ARC
8
BLACK
10
78665.0
20
28737.0
40
60.0
50
270.0
51
450.0
0
ARC
8
BLACK
10
75665.0
20
28737.0
40
60.0
50
90.0
51
270.0
0
LINE
8
BLACK
10
75665.0
20
65677.0
11
78665.0
21
65677.0
0
LINE
8
BLACK
10
75665.0
20
65797.0
11
78665.0
21
65797.0
0
ARC
8
BLACK
10
78665.0
20
65737.0
40
60.0
50
270.0
51
450.0
0
ARC
8
BLACK
10
75665.0
20
65737.0
40
60.0
50
90.0
51
270.0
0
LINE
8
BLACK
10
75665.0
20
63677.0
11
78665.0
21
63677.0
0
LINE
8
BLACK
10
75665.0
20
63797.0
11
78665.0
21
63797.0
0
ARC
8
BLACK
10
78665.0
20
63737.0
40
60.0
50
270.0
51
450.0
0
ARC
8
BLACK
10
75665.0
20
63737.0
40
60.0
50
90.0
51
270.0
0
LINE
8
BLACK
10
75665.0
20
30677.0
11
78665.0
21
30677.0
0
LINE
8
BLACK
10
75665.0
20
30797.0
11
78665.0
21
30797.0
0
ARC
8
BLACK
10
78665.0
20
30737.0
40
60.0
50
270.0
51
450.0
0
ARC
8
BLACK
10
75665.0
20
30737.0
40
60.0
50
90.0
51
270.0
0
LINE
8
BLACK
10
75725.0
20
28737.0
11
75725.0
21
65737.0
0
LINE
8
BLACK
10
75605.0
20
28737.0
11
75605.0
21
65737.0
0
ARC
8
BLACK
10
75665.0
20
65737.0
40
60.0
50
360.0
51
540.0
0
ARC
8
BLACK
10
75665.0
20
28737.0
40
60.0
50
180.0
51
360.0
0
CIRCLE
8
BLACK
10
43701.0
20
48024.0
40
1250
0
CIRCLE
8
BLACK
10
39370.0
20
51961.0
40
1250
0
CIRCLE
8
BLACK
10
46851.0
20
57867.0
40
1250
0
CIRCLE
8
BLACK
10
47244.0
20
44875.0
40
1250
0
CIRCLE
8
BLACK
10
39370.0
20
54717.0
40
1250
0
CIRCLE
8
BLACK
10
39370.0
20
57867.0
40
1250
0
CIRCLE
8
BLACK
10
39370.0
20
41725.0
40
1250
0
CIRCLE
8
BLACK
10
39370.0
20
44875.0
40
1250
0
LINE
8
BLACK
10
22134.0
20
41824.0
11
21734.0
21
41824.0
0
LINE
8
BLACK
10
21734.0
20
41824.0
11
21734.0
21
41977.0
0
LINE
8
BLACK
10
21734.0
20
41977.0
11
21753.0
21
42015.0
0
LINE
8
BLACK
10
21753.0
20
42015.0
11
21772.0
21
42034.0
0
LINE
8
BLACK
10
21772.0
20
42034.0
11
21810.0
21
42053.0
0
LINE
8
BLACK
10
21810.0
20
42053.0
11
21867.0
21
42053.0
0
LINE
8
BLACK
10
21867.0
20
42053.0
11
21905.0
21
42034.0
0
LINE
8
BLACK
10
21905.0
20
42034.0
11
21924.0
21
42015.0
0
LINE
8
BLACK
10
21924.0
20
42015.0
11
21943.0
21
41977.0
0
LINE
8
BLACK
10
21943.0
20
41977.0
11
21943.0
21
41824.0
0
LINE
8
BLACK
10
21867.0
20
42396.0
11
22134.0
21
42396.0
0
LINE
8
BLACK
10
21715.0
20
42300.0
11
22001.0
21
42205.0
0
LINE
8
BLACK
10
22001.0
20
42205.0
11
22001.0
21
42453.0
0
LINE
8
BLACK
10
22134.0
20
32769.0
11
21734.0
21
32769.0
0
LINE
8
BLACK
10
21734.0
20
32769.0
11
21734.0
21
32922.0
0
LINE
8
BLACK
10
21734.0
20
32922.0
11
21753.0
21
32960.0
0
LINE
8
BLACK
10
21753.0
20
32960.0
11
21772.0
21
32979.0
0
LINE
8
BLACK
10
21772.0
20
32979.0
11
21810.0
21
32998.0
0
LINE
8
BLACK
10
21810.0
20
32998.0
11
21867.0
21
32998.0
0
LINE
8
BLACK
10
21867.0
20
32998.0
11
21905.0
21
32979.0
0
LINE
8
BLACK
10
21905.0
20
32979.0
11
21924.0
21
32960.0
0
LINE
8
BLACK
10
21924.0
20
32960.0
11
21943.0
21
32922.0
0
LINE
8
BLACK
10
21943.0
20
32922.0
11
21943.0
21
32769.0
0
LINE
8
BLACK
10
21734.0
20
33131.0
11
21734.0
21
33379.0
0
LINE
8
BLACK
10
21734.0
20
33379.0
11
21886.0
21
33245.0
0
LINE
8
BLACK
10
21886.0
20
33245.0
11
21886.0
21
33303.0
0
LINE
8
BLACK
10
21886.0
20
33303.0
11
21905.0
21
33341.0
0
LINE
8
BLACK
10
21905.0
20
33341.0
11
21924.0
21
33360.0
0
LINE
8
BLACK
10
21924.0
20
33360.0
11
21962.0
21
33379.0
0
LINE
8
BLACK
10
21962.0
20
33379.0
11
22058.0
21
33379.0
0
LINE
8
BLACK
10
22058.0
20
33379.0
11
22096.0
21
33360.0
0
LINE
8
BLACK
10
22096.0
20
33360.0
11
22115.0
21
33341.0
0
LINE
8
BLACK
10
22115.0
20
33341.0
11
22134.0
21
33303.0
0
LINE
8
BLACK
10
22134.0
20
33303.0
11
22134.0
21
33188.0
0
LINE
8
BLACK
10
22134.0
20
33188.0
11
22115.0
21
33150.0
0
LINE
8
BLACK
10
22115.0
20
33150.0
11
22096.0
21
33131.0
0
LINE
8
BLACK
10
22134.0
20
52060.0
11
21734.0
21
52060.0
0
LINE
8
BLACK
10
21734.0
20
52060.0
11
21734.0
21
52213.0
0
LINE
8
BLACK
10
21734.0
20
52213.0
11
21753.0
21
52251.0
0
LINE
8
BLACK
10
21753.0
20
52251.0
11
21772.0
21
52270.0
0
LINE
8
BLACK
10
21772.0
20
52270.0
11
21810.0
21
52289.0
0
LINE
8
BLACK
10
21810.0
20
52289.0
11
21867.0
21
52289.0
0
LINE
8
BLACK
10
21867.0
20
52289.0
11
21905.0
21
52270.0
0
LINE
8
BLACK
10
21905.0
20
52270.0
11
21924.0
21
52251.0
0
LINE
8
BLACK
10
21924.0
20
52251.0
11
21943.0
21
52213.0
0
LINE
8
BLACK
10
21943.0
20
52213.0
11
21943.0
21
52060.0
0
LINE
8
BLACK
10
21772.0
20
52441.0
11
21753.0
21
52460.0
0
LINE
8
BLACK
10
21753.0
20
52460.0
11
21734.0
21
52498.0
0
LINE
8
BLACK
10
21734.0
20
52498.0
11
21734.0
21
52594.0
0
LINE
8
BLACK
10
21734.0
20
52594.0
11
21753.0
21
52632.0
0
LINE
8
BLACK
10
21753.0
20
52632.0
11
21772.0
21
52651.0
0
LINE
8
BLACK
10
21772.0
20
52651.0
11
21810.0
21
52670.0
0
LINE
8
BLACK
10
21810.0
20
52670.0
11
21848.0
21
52670.0
0
LINE
8
BLACK
10
21848.0
20
52670.0
11
21905.0
21
52651.0
0
LINE
8
BLACK
10
21905.0
20
52651.0
11
22134.0
21
52422.0
0
LINE
8
BLACK
10
22134.0
20
52422.0
11
22134.0
21
52670.0
0
LINE
8
BLACK
10
22134.0
20
61115.0
11
21734.0
21
61115.0
0
LINE
8
BLACK
10
21734.0
20
61115.0
11
21734.0
21
61268.0
0
LINE
8
BLACK
10
21734.0
20
61268.0
11
21753.0
21
61306.0
0
LINE
8
BLACK
10
21753.0
20
61306.0
11
21772.0
21
61325.0
0
LINE
8
BLACK
10
21772.0
20
61325.0
11
21810.0
21
61344.0
0
LINE
8
BLACK
10
21810.0
20
61344.0
11
21867.0
21
61344.0
0
LINE
8
BLACK
10
21867.0
20
61344.0
11
21905.0
21
61325.0
0
LINE
8
BLACK
10
21905.0
20
61325.0
11
21924.0
21
61306.0
0
LINE
8
BLACK
10
21924.0
20
61306.0
11
21943.0
21
61268.0
0
LINE
8
BLACK
10
21943.0
20
61268.0
11
21943.0
21
61115.0
0
LINE
8
BLACK
10
22134.0
20
61725.0
11
22134.0
21
61496.0
0
LINE
8
BLACK
10
22134.0
20
61610.0
11
21734.0
21
61610.0
0
LINE
8
BLACK
10
21734.0
20
61610.0
11
21791.0
21
61572.0
0
LINE
8
BLACK
10
21791.0
20
61572.0
11
21829.0
21
61534.0
0
LINE
8
BLACK
10
21829.0
20
61534.0
11
21848.0
21
61496.0
0
LINE
8
BLACK
10
61326.0
20
44232.0
11
61726.0
21
43632.0
0
LINE
8
BLACK
10
61726.0
20
44232.0
11
61326.0
21
43632.0
0
LINE
8
BLACK
10
62268.0
20
43632.0
11
61925.0
21
43632.0
0
LINE
8
BLACK
10
62097.0
20
43632.0
11
62097.0
21
44232.0
0
LINE
8
BLACK
10
62097.0
20
44232.0
11
62040.0
21
44146.0
0
LINE
8
BLACK
10
62040.0
20
44146.0
11
61982.0
21
44089.0
0
LINE
8
BLACK
10
61982.0
20
44089.0
11
61925.0
21
44061.0
0
LINE
8
BLACK
10
60176.0
20
45689.0
11
60147.0
21
45661.0
0
LINE
8
BLACK
10
60147.0
20
45661.0
11
60061.0
21
45632.0
0
LINE
8
BLACK
10
60061.0
20
45632.0
11
60004.0
21
45632.0
0
LINE
8
BLACK
10
60004.0
20
45632.0
11
59919.0
21
45661.0
0
LINE
8
BLACK
10
59919.0
20
45661.0
11
59861.0
21
45718.0
0
LINE
8
BLACK
10
59861.0
20
45718.0
11
59833.0
21
45775.0
0
LINE
8
BLACK
10
59833.0
20
45775.0
11
59804.0
21
45889.0
0
LINE
8
BLACK
10
59804.0
20
45889.0
11
59804.0
21
45975.0
0
LINE
8
BLACK
10
59804.0
20
45975.0
11
59833.0
21
46089.0
0
LINE
8
BLACK
10
59833.0
20
46089.0
11
59861.0
21
46146.0
0
LINE
8
BLACK
10
59861.0
20
46146.0
11
59919.0
21
46204.0
0
LINE
8
BLACK
10
59919.0
20
46204.0
11
60004.0
21
46232.0
0
LINE
8
BLACK
10
60004.0
20
46232.0
11
60061.0
21
46232.0
0
LINE
8
BLACK
10
60061.0
20
46232.0
11
60147.0
21
46204.0
0
LINE
8
BLACK
10
60147.0
20
46204.0
11
60176.0
21
46175.0
0
LINE
8
BLACK
10
60776.0
20
45632.0
11
60576.0
21
45918.0
0
LINE
8
BLACK
10
60433.0
20
45632.0
11
60433.0
21
46232.0
0
LINE
8
BLACK
10
60433.0
20
46232.0
11
60661.0
21
46232.0
0
LINE
8
BLACK
10
60661.0
20
46232.0
11
60719.0
21
46204.0
0
LINE
8
BLACK
10
60719.0
20
46204.0
11
60747.0
21
46175.0
0
LINE
8
BLACK
10
60747.0
20
46175.0
11
60776.0
21
46118.0
0
LINE
8
BLACK
10
60776.0
20
46118.0
11
60776.0
21
46032.0
0
LINE
8
BLACK
10
60776.0
20
46032.0
11
60747.0
21
45975.0
0
LINE
8
BLACK
10
60747.0
20
45975.0
11
60719.0
21
45946.0
0
LINE
8
BLACK
10
60719.0
20
45946.0
11
60661.0
21
45918.0
0
LINE
8
BLACK
10
60661.0
20
45918.0
11
60433.0
21
45918.0
0
LINE
8
BLACK
10
61147.0
20
45918.0
11
61147.0
21
45632.0
0
LINE
8
BLACK
10
60947.0
20
46232.0
11
61147.0
21
45918.0
0
LINE
8
BLACK
10
61147.0
20
45918.0
11
61347.0
21
46232.0
0
LINE
8
BLACK
10
61518.0
20
45661.0
11
61604.0
21
45632.0
0
LINE
8
BLACK
10
61604.0
20
45632.0
11
61747.0
21
45632.0
0
LINE
8
BLACK
10
61747.0
20
45632.0
11
61804.0
21
45661.0
0
LINE
8
BLACK
10
61804.0
20
45661.0
11
61833.0
21
45689.0
0
LINE
8
BLACK
10
61833.0
20
45689.0
11
61861.0
21
45746.0
0
LINE
8
BLACK
10
61861.0
20
45746.0
11
61861.0
21
45804.0
0
LINE
8
BLACK
10
61861.0
20
45804.0
11
61833.0
21
45861.0
0
LINE
8
BLACK
10
61833.0
20
45861.0
11
61804.0
21
45889.0
0
LINE
8
BLACK
10
61804.0
20
45889.0
11
61747.0
21
45918.0
0
LINE
8
BLACK
10
61747.0
20
45918.0
11
61633.0
21
45946.0
0
LINE
8
BLACK
10
61633.0
20
45946.0
11
61575.0
21
45975.0
0
LINE
8
BLACK
10
61575.0
20
45975.0
11
61547.0
21
46004.0
0
LINE
8
BLACK
10
61547.0
20
46004.0
11
61518.0
21
46061.0
0
LINE
8
BLACK
10
61518.0
20
46061.0
11
61518.0
21
46118.0
0
LINE
8
BLACK
10
61518.0
20
46118.0
11
61547.0
21
46175.0
0
LINE
8
BLACK
10
61547.0
20
46175.0
11
61575.0
21
46204.0
0
LINE
8
BLACK
10
61575.0
20
46204.0
11
61633.0
21
46232.0
0
LINE
8
BLACK
10
61633.0
20
46232.0
11
61775.0
21
46232.0
0
LINE
8
BLACK
10
61775.0
20
46232.0
11
61861.0
21
46204.0
0
LINE
8
BLACK
10
62032.0
20
46232.0
11
62375.0
21
46232.0
0
LINE
8
BLACK
10
62204.0
20
45632.0
11
62204.0
21
46232.0
0
LINE
8
BLACK
10
62546.0
20
45804.0
11
62832.0
21
45804.0
0
LINE
8
BLACK
10
62489.0
20
45632.0
11
62689.0
21
46232.0
0
LINE
8
BLACK
10
62689.0
20
46232.0
11
62889.0
21
45632.0
0
LINE
8
BLACK
10
63375.0
20
45632.0
11
63089.0
21
45632.0
0
LINE
8
BLACK
10
63089.0
20
45632.0
11
63089.0
21
46232.0
0
LINE
8
BLACK
10
71074.0
20
54298.0
11
70374.0
21
54298.0
0
LINE
8
BLACK
10
71008.0
20
54769.0
11
71041.0
21
54748.0
0
LINE
8
BLACK
10
71041.0
20
54748.0
11
71074.0
21
54684.0
0
LINE
8
BLACK
10
71074.0
20
54684.0
11
71074.0
21
54641.0
0
LINE
8
BLACK
10
71074.0
20
54641.0
11
71041.0
21
54576.0
0
LINE
8
BLACK
10
71041.0
20
54576.0
11
70974.0
21
54534.0
0
LINE
8
BLACK
10
70974.0
20
54534.0
11
70908.0
21
54512.0
0
LINE
8
BLACK
10
70908.0
20
54512.0
11
70774.0
21
54491.0
0
LINE
8
BLACK
10
70774.0
20
54491.0
11
70674.0
21
54491.0
0
LINE
8
BLACK
10
70674.0
20
54491.0
11
70541.0
21
54512.0
0
LINE
8
BLACK
10
70541.0
20
54512.0
11
70474.0
21
54534.0
0
LINE
8
BLACK
10
70474.0
20
54534.0
11
70408.0
21
54576.0
0
LINE
8
BLACK
10
70408.0
20
54576.0
11
70374.0
21
54641.0
0
LINE
8
BLACK
10
70374.0
20
54641.0
11
70374.0
21
54684.0
0
LINE
8
BLACK
10
70374.0
20
54684.0
11
70408.0
21
54748.0
0
LINE
8
BLACK
10
70408.0
20
54748.0
11
70441.0
21
54769.0
0
LINE
8
BLACK
10
71074.0
20
55198.0
11
71074.0
21
54941.0
0
LINE
8
BLACK
10
71074.0
20
55069.0
11
70374.0
21
55069.0
0
LINE
8
BLACK
10
70374.0
20
55069.0
11
70474.0
21
55026.0
0
LINE
8
BLACK
10
70474.0
20
55026.0
11
70541.0
21
54984.0
0
LINE
8
BLACK
10
70541.0
20
54984.0
11
70574.0
21
54941.0
0
LINE
8
BLACK
10
68374.0
20
37853.0
11
68374.0
21
38187.0
0
LINE
8
BLACK
10
68574.0
20
37787.0
11
67874.0
21
38020.0
0
LINE
8
BLACK
10
67874.0
20
38020.0
11
68574.0
21
38253.0
0
LINE
8
BLACK
10
67874.0
20
38387.0
11
67874.0
21
38787.0
0
LINE
8
BLACK
10
68574.0
20
38587.0
11
67874.0
21
38587.0
0
LINE
8
BLACK
10
68574.0
20
39020.0
11
67874.0
21
39020.0
0
LINE
8
BLACK
10
67874.0
20
39020.0
11
68374.0
21
39253.0
0
LINE
8
BLACK
10
68374.0
20
39253.0
11
67874.0
21
39486.0
0
LINE
8
BLACK
10
67874.0
20
39486.0
11
68574.0
21
39486.0
0
LINE
8
BLACK
10
68208.0
20
39820.0
11
68208.0
21
40053.0
0
LINE
8
BLACK
10
68574.0
20
40153.0
11
68574.0
21
39820.0
0
LINE
8
BLACK
10
68574.0
20
39820.0
11
67874.0
21
39820.0
0
LINE
8
BLACK
10
67874.0
20
39820.0
11
67874.0
21
40153.0
0
LINE
8
BLACK
10
67908.0
20
40819.0
11
67874.0
21
40753.0
0
LINE
8
BLACK
10
67874.0
20
40753.0
11
67874.0
21
40653.0
0
LINE
8
BLACK
10
67874.0
20
40653.0
11
67908.0
21
40553.0
0
LINE
8
BLACK
10
67908.0
20
40553.0
11
67974.0
21
40486.0
0
LINE
8
BLACK
10
67974.0
20
40486.0
11
68041.0
21
40453.0
0
LINE
8
BLACK
10
68041.0
20
40453.0
11
68174.0
21
40419.0
0
LINE
8
BLACK
10
68174.0
20
40419.0
11
68274.0
21
40419.0
0
LINE
8
BLACK
10
68274.0
20
40419.0
11
68408.0
21
40453.0
0
LINE
8
BLACK
10
68408.0
20
40453.0
11
68474.0
21
40486.0
0
LINE
8
BLACK
10
68474.0
20
40486.0
11
68541.0
21
40553.0
0
LINE
8
BLACK
10
68541.0
20
40553.0
11
68574.0
21
40653.0
0
LINE
8
BLACK
10
68574.0
20
40653.0
11
68574.0
21
40719.0
0
LINE
8
BLACK
10
68574.0
20
40719.0
11
68541.0
21
40819.0
0
LINE
8
BLACK
10
68541.0
20
40819.0
11
68508.0
21
40853.0
0
LINE
8
BLACK
10
68508.0
20
40853.0
11
68274.0
21
40853.0
0
LINE
8
BLACK
10
68274.0
20
40853.0
11
68274.0
21
40719.0
0
LINE
8
BLACK
10
68374.0
20
41119.0
11
68374.0
21
41453.0
0
LINE
8
BLACK
10
68574.0
20
41053.0
11
67874.0
21
41286.0
0
LINE
8
BLACK
10
67874.0
20
41286.0
11
68574.0
21
41519.0
0
LINE
8
BLACK
10
67874.0
20
41686.0
11
67874.0
21
42119.0
0
LINE
8
BLACK
10
67874.0
20
42119.0
11
68141.0
21
41886.0
0
LINE
8
BLACK
10
68141.0
20
41886.0
11
68141.0
21
41986.0
0
LINE
8
BLACK
10
68141.0
20
41986.0
11
68174.0
21
42053.0
0
LINE
8
BLACK
10
68174.0
20
42053.0
11
68208.0
21
42086.0
0
LINE
8
BLACK
10
68208.0
20
42086.0
11
68274.0
21
42119.0
0
LINE
8
BLACK
10
68274.0
20
42119.0
11
68441.0
21
42119.0
0
LINE
8
BLACK
10
68441.0
20
42119.0
11
68508.0
21
42086.0
0
LINE
8
BLACK
10
68508.0
20
42086.0
11
68541.0
21
42053.0
0
LINE
8
BLACK
10
68541.0
20
42053.0
11
68574.0
21
41986.0
0
LINE
8
BLACK
10
68574.0
20
41986.0
11
68574.0
21
41786.0
0
LINE
8
BLACK
10
68574.0
20
41786.0
11
68541.0
21
41719.0
0
LINE
8
BLACK
10
68541.0
20
41719.0
11
68508.0
21
41686.0
0
LINE
8
BLACK
10
67941.0
20
42386.0
11
67908.0
21
42420.0
0
LINE
8
BLACK
10
67908.0
20
42420.0
11
67874.0
21
42486.0
0
LINE
8
BLACK
10
67874.0
20
42486.0
11
67874.0
21
42653.0
0
LINE
8
BLACK
10
67874.0
20
42653.0
11
67908.0
21
42720.0
0
LINE
8
BLACK
10
67908.0
20
42720.0
11
67941.0
21
42753.0
0
LINE
8
BLACK
10
67941.0
20
42753.0
11
68008.0
21
42786.0
0
LINE
8
BLACK
10
68008.0
20
42786.0
11
68074.0
21
42786.0
0
LINE
8
BLACK
10
68074.0
20
42786.0
11
68174.0
21
42753.0
0
LINE
8
BLACK
10
68174.0
20
42753.0
11
68574.0
21
42353.0
0
LINE
8
BLACK
10
68574.0
20
42353.0
11
68574.0
21
42786.0
0
LINE
8
BLACK
10
68108.0
20
43387.0
11
68574.0
21
43387.0
0
LINE
8
BLACK
10
67841.0
20
43220.0
11
68341.0
21
43053.0
0
LINE
8
BLACK
10
68341.0
20
43053.0
11
68341.0
21
43487.0
0
LINE
8
BLACK
10
68374.0
20
43720.0
11
68374.0
21
44054.0
0
LINE
8
BLACK
10
68574.0
20
43654.0
11
67874.0
21
43887.0
0
LINE
8
BLACK
10
67874.0
20
43887.0
11
68574.0
21
44120.0
0
LINE
8
BLACK
10
68308.0
20
44354.0
11
68308.0
21
44887.0
0
LINE
8
BLACK
10
68574.0
20
45221.0
11
67874.0
21
45221.0
0
LINE
8
BLACK
10
67874.0
20
45221.0
11
67874.0
21
45487.0
0
LINE
8
BLACK
10
67874.0
20
45487.0
11
67908.0
21
45554.0
0
LINE
8
BLACK
10
67908.0
20
45554.0
11
67941.0
21
45587.0
0
LINE
8
BLACK
10
67941.0
20
45587.0
11
68008.0
21
45621.0
0
LINE
8
BLACK
10
68008.0
20
45621.0
11
68108.0
21
45621.0
0
LINE
8
BLACK
10
68108.0
20
45621.0
11
68174.0
21
45587.0
0
LINE
8
BLACK
10
68174.0
20
45587.0
11
68208.0
21
45554.0
0
LINE
8
BLACK
10
68208.0
20
45554.0
11
68241.0
21
45487.0
0
LINE
8
BLACK
10
68241.0
20
45487.0
11
68241.0
21
45221.0
0
LINE
8
BLACK
10
43844.0
20
43882.0
11
44330.0
21
43882.0
0
LINE
8
BLACK
10
44330.0
20
43882.0
11
44387.0
21
43904.0
0
LINE
8
BLACK
10
44387.0
20
43904.0
11
44415.0
21
43925.0
0
LINE
8
BLACK
10
44415.0
20
43925.0
11
44444.0
21
43968.0
0
LINE
8
BLACK
10
44444.0
20
43968.0
11
44444.0
21
44054.0
0
LINE
8
BLACK
10
44444.0
20
44054.0
11
44415.0
21
44096.0
0
LINE
8
BLACK
10
44415.0
20
44096.0
11
44387.0
21
44118.0
0
LINE
8
BLACK
10
44387.0
20
44118.0
11
44330.0
21
44139.0
0
LINE
8
BLACK
10
44330.0
20
44139.0
11
43844.0
21
44139.0
0
LINE
8
BLACK
10
44444.0
20
44589.0
11
44444.0
21
44332.0
0
LINE
8
BLACK
10
44444.0
20
44460.0
11
43844.0
21
44460.0
0
LINE
8
BLACK
10
43844.0
20
44460.0
11
43930.0
21
44417.0
0
LINE
8
BLACK
10
43930.0
20
44417.0
11
43987.0
21
44375.0
0
LINE
8
BLACK
10
43987.0
20
44375.0
11
44015.0
21
44332.0
0
LINE
8
BLACK
10
43444.0
20
39524.0
11
42844.0
21
39524.0
0
LINE
8
BLACK
10
42844.0
20
39524.0
11
43272.0
21
39674.0
0
LINE
8
BLACK
10
43272.0
20
39674.0
11
42844.0
21
39824.0
0
LINE
8
BLACK
10
42844.0
20
39824.0
11
43444.0
21
39824.0
0
LINE
8
BLACK
10
43272.0
20
40017.0
11
43272.0
21
40231.0
0
LINE
8
BLACK
10
43444.0
20
39974.0
11
42844.0
21
40124.0
0
LINE
8
BLACK
10
42844.0
20
40124.0
11
43444.0
21
40274.0
0
LINE
8
BLACK
10
42844.0
20
40381.0
11
43444.0
21
40681.0
0
LINE
8
BLACK
10
42844.0
20
40681.0
11
43444.0
21
40381.0
0
LINE
8
BLACK
10
42901.0
20
40832.0
11
42872.0
21
40853.0
0
LINE
8
BLACK
10
42872.0
20
40853.0
11
42844.0
21
40896.0
0
LINE
8
BLACK
10
42844.0
20
40896.0
11
42844.0
21
41003.0
0
LINE
8
BLACK
10
42844.0
20
41003.0
11
42872.0
21
41046.0
0
LINE
8
BLACK
10
42872.0
20
41046.0
11
42901.0
21
41067.0
0
LINE
8
BLACK
10
42901.0
20
41067.0
11
42958.0
21
41089.0
0
LINE
8
BLACK
10
42958.0
20
41089.0
11
43015.0
21
41089.0
0
LINE
8
BLACK
10
43015.0
20
41089.0
11
43101.0
21
41067.0
0
LINE
8
BLACK
10
43101.0
20
41067.0
11
43444.0
21
40810.0
0
LINE
8
BLACK
10
43444.0
20
40810.0
11
43444.0
21
41089.0
0
LINE
8
BLACK
10
42844.0
20
41239.0
11
42844.0
21
41518.0
0
LINE
8
BLACK
10
42844.0
20
41518.0
11
43072.0
21
41368.0
0
LINE
8
BLACK
10
43072.0
20
41368.0
11
43072.0
21
41432.0
0
LINE
8
BLACK
10
43072.0
20
41432.0
11
43101.0
21
41475.0
0
LINE
8
BLACK
10
43101.0
20
41475.0
11
43130.0
21
41496.0
0
LINE
8
BLACK
10
43130.0
20
41496.0
11
43187.0
21
41518.0
0
LINE
8
BLACK
10
43187.0
20
41518.0
11
43330.0
21
41518.0
0
LINE
8
BLACK
10
43330.0
20
41518.0
11
43387.0
21
41496.0
0
LINE
8
BLACK
10
43387.0
20
41496.0
11
43415.0
21
41475.0
0
LINE
8
BLACK
10
43415.0
20
41475.0
11
43444.0
21
41432.0
0
LINE
8
BLACK
10
43444.0
20
41432.0
11
43444.0
21
41304.0
0
LINE
8
BLACK
10
43444.0
20
41304.0
11
43415.0
21
41261.0
0
LINE
8
BLACK
10
43415.0
20
41261.0
11
43387.0
21
41239.0
0
LINE
8
BLACK
10
42901.0
20
41690.0
11
42872.0
21
41711.0
0
LINE
8
BLACK
10
42872.0
20
41711.0
11
42844.0
21
41754.0
0
LINE
8
BLACK
10
42844.0
20
41754.0
11
42844.0
21
41861.0
0
LINE
8
BLACK
10
42844.0
20
41861.0
11
42872.0
21
41904.0
0
LINE
8
BLACK
10
42872.0
20
41904.0
11
42901.0
21
41925.0
0
LINE
8
BLACK
10
42901.0
20
41925.0
11
42958.0
21
41947.0
0
LINE
8
BLACK
10
42958.0
20
41947.0
11
43015.0
21
41947.0
0
LINE
8
BLACK
10
43015.0
20
41947.0
11
43101.0
21
41925.0
0
LINE
8
BLACK
10
43101.0
20
41925.0
11
43444.0
21
41668.0
0
LINE
8
BLACK
10
43444.0
20
41668.0
11
43444.0
21
41947.0
0
LINE
8
BLACK
10
43450.0
20
56874.0
11
43936.0
21
56874.0
0
LINE
8
BLACK
10
43936.0
20
56874.0
11
43993.0
21
56896.0
0
LINE
8
BLACK
10
43993.0
20
56896.0
11
44021.0
21
56917.0
0
LINE
8
BLACK
10
44021.0
20
56917.0
11
44050.0
21
56960.0
0
LINE
8
BLACK
10
44050.0
20
56960.0
11
44050.0
21
57046.0
0
LINE
8
BLACK
10
44050.0
20
57046.0
11
44021.0
21
57088.0
0
LINE
8
BLACK
10
44021.0
20
57088.0
11
43993.0
21
57110.0
0
LINE
8
BLACK
10
43993.0
20
57110.0
11
43936.0
21
57131.0
0
LINE
8
BLACK
10
43936.0
20
57131.0
11
43450.0
21
57131.0
0
LINE
8
BLACK
10
43507.0
20
57324.0
11
43478.0
21
57345.0
0
LINE
8
BLACK
10
43478.0
20
57345.0
11
43450.0
21
57388.0
0
LINE
8
BLACK
10
43450.0
20
57388.0
11
43450.0
21
57495.0
0
LINE
8
BLACK
10
43450.0
20
57495.0
11
43478.0
21
57538.0
0
LINE
8
BLACK
10
43478.0
20
57538.0
11
43507.0
21
57559.0
0
LINE
8
BLACK
10
43507.0
20
57559.0
11
43564.0
21
57581.0
0
LINE
8
BLACK
10
43564.0
20
57581.0
11
43621.0
21
57581.0
0
LINE
8
BLACK
10
43621.0
20
57581.0
11
43707.0
21
57559.0
0
LINE
8
BLACK
10
43707.0
20
57559.0
11
44050.0
21
57302.0
0
LINE
8
BLACK
10
44050.0
20
57302.0
11
44050.0
21
57581.0
0
LINE
8
BLACK
10
43050.0
20
52516.0
11
42450.0
21
52516.0
0
LINE
8
BLACK
10
42450.0
20
52516.0
11
42878.0
21
52666.0
0
LINE
8
BLACK
10
42878.0
20
52666.0
11
42450.0
21
52816.0
0
LINE
8
BLACK
10
42450.0
20
52816.0
11
43050.0
21
52816.0
0
LINE
8
BLACK
10
42878.0
20
53009.0
11
42878.0
21
53223.0
0
LINE
8
BLACK
10
43050.0
20
52966.0
11
42450.0
21
53116.0
0
LINE
8
BLACK
10
42450.0
20
53116.0
11
43050.0
21
53266.0
0
LINE
8
BLACK
10
42450.0
20
53373.0
11
43050.0
21
53673.0
0
LINE
8
BLACK
10
42450.0
20
53673.0
11
43050.0
21
53373.0
0
LINE
8
BLACK
10
42507.0
20
53824.0
11
42478.0
21
53845.0
0
LINE
8
BLACK
10
42478.0
20
53845.0
11
42450.0
21
53888.0
0
LINE
8
BLACK
10
42450.0
20
53888.0
11
42450.0
21
53995.0
0
LINE
8
BLACK
10
42450.0
20
53995.0
11
42478.0
21
54038.0
0
LINE
8
BLACK
10
42478.0
20
54038.0
11
42507.0
21
54059.0
0
LINE
8
BLACK
10
42507.0
20
54059.0
11
42564.0
21
54081.0
0
LINE
8
BLACK
10
42564.0
20
54081.0
11
42621.0
21
54081.0
0
LINE
8
BLACK
10
42621.0
20
54081.0
11
42707.0
21
54059.0
0
LINE
8
BLACK
10
42707.0
20
54059.0
11
43050.0
21
53802.0
0
LINE
8
BLACK
10
43050.0
20
53802.0
11
43050.0
21
54081.0
0
LINE
8
BLACK
10
42450.0
20
54231.0
11
42450.0
21
54510.0
0
LINE
8
BLACK
10
42450.0
20
54510.0
11
42678.0
21
54360.0
0
LINE
8
BLACK
10
42678.0
20
54360.0
11
42678.0
21
54424.0
0
LINE
8
BLACK
10
42678.0
20
54424.0
11
42707.0
21
54467.0
0
LINE
8
BLACK
10
42707.0
20
54467.0
11
42736.0
21
54488.0
0
LINE
8
BLACK
10
42736.0
20
54488.0
11
42793.0
21
54510.0
0
LINE
8
BLACK
10
42793.0
20
54510.0
11
42936.0
21
54510.0
0
LINE
8
BLACK
10
42936.0
20
54510.0
11
42993.0
21
54488.0
0
LINE
8
BLACK
10
42993.0
20
54488.0
11
43021.0
21
54467.0
0
LINE
8
BLACK
10
43021.0
20
54467.0
11
43050.0
21
54424.0
0
LINE
8
BLACK
10
43050.0
20
54424.0
11
43050.0
21
54296.0
0
LINE
8
BLACK
10
43050.0
20
54296.0
11
43021.0
21
54253.0
0
LINE
8
BLACK
10
43021.0
20
54253.0
11
42993.0
21
54231.0
0
LINE
8
BLACK
10
42507.0
20
54682.0
11
42478.0
21
54703.0
0
LINE
8
BLACK
10
42478.0
20
54703.0
11
42450.0
21
54746.0
0
LINE
8
BLACK
10
42450.0
20
54746.0
11
42450.0
21
54853.0
0
LINE
8
BLACK
10
42450.0
20
54853.0
11
42478.0
21
54896.0
0
LINE
8
BLACK
10
42478.0
20
54896.0
11
42507.0
21
54917.0
0
LINE
8
BLACK
10
42507.0
20
54917.0
11
42564.0
21
54939.0
0
LINE
8
BLACK
10
42564.0
20
54939.0
11
42621.0
21
54939.0
0
LINE
8
BLACK
10
42621.0
20
54939.0
11
42707.0
21
54917.0
0
LINE
8
BLACK
10
42707.0
20
54917.0
11
43050.0
21
54660.0
0
LINE
8
BLACK
10
43050.0
20
54660.0
11
43050.0
21
54939.0
0
LINE
8
BLACK
10
79698.0
20
55221.0
11
78998.0
21
55221.0
0
LINE
8
BLACK
10
78998.0
20
55221.0
11
78998.0
21
55487.0
0
LINE
8
BLACK
10
78998.0
20
55487.0
11
79032.0
21
55554.0
0
LINE
8
BLACK
10
79032.0
20
55554.0
11
79065.0
21
55587.0
0
LINE
8
BLACK
10
79065.0
20
55587.0
11
79132.0
21
55621.0
0
LINE
8
BLACK
10
79132.0
20
55621.0
11
79232.0
21
55621.0
0
LINE
8
BLACK
10
79232.0
20
55621.0
11
79298.0
21
55587.0
0
LINE
8
BLACK
10
79298.0
20
55587.0
11
79332.0
21
55554.0
0
LINE
8
BLACK
10
79332.0
20
55554.0
11
79365.0
21
55487.0
0
LINE
8
BLACK
10
79365.0
20
55487.0
11
79365.0
21
55221.0
0
LINE
8
BLACK
10
78998.0
20
56254.0
11
78998.0
21
55921.0
0
LINE
8
BLACK
10
78998.0
20
55921.0
11
79332.0
21
55887.0
0
LINE
8
BLACK
10
79332.0
20
55887.0
11
79298.0
21
55921.0
0
LINE
8
BLACK
10
79298.0
20
55921.0
11
79265.0
21
55987.0
0
LINE
8
BLACK
10
79265.0
20
55987.0
11
79265.0
21
56154.0
0
LINE
8
BLACK
10
79265.0
20
56154.0
11
79298.0
21
56221.0
0
LINE
8
BLACK
10
79298.0
20
56221.0
11
79332.0
21
56254.0
0
LINE
8
BLACK
10
79332.0
20
56254.0
11
79398.0
21
56287.0
0
LINE
8
BLACK
10
79398.0
20
56287.0
11
79565.0
21
56287.0
0
LINE
8
BLACK
10
79565.0
20
56287.0
11
79632.0
21
56254.0
0
LINE
8
BLACK
10
79632.0
20
56254.0
11
79665.0
21
56221.0
0
LINE
8
BLACK
10
79665.0
20
56221.0
11
79698.0
21
56154.0
0
LINE
8
BLACK
10
79698.0
20
56154.0
11
79698.0
21
55987.0
0
LINE
8
BLACK
10
79698.0
20
55987.0
11
79665.0
21
55921.0
0
LINE
8
BLACK
10
79665.0
20
55921.0
11
79632.0
21
55887.0
0
LINE
8
BLACK
10
79632.0
20
36637.0
11
79665.0
21
36603.0
0
LINE
8
BLACK
10
79665.0
20
36603.0
11
79698.0
21
36503.0
0
LINE
8
BLACK
10
79698.0
20
36503.0
11
79698.0
21
36437.0
0
LINE
8
BLACK
10
79698.0
20
36437.0
11
79665.0
21
36337.0
0
LINE
8
BLACK
10
79665.0
20
36337.0
11
79598.0
21
36270.0
0
LINE
8
BLACK
10
79598.0
20
36270.0
11
79532.0
21
36237.0
0
LINE
8
BLACK
10
79532.0
20
36237.0
11
79398.0
21
36203.0
0
LINE
8
BLACK
10
79398.0
20
36203.0
11
79298.0
21
36203.0
0
LINE
8
BLACK
10
79298.0
20
36203.0
11
79165.0
21
36237.0
0
LINE
8
BLACK
10
79165.0
20
36237.0
11
79098.0
21
36270.0
0
LINE
8
BLACK
10
79098.0
20
36270.0
11
79032.0
21
36337.0
0
LINE
8
BLACK
10
79032.0
20
36337.0
11
78998.0
21
36437.0
0
LINE
8
BLACK
10
78998.0
20
36437.0
11
78998.0
21
36503.0
0
LINE
8
BLACK
10
78998.0
20
36503.0
11
79032.0
21
36603.0
0
LINE
8
BLACK
10
79032.0
20
36603.0
11
79065.0
21
36637.0
0
LINE
8
BLACK
10
78998.0
20
37237.0
11
78998.0
21
37103.0
0
LINE
8
BLACK
10
78998.0
20
37103.0
11
79032.0
21
37037.0
0
LINE
8
BLACK
10
79032.0
20
37037.0
11
79065.0
21
37003.0
0
LINE
8
BLACK
10
79065.0
20
37003.0
11
79165.0
21
36937.0
0
LINE
8
BLACK
10
79165.0
20
36937.0
11
79298.0
21
36903.0
0
LINE
8
BLACK
10
79298.0
20
36903.0
11
79565.0
21
36903.0
0
LINE
8
BLACK
10
79565.0
20
36903.0
11
79632.0
21
36937.0
0
LINE
8
BLACK
10
79632.0
20
36937.0
11
79665.0
21
36970.0
0
LINE
8
BLACK
10
79665.0
20
36970.0
11
79698.0
21
37037.0
0
LINE
8
BLACK
10
79698.0
20
37037.0
11
79698.0
21
37170.0
0
LINE
8
BLACK
10
79698.0
20
37170.0
11
79665.0
21
37237.0
0
LINE
8
BLACK
10
79665.0
20
37237.0
11
79632.0
21
37270.0
0
LINE
8
BLACK
10
79632.0
20
37270.0
11
79565.0
21
37303.0
0
LINE
8
BLACK
10
79565.0
20
37303.0
11
79398.0
21
37303.0
0
LINE
8
BLACK
10
79398.0
20
37303.0
11
79332.0
21
37270.0
0
LINE
8
BLACK
10
79332.0
20
37270.0
11
79298.0
21
37237.0
0
LINE
8
BLACK
10
79298.0
20
37237.0
11
79265.0
21
37170.0
0
LINE
8
BLACK
10
79265.0
20
37170.0
11
79265.0
21
37037.0
0
LINE
8
BLACK
10
79265.0
20
37037.0
11
79298.0
21
36970.0
0
LINE
8
BLACK
10
79298.0
20
36970.0
11
79332.0
21
36937.0
0
LINE
8
BLACK
10
79332.0
20
36937.0
11
79398.0
21
36903.0
0
LINE
8
BLACK
10
79232.0
20
37904.0
11
79698.0
21
37904.0
0
LINE
8
BLACK
10
78965.0
20
37737.0
11
79465.0
21
37570.0
0
LINE
8
BLACK
10
79465.0
20
37570.0
11
79465.0
21
38004.0
0
LINE
8
BLACK
10
79498.0
20
38237.0
11
79498.0
21
38571.0
0
LINE
8
BLACK
10
79698.0
20
38171.0
11
78998.0
21
38404.0
0
LINE
8
BLACK
10
78998.0
20
38404.0
11
79698.0
21
38637.0
0
LINE
8
BLACK
10
79632.0
20
39271.0
11
79665.0
21
39237.0
0
LINE
8
BLACK
10
79665.0
20
39237.0
11
79698.0
21
39137.0
0
LINE
8
BLACK
10
79698.0
20
39137.0
11
79698.0
21
39071.0
0
LINE
8
BLACK
10
79698.0
20
39071.0
11
79665.0
21
38971.0
0
LINE
8
BLACK
10
79665.0
20
38971.0
11
79598.0
21
38904.0
0
LINE
8
BLACK
10
79598.0
20
38904.0
11
79532.0
21
38871.0
0
LINE
8
BLACK
10
79532.0
20
38871.0
11
79398.0
21
38837.0
0
LINE
8
BLACK
10
79398.0
20
38837.0
11
79298.0
21
38837.0
0
LINE
8
BLACK
10
79298.0
20
38837.0
11
79165.0
21
38871.0
0
LINE
8
BLACK
10
79165.0
20
38871.0
11
79098.0
21
38904.0
0
LINE
8
BLACK
10
79098.0
20
38904.0
11
79032.0
21
38971.0
0
LINE
8
BLACK
10
79032.0
20
38971.0
11
78998.0
21
39071.0
0
LINE
8
BLACK
10
78998.0
20
39071.0
11
78998.0
21
39137.0
0
LINE
8
BLACK
10
78998.0
20
39137.0
11
79032.0
21
39237.0
0
LINE
8
BLACK
10
79032.0
20
39237.0
11
79065.0
21
39271.0
0
LINE
8
BLACK
10
43240.0
20
47966.0
11
43262.0
21
47950.0
0
LINE
8
BLACK
10
43262.0
20
47950.0
11
43283.0
21
47900.0
0
LINE
8
BLACK
10
43283.0
20
47900.0
11
43283.0
21
47866.0
0
LINE
8
BLACK
10
43283.0
20
47866.0
11
43262.0
21
47816.0
0
LINE
8
BLACK
10
43262.0
20
47816.0
11
43219.0
21
47783.0
0
LINE
8
BLACK
10
43219.0
20
47783.0
11
43176.0
21
47766.0
0
LINE
8
BLACK
10
43176.0
20
47766.0
11
43090.0
21
47750.0
0
LINE
8
BLACK
10
43090.0
20
47750.0
11
43026.0
21
47750.0
0
LINE
8
BLACK
10
43026.0
20
47750.0
11
42940.0
21
47766.0
0
LINE
8
BLACK
10
42940.0
20
47766.0
11
42897.0
21
47783.0
0
LINE
8
BLACK
10
42897.0
20
47783.0
11
42855.0
21
47816.0
0
LINE
8
BLACK
10
42855.0
20
47816.0
11
42833.0
21
47866.0
0
LINE
8
BLACK
10
42833.0
20
47866.0
11
42833.0
21
47900.0
0
LINE
8
BLACK
10
42833.0
20
47900.0
11
42855.0
21
47950.0
0
LINE
8
BLACK
10
42855.0
20
47950.0
11
42876.0
21
47966.0
0
LINE
8
BLACK
10
42833.0
20
48083.0
11
42833.0
21
48316.0
0
LINE
8
BLACK
10
42833.0
20
48316.0
11
43283.0
21
48166.0
0
LINE
8
BLACK
10
44440.0
20
47791.0
11
44462.0
21
47775.0
0
LINE
8
BLACK
10
44462.0
20
47775.0
11
44483.0
21
47725.0
0
LINE
8
BLACK
10
44483.0
20
47725.0
11
44483.0
21
47691.0
0
LINE
8
BLACK
10
44483.0
20
47691.0
11
44462.0
21
47641.0
0
LINE
8
BLACK
10
44462.0
20
47641.0
11
44419.0
21
47608.0
0
LINE
8
BLACK
10
44419.0
20
47608.0
11
44376.0
21
47591.0
0
LINE
8
BLACK
10
44376.0
20
47591.0
11
44290.0
21
47575.0
0
LINE
8
BLACK
10
44290.0
20
47575.0
11
44226.0
21
47575.0
0
LINE
8
BLACK
10
44226.0
20
47575.0
11
44140.0
21
47591.0
0
LINE
8
BLACK
10
44140.0
20
47591.0
11
44097.0
21
47608.0
0
LINE
8
BLACK
10
44097.0
20
47608.0
11
44055.0
21
47641.0
0
LINE
8
BLACK
10
44055.0
20
47641.0
11
44033.0
21
47691.0
0
LINE
8
BLACK
10
44033.0
20
47691.0
11
44033.0
21
47725.0
0
LINE
8
BLACK
10
44033.0
20
47725.0
11
44055.0
21
47775.0
0
LINE
8
BLACK
10
44055.0
20
47775.0
11
44076.0
21
47791.0
0
LINE
8
BLACK
10
44483.0
20
47941.0
11
44033.0
21
47941.0
0
LINE
8
BLACK
10
44033.0
20
47941.0
11
44033.0
21
48075.0
0
LINE
8
BLACK
10
44033.0
20
48075.0
11
44055.0
21
48108.0
0
LINE
8
BLACK
10
44055.0
20
48108.0
11
44076.0
21
48125.0
0
LINE
8
BLACK
10
44076.0
20
48125.0
11
44119.0
21
48141.0
0
LINE
8
BLACK
10
44119.0
20
48141.0
11
44183.0
21
48141.0
0
LINE
8
BLACK
10
44183.0
20
48141.0
11
44226.0
21
48125.0
0
LINE
8
BLACK
10
44226.0
20
48125.0
11
44247.0
21
48108.0
0
LINE
8
BLACK
10
44247.0
20
48108.0
11
44269.0
21
48075.0
0
LINE
8
BLACK
10
44269.0
20
48075.0
11
44269.0
21
47941.0
0
LINE
8
BLACK
10
44483.0
20
48475.0
11
44483.0
21
48275.0
0
LINE
8
BLACK
10
44483.0
20
48375.0
11
44033.0
21
48375.0
0
LINE
8
BLACK
10
44033.0
20
48375.0
11
44097.0
21
48341.0
0
LINE
8
BLACK
10
44097.0
20
48341.0
11
44140.0
21
48308.0
0
LINE
8
BLACK
10
44140.0
20
48308.0
11
44162.0
21
48275.0
0
LINE
8
BLACK
10
43712.0
20
48853.0
11
43712.0
21
49196.0
0
LINE
8
BLACK
10
43883.0
20
49025.0
11
43540.0
21
49025.0
0
LINE
8
BLACK
10
38909.0
20
51903.0
11
38931.0
21
51887.0
0
LINE
8
BLACK
10
38931.0
20
51887.0
11
38952.0
21
51837.0
0
LINE
8
BLACK
10
38952.0
20
51837.0
11
38952.0
21
51803.0
0
LINE
8
BLACK
10
38952.0
20
51803.0
11
38931.0
21
51753.0
0
LINE
8
BLACK
10
38931.0
20
51753.0
11
38888.0
21
51720.0
0
LINE
8
BLACK
10
38888.0
20
51720.0
11
38845.0
21
51703.0
0
LINE
8
BLACK
10
38845.0
20
51703.0
11
38759.0
21
51687.0
0
LINE
8
BLACK
10
38759.0
20
51687.0
11
38695.0
21
51687.0
0
LINE
8
BLACK
10
38695.0
20
51687.0
11
38609.0
21
51703.0
0
LINE
8
BLACK
10
38609.0
20
51703.0
11
38566.0
21
51720.0
0
LINE
8
BLACK
10
38566.0
20
51720.0
11
38524.0
21
51753.0
0
LINE
8
BLACK
10
38524.0
20
51753.0
11
38502.0
21
51803.0
0
LINE
8
BLACK
10
38502.0
20
51803.0
11
38502.0
21
51837.0
0
LINE
8
BLACK
10
38502.0
20
51837.0
11
38524.0
21
51887.0
0
LINE
8
BLACK
10
38524.0
20
51887.0
11
38545.0
21
51903.0
0
LINE
8
BLACK
10
38695.0
20
52103.0
11
38674.0
21
52070.0
0
LINE
8
BLACK
10
38674.0
20
52070.0
11
38652.0
21
52053.0
0
LINE
8
BLACK
10
38652.0
20
52053.0
11
38609.0
21
52037.0
0
LINE
8
BLACK
10
38609.0
20
52037.0
11
38588.0
21
52037.0
0
LINE
8
BLACK
10
38588.0
20
52037.0
11
38545.0
21
52053.0
0
LINE
8
BLACK
10
38545.0
20
52053.0
11
38524.0
21
52070.0
0
LINE
8
BLACK
10
38524.0
20
52070.0
11
38502.0
21
52103.0
0
LINE
8
BLACK
10
38502.0
20
52103.0
11
38502.0
21
52170.0
0
LINE
8
BLACK
10
38502.0
20
52170.0
11
38524.0
21
52203.0
0
LINE
8
BLACK
10
38524.0
20
52203.0
11
38545.0
21
52220.0
0
LINE
8
BLACK
10
38545.0
20
52220.0
11
38588.0
21
52237.0
0
LINE
8
BLACK
10
38588.0
20
52237.0
11
38609.0
21
52237.0
0
LINE
8
BLACK
10
38609.0
20
52237.0
11
38652.0
21
52220.0
0
LINE
8
BLACK
10
38652.0
20
52220.0
11
38674.0
21
52203.0
0
LINE
8
BLACK
10
38674.0
20
52203.0
11
38695.0
21
52170.0
0
LINE
8
BLACK
10
38695.0
20
52170.0
11
38695.0
21
52103.0
0
LINE
8
BLACK
10
38695.0
20
52103.0
11
38716.0
21
52070.0
0
LINE
8
BLACK
10
38716.0
20
52070.0
11
38738.0
21
52053.0
0
LINE
8
BLACK
10
38738.0
20
52053.0
11
38781.0
21
52037.0
0
LINE
8
BLACK
10
38781.0
20
52037.0
11
38866.0
21
52037.0
0
LINE
8
BLACK
10
38866.0
20
52037.0
11
38909.0
21
52053.0
0
LINE
8
BLACK
10
38909.0
20
52053.0
11
38931.0
21
52070.0
0
LINE
8
BLACK
10
38931.0
20
52070.0
11
38952.0
21
52103.0
0
LINE
8
BLACK
10
38952.0
20
52103.0
11
38952.0
21
52170.0
0
LINE
8
BLACK
10
38952.0
20
52170.0
11
38931.0
21
52203.0
0
LINE
8
BLACK
10
38931.0
20
52203.0
11
38909.0
21
52220.0
0
LINE
8
BLACK
10
38909.0
20
52220.0
11
38866.0
21
52237.0
0
LINE
8
BLACK
10
38866.0
20
52237.0
11
38781.0
21
52237.0
0
LINE
8
BLACK
10
38781.0
20
52237.0
11
38738.0
21
52220.0
0
LINE
8
BLACK
10
38738.0
20
52220.0
11
38716.0
21
52203.0
0
LINE
8
BLACK
10
38716.0
20
52203.0
11
38695.0
21
52170.0
0
LINE
8
BLACK
10
40109.0
20
51728.0
11
40131.0
21
51712.0
0
LINE
8
BLACK
10
40131.0
20
51712.0
11
40152.0
21
51662.0
0
LINE
8
BLACK
10
40152.0
20
51662.0
11
40152.0
21
51628.0
0
LINE
8
BLACK
10
40152.0
20
51628.0
11
40131.0
21
51578.0
0
LINE
8
BLACK
10
40131.0
20
51578.0
11
40088.0
21
51545.0
0
LINE
8
BLACK
10
40088.0
20
51545.0
11
40045.0
21
51528.0
0
LINE
8
BLACK
10
40045.0
20
51528.0
11
39959.0
21
51512.0
0
LINE
8
BLACK
10
39959.0
20
51512.0
11
39895.0
21
51512.0
0
LINE
8
BLACK
10
39895.0
20
51512.0
11
39809.0
21
51528.0
0
LINE
8
BLACK
10
39809.0
20
51528.0
11
39766.0
21
51545.0
0
LINE
8
BLACK
10
39766.0
20
51545.0
11
39724.0
21
51578.0
0
LINE
8
BLACK
10
39724.0
20
51578.0
11
39702.0
21
51628.0
0
LINE
8
BLACK
10
39702.0
20
51628.0
11
39702.0
21
51662.0
0
LINE
8
BLACK
10
39702.0
20
51662.0
11
39724.0
21
51712.0
0
LINE
8
BLACK
10
39724.0
20
51712.0
11
39745.0
21
51728.0
0
LINE
8
BLACK
10
40152.0
20
51878.0
11
39702.0
21
51878.0
0
LINE
8
BLACK
10
39702.0
20
51878.0
11
39702.0
21
52012.0
0
LINE
8
BLACK
10
39702.0
20
52012.0
11
39724.0
21
52045.0
0
LINE
8
BLACK
10
39724.0
20
52045.0
11
39745.0
21
52062.0
0
LINE
8
BLACK
10
39745.0
20
52062.0
11
39788.0
21
52078.0
0
LINE
8
BLACK
10
39788.0
20
52078.0
11
39852.0
21
52078.0
0
LINE
8
BLACK
10
39852.0
20
52078.0
11
39895.0
21
52062.0
0
LINE
8
BLACK
10
39895.0
20
52062.0
11
39916.0
21
52045.0
0
LINE
8
BLACK
10
39916.0
20
52045.0
11
39938.0
21
52012.0
0
LINE
8
BLACK
10
39938.0
20
52012.0
11
39938.0
21
51878.0
0
LINE
8
BLACK
10
40152.0
20
52412.0
11
40152.0
21
52212.0
0
LINE
8
BLACK
10
40152.0
20
52312.0
11
39702.0
21
52312.0
0
LINE
8
BLACK
10
39702.0
20
52312.0
11
39766.0
21
52278.0
0
LINE
8
BLACK
10
39766.0
20
52278.0
11
39809.0
21
52245.0
0
LINE
8
BLACK
10
39809.0
20
52245.0
11
39831.0
21
52212.0
0
LINE
8
BLACK
10
39381.0
20
52790.0
11
39381.0
21
53133.0
0
LINE
8
BLACK
10
39552.0
20
52962.0
11
39209.0
21
52962.0
0
LINE
8
BLACK
10
46390.0
20
57809.0
11
46412.0
21
57793.0
0
LINE
8
BLACK
10
46412.0
20
57793.0
11
46433.0
21
57743.0
0
LINE
8
BLACK
10
46433.0
20
57743.0
11
46433.0
21
57709.0
0
LINE
8
BLACK
10
46433.0
20
57709.0
11
46412.0
21
57659.0
0
LINE
8
BLACK
10
46412.0
20
57659.0
11
46369.0
21
57626.0
0
LINE
8
BLACK
10
46369.0
20
57626.0
11
46326.0
21
57609.0
0
LINE
8
BLACK
10
46326.0
20
57609.0
11
46240.0
21
57593.0
0
LINE
8
BLACK
10
46240.0
20
57593.0
11
46176.0
21
57593.0
0
LINE
8
BLACK
10
46176.0
20
57593.0
11
46090.0
21
57609.0
0
LINE
8
BLACK
10
46090.0
20
57609.0
11
46047.0
21
57626.0
0
LINE
8
BLACK
10
46047.0
20
57626.0
11
46005.0
21
57659.0
0
LINE
8
BLACK
10
46005.0
20
57659.0
11
45983.0
21
57709.0
0
LINE
8
BLACK
10
45983.0
20
57709.0
11
45983.0
21
57743.0
0
LINE
8
BLACK
10
45983.0
20
57743.0
11
46005.0
21
57793.0
0
LINE
8
BLACK
10
46005.0
20
57793.0
11
46026.0
21
57809.0
0
LINE
8
BLACK
10
45983.0
20
58109.0
11
45983.0
21
58043.0
0
LINE
8
BLACK
10
45983.0
20
58043.0
11
46005.0
21
58009.0
0
LINE
8
BLACK
10
46005.0
20
58009.0
11
46026.0
21
57993.0
0
LINE
8
BLACK
10
46026.0
20
57993.0
11
46090.0
21
57959.0
0
LINE
8
BLACK
10
46090.0
20
57959.0
11
46176.0
21
57943.0
0
LINE
8
BLACK
10
46176.0
20
57943.0
11
46347.0
21
57943.0
0
LINE
8
BLACK
10
46347.0
20
57943.0
11
46390.0
21
57959.0
0
LINE
8
BLACK
10
46390.0
20
57959.0
11
46412.0
21
57976.0
0
LINE
8
BLACK
10
46412.0
20
57976.0
11
46433.0
21
58009.0
0
LINE
8
BLACK
10
46433.0
20
58009.0
11
46433.0
21
58076.0
0
LINE
8
BLACK
10
46433.0
20
58076.0
11
46412.0
21
58109.0
0
LINE
8
BLACK
10
46412.0
20
58109.0
11
46390.0
21
58126.0
0
LINE
8
BLACK
10
46390.0
20
58126.0
11
46347.0
21
58143.0
0
LINE
8
BLACK
10
46347.0
20
58143.0
11
46240.0
21
58143.0
0
LINE
8
BLACK
10
46240.0
20
58143.0
11
46197.0
21
58126.0
0
LINE
8
BLACK
10
46197.0
20
58126.0
11
46176.0
21
58109.0
0
LINE
8
BLACK
10
46176.0
20
58109.0
11
46155.0
21
58076.0
0
LINE
8
BLACK
10
46155.0
20
58076.0
11
46155.0
21
58009.0
0
LINE
8
BLACK
10
46155.0
20
58009.0
11
46176.0
21
57976.0
0
LINE
8
BLACK
10
46176.0
20
57976.0
11
46197.0
21
57959.0
0
LINE
8
BLACK
10
46197.0
20
57959.0
11
46240.0
21
57943.0
0
LINE
8
BLACK
10
47590.0
20
57634.0
11
47612.0
21
57618.0
0
LINE
8
BLACK
10
47612.0
20
57618.0
11
47633.0
21
57568.0
0
LINE
8
BLACK
10
47633.0
20
57568.0
11
47633.0
21
57534.0
0
LINE
8
BLACK
10
47633.0
20
57534.0
11
47612.0
21
57484.0
0
LINE
8
BLACK
10
47612.0
20
57484.0
11
47569.0
21
57451.0
0
LINE
8
BLACK
10
47569.0
20
57451.0
11
47526.0
21
57434.0
0
LINE
8
BLACK
10
47526.0
20
57434.0
11
47440.0
21
57418.0
0
LINE
8
BLACK
10
47440.0
20
57418.0
11
47376.0
21
57418.0
0
LINE
8
BLACK
10
47376.0
20
57418.0
11
47290.0
21
57434.0
0
LINE
8
BLACK
10
47290.0
20
57434.0
11
47247.0
21
57451.0
0
LINE
8
BLACK
10
47247.0
20
57451.0
11
47205.0
21
57484.0
0
LINE
8
BLACK
10
47205.0
20
57484.0
11
47183.0
21
57534.0
0
LINE
8
BLACK
10
47183.0
20
57534.0
11
47183.0
21
57568.0
0
LINE
8
BLACK
10
47183.0
20
57568.0
11
47205.0
21
57618.0
0
LINE
8
BLACK
10
47205.0
20
57618.0
11
47226.0
21
57634.0
0
LINE
8
BLACK
10
47633.0
20
57784.0
11
47183.0
21
57784.0
0
LINE
8
BLACK
10
47183.0
20
57784.0
11
47183.0
21
57918.0
0
LINE
8
BLACK
10
47183.0
20
57918.0
11
47205.0
21
57951.0
0
LINE
8
BLACK
10
47205.0
20
57951.0
11
47226.0
21
57968.0
0
LINE
8
BLACK
10
47226.0
20
57968.0
11
47269.0
21
57984.0
0
LINE
8
BLACK
10
47269.0
20
57984.0
11
47333.0
21
57984.0
0
LINE
8
BLACK
10
47333.0
20
57984.0
11
47376.0
21
57968.0
0
LINE
8
BLACK
10
47376.0
20
57968.0
11
47397.0
21
57951.0
0
LINE
8
BLACK
10
47397.0
20
57951.0
11
47419.0
21
57918.0
0
LINE
8
BLACK
10
47419.0
20
57918.0
11
47419.0
21
57784.0
0
LINE
8
BLACK
10
47633.0
20
58318.0
11
47633.0
21
58118.0
0
LINE
8
BLACK
10
47633.0
20
58218.0
11
47183.0
21
58218.0
0
LINE
8
BLACK
10
47183.0
20
58218.0
11
47247.0
21
58184.0
0
LINE
8
BLACK
10
47247.0
20
58184.0
11
47290.0
21
58151.0
0
LINE
8
BLACK
10
47290.0
20
58151.0
11
47312.0
21
58118.0
0
LINE
8
BLACK
10
46862.0
20
58696.0
11
46862.0
21
59039.0
0
LINE
8
BLACK
10
47033.0
20
58868.0
11
46690.0
21
58868.0
0
LINE
8
BLACK
10
46783.0
20
44817.0
11
46805.0
21
44801.0
0
LINE
8
BLACK
10
46805.0
20
44801.0
11
46826.0
21
44751.0
0
LINE
8
BLACK
10
46826.0
20
44751.0
11
46826.0
21
44717.0
0
LINE
8
BLACK
10
46826.0
20
44717.0
11
46805.0
21
44667.0
0
LINE
8
BLACK
10
46805.0
20
44667.0
11
46762.0
21
44634.0
0
LINE
8
BLACK
10
46762.0
20
44634.0
11
46719.0
21
44617.0
0
LINE
8
BLACK
10
46719.0
20
44617.0
11
46633.0
21
44601.0
0
LINE
8
BLACK
10
46633.0
20
44601.0
11
46569.0
21
44601.0
0
LINE
8
BLACK
10
46569.0
20
44601.0
11
46483.0
21
44617.0
0
LINE
8
BLACK
10
46483.0
20
44617.0
11
46440.0
21
44634.0
0
LINE
8
BLACK
10
46440.0
20
44634.0
11
46398.0
21
44667.0
0
LINE
8
BLACK
10
46398.0
20
44667.0
11
46376.0
21
44717.0
0
LINE
8
BLACK
10
46376.0
20
44717.0
11
46376.0
21
44751.0
0
LINE
8
BLACK
10
46376.0
20
44751.0
11
46398.0
21
44801.0
0
LINE
8
BLACK
10
46398.0
20
44801.0
11
46419.0
21
44817.0
0
LINE
8
BLACK
10
46376.0
20
45134.0
11
46376.0
21
44967.0
0
LINE
8
BLACK
10
46376.0
20
44967.0
11
46590.0
21
44951.0
0
LINE
8
BLACK
10
46590.0
20
44951.0
11
46569.0
21
44967.0
0
LINE
8
BLACK
10
46569.0
20
44967.0
11
46548.0
21
45001.0
0
LINE
8
BLACK
10
46548.0
20
45001.0
11
46548.0
21
45084.0
0
LINE
8
BLACK
10
46548.0
20
45084.0
11
46569.0
21
45117.0
0
LINE
8
BLACK
10
46569.0
20
45117.0
11
46590.0
21
45134.0
0
LINE
8
BLACK
10
46590.0
20
45134.0
11
46633.0
21
45151.0
0
LINE
8
BLACK
10
46633.0
20
45151.0
11
46740.0
21
45151.0
0
LINE
8
BLACK
10
46740.0
20
45151.0
11
46783.0
21
45134.0
0
LINE
8
BLACK
10
46783.0
20
45134.0
11
46805.0
21
45117.0
0
LINE
8
BLACK
10
46805.0
20
45117.0
11
46826.0
21
45084.0
0
LINE
8
BLACK
10
46826.0
20
45084.0
11
46826.0
21
45001.0
0
LINE
8
BLACK
10
46826.0
20
45001.0
11
46805.0
21
44967.0
0
LINE
8
BLACK
10
46805.0
20
44967.0
11
46783.0
21
44951.0
0
LINE
8
BLACK
10
47983.0
20
44642.0
11
48005.0
21
44626.0
0
LINE
8
BLACK
10
48005.0
20
44626.0
11
48026.0
21
44576.0
0
LINE
8
BLACK
10
48026.0
20
44576.0
11
48026.0
21
44542.0
0
LINE
8
BLACK
10
48026.0
20
44542.0
11
48005.0
21
44492.0
0
LINE
8
BLACK
10
48005.0
20
44492.0
11
47962.0
21
44459.0
0
LINE
8
BLACK
10
47962.0
20
44459.0
11
47919.0
21
44442.0
0
LINE
8
BLACK
10
47919.0
20
44442.0
11
47833.0
21
44426.0
0
LINE
8
BLACK
10
47833.0
20
44426.0
11
47769.0
21
44426.0
0
LINE
8
BLACK
10
47769.0
20
44426.0
11
47683.0
21
44442.0
0
LINE
8
BLACK
10
47683.0
20
44442.0
11
47640.0
21
44459.0
0
LINE
8
BLACK
10
47640.0
20
44459.0
11
47598.0
21
44492.0
0
LINE
8
BLACK
10
47598.0
20
44492.0
11
47576.0
21
44542.0
0
LINE
8
BLACK
10
47576.0
20
44542.0
11
47576.0
21
44576.0
0
LINE
8
BLACK
10
47576.0
20
44576.0
11
47598.0
21
44626.0
0
LINE
8
BLACK
10
47598.0
20
44626.0
11
47619.0
21
44642.0
0
LINE
8
BLACK
10
48026.0
20
44792.0
11
47576.0
21
44792.0
0
LINE
8
BLACK
10
47576.0
20
44792.0
11
47576.0
21
44926.0
0
LINE
8
BLACK
10
47576.0
20
44926.0
11
47598.0
21
44959.0
0
LINE
8
BLACK
10
47598.0
20
44959.0
11
47619.0
21
44976.0
0
LINE
8
BLACK
10
47619.0
20
44976.0
11
47662.0
21
44992.0
0
LINE
8
BLACK
10
47662.0
20
44992.0
11
47726.0
21
44992.0
0
LINE
8
BLACK
10
47726.0
20
44992.0
11
47769.0
21
44976.0
0
LINE
8
BLACK
10
47769.0
20
44976.0
11
47790.0
21
44959.0
0
LINE
8
BLACK
10
47790.0
20
44959.0
11
47812.0
21
44926.0
0
LINE
8
BLACK
10
47812.0
20
44926.0
11
47812.0
21
44792.0
0
LINE
8
BLACK
10
48026.0
20
45326.0
11
48026.0
21
45126.0
0
LINE
8
BLACK
10
48026.0
20
45226.0
11
47576.0
21
45226.0
0
LINE
8
BLACK
10
47576.0
20
45226.0
11
47640.0
21
45192.0
0
LINE
8
BLACK
10
47640.0
20
45192.0
11
47683.0
21
45159.0
0
LINE
8
BLACK
10
47683.0
20
45159.0
11
47705.0
21
45126.0
0
LINE
8
BLACK
10
47255.0
20
45704.0
11
47255.0
21
46047.0
0
LINE
8
BLACK
10
47426.0
20
45876.0
11
47083.0
21
45876.0
0
LINE
8
BLACK
10
38909.0
20
54659.0
11
38931.0
21
54643.0
0
LINE
8
BLACK
10
38931.0
20
54643.0
11
38952.0
21
54593.0
0
LINE
8
BLACK
10
38952.0
20
54593.0
11
38952.0
21
54559.0
0
LINE
8
BLACK
10
38952.0
20
54559.0
11
38931.0
21
54509.0
0
LINE
8
BLACK
10
38931.0
20
54509.0
11
38888.0
21
54476.0
0
LINE
8
BLACK
10
38888.0
20
54476.0
11
38845.0
21
54459.0
0
LINE
8
BLACK
10
38845.0
20
54459.0
11
38759.0
21
54443.0
0
LINE
8
BLACK
10
38759.0
20
54443.0
11
38695.0
21
54443.0
0
LINE
8
BLACK
10
38695.0
20
54443.0
11
38609.0
21
54459.0
0
LINE
8
BLACK
10
38609.0
20
54459.0
11
38566.0
21
54476.0
0
LINE
8
BLACK
10
38566.0
20
54476.0
11
38524.0
21
54509.0
0
LINE
8
BLACK
10
38524.0
20
54509.0
11
38502.0
21
54559.0
0
LINE
8
BLACK
10
38502.0
20
54559.0
11
38502.0
21
54593.0
0
LINE
8
BLACK
10
38502.0
20
54593.0
11
38524.0
21
54643.0
0
LINE
8
BLACK
10
38524.0
20
54643.0
11
38545.0
21
54659.0
0
LINE
8
BLACK
10
38652.0
20
54959.0
11
38952.0
21
54959.0
0
LINE
8
BLACK
10
38481.0
20
54876.0
11
38802.0
21
54793.0
0
LINE
8
BLACK
10
38802.0
20
54793.0
11
38802.0
21
55009.0
0
LINE
8
BLACK
10
40109.0
20
54484.0
11
40131.0
21
54468.0
0
LINE
8
BLACK
10
40131.0
20
54468.0
11
40152.0
21
54418.0
0
LINE
8
BLACK
10
40152.0
20
54418.0
11
40152.0
21
54384.0
0
LINE
8
BLACK
10
40152.0
20
54384.0
11
40131.0
21
54334.0
0
LINE
8
BLACK
10
40131.0
20
54334.0
11
40088.0
21
54301.0
0
LINE
8
BLACK
10
40088.0
20
54301.0
11
40045.0
21
54284.0
0
LINE
8
BLACK
10
40045.0
20
54284.0
11
39959.0
21
54268.0
0
LINE
8
BLACK
10
39959.0
20
54268.0
11
39895.0
21
54268.0
0
LINE
8
BLACK
10
39895.0
20
54268.0
11
39809.0
21
54284.0
0
LINE
8
BLACK
10
39809.0
20
54284.0
11
39766.0
21
54301.0
0
LINE
8
BLACK
10
39766.0
20
54301.0
11
39724.0
21
54334.0
0
LINE
8
BLACK
10
39724.0
20
54334.0
11
39702.0
21
54384.0
0
LINE
8
BLACK
10
39702.0
20
54384.0
11
39702.0
21
54418.0
0
LINE
8
BLACK
10
39702.0
20
54418.0
11
39724.0
21
54468.0
0
LINE
8
BLACK
10
39724.0
20
54468.0
11
39745.0
21
54484.0
0
LINE
8
BLACK
10
40152.0
20
54634.0
11
39702.0
21
54634.0
0
LINE
8
BLACK
10
39702.0
20
54634.0
11
39702.0
21
54768.0
0
LINE
8
BLACK
10
39702.0
20
54768.0
11
39724.0
21
54801.0
0
LINE
8
BLACK
10
39724.0
20
54801.0
11
39745.0
21
54818.0
0
LINE
8
BLACK
10
39745.0
20
54818.0
11
39788.0
21
54834.0
0
LINE
8
BLACK
10
39788.0
20
54834.0
11
39852.0
21
54834.0
0
LINE
8
BLACK
10
39852.0
20
54834.0
11
39895.0
21
54818.0
0
LINE
8
BLACK
10
39895.0
20
54818.0
11
39916.0
21
54801.0
0
LINE
8
BLACK
10
39916.0
20
54801.0
11
39938.0
21
54768.0
0
LINE
8
BLACK
10
39938.0
20
54768.0
11
39938.0
21
54634.0
0
LINE
8
BLACK
10
40152.0
20
55168.0
11
40152.0
21
54968.0
0
LINE
8
BLACK
10
40152.0
20
55068.0
11
39702.0
21
55068.0
0
LINE
8
BLACK
10
39702.0
20
55068.0
11
39766.0
21
55034.0
0
LINE
8
BLACK
10
39766.0
20
55034.0
11
39809.0
21
55001.0
0
LINE
8
BLACK
10
39809.0
20
55001.0
11
39831.0
21
54968.0
0
LINE
8
BLACK
10
39381.0
20
55546.0
11
39381.0
21
55889.0
0
LINE
8
BLACK
10
39552.0
20
55718.0
11
39209.0
21
55718.0
0
LINE
8
BLACK
10
38909.0
20
57809.0
11
38931.0
21
57793.0
0
LINE
8
BLACK
10
38931.0
20
57793.0
11
38952.0
21
57743.0
0
LINE
8
BLACK
10
38952.0
20
57743.0
11
38952.0
21
57709.0
0
LINE
8
BLACK
10
38952.0
20
57709.0
11
38931.0
21
57659.0
0
LINE
8
BLACK
10
38931.0
20
57659.0
11
38888.0
21
57626.0
0
LINE
8
BLACK
10
38888.0
20
57626.0
11
38845.0
21
57609.0
0
LINE
8
BLACK
10
38845.0
20
57609.0
11
38759.0
21
57593.0
0
LINE
8
BLACK
10
38759.0
20
57593.0
11
38695.0
21
57593.0
0
LINE
8
BLACK
10
38695.0
20
57593.0
11
38609.0
21
57609.0
0
LINE
8
BLACK
10
38609.0
20
57609.0
11
38566.0
21
57626.0
0
LINE
8
BLACK
10
38566.0
20
57626.0
11
38524.0
21
57659.0
0
LINE
8
BLACK
10
38524.0
20
57659.0
11
38502.0
21
57709.0
0
LINE
8
BLACK
10
38502.0
20
57709.0
11
38502.0
21
57743.0
0
LINE
8
BLACK
10
38502.0
20
57743.0
11
38524.0
21
57793.0
0
LINE
8
BLACK
10
38524.0
20
57793.0
11
38545.0
21
57809.0
0
LINE
8
BLACK
10
38502.0
20
57926.0
11
38502.0
21
58143.0
0
LINE
8
BLACK
10
38502.0
20
58143.0
11
38674.0
21
58026.0
0
LINE
8
BLACK
10
38674.0
20
58026.0
11
38674.0
21
58076.0
0
LINE
8
BLACK
10
38674.0
20
58076.0
11
38695.0
21
58109.0
0
LINE
8
BLACK
10
38695.0
20
58109.0
11
38716.0
21
58126.0
0
LINE
8
BLACK
10
38716.0
20
58126.0
11
38759.0
21
58143.0
0
LINE
8
BLACK
10
38759.0
20
58143.0
11
38866.0
21
58143.0
0
LINE
8
BLACK
10
38866.0
20
58143.0
11
38909.0
21
58126.0
0
LINE
8
BLACK
10
38909.0
20
58126.0
11
38931.0
21
58109.0
0
LINE
8
BLACK
10
38931.0
20
58109.0
11
38952.0
21
58076.0
0
LINE
8
BLACK
10
38952.0
20
58076.0
11
38952.0
21
57976.0
0
LINE
8
BLACK
10
38952.0
20
57976.0
11
38931.0
21
57943.0
0
LINE
8
BLACK
10
38931.0
20
57943.0
11
38909.0
21
57926.0
0
LINE
8
BLACK
10
40109.0
20
57634.0
11
40131.0
21
57618.0
0
LINE
8
BLACK
10
40131.0
20
57618.0
11
40152.0
21
57568.0
0
LINE
8
BLACK
10
40152.0
20
57568.0
11
40152.0
21
57534.0
0
LINE
8
BLACK
10
40152.0
20
57534.0
11
40131.0
21
57484.0
0
LINE
8
BLACK
10
40131.0
20
57484.0
11
40088.0
21
57451.0
0
LINE
8
BLACK
10
40088.0
20
57451.0
11
40045.0
21
57434.0
0
LINE
8
BLACK
10
40045.0
20
57434.0
11
39959.0
21
57418.0
0
LINE
8
BLACK
10
39959.0
20
57418.0
11
39895.0
21
57418.0
0
LINE
8
BLACK
10
39895.0
20
57418.0
11
39809.0
21
57434.0
0
LINE
8
BLACK
10
39809.0
20
57434.0
11
39766.0
21
57451.0
0
LINE
8
BLACK
10
39766.0
20
57451.0
11
39724.0
21
57484.0
0
LINE
8
BLACK
10
39724.0
20
57484.0
11
39702.0
21
57534.0
0
LINE
8
BLACK
10
39702.0
20
57534.0
11
39702.0
21
57568.0
0
LINE
8
BLACK
10
39702.0
20
57568.0
11
39724.0
21
57618.0
0
LINE
8
BLACK
10
39724.0
20
57618.0
11
39745.0
21
57634.0
0
LINE
8
BLACK
10
40152.0
20
57784.0
11
39702.0
21
57784.0
0
LINE
8
BLACK
10
39702.0
20
57784.0
11
39702.0
21
57918.0
0
LINE
8
BLACK
10
39702.0
20
57918.0
11
39724.0
21
57951.0
0
LINE
8
BLACK
10
39724.0
20
57951.0
11
39745.0
21
57968.0
0
LINE
8
BLACK
10
39745.0
20
57968.0
11
39788.0
21
57984.0
0
LINE
8
BLACK
10
39788.0
20
57984.0
11
39852.0
21
57984.0
0
LINE
8
BLACK
10
39852.0
20
57984.0
11
39895.0
21
57968.0
0
LINE
8
BLACK
10
39895.0
20
57968.0
11
39916.0
21
57951.0
0
LINE
8
BLACK
10
39916.0
20
57951.0
11
39938.0
21
57918.0
0
LINE
8
BLACK
10
39938.0
20
57918.0
11
39938.0
21
57784.0
0
LINE
8
BLACK
10
40152.0
20
58318.0
11
40152.0
21
58118.0
0
LINE
8
BLACK
10
40152.0
20
58218.0
11
39702.0
21
58218.0
0
LINE
8
BLACK
10
39702.0
20
58218.0
11
39766.0
21
58184.0
0
LINE
8
BLACK
10
39766.0
20
58184.0
11
39809.0
21
58151.0
0
LINE
8
BLACK
10
39809.0
20
58151.0
11
39831.0
21
58118.0
0
LINE
8
BLACK
10
39381.0
20
58696.0
11
39381.0
21
59039.0
0
LINE
8
BLACK
10
39552.0
20
58868.0
11
39209.0
21
58868.0
0
LINE
8
BLACK
10
38909.0
20
41667.0
11
38931.0
21
41651.0
0
LINE
8
BLACK
10
38931.0
20
41651.0
11
38952.0
21
41601.0
0
LINE
8
BLACK
10
38952.0
20
41601.0
11
38952.0
21
41567.0
0
LINE
8
BLACK
10
38952.0
20
41567.0
11
38931.0
21
41517.0
0
LINE
8
BLACK
10
38931.0
20
41517.0
11
38888.0
21
41484.0
0
LINE
8
BLACK
10
38888.0
20
41484.0
11
38845.0
21
41467.0
0
LINE
8
BLACK
10
38845.0
20
41467.0
11
38759.0
21
41451.0
0
LINE
8
BLACK
10
38759.0
20
41451.0
11
38695.0
21
41451.0
0
LINE
8
BLACK
10
38695.0
20
41451.0
11
38609.0
21
41467.0
0
LINE
8
BLACK
10
38609.0
20
41467.0
11
38566.0
21
41484.0
0
LINE
8
BLACK
10
38566.0
20
41484.0
11
38524.0
21
41517.0
0
LINE
8
BLACK
10
38524.0
20
41517.0
11
38502.0
21
41567.0
0
LINE
8
BLACK
10
38502.0
20
41567.0
11
38502.0
21
41601.0
0
LINE
8
BLACK
10
38502.0
20
41601.0
11
38524.0
21
41651.0
0
LINE
8
BLACK
10
38524.0
20
41651.0
11
38545.0
21
41667.0
0
LINE
8
BLACK
10
38545.0
20
41801.0
11
38524.0
21
41817.0
0
LINE
8
BLACK
10
38524.0
20
41817.0
11
38502.0
21
41851.0
0
LINE
8
BLACK
10
38502.0
20
41851.0
11
38502.0
21
41934.0
0
LINE
8
BLACK
10
38502.0
20
41934.0
11
38524.0
21
41967.0
0
LINE
8
BLACK
10
38524.0
20
41967.0
11
38545.0
21
41984.0
0
LINE
8
BLACK
10
38545.0
20
41984.0
11
38588.0
21
42001.0
0
LINE
8
BLACK
10
38588.0
20
42001.0
11
38631.0
21
42001.0
0
LINE
8
BLACK
10
38631.0
20
42001.0
11
38695.0
21
41984.0
0
LINE
8
BLACK
10
38695.0
20
41984.0
11
38952.0
21
41784.0
0
LINE
8
BLACK
10
38952.0
20
41784.0
11
38952.0
21
42001.0
0
LINE
8
BLACK
10
40109.0
20
41492.0
11
40131.0
21
41476.0
0
LINE
8
BLACK
10
40131.0
20
41476.0
11
40152.0
21
41426.0
0
LINE
8
BLACK
10
40152.0
20
41426.0
11
40152.0
21
41392.0
0
LINE
8
BLACK
10
40152.0
20
41392.0
11
40131.0
21
41342.0
0
LINE
8
BLACK
10
40131.0
20
41342.0
11
40088.0
21
41309.0
0
LINE
8
BLACK
10
40088.0
20
41309.0
11
40045.0
21
41292.0
0
LINE
8
BLACK
10
40045.0
20
41292.0
11
39959.0
21
41276.0
0
LINE
8
BLACK
10
39959.0
20
41276.0
11
39895.0
21
41276.0
0
LINE
8
BLACK
10
39895.0
20
41276.0
11
39809.0
21
41292.0
0
LINE
8
BLACK
10
39809.0
20
41292.0
11
39766.0
21
41309.0
0
LINE
8
BLACK
10
39766.0
20
41309.0
11
39724.0
21
41342.0
0
LINE
8
BLACK
10
39724.0
20
41342.0
11
39702.0
21
41392.0
0
LINE
8
BLACK
10
39702.0
20
41392.0
11
39702.0
21
41426.0
0
LINE
8
BLACK
10
39702.0
20
41426.0
11
39724.0
21
41476.0
0
LINE
8
BLACK
10
39724.0
20
41476.0
11
39745.0
21
41492.0
0
LINE
8
BLACK
10
40152.0
20
41642.0
11
39702.0
21
41642.0
0
LINE
8
BLACK
10
39702.0
20
41642.0
11
39702.0
21
41776.0
0
LINE
8
BLACK
10
39702.0
20
41776.0
11
39724.0
21
41809.0
0
LINE
8
BLACK
10
39724.0
20
41809.0
11
39745.0
21
41826.0
0
LINE
8
BLACK
10
39745.0
20
41826.0
11
39788.0
21
41842.0
0
LINE
8
BLACK
10
39788.0
20
41842.0
11
39852.0
21
41842.0
0
LINE
8
BLACK
10
39852.0
20
41842.0
11
39895.0
21
41826.0
0
LINE
8
BLACK
10
39895.0
20
41826.0
11
39916.0
21
41809.0
0
LINE
8
BLACK
10
39916.0
20
41809.0
11
39938.0
21
41776.0
0
LINE
8
BLACK
10
39938.0
20
41776.0
11
39938.0
21
41642.0
0
LINE
8
BLACK
10
40152.0
20
42176.0
11
40152.0
21
41976.0
0
LINE
8
BLACK
10
40152.0
20
42076.0
11
39702.0
21
42076.0
0
LINE
8
BLACK
10
39702.0
20
42076.0
11
39766.0
21
42042.0
0
LINE
8
BLACK
10
39766.0
20
42042.0
11
39809.0
21
42009.0
0
LINE
8
BLACK
10
39809.0
20
42009.0
11
39831.0
21
41976.0
0
LINE
8
BLACK
10
39381.0
20
42554.0
11
39381.0
21
42897.0
0
LINE
8
BLACK
10
39552.0
20
42726.0
11
39209.0
21
42726.0
0
LINE
8
BLACK
10
38909.0
20
44817.0
11
38931.0
21
44801.0
0
LINE
8
BLACK
10
38931.0
20
44801.0
11
38952.0
21
44751.0
0
LINE
8
BLACK
10
38952.0
20
44751.0
11
38952.0
21
44717.0
0
LINE
8
BLACK
10
38952.0
20
44717.0
11
38931.0
21
44667.0
0
LINE
8
BLACK
10
38931.0
20
44667.0
11
38888.0
21
44634.0
0
LINE
8
BLACK
10
38888.0
20
44634.0
11
38845.0
21
44617.0
0
LINE
8
BLACK
10
38845.0
20
44617.0
11
38759.0
21
44601.0
0
LINE
8
BLACK
10
38759.0
20
44601.0
11
38695.0
21
44601.0
0
LINE
8
BLACK
10
38695.0
20
44601.0
11
38609.0
21
44617.0
0
LINE
8
BLACK
10
38609.0
20
44617.0
11
38566.0
21
44634.0
0
LINE
8
BLACK
10
38566.0
20
44634.0
11
38524.0
21
44667.0
0
LINE
8
BLACK
10
38524.0
20
44667.0
11
38502.0
21
44717.0
0
LINE
8
BLACK
10
38502.0
20
44717.0
11
38502.0
21
44751.0
0
LINE
8
BLACK
10
38502.0
20
44751.0
11
38524.0
21
44801.0
0
LINE
8
BLACK
10
38524.0
20
44801.0
11
38545.0
21
44817.0
0
LINE
8
BLACK
10
38952.0
20
45151.0
11
38952.0
21
44951.0
0
LINE
8
BLACK
10
38952.0
20
45051.0
11
38502.0
21
45051.0
0
LINE
8
BLACK
10
38502.0
20
45051.0
11
38566.0
21
45017.0
0
LINE
8
BLACK
10
38566.0
20
45017.0
11
38609.0
21
44984.0
0
LINE
8
BLACK
10
38609.0
20
44984.0
11
38631.0
21
44951.0
0
LINE
8
BLACK
10
40109.0
20
44642.0
11
40131.0
21
44626.0
0
LINE
8
BLACK
10
40131.0
20
44626.0
11
40152.0
21
44576.0
0
LINE
8
BLACK
10
40152.0
20
44576.0
11
40152.0
21
44542.0
0
LINE
8
BLACK
10
40152.0
20
44542.0
11
40131.0
21
44492.0
0
LINE
8
BLACK
10
40131.0
20
44492.0
11
40088.0
21
44459.0
0
LINE
8
BLACK
10
40088.0
20
44459.0
11
40045.0
21
44442.0
0
LINE
8
BLACK
10
40045.0
20
44442.0
11
39959.0
21
44426.0
0
LINE
8
BLACK
10
39959.0
20
44426.0
11
39895.0
21
44426.0
0
LINE
8
BLACK
10
39895.0
20
44426.0
11
39809.0
21
44442.0
0
LINE
8
BLACK
10
39809.0
20
44442.0
11
39766.0
21
44459.0
0
LINE
8
BLACK
10
39766.0
20
44459.0
11
39724.0
21
44492.0
0
LINE
8
BLACK
10
39724.0
20
44492.0
11
39702.0
21
44542.0
0
LINE
8
BLACK
10
39702.0
20
44542.0
11
39702.0
21
44576.0
0
LINE
8
BLACK
10
39702.0
20
44576.0
11
39724.0
21
44626.0
0
LINE
8
BLACK
10
39724.0
20
44626.0
11
39745.0
21
44642.0
0
LINE
8
BLACK
10
40152.0
20
44792.0
11
39702.0
21
44792.0
0
LINE
8
BLACK
10
39702.0
20
44792.0
11
39702.0
21
44926.0
0
LINE
8
BLACK
10
39702.0
20
44926.0
11
39724.0
21
44959.0
0
LINE
8
BLACK
10
39724.0
20
44959.0
11
39745.0
21
44976.0
0
LINE
8
BLACK
10
39745.0
20
44976.0
11
39788.0
21
44992.0
0
LINE
8
BLACK
10
39788.0
20
44992.0
11
39852.0
21
44992.0
0
LINE
8
BLACK
10
39852.0
20
44992.0
11
39895.0
21
44976.0
0
LINE
8
BLACK
10
39895.0
20
44976.0
11
39916.0
21
44959.0
0
LINE
8
BLACK
10
39916.0
20
44959.0
11
39938.0
21
44926.0
0
LINE
8
BLACK
10
39938.0
20
44926.0
11
39938.0
21
44792.0
0
LINE
8
BLACK
10
40152.0
20
45326.0
11
40152.0
21
45126.0
0
LINE
8
BLACK
10
40152.0
20
45226.0
11
39702.0
21
45226.0
0
LINE
8
BLACK
10
39702.0
20
45226.0
11
39766.0
21
45192.0
0
LINE
8
BLACK
10
39766.0
20
45192.0
11
39809.0
21
45159.0
0
LINE
8
BLACK
10
39809.0
20
45159.0
11
39831.0
21
45126.0
0
LINE
8
BLACK
10
39381.0
20
45704.0
11
39381.0
21
46047.0
0
LINE
8
BLACK
10
39552.0
20
45876.0
11
39209.0
21
45876.0
0
ENDSEC
0
EOF
