G04 (created by PCBNEW-RS274X (2011-11-27 BZR 3249)-stable) date 19.12.2011 19:15:57*
G01*
G70*
G90*
%MOIN*%
G04 Gerber Fmt 3.4, Leading zero omitted, Abs format*
%FSLAX34Y34*%
G04 APERTURE LIST*
%ADD10C,0.006000*%
%ADD11C,0.015000*%
%ADD12R,0.060000X0.060000*%
%ADD13C,0.060000*%
%ADD14C,0.080000*%
%ADD15C,0.070000*%
%ADD16R,0.055000X0.055000*%
%ADD17C,0.055000*%
%ADD18C,0.150000*%
%ADD19C,0.035000*%
%ADD20C,0.019800*%
G04 APERTURE END LIST*
G54D10*
G54D11*
X18573Y-53543D02*
X18549Y-53785D01*
X18478Y-54019D01*
X18364Y-54234D01*
X18209Y-54423D01*
X18021Y-54579D01*
X17807Y-54695D01*
X17574Y-54767D01*
X17331Y-54792D01*
X17089Y-54770D01*
X16855Y-54701D01*
X16639Y-54588D01*
X16449Y-54436D01*
X16292Y-54249D01*
X16175Y-54035D01*
X16101Y-53802D01*
X16074Y-53560D01*
X16094Y-53318D01*
X16161Y-53083D01*
X16273Y-52866D01*
X16424Y-52675D01*
X16610Y-52517D01*
X16823Y-52398D01*
X17055Y-52323D01*
X17297Y-52294D01*
X17540Y-52312D01*
X17775Y-52378D01*
X17992Y-52488D01*
X18185Y-52638D01*
X18344Y-52823D01*
X18464Y-53035D01*
X18541Y-53267D01*
X18572Y-53509D01*
X18573Y-53543D01*
X14823Y-53543D02*
X19823Y-53543D01*
X17323Y-51043D02*
X17323Y-56043D01*
X74872Y-17717D02*
X74848Y-17959D01*
X74777Y-18193D01*
X74663Y-18408D01*
X74508Y-18597D01*
X74320Y-18753D01*
X74106Y-18869D01*
X73873Y-18941D01*
X73630Y-18966D01*
X73388Y-18944D01*
X73154Y-18875D01*
X72938Y-18762D01*
X72748Y-18610D01*
X72591Y-18423D01*
X72474Y-18209D01*
X72400Y-17976D01*
X72373Y-17734D01*
X72393Y-17492D01*
X72460Y-17257D01*
X72572Y-17040D01*
X72723Y-16849D01*
X72909Y-16691D01*
X73122Y-16572D01*
X73354Y-16497D01*
X73596Y-16468D01*
X73839Y-16486D01*
X74074Y-16552D01*
X74291Y-16662D01*
X74484Y-16812D01*
X74643Y-16997D01*
X74763Y-17209D01*
X74840Y-17441D01*
X74871Y-17683D01*
X74872Y-17717D01*
X71122Y-17717D02*
X76122Y-17717D01*
X73622Y-15217D02*
X73622Y-20217D01*
X74872Y-53543D02*
X74848Y-53785D01*
X74777Y-54019D01*
X74663Y-54234D01*
X74508Y-54423D01*
X74320Y-54579D01*
X74106Y-54695D01*
X73873Y-54767D01*
X73630Y-54792D01*
X73388Y-54770D01*
X73154Y-54701D01*
X72938Y-54588D01*
X72748Y-54436D01*
X72591Y-54249D01*
X72474Y-54035D01*
X72400Y-53802D01*
X72373Y-53560D01*
X72393Y-53318D01*
X72460Y-53083D01*
X72572Y-52866D01*
X72723Y-52675D01*
X72909Y-52517D01*
X73122Y-52398D01*
X73354Y-52323D01*
X73596Y-52294D01*
X73839Y-52312D01*
X74074Y-52378D01*
X74291Y-52488D01*
X74484Y-52638D01*
X74643Y-52823D01*
X74763Y-53035D01*
X74840Y-53267D01*
X74871Y-53509D01*
X74872Y-53543D01*
X71122Y-53543D02*
X76122Y-53543D01*
X73622Y-51043D02*
X73622Y-56043D01*
X18967Y-17717D02*
X18943Y-17959D01*
X18872Y-18193D01*
X18758Y-18408D01*
X18603Y-18597D01*
X18415Y-18753D01*
X18201Y-18869D01*
X17968Y-18941D01*
X17725Y-18966D01*
X17483Y-18944D01*
X17249Y-18875D01*
X17033Y-18762D01*
X16843Y-18610D01*
X16686Y-18423D01*
X16569Y-18209D01*
X16495Y-17976D01*
X16468Y-17734D01*
X16488Y-17492D01*
X16555Y-17257D01*
X16667Y-17040D01*
X16818Y-16849D01*
X17004Y-16691D01*
X17217Y-16572D01*
X17449Y-16497D01*
X17691Y-16468D01*
X17934Y-16486D01*
X18169Y-16552D01*
X18386Y-16662D01*
X18579Y-16812D01*
X18738Y-16997D01*
X18858Y-17209D01*
X18935Y-17441D01*
X18966Y-17683D01*
X18967Y-17717D01*
X15217Y-17717D02*
X20217Y-17717D01*
X17717Y-15217D02*
X17717Y-20217D01*
X78740Y-15748D02*
X15748Y-15748D01*
X78740Y-55118D02*
X78740Y-15748D01*
X15748Y-55118D02*
X78740Y-55118D01*
X15748Y-15748D02*
X15748Y-55118D01*
G54D12*
X19972Y-39051D03*
G54D13*
X20972Y-39051D03*
X19972Y-40051D03*
X20972Y-40051D03*
X19972Y-41051D03*
X20972Y-41051D03*
X19972Y-42051D03*
X20972Y-42051D03*
G54D12*
X19972Y-48106D03*
G54D13*
X20972Y-48106D03*
X19972Y-49106D03*
X20972Y-49106D03*
X19972Y-50106D03*
X20972Y-50106D03*
X19972Y-51106D03*
X20972Y-51106D03*
G54D12*
X19972Y-28815D03*
G54D13*
X20972Y-28815D03*
X19972Y-29815D03*
X20972Y-29815D03*
X19972Y-30815D03*
X20972Y-30815D03*
X19972Y-31815D03*
X20972Y-31815D03*
G54D12*
X19972Y-19760D03*
G54D13*
X20972Y-19760D03*
X19972Y-20760D03*
X20972Y-20760D03*
X19972Y-21760D03*
X20972Y-21760D03*
X19972Y-22760D03*
X20972Y-22760D03*
G54D14*
X63811Y-37795D03*
G54D15*
X59811Y-37795D03*
G54D16*
X66291Y-25933D03*
G54D17*
X66291Y-26933D03*
X66291Y-27933D03*
X66291Y-28933D03*
X66291Y-29933D03*
X66291Y-30933D03*
X66291Y-31933D03*
X66291Y-32933D03*
X66291Y-33933D03*
X66291Y-34933D03*
X66291Y-35933D03*
X66291Y-36933D03*
X66291Y-37933D03*
X66291Y-38933D03*
X66291Y-39933D03*
X66291Y-40933D03*
X66291Y-41933D03*
X66291Y-42933D03*
X66291Y-43933D03*
X66291Y-44933D03*
X72291Y-44933D03*
X72291Y-43933D03*
X72291Y-42933D03*
X72291Y-41933D03*
X72291Y-40933D03*
X72291Y-39933D03*
X72291Y-38933D03*
X72291Y-37933D03*
X72291Y-36933D03*
X72291Y-35933D03*
X72291Y-34933D03*
X72291Y-33933D03*
X72291Y-32933D03*
X72291Y-31933D03*
X72291Y-30933D03*
X72291Y-29933D03*
X72291Y-28933D03*
X72291Y-27933D03*
X72291Y-26933D03*
X72291Y-25933D03*
G54D16*
X42201Y-37445D03*
G54D17*
X42201Y-38445D03*
X42201Y-39445D03*
X42201Y-40445D03*
X42201Y-41445D03*
X42201Y-42445D03*
X42201Y-43445D03*
X42201Y-44445D03*
X45201Y-44445D03*
X45201Y-43445D03*
X45201Y-42445D03*
X45201Y-41445D03*
X45201Y-40445D03*
X45201Y-39445D03*
X45201Y-38445D03*
X45201Y-37445D03*
G54D16*
X41807Y-24453D03*
G54D17*
X41807Y-25453D03*
X41807Y-26453D03*
X41807Y-27453D03*
X41807Y-28453D03*
X41807Y-29453D03*
X41807Y-30453D03*
X41807Y-31453D03*
X44807Y-31453D03*
X44807Y-30453D03*
X44807Y-29453D03*
X44807Y-28453D03*
X44807Y-27453D03*
X44807Y-26453D03*
X44807Y-25453D03*
X44807Y-24453D03*
G54D18*
X76665Y-17933D03*
X76665Y-52933D03*
G54D13*
X77665Y-21933D03*
X77665Y-22933D03*
X77665Y-23933D03*
X77665Y-24933D03*
X77665Y-25933D03*
X77665Y-26933D03*
X77665Y-27933D03*
X77665Y-28933D03*
X77665Y-29933D03*
X77665Y-30933D03*
X77665Y-31933D03*
X77665Y-32933D03*
X77665Y-33933D03*
X77665Y-34933D03*
X77665Y-35933D03*
X77665Y-36933D03*
X77665Y-37933D03*
X77665Y-38933D03*
X77665Y-39933D03*
X77665Y-40933D03*
X77665Y-41933D03*
X77665Y-42933D03*
X77665Y-43933D03*
X77665Y-44933D03*
X77665Y-45933D03*
X77665Y-46933D03*
X77665Y-47933D03*
X77665Y-48933D03*
X77665Y-49933D03*
X77665Y-50933D03*
X77665Y-20933D03*
G54D12*
X77665Y-19933D03*
G54D13*
X76665Y-19933D03*
X76665Y-20933D03*
X76665Y-21933D03*
X76665Y-22933D03*
X76665Y-23933D03*
X76665Y-24933D03*
X76665Y-25933D03*
X76665Y-26933D03*
X76665Y-27933D03*
X76665Y-28933D03*
X76665Y-29933D03*
X76665Y-30933D03*
X76665Y-31933D03*
X76665Y-32933D03*
X76665Y-33933D03*
X76665Y-34933D03*
X76665Y-35933D03*
X76665Y-36933D03*
X76665Y-37933D03*
X76665Y-38933D03*
X76665Y-39933D03*
X76665Y-40933D03*
X76665Y-41933D03*
X76665Y-42933D03*
X76665Y-43933D03*
X76665Y-44933D03*
X76665Y-45933D03*
X76665Y-46933D03*
X76665Y-47933D03*
X76665Y-48933D03*
X76665Y-49933D03*
X76665Y-50933D03*
G54D12*
X43701Y-34146D03*
G54D13*
X43701Y-35146D03*
G54D12*
X39370Y-30209D03*
G54D13*
X39370Y-31209D03*
G54D12*
X46851Y-24303D03*
G54D13*
X46851Y-25303D03*
G54D12*
X47244Y-37295D03*
G54D13*
X47244Y-38295D03*
G54D12*
X39370Y-27453D03*
G54D13*
X39370Y-28453D03*
G54D12*
X39370Y-24303D03*
G54D13*
X39370Y-25303D03*
G54D12*
X39370Y-40445D03*
G54D13*
X39370Y-41445D03*
G54D12*
X39370Y-37295D03*
G54D13*
X39370Y-38295D03*
G54D19*
X54392Y-40836D03*
X46381Y-29950D03*
X73167Y-37385D03*
X54639Y-51107D03*
G54D20*
X52948Y-32080D02*
X52948Y-30400D01*
X52948Y-30400D02*
X46851Y-24303D01*
X66291Y-34933D02*
X55801Y-34933D01*
X55801Y-34933D02*
X52948Y-32080D01*
X47244Y-37295D02*
X47733Y-37295D01*
X47733Y-37295D02*
X52948Y-32080D01*
X45201Y-37445D02*
X45351Y-37295D01*
X45351Y-37295D02*
X47244Y-37295D01*
X72778Y-33933D02*
X72778Y-35446D01*
X72778Y-35446D02*
X72291Y-35933D01*
X77665Y-32933D02*
X77152Y-33446D01*
X77152Y-33446D02*
X73265Y-33446D01*
X73265Y-33446D02*
X72778Y-33933D01*
X72778Y-33933D02*
X72291Y-33933D01*
X66291Y-34933D02*
X66291Y-33933D01*
X44957Y-24303D02*
X46851Y-24303D01*
X44807Y-24453D02*
X44957Y-24303D01*
X72291Y-33933D02*
X66291Y-33933D01*
X71632Y-35592D02*
X71632Y-35912D01*
X72291Y-34933D02*
X71632Y-35592D01*
X72117Y-36397D02*
X71632Y-35912D01*
X43701Y-34146D02*
X46726Y-31121D01*
X46726Y-31121D02*
X46726Y-29360D01*
X46726Y-29360D02*
X45238Y-27872D01*
X45238Y-27872D02*
X44795Y-27872D01*
X44795Y-27872D02*
X43714Y-28953D01*
X43714Y-28953D02*
X40626Y-28953D01*
X40626Y-28953D02*
X39370Y-30209D01*
X45238Y-27872D02*
X45238Y-25884D01*
X45238Y-25884D02*
X44807Y-25453D01*
X66291Y-35933D02*
X54578Y-35933D01*
X54578Y-35933D02*
X52705Y-37806D01*
X52705Y-37806D02*
X45840Y-37806D01*
X45840Y-37806D02*
X45201Y-38445D01*
X45201Y-38445D02*
X44807Y-38051D01*
X44807Y-38051D02*
X44807Y-35252D01*
X44807Y-35252D02*
X43701Y-34146D01*
X71632Y-35912D02*
X66312Y-35912D01*
X66312Y-35912D02*
X66291Y-35933D01*
X77665Y-37933D02*
X77165Y-37433D01*
X77165Y-37433D02*
X75541Y-37433D01*
X75541Y-37433D02*
X74505Y-36397D01*
X74505Y-36397D02*
X72117Y-36397D01*
X45201Y-43445D02*
X45201Y-44445D01*
X42201Y-44445D02*
X19546Y-44445D01*
X19546Y-44445D02*
X18281Y-43180D01*
X18281Y-43180D02*
X18281Y-40742D01*
X18281Y-40742D02*
X19972Y-39051D01*
X20406Y-39617D02*
X20972Y-39051D01*
X19806Y-39617D02*
X20406Y-39617D01*
X18511Y-40912D02*
X19806Y-39617D01*
X18511Y-43083D02*
X18511Y-40912D01*
X19129Y-43701D02*
X18511Y-43083D01*
X41945Y-43701D02*
X19129Y-43701D01*
X42201Y-43445D02*
X41945Y-43701D01*
X39370Y-41445D02*
X42201Y-41445D01*
X39370Y-40445D02*
X42201Y-40445D01*
X40520Y-39445D02*
X39370Y-38295D01*
X42201Y-39445D02*
X40520Y-39445D01*
X42602Y-38846D02*
X42201Y-38445D01*
X46693Y-38846D02*
X42602Y-38846D01*
X47244Y-38295D02*
X46693Y-38846D01*
X42051Y-37295D02*
X42201Y-37445D01*
X39370Y-37295D02*
X42051Y-37295D01*
X44414Y-26846D02*
X44807Y-26453D01*
X36177Y-26846D02*
X44414Y-26846D01*
X20972Y-42051D02*
X36177Y-26846D01*
X54489Y-40933D02*
X54392Y-40836D01*
X66291Y-40933D02*
X54489Y-40933D01*
X44884Y-28453D02*
X46381Y-29950D01*
X44807Y-28453D02*
X44884Y-28453D01*
X44807Y-30453D02*
X44807Y-31453D01*
X41807Y-31453D02*
X30574Y-42686D01*
X30574Y-42686D02*
X19817Y-42686D01*
X19817Y-42686D02*
X19545Y-42414D01*
X19545Y-42414D02*
X19545Y-41654D01*
X19545Y-41654D02*
X19602Y-41597D01*
X19602Y-41597D02*
X20426Y-41597D01*
X20426Y-41597D02*
X20972Y-41051D01*
X19618Y-41051D02*
X19972Y-41051D01*
X41807Y-30453D02*
X42272Y-30918D01*
X42272Y-30918D02*
X42272Y-31581D01*
X42272Y-31581D02*
X30952Y-42901D01*
X30952Y-42901D02*
X19558Y-42901D01*
X19558Y-42901D02*
X19329Y-42672D01*
X19329Y-42672D02*
X19329Y-41340D01*
X19329Y-41340D02*
X19618Y-41051D01*
X72291Y-25933D02*
X66578Y-20220D01*
X66578Y-20220D02*
X20432Y-20220D01*
X20432Y-20220D02*
X19972Y-19760D01*
X57172Y-23814D02*
X66291Y-32933D01*
X29590Y-23814D02*
X57172Y-23814D01*
X21589Y-31815D02*
X29590Y-23814D01*
X20972Y-31815D02*
X21589Y-31815D01*
X58709Y-23351D02*
X66291Y-30933D01*
X29302Y-23351D02*
X58709Y-23351D01*
X21838Y-30815D02*
X29302Y-23351D01*
X20972Y-30815D02*
X21838Y-30815D01*
X59479Y-23121D02*
X66291Y-29933D01*
X29065Y-23121D02*
X59479Y-23121D01*
X21871Y-30315D02*
X29065Y-23121D01*
X19972Y-30815D02*
X20472Y-30315D01*
X20472Y-30315D02*
X21871Y-30315D01*
X20972Y-29815D02*
X21977Y-29815D01*
X21977Y-29815D02*
X28946Y-22846D01*
X28946Y-22846D02*
X60204Y-22846D01*
X60204Y-22846D02*
X66291Y-28933D01*
X20972Y-28815D02*
X21581Y-28815D01*
X21581Y-28815D02*
X28136Y-22260D01*
X28136Y-22260D02*
X61618Y-22260D01*
X61618Y-22260D02*
X66291Y-26933D01*
X19140Y-44852D02*
X18069Y-43781D01*
X48764Y-44852D02*
X19140Y-44852D01*
X53145Y-40471D02*
X48764Y-44852D01*
X66303Y-40471D02*
X53145Y-40471D01*
X66905Y-39869D02*
X66303Y-40471D01*
X18069Y-43781D02*
X18069Y-40176D01*
X18069Y-40176D02*
X19626Y-38619D01*
X21417Y-39606D02*
X20972Y-40051D01*
X21417Y-38705D02*
X21417Y-39606D01*
X21331Y-38619D02*
X21417Y-38705D01*
X19626Y-38619D02*
X21331Y-38619D01*
X66905Y-39017D02*
X66905Y-39869D01*
X66432Y-38544D02*
X66905Y-39017D01*
X47810Y-38544D02*
X66432Y-38544D01*
X46909Y-39445D02*
X47810Y-38544D01*
X45201Y-39445D02*
X46909Y-39445D01*
X73167Y-37385D02*
X72715Y-36933D01*
X72715Y-36933D02*
X72291Y-36933D01*
X20972Y-51106D02*
X54638Y-51106D01*
X54638Y-51106D02*
X54639Y-51107D01*
X21428Y-49650D02*
X20972Y-50106D01*
X21428Y-47759D02*
X21428Y-49650D01*
X21371Y-47702D02*
X21428Y-47759D01*
X19514Y-47702D02*
X21371Y-47702D01*
X18119Y-49097D02*
X19514Y-47702D01*
X18119Y-51874D02*
X18119Y-49097D01*
X19468Y-53223D02*
X18119Y-51874D01*
X63348Y-53223D02*
X19468Y-53223D01*
X72240Y-44331D02*
X63348Y-53223D01*
X72619Y-44331D02*
X72240Y-44331D01*
X72676Y-44274D02*
X72619Y-44331D01*
X72676Y-39318D02*
X72676Y-44274D01*
X72291Y-38933D02*
X72676Y-39318D01*
X20472Y-49606D02*
X20972Y-49106D01*
X19784Y-49606D02*
X20472Y-49606D01*
X19272Y-50118D02*
X19784Y-49606D01*
X19272Y-51424D02*
X19272Y-50118D01*
X19903Y-52055D02*
X19272Y-51424D01*
X61169Y-52055D02*
X19903Y-52055D01*
X72291Y-40933D02*
X61169Y-52055D01*
X20480Y-48598D02*
X20972Y-48106D01*
X19647Y-48598D02*
X20480Y-48598D01*
X18698Y-49547D02*
X19647Y-48598D01*
X18698Y-51674D02*
X18698Y-49547D01*
X19653Y-52629D02*
X18698Y-51674D01*
X62595Y-52629D02*
X19653Y-52629D01*
X72291Y-42933D02*
X62595Y-52629D01*
X39370Y-28453D02*
X41807Y-28453D01*
X39370Y-27453D02*
X41807Y-27453D01*
X40520Y-26453D02*
X41807Y-26453D01*
X39370Y-25303D02*
X40520Y-26453D01*
X42307Y-24953D02*
X41807Y-25453D01*
X46501Y-24953D02*
X42307Y-24953D01*
X46851Y-25303D02*
X46501Y-24953D01*
X41657Y-24303D02*
X41807Y-24453D01*
X39370Y-24303D02*
X41657Y-24303D01*
X43618Y-42445D02*
X42201Y-42445D01*
X45082Y-40981D02*
X43618Y-42445D01*
X45258Y-40981D02*
X45082Y-40981D01*
X45588Y-40651D02*
X45258Y-40981D01*
X45588Y-40258D02*
X45588Y-40651D01*
X45354Y-40024D02*
X45588Y-40258D01*
X40483Y-40024D02*
X45354Y-40024D01*
X38923Y-38464D02*
X40483Y-40024D01*
X38923Y-36920D02*
X38923Y-38464D01*
X40697Y-35146D02*
X38923Y-36920D01*
X43701Y-35146D02*
X40697Y-35146D01*
X40051Y-31209D02*
X39370Y-31209D01*
X41807Y-29453D02*
X40051Y-31209D01*
X19972Y-20760D02*
X19540Y-20328D01*
X19540Y-20328D02*
X19540Y-19386D01*
X19540Y-19386D02*
X19597Y-19329D01*
X19597Y-19329D02*
X66628Y-19329D01*
X66628Y-19329D02*
X73279Y-25980D01*
X73279Y-25980D02*
X73279Y-26945D01*
X73279Y-26945D02*
X72291Y-27933D01*
X19972Y-51106D02*
X20377Y-51511D01*
X20377Y-51511D02*
X56700Y-51511D01*
X56700Y-51511D02*
X62093Y-46118D01*
X62093Y-46118D02*
X62639Y-46118D01*
X62639Y-46118D02*
X65214Y-43543D01*
X65214Y-43543D02*
X66274Y-43543D01*
X66274Y-43543D02*
X71883Y-37934D01*
X71883Y-37934D02*
X72291Y-37934D01*
X72291Y-37934D02*
X72291Y-37933D01*
X17555Y-40262D02*
X17555Y-43758D01*
X17555Y-43758D02*
X19346Y-45549D01*
X19346Y-45549D02*
X62082Y-45549D01*
X62082Y-45549D02*
X65698Y-41933D01*
X65698Y-41933D02*
X66291Y-41933D01*
X19421Y-38396D02*
X17555Y-40262D01*
X21548Y-38396D02*
X19421Y-38396D01*
X21623Y-38471D02*
X21548Y-38396D01*
X21623Y-40401D02*
X21623Y-38471D01*
X21571Y-40453D02*
X21623Y-40401D01*
X19794Y-40453D02*
X21571Y-40453D01*
X19085Y-41162D02*
X19794Y-40453D01*
X19085Y-42791D02*
X19085Y-41162D01*
X19425Y-43131D02*
X19085Y-42791D01*
X31129Y-43131D02*
X19425Y-43131D01*
X44807Y-29453D02*
X31129Y-43131D01*
X60399Y-51825D02*
X72291Y-39933D01*
X19964Y-51825D02*
X60399Y-51825D01*
X19559Y-51420D02*
X19964Y-51825D01*
X19559Y-50519D02*
X19559Y-51420D01*
X19972Y-50106D02*
X19559Y-50519D01*
X47713Y-39933D02*
X45201Y-42445D01*
X66291Y-39933D02*
X47713Y-39933D01*
X20731Y-23519D02*
X19972Y-22760D01*
X20811Y-23519D02*
X20731Y-23519D01*
X21282Y-23048D02*
X20811Y-23519D01*
X26504Y-23048D02*
X21282Y-23048D01*
X27788Y-21764D02*
X26504Y-23048D01*
X63126Y-21764D02*
X27788Y-21764D01*
X66985Y-25623D02*
X63126Y-21764D01*
X66985Y-28591D02*
X66985Y-25623D01*
X71713Y-33319D02*
X66985Y-28591D01*
X72633Y-33319D02*
X71713Y-33319D01*
X72690Y-33262D02*
X72633Y-33319D01*
X72690Y-32332D02*
X72690Y-33262D01*
X72291Y-31933D02*
X72690Y-32332D01*
X18985Y-50093D02*
X19972Y-49106D01*
X18985Y-51543D02*
X18985Y-50093D01*
X19784Y-52342D02*
X18985Y-51543D01*
X61882Y-52342D02*
X19784Y-52342D01*
X72291Y-41933D02*
X61882Y-52342D01*
X47713Y-38933D02*
X66291Y-38933D01*
X45201Y-41445D02*
X47713Y-38933D01*
X66291Y-37933D02*
X63949Y-37933D01*
X63949Y-37933D02*
X63811Y-37795D01*
X72291Y-43933D02*
X63224Y-53000D01*
X63224Y-53000D02*
X19568Y-53000D01*
X19568Y-53000D02*
X18411Y-51843D01*
X18411Y-51843D02*
X18411Y-49330D01*
X18411Y-49330D02*
X19635Y-48106D01*
X19635Y-48106D02*
X19972Y-48106D01*
X20972Y-22759D02*
X20972Y-22760D01*
X26244Y-22759D02*
X20972Y-22759D01*
X27669Y-21334D02*
X26244Y-22759D01*
X63041Y-21334D02*
X27669Y-21334D01*
X67640Y-25933D02*
X63041Y-21334D01*
X67640Y-28282D02*
X67640Y-25933D01*
X72291Y-32933D02*
X67640Y-28282D01*
X19972Y-28815D02*
X25243Y-23544D01*
X25243Y-23544D02*
X26441Y-23544D01*
X26441Y-23544D02*
X28012Y-21973D01*
X28012Y-21973D02*
X62331Y-21973D01*
X62331Y-21973D02*
X66291Y-25933D01*
X60917Y-22559D02*
X66291Y-27933D01*
X28827Y-22559D02*
X60917Y-22559D01*
X22071Y-29315D02*
X28827Y-22559D01*
X20472Y-29315D02*
X22071Y-29315D01*
X19972Y-29815D02*
X20472Y-29315D01*
X19972Y-31815D02*
X20472Y-31315D01*
X20472Y-31315D02*
X21730Y-31315D01*
X21730Y-31315D02*
X29471Y-23574D01*
X29471Y-23574D02*
X57932Y-23574D01*
X57932Y-23574D02*
X66291Y-31933D01*
X66291Y-36933D02*
X60673Y-36933D01*
X60673Y-36933D02*
X59811Y-37795D01*
X78097Y-36365D02*
X77665Y-35933D01*
X78097Y-38319D02*
X78097Y-36365D01*
X78040Y-38376D02*
X78097Y-38319D01*
X71848Y-38376D02*
X78040Y-38376D01*
X66291Y-43933D02*
X71848Y-38376D01*
X77665Y-34933D02*
X78495Y-35763D01*
X78495Y-35763D02*
X78495Y-39791D01*
X78495Y-39791D02*
X77807Y-40479D01*
X77807Y-40479D02*
X77290Y-40479D01*
X77290Y-40479D02*
X77233Y-40536D01*
X77233Y-40536D02*
X77233Y-41053D01*
X77233Y-41053D02*
X76864Y-41422D01*
X76864Y-41422D02*
X76407Y-41422D01*
X76407Y-41422D02*
X64318Y-53511D01*
X64318Y-53511D02*
X19298Y-53511D01*
X19298Y-53511D02*
X17831Y-52044D01*
X17831Y-52044D02*
X17831Y-48656D01*
X17831Y-48656D02*
X20650Y-45837D01*
X20650Y-45837D02*
X62576Y-45837D01*
X62576Y-45837D02*
X65480Y-42933D01*
X65480Y-42933D02*
X66291Y-42933D01*
X44807Y-27453D02*
X44307Y-27953D01*
X44307Y-27953D02*
X37282Y-27953D01*
X37282Y-27953D02*
X22764Y-42471D01*
X22764Y-42471D02*
X20392Y-42471D01*
X20392Y-42471D02*
X19972Y-42051D01*
X45201Y-40445D02*
X44665Y-40981D01*
X44665Y-40981D02*
X34219Y-40981D01*
X34219Y-40981D02*
X31782Y-43418D01*
X31782Y-43418D02*
X19306Y-43418D01*
X19306Y-43418D02*
X18798Y-42910D01*
X18798Y-42910D02*
X18798Y-41031D01*
X18798Y-41031D02*
X19778Y-40051D01*
X19778Y-40051D02*
X19972Y-40051D01*
X20972Y-21760D02*
X20472Y-21260D01*
X20472Y-21260D02*
X19803Y-21260D01*
X19803Y-21260D02*
X19253Y-20710D01*
X19253Y-20710D02*
X19253Y-19267D01*
X19253Y-19267D02*
X19478Y-19042D01*
X19478Y-19042D02*
X66748Y-19042D01*
X66748Y-19042D02*
X73566Y-25860D01*
X73566Y-25860D02*
X73566Y-29658D01*
X73566Y-29658D02*
X72291Y-30933D01*
X20472Y-22260D02*
X19972Y-21760D01*
X25758Y-22260D02*
X20472Y-22260D01*
X26971Y-21047D02*
X25758Y-22260D01*
X63405Y-21047D02*
X26971Y-21047D01*
X72291Y-29933D02*
X63405Y-21047D01*
X64118Y-20760D02*
X20972Y-20760D01*
X72291Y-28933D02*
X64118Y-20760D01*
X72821Y-26403D02*
X72291Y-26933D01*
X72821Y-25928D02*
X72821Y-26403D01*
X66653Y-19760D02*
X72821Y-25928D01*
X20972Y-19760D02*
X66653Y-19760D01*
M02*
