0
SECTION
2
HEADER
9
$ANGBASE
50
0.0
9
$ANGDIR
70
0
0
ENDSEC
0
SECTION
2
TABLES
0
TABLE
2
LTYPE
70
1
0
LTYPE
2
CONTINUOUS
70
0
3
Solid line
72
65
73
0
40
0.0
0
ENDTAB
0
TABLE
2
LAYER
70
24
0
LAYER
2
BLACK
70
0
62
1
6
CONTINUOUS
0
LAYER
2
BLUE
70
0
62
2
6
CONTINUOUS
0
LAYER
2
GREEN
70
0
62
3
6
CONTINUOUS
0
LAYER
2
CYAN
70
0
62
4
6
CONTINUOUS
0
LAYER
2
RED
70
0
62
5
6
CONTINUOUS
0
LAYER
2
MAGENTA
70
0
62
6
6
CONTINUOUS
0
LAYER
2
BROWN
70
0
62
7
6
CONTINUOUS
0
LAYER
2
GRAY
70
0
62
8
6
CONTINUOUS
0
LAYER
2
DARKGRAY
70
0
62
9
6
CONTINUOUS
0
LAYER
2
LIGHTBLUE
70
0
62
10
6
CONTINUOUS
0
LAYER
2
LIGHTGREEN
70
0
62
11
6
CONTINUOUS
0
LAYER
2
LIGHTCYAN
70
0
62
12
6
CONTINUOUS
0
LAYER
2
LIGHTRED
70
0
62
13
6
CONTINUOUS
0
LAYER
2
LIGHTMAGENTA
70
0
62
14
6
CONTINUOUS
0
LAYER
2
YELLOW
70
0
62
15
6
CONTINUOUS
0
LAYER
2
WHITE
70
0
62
16
6
CONTINUOUS
0
LAYER
2
DARKDARKGRAY
70
0
62
17
6
CONTINUOUS
0
LAYER
2
DARKBLUE
70
0
62
18
6
CONTINUOUS
0
LAYER
2
DARKGREEN
70
0
62
19
6
CONTINUOUS
0
LAYER
2
DARKCYAN
70
0
62
20
6
CONTINUOUS
0
LAYER
2
DARKRED
70
0
62
21
6
CONTINUOUS
0
LAYER
2
DARKMAGENTA
70
0
62
22
6
CONTINUOUS
0
LAYER
2
DARKBROWN
70
0
62
23
6
CONTINUOUS
0
LAYER
2
LIGHTYELLOW
70
0
62
24
6
CONTINUOUS
0
ENDTAB
0
ENDSEC
0
SECTION
2
ENTITIES
0
CIRCLE
8
BLACK
10
17323.0
20
29127.0
40
1250
0
LINE
8
BLACK
10
14823.0
20
29052.0
11
19823.0
21
29052.0
0
LINE
8
BLACK
10
14823.0
20
29202.0
11
19823.0
21
29202.0
0
ARC
8
BLACK
10
19823.0
20
29127.0
40
75.0
50
270.0
51
450.0
0
ARC
8
BLACK
10
14823.0
20
29127.0
40
75.0
50
90.0
51
270.0
0
LINE
8
BLACK
10
17398.0
20
26627.0
11
17398.0
21
31627.0
0
LINE
8
BLACK
10
17248.0
20
26627.0
11
17248.0
21
31627.0
0
ARC
8
BLACK
10
17323.0
20
31627.0
40
75.0
50
360.0
51
540.0
0
ARC
8
BLACK
10
17323.0
20
26627.0
40
75.0
50
180.0
51
360.0
0
CIRCLE
8
BLACK
10
73622.0
20
64953.0
40
1250
0
LINE
8
BLACK
10
71122.0
20
64878.0
11
76122.0
21
64878.0
0
LINE
8
BLACK
10
71122.0
20
65028.0
11
76122.0
21
65028.0
0
ARC
8
BLACK
10
76122.0
20
64953.0
40
75.0
50
270.0
51
450.0
0
ARC
8
BLACK
10
71122.0
20
64953.0
40
75.0
50
90.0
51
270.0
0
LINE
8
BLACK
10
73697.0
20
62453.0
11
73697.0
21
67453.0
0
LINE
8
BLACK
10
73547.0
20
62453.0
11
73547.0
21
67453.0
0
ARC
8
BLACK
10
73622.0
20
67453.0
40
75.0
50
360.0
51
540.0
0
ARC
8
BLACK
10
73622.0
20
62453.0
40
75.0
50
180.0
51
360.0
0
CIRCLE
8
BLACK
10
73622.0
20
29127.0
40
1250
0
LINE
8
BLACK
10
71122.0
20
29052.0
11
76122.0
21
29052.0
0
LINE
8
BLACK
10
71122.0
20
29202.0
11
76122.0
21
29202.0
0
ARC
8
BLACK
10
76122.0
20
29127.0
40
75.0
50
270.0
51
450.0
0
ARC
8
BLACK
10
71122.0
20
29127.0
40
75.0
50
90.0
51
270.0
0
LINE
8
BLACK
10
73697.0
20
26627.0
11
73697.0
21
31627.0
0
LINE
8
BLACK
10
73547.0
20
26627.0
11
73547.0
21
31627.0
0
ARC
8
BLACK
10
73622.0
20
31627.0
40
75.0
50
360.0
51
540.0
0
ARC
8
BLACK
10
73622.0
20
26627.0
40
75.0
50
180.0
51
360.0
0
CIRCLE
8
BLACK
10
17717.0
20
64953.0
40
1250
0
LINE
8
BLACK
10
15217.0
20
64878.0
11
20217.0
21
64878.0
0
LINE
8
BLACK
10
15217.0
20
65028.0
11
20217.0
21
65028.0
0
ARC
8
BLACK
10
20217.0
20
64953.0
40
75.0
50
270.0
51
450.0
0
ARC
8
BLACK
10
15217.0
20
64953.0
40
75.0
50
90.0
51
270.0
0
LINE
8
BLACK
10
17792.0
20
62453.0
11
17792.0
21
67453.0
0
LINE
8
BLACK
10
17642.0
20
62453.0
11
17642.0
21
67453.0
0
ARC
8
BLACK
10
17717.0
20
67453.0
40
75.0
50
360.0
51
540.0
0
ARC
8
BLACK
10
17717.0
20
62453.0
40
75.0
50
180.0
51
360.0
0
LINE
8
BLACK
10
15748.0
20
66847.0
11
78740.0
21
66847.0
0
LINE
8
BLACK
10
15748.0
20
66997.0
11
78740.0
21
66997.0
0
ARC
8
BLACK
10
78740.0
20
66922.0
40
75.0
50
270.0
51
450.0
0
ARC
8
BLACK
10
15748.0
20
66922.0
40
75.0
50
90.0
51
270.0
0
LINE
8
BLACK
10
78815.0
20
27552.0
11
78815.0
21
66922.0
0
LINE
8
BLACK
10
78665.0
20
27552.0
11
78665.0
21
66922.0
0
ARC
8
BLACK
10
78740.0
20
66922.0
40
75.0
50
360.0
51
540.0
0
ARC
8
BLACK
10
78740.0
20
27552.0
40
75.0
50
180.0
51
360.0
0
LINE
8
BLACK
10
15748.0
20
27477.0
11
78740.0
21
27477.0
0
LINE
8
BLACK
10
15748.0
20
27627.0
11
78740.0
21
27627.0
0
ARC
8
BLACK
10
78740.0
20
27552.0
40
75.0
50
270.0
51
450.0
0
ARC
8
BLACK
10
15748.0
20
27552.0
40
75.0
50
90.0
51
270.0
0
LINE
8
BLACK
10
15823.0
20
27552.0
11
15823.0
21
66922.0
0
LINE
8
BLACK
10
15673.0
20
27552.0
11
15673.0
21
66922.0
0
ARC
8
BLACK
10
15748.0
20
66922.0
40
75.0
50
360.0
51
540.0
0
ARC
8
BLACK
10
15748.0
20
27552.0
40
75.0
50
180.0
51
360.0
0
LINE
8
BLACK
10
20272.0
20
43919.0
11
19672.0
21
43919.0
0
LINE
8
BLACK
10
19672.0
20
43919.0
11
19672.0
21
43319.0
0
LINE
8
BLACK
10
19672.0
20
43319.0
11
20272.0
21
43319.0
0
LINE
8
BLACK
10
20272.0
20
43319.0
11
20272.0
21
43919.0
0
CIRCLE
8
BLACK
10
20972.0
20
43619.0
40
300
0
CIRCLE
8
BLACK
10
19972.0
20
42619.0
40
300
0
CIRCLE
8
BLACK
10
20972.0
20
42619.0
40
300
0
CIRCLE
8
BLACK
10
19972.0
20
41619.0
40
300
0
CIRCLE
8
BLACK
10
20972.0
20
41619.0
40
300
0
CIRCLE
8
BLACK
10
19972.0
20
40619.0
40
300
0
CIRCLE
8
BLACK
10
20972.0
20
40619.0
40
300
0
LINE
8
BLACK
10
20272.0
20
34864.0
11
19672.0
21
34864.0
0
LINE
8
BLACK
10
19672.0
20
34864.0
11
19672.0
21
34264.0
0
LINE
8
BLACK
10
19672.0
20
34264.0
11
20272.0
21
34264.0
0
LINE
8
BLACK
10
20272.0
20
34264.0
11
20272.0
21
34864.0
0
CIRCLE
8
BLACK
10
20972.0
20
34564.0
40
300
0
CIRCLE
8
BLACK
10
19972.0
20
33564.0
40
300
0
CIRCLE
8
BLACK
10
20972.0
20
33564.0
40
300
0
CIRCLE
8
BLACK
10
19972.0
20
32564.0
40
300
0
CIRCLE
8
BLACK
10
20972.0
20
32564.0
40
300
0
CIRCLE
8
BLACK
10
19972.0
20
31564.0
40
300
0
CIRCLE
8
BLACK
10
20972.0
20
31564.0
40
300
0
LINE
8
BLACK
10
20272.0
20
54155.0
11
19672.0
21
54155.0
0
LINE
8
BLACK
10
19672.0
20
54155.0
11
19672.0
21
53555.0
0
LINE
8
BLACK
10
19672.0
20
53555.0
11
20272.0
21
53555.0
0
LINE
8
BLACK
10
20272.0
20
53555.0
11
20272.0
21
54155.0
0
CIRCLE
8
BLACK
10
20972.0
20
53855.0
40
300
0
CIRCLE
8
BLACK
10
19972.0
20
52855.0
40
300
0
CIRCLE
8
BLACK
10
20972.0
20
52855.0
40
300
0
CIRCLE
8
BLACK
10
19972.0
20
51855.0
40
300
0
CIRCLE
8
BLACK
10
20972.0
20
51855.0
40
300
0
CIRCLE
8
BLACK
10
19972.0
20
50855.0
40
300
0
CIRCLE
8
BLACK
10
20972.0
20
50855.0
40
300
0
LINE
8
BLACK
10
20272.0
20
63210.0
11
19672.0
21
63210.0
0
LINE
8
BLACK
10
19672.0
20
63210.0
11
19672.0
21
62610.0
0
LINE
8
BLACK
10
19672.0
20
62610.0
11
20272.0
21
62610.0
0
LINE
8
BLACK
10
20272.0
20
62610.0
11
20272.0
21
63210.0
0
CIRCLE
8
BLACK
10
20972.0
20
62910.0
40
300
0
CIRCLE
8
BLACK
10
19972.0
20
61910.0
40
300
0
CIRCLE
8
BLACK
10
20972.0
20
61910.0
40
300
0
CIRCLE
8
BLACK
10
19972.0
20
60910.0
40
300
0
CIRCLE
8
BLACK
10
20972.0
20
60910.0
40
300
0
CIRCLE
8
BLACK
10
19972.0
20
59910.0
40
300
0
CIRCLE
8
BLACK
10
20972.0
20
59910.0
40
300
0
CIRCLE
8
BLACK
10
63811.0
20
44875.0
40
400
0
CIRCLE
8
BLACK
10
59811.0
20
44875.0
40
350
0
LINE
8
BLACK
10
66566.0
20
57012.0
11
66016.0
21
57012.0
0
LINE
8
BLACK
10
66016.0
20
57012.0
11
66016.0
21
56462.0
0
LINE
8
BLACK
10
66016.0
20
56462.0
11
66566.0
21
56462.0
0
LINE
8
BLACK
10
66566.0
20
56462.0
11
66566.0
21
57012.0
0
CIRCLE
8
BLACK
10
66291.0
20
55737.0
40
275
0
CIRCLE
8
BLACK
10
66291.0
20
54737.0
40
275
0
CIRCLE
8
BLACK
10
66291.0
20
53737.0
40
275
0
CIRCLE
8
BLACK
10
66291.0
20
52737.0
40
275
0
CIRCLE
8
BLACK
10
66291.0
20
51737.0
40
275
0
CIRCLE
8
BLACK
10
66291.0
20
50737.0
40
275
0
CIRCLE
8
BLACK
10
66291.0
20
49737.0
40
275
0
CIRCLE
8
BLACK
10
66291.0
20
48737.0
40
275
0
CIRCLE
8
BLACK
10
66291.0
20
47737.0
40
275
0
CIRCLE
8
BLACK
10
66291.0
20
46737.0
40
275
0
CIRCLE
8
BLACK
10
66291.0
20
45737.0
40
275
0
CIRCLE
8
BLACK
10
66291.0
20
44737.0
40
275
0
CIRCLE
8
BLACK
10
66291.0
20
43737.0
40
275
0
CIRCLE
8
BLACK
10
66291.0
20
42737.0
40
275
0
CIRCLE
8
BLACK
10
66291.0
20
41737.0
40
275
0
CIRCLE
8
BLACK
10
66291.0
20
40737.0
40
275
0
CIRCLE
8
BLACK
10
66291.0
20
39737.0
40
275
0
CIRCLE
8
BLACK
10
66291.0
20
38737.0
40
275
0
CIRCLE
8
BLACK
10
66291.0
20
37737.0
40
275
0
CIRCLE
8
BLACK
10
72291.0
20
37737.0
40
275
0
CIRCLE
8
BLACK
10
72291.0
20
38737.0
40
275
0
CIRCLE
8
BLACK
10
72291.0
20
39737.0
40
275
0
CIRCLE
8
BLACK
10
72291.0
20
40737.0
40
275
0
CIRCLE
8
BLACK
10
72291.0
20
41737.0
40
275
0
CIRCLE
8
BLACK
10
72291.0
20
42737.0
40
275
0
CIRCLE
8
BLACK
10
72291.0
20
43737.0
40
275
0
CIRCLE
8
BLACK
10
72291.0
20
44737.0
40
275
0
CIRCLE
8
BLACK
10
72291.0
20
45737.0
40
275
0
CIRCLE
8
BLACK
10
72291.0
20
46737.0
40
275
0
CIRCLE
8
BLACK
10
72291.0
20
47737.0
40
275
0
CIRCLE
8
BLACK
10
72291.0
20
48737.0
40
275
0
CIRCLE
8
BLACK
10
72291.0
20
49737.0
40
275
0
CIRCLE
8
BLACK
10
72291.0
20
50737.0
40
275
0
CIRCLE
8
BLACK
10
72291.0
20
51737.0
40
275
0
CIRCLE
8
BLACK
10
72291.0
20
52737.0
40
275
0
CIRCLE
8
BLACK
10
72291.0
20
53737.0
40
275
0
CIRCLE
8
BLACK
10
72291.0
20
54737.0
40
275
0
CIRCLE
8
BLACK
10
72291.0
20
55737.0
40
275
0
CIRCLE
8
BLACK
10
72291.0
20
56737.0
40
275
0
LINE
8
BLACK
10
42476.0
20
45500.0
11
41926.0
21
45500.0
0
LINE
8
BLACK
10
41926.0
20
45500.0
11
41926.0
21
44950.0
0
LINE
8
BLACK
10
41926.0
20
44950.0
11
42476.0
21
44950.0
0
LINE
8
BLACK
10
42476.0
20
44950.0
11
42476.0
21
45500.0
0
CIRCLE
8
BLACK
10
42201.0
20
44225.0
40
275
0
CIRCLE
8
BLACK
10
42201.0
20
43225.0
40
275
0
CIRCLE
8
BLACK
10
42201.0
20
42225.0
40
275
0
CIRCLE
8
BLACK
10
42201.0
20
41225.0
40
275
0
CIRCLE
8
BLACK
10
42201.0
20
40225.0
40
275
0
CIRCLE
8
BLACK
10
42201.0
20
39225.0
40
275
0
CIRCLE
8
BLACK
10
42201.0
20
38225.0
40
275
0
CIRCLE
8
BLACK
10
45201.0
20
38225.0
40
275
0
CIRCLE
8
BLACK
10
45201.0
20
39225.0
40
275
0
CIRCLE
8
BLACK
10
45201.0
20
40225.0
40
275
0
CIRCLE
8
BLACK
10
45201.0
20
41225.0
40
275
0
CIRCLE
8
BLACK
10
45201.0
20
42225.0
40
275
0
CIRCLE
8
BLACK
10
45201.0
20
43225.0
40
275
0
CIRCLE
8
BLACK
10
45201.0
20
44225.0
40
275
0
CIRCLE
8
BLACK
10
45201.0
20
45225.0
40
275
0
LINE
8
BLACK
10
42082.0
20
58492.0
11
41532.0
21
58492.0
0
LINE
8
BLACK
10
41532.0
20
58492.0
11
41532.0
21
57942.0
0
LINE
8
BLACK
10
41532.0
20
57942.0
11
42082.0
21
57942.0
0
LINE
8
BLACK
10
42082.0
20
57942.0
11
42082.0
21
58492.0
0
CIRCLE
8
BLACK
10
41807.0
20
57217.0
40
275
0
CIRCLE
8
BLACK
10
41807.0
20
56217.0
40
275
0
CIRCLE
8
BLACK
10
41807.0
20
55217.0
40
275
0
CIRCLE
8
BLACK
10
41807.0
20
54217.0
40
275
0
CIRCLE
8
BLACK
10
41807.0
20
53217.0
40
275
0
CIRCLE
8
BLACK
10
41807.0
20
52217.0
40
275
0
CIRCLE
8
BLACK
10
41807.0
20
51217.0
40
275
0
CIRCLE
8
BLACK
10
44807.0
20
51217.0
40
275
0
CIRCLE
8
BLACK
10
44807.0
20
52217.0
40
275
0
CIRCLE
8
BLACK
10
44807.0
20
53217.0
40
275
0
CIRCLE
8
BLACK
10
44807.0
20
54217.0
40
275
0
CIRCLE
8
BLACK
10
44807.0
20
55217.0
40
275
0
CIRCLE
8
BLACK
10
44807.0
20
56217.0
40
275
0
CIRCLE
8
BLACK
10
44807.0
20
57217.0
40
275
0
CIRCLE
8
BLACK
10
44807.0
20
58217.0
40
275
0
CIRCLE
8
BLACK
10
76665.0
20
64737.0
40
750
0
CIRCLE
8
BLACK
10
76665.0
20
29737.0
40
750
0
CIRCLE
8
BLACK
10
77665.0
20
60737.0
40
300
0
CIRCLE
8
BLACK
10
77665.0
20
59737.0
40
300
0
CIRCLE
8
BLACK
10
77665.0
20
58737.0
40
300
0
CIRCLE
8
BLACK
10
77665.0
20
57737.0
40
300
0
CIRCLE
8
BLACK
10
77665.0
20
56737.0
40
300
0
CIRCLE
8
BLACK
10
77665.0
20
55737.0
40
300
0
CIRCLE
8
BLACK
10
77665.0
20
54737.0
40
300
0
CIRCLE
8
BLACK
10
77665.0
20
53737.0
40
300
0
CIRCLE
8
BLACK
10
77665.0
20
52737.0
40
300
0
CIRCLE
8
BLACK
10
77665.0
20
51737.0
40
300
0
CIRCLE
8
BLACK
10
77665.0
20
50737.0
40
300
0
CIRCLE
8
BLACK
10
77665.0
20
49737.0
40
300
0
CIRCLE
8
BLACK
10
77665.0
20
48737.0
40
300
0
CIRCLE
8
BLACK
10
77665.0
20
47737.0
40
300
0
CIRCLE
8
BLACK
10
77665.0
20
46737.0
40
300
0
CIRCLE
8
BLACK
10
77665.0
20
45737.0
40
300
0
CIRCLE
8
BLACK
10
77665.0
20
44737.0
40
300
0
CIRCLE
8
BLACK
10
77665.0
20
43737.0
40
300
0
CIRCLE
8
BLACK
10
77665.0
20
42737.0
40
300
0
CIRCLE
8
BLACK
10
77665.0
20
41737.0
40
300
0
CIRCLE
8
BLACK
10
77665.0
20
40737.0
40
300
0
CIRCLE
8
BLACK
10
77665.0
20
39737.0
40
300
0
CIRCLE
8
BLACK
10
77665.0
20
38737.0
40
300
0
CIRCLE
8
BLACK
10
77665.0
20
37737.0
40
300
0
CIRCLE
8
BLACK
10
77665.0
20
36737.0
40
300
0
CIRCLE
8
BLACK
10
77665.0
20
35737.0
40
300
0
CIRCLE
8
BLACK
10
77665.0
20
34737.0
40
300
0
CIRCLE
8
BLACK
10
77665.0
20
33737.0
40
300
0
CIRCLE
8
BLACK
10
77665.0
20
32737.0
40
300
0
CIRCLE
8
BLACK
10
77665.0
20
31737.0
40
300
0
CIRCLE
8
BLACK
10
77665.0
20
61737.0
40
300
0
LINE
8
BLACK
10
77965.0
20
63037.0
11
77365.0
21
63037.0
0
LINE
8
BLACK
10
77365.0
20
63037.0
11
77365.0
21
62437.0
0
LINE
8
BLACK
10
77365.0
20
62437.0
11
77965.0
21
62437.0
0
LINE
8
BLACK
10
77965.0
20
62437.0
11
77965.0
21
63037.0
0
CIRCLE
8
BLACK
10
76665.0
20
62737.0
40
300
0
CIRCLE
8
BLACK
10
76665.0
20
61737.0
40
300
0
CIRCLE
8
BLACK
10
76665.0
20
60737.0
40
300
0
CIRCLE
8
BLACK
10
76665.0
20
59737.0
40
300
0
CIRCLE
8
BLACK
10
76665.0
20
58737.0
40
300
0
CIRCLE
8
BLACK
10
76665.0
20
57737.0
40
300
0
CIRCLE
8
BLACK
10
76665.0
20
56737.0
40
300
0
CIRCLE
8
BLACK
10
76665.0
20
55737.0
40
300
0
CIRCLE
8
BLACK
10
76665.0
20
54737.0
40
300
0
CIRCLE
8
BLACK
10
76665.0
20
53737.0
40
300
0
CIRCLE
8
BLACK
10
76665.0
20
52737.0
40
300
0
CIRCLE
8
BLACK
10
76665.0
20
51737.0
40
300
0
CIRCLE
8
BLACK
10
76665.0
20
50737.0
40
300
0
CIRCLE
8
BLACK
10
76665.0
20
49737.0
40
300
0
CIRCLE
8
BLACK
10
76665.0
20
48737.0
40
300
0
CIRCLE
8
BLACK
10
76665.0
20
47737.0
40
300
0
CIRCLE
8
BLACK
10
76665.0
20
46737.0
40
300
0
CIRCLE
8
BLACK
10
76665.0
20
45737.0
40
300
0
CIRCLE
8
BLACK
10
76665.0
20
44737.0
40
300
0
CIRCLE
8
BLACK
10
76665.0
20
43737.0
40
300
0
CIRCLE
8
BLACK
10
76665.0
20
42737.0
40
300
0
CIRCLE
8
BLACK
10
76665.0
20
41737.0
40
300
0
CIRCLE
8
BLACK
10
76665.0
20
40737.0
40
300
0
CIRCLE
8
BLACK
10
76665.0
20
39737.0
40
300
0
CIRCLE
8
BLACK
10
76665.0
20
38737.0
40
300
0
CIRCLE
8
BLACK
10
76665.0
20
37737.0
40
300
0
CIRCLE
8
BLACK
10
76665.0
20
36737.0
40
300
0
CIRCLE
8
BLACK
10
76665.0
20
35737.0
40
300
0
CIRCLE
8
BLACK
10
76665.0
20
34737.0
40
300
0
CIRCLE
8
BLACK
10
76665.0
20
33737.0
40
300
0
CIRCLE
8
BLACK
10
76665.0
20
32737.0
40
300
0
CIRCLE
8
BLACK
10
76665.0
20
31737.0
40
300
0
LINE
8
BLACK
10
44001.0
20
48824.0
11
43401.0
21
48824.0
0
LINE
8
BLACK
10
43401.0
20
48824.0
11
43401.0
21
48224.0
0
LINE
8
BLACK
10
43401.0
20
48224.0
11
44001.0
21
48224.0
0
LINE
8
BLACK
10
44001.0
20
48224.0
11
44001.0
21
48824.0
0
CIRCLE
8
BLACK
10
43701.0
20
47524.0
40
300
0
LINE
8
BLACK
10
39670.0
20
52761.0
11
39070.0
21
52761.0
0
LINE
8
BLACK
10
39070.0
20
52761.0
11
39070.0
21
52161.0
0
LINE
8
BLACK
10
39070.0
20
52161.0
11
39670.0
21
52161.0
0
LINE
8
BLACK
10
39670.0
20
52161.0
11
39670.0
21
52761.0
0
CIRCLE
8
BLACK
10
39370.0
20
51461.0
40
300
0
LINE
8
BLACK
10
47151.0
20
58667.0
11
46551.0
21
58667.0
0
LINE
8
BLACK
10
46551.0
20
58667.0
11
46551.0
21
58067.0
0
LINE
8
BLACK
10
46551.0
20
58067.0
11
47151.0
21
58067.0
0
LINE
8
BLACK
10
47151.0
20
58067.0
11
47151.0
21
58667.0
0
CIRCLE
8
BLACK
10
46851.0
20
57367.0
40
300
0
LINE
8
BLACK
10
47544.0
20
45675.0
11
46944.0
21
45675.0
0
LINE
8
BLACK
10
46944.0
20
45675.0
11
46944.0
21
45075.0
0
LINE
8
BLACK
10
46944.0
20
45075.0
11
47544.0
21
45075.0
0
LINE
8
BLACK
10
47544.0
20
45075.0
11
47544.0
21
45675.0
0
CIRCLE
8
BLACK
10
47244.0
20
44375.0
40
300
0
LINE
8
BLACK
10
39670.0
20
55517.0
11
39070.0
21
55517.0
0
LINE
8
BLACK
10
39070.0
20
55517.0
11
39070.0
21
54917.0
0
LINE
8
BLACK
10
39070.0
20
54917.0
11
39670.0
21
54917.0
0
LINE
8
BLACK
10
39670.0
20
54917.0
11
39670.0
21
55517.0
0
CIRCLE
8
BLACK
10
39370.0
20
54217.0
40
300
0
LINE
8
BLACK
10
39670.0
20
58667.0
11
39070.0
21
58667.0
0
LINE
8
BLACK
10
39070.0
20
58667.0
11
39070.0
21
58067.0
0
LINE
8
BLACK
10
39070.0
20
58067.0
11
39670.0
21
58067.0
0
LINE
8
BLACK
10
39670.0
20
58067.0
11
39670.0
21
58667.0
0
CIRCLE
8
BLACK
10
39370.0
20
57367.0
40
300
0
LINE
8
BLACK
10
39670.0
20
42525.0
11
39070.0
21
42525.0
0
LINE
8
BLACK
10
39070.0
20
42525.0
11
39070.0
21
41925.0
0
LINE
8
BLACK
10
39070.0
20
41925.0
11
39670.0
21
41925.0
0
LINE
8
BLACK
10
39670.0
20
41925.0
11
39670.0
21
42525.0
0
CIRCLE
8
BLACK
10
39370.0
20
41225.0
40
300
0
LINE
8
BLACK
10
39670.0
20
45675.0
11
39070.0
21
45675.0
0
LINE
8
BLACK
10
39070.0
20
45675.0
11
39070.0
21
45075.0
0
LINE
8
BLACK
10
39070.0
20
45075.0
11
39670.0
21
45075.0
0
LINE
8
BLACK
10
39670.0
20
45075.0
11
39670.0
21
45675.0
0
CIRCLE
8
BLACK
10
39370.0
20
44375.0
40
300
0
CIRCLE
8
BLACK
10
54392.0
20
41834.0
40
175
0
CIRCLE
8
BLACK
10
46381.0
20
52720.0
40
175
0
CIRCLE
8
BLACK
10
73167.0
20
45285.0
40
175
0
CIRCLE
8
BLACK
10
54639.0
20
31563.0
40
175
0
LINE
8
BLACK
10
46480.0
20
49846.0
11
46480.0
21
52720.0
0
LINE
8
BLACK
10
46282.0
20
49846.0
11
46282.0
21
52720.0
0
ARC
8
BLACK
10
46381.0
20
52720.0
40
99.0
50
360.0
51
540.0
0
ARC
8
BLACK
10
46381.0
20
49846.0
40
99.0
50
180.0
51
360.0
0
LINE
8
BLACK
10
54461.0
20
41905.0
11
46451.0
21
49915.0
0
LINE
8
BLACK
10
54321.0
20
41765.0
11
46311.0
21
49775.0
0
ARC
8
BLACK
10
46381.0
20
49845.0
40
99.0
50
405.0
51
585.0
0
ARC
8
BLACK
10
54391.0
20
41835.0
40
99.0
50
225.0
51
405.0
0
LINE
8
BLACK
10
54639.0
20
31464.0
11
67065.0
21
31464.0
0
LINE
8
BLACK
10
54639.0
20
31662.0
11
67065.0
21
31662.0
0
ARC
8
BLACK
10
67065.0
20
31563.0
40
99.0
50
270.0
51
450.0
0
ARC
8
BLACK
10
54639.0
20
31563.0
40
99.0
50
90.0
51
270.0
0
LINE
8
BLACK
10
67136.0
20
31494.0
11
73236.0
21
37594.0
0
LINE
8
BLACK
10
66996.0
20
31634.0
11
73096.0
21
37734.0
0
ARC
8
BLACK
10
73166.0
20
37664.0
40
99.0
50
315.0
51
495.0
0
ARC
8
BLACK
10
67066.0
20
31564.0
40
99.0
50
135.0
51
315.0
0
LINE
8
BLACK
10
73266.0
20
37665.0
11
73266.0
21
45285.0
0
LINE
8
BLACK
10
73068.0
20
37665.0
11
73068.0
21
45285.0
0
ARC
8
BLACK
10
73167.0
20
45285.0
40
99.0
50
360.0
51
540.0
0
ARC
8
BLACK
10
73167.0
20
37665.0
40
99.0
50
180.0
51
360.0
0
ENDSEC
0
EOF
