G04 (created by PCBNEW-RS274X (2011-11-27 BZR 3249)-stable) date 19.12.2011 19:15:57*
G01*
G70*
G90*
%MOIN*%
G04 Gerber Fmt 3.4, Leading zero omitted, Abs format*
%FSLAX34Y34*%
G04 APERTURE LIST*
%ADD10C,0.006000*%
%ADD11C,0.015000*%
%ADD12C,0.012000*%
%ADD13C,0.008000*%
%ADD14C,0.005000*%
%ADD15C,0.011300*%
G04 APERTURE END LIST*
G54D10*
G54D11*
X18573Y-53543D02*
X18549Y-53785D01*
X18478Y-54019D01*
X18364Y-54234D01*
X18209Y-54423D01*
X18021Y-54579D01*
X17807Y-54695D01*
X17574Y-54767D01*
X17331Y-54792D01*
X17089Y-54770D01*
X16855Y-54701D01*
X16639Y-54588D01*
X16449Y-54436D01*
X16292Y-54249D01*
X16175Y-54035D01*
X16101Y-53802D01*
X16074Y-53560D01*
X16094Y-53318D01*
X16161Y-53083D01*
X16273Y-52866D01*
X16424Y-52675D01*
X16610Y-52517D01*
X16823Y-52398D01*
X17055Y-52323D01*
X17297Y-52294D01*
X17540Y-52312D01*
X17775Y-52378D01*
X17992Y-52488D01*
X18185Y-52638D01*
X18344Y-52823D01*
X18464Y-53035D01*
X18541Y-53267D01*
X18572Y-53509D01*
X18573Y-53543D01*
X14823Y-53543D02*
X19823Y-53543D01*
X17323Y-51043D02*
X17323Y-56043D01*
X74872Y-17717D02*
X74848Y-17959D01*
X74777Y-18193D01*
X74663Y-18408D01*
X74508Y-18597D01*
X74320Y-18753D01*
X74106Y-18869D01*
X73873Y-18941D01*
X73630Y-18966D01*
X73388Y-18944D01*
X73154Y-18875D01*
X72938Y-18762D01*
X72748Y-18610D01*
X72591Y-18423D01*
X72474Y-18209D01*
X72400Y-17976D01*
X72373Y-17734D01*
X72393Y-17492D01*
X72460Y-17257D01*
X72572Y-17040D01*
X72723Y-16849D01*
X72909Y-16691D01*
X73122Y-16572D01*
X73354Y-16497D01*
X73596Y-16468D01*
X73839Y-16486D01*
X74074Y-16552D01*
X74291Y-16662D01*
X74484Y-16812D01*
X74643Y-16997D01*
X74763Y-17209D01*
X74840Y-17441D01*
X74871Y-17683D01*
X74872Y-17717D01*
X71122Y-17717D02*
X76122Y-17717D01*
X73622Y-15217D02*
X73622Y-20217D01*
X74872Y-53543D02*
X74848Y-53785D01*
X74777Y-54019D01*
X74663Y-54234D01*
X74508Y-54423D01*
X74320Y-54579D01*
X74106Y-54695D01*
X73873Y-54767D01*
X73630Y-54792D01*
X73388Y-54770D01*
X73154Y-54701D01*
X72938Y-54588D01*
X72748Y-54436D01*
X72591Y-54249D01*
X72474Y-54035D01*
X72400Y-53802D01*
X72373Y-53560D01*
X72393Y-53318D01*
X72460Y-53083D01*
X72572Y-52866D01*
X72723Y-52675D01*
X72909Y-52517D01*
X73122Y-52398D01*
X73354Y-52323D01*
X73596Y-52294D01*
X73839Y-52312D01*
X74074Y-52378D01*
X74291Y-52488D01*
X74484Y-52638D01*
X74643Y-52823D01*
X74763Y-53035D01*
X74840Y-53267D01*
X74871Y-53509D01*
X74872Y-53543D01*
X71122Y-53543D02*
X76122Y-53543D01*
X73622Y-51043D02*
X73622Y-56043D01*
X18967Y-17717D02*
X18943Y-17959D01*
X18872Y-18193D01*
X18758Y-18408D01*
X18603Y-18597D01*
X18415Y-18753D01*
X18201Y-18869D01*
X17968Y-18941D01*
X17725Y-18966D01*
X17483Y-18944D01*
X17249Y-18875D01*
X17033Y-18762D01*
X16843Y-18610D01*
X16686Y-18423D01*
X16569Y-18209D01*
X16495Y-17976D01*
X16468Y-17734D01*
X16488Y-17492D01*
X16555Y-17257D01*
X16667Y-17040D01*
X16818Y-16849D01*
X17004Y-16691D01*
X17217Y-16572D01*
X17449Y-16497D01*
X17691Y-16468D01*
X17934Y-16486D01*
X18169Y-16552D01*
X18386Y-16662D01*
X18579Y-16812D01*
X18738Y-16997D01*
X18858Y-17209D01*
X18935Y-17441D01*
X18966Y-17683D01*
X18967Y-17717D01*
X15217Y-17717D02*
X20217Y-17717D01*
X17717Y-15217D02*
X17717Y-20217D01*
X78740Y-15748D02*
X15748Y-15748D01*
X78740Y-55118D02*
X78740Y-15748D01*
X15748Y-55118D02*
X78740Y-55118D01*
X15748Y-15748D02*
X15748Y-55118D01*
G54D12*
X21472Y-38551D02*
X21472Y-42551D01*
X21472Y-42551D02*
X19472Y-42551D01*
X19472Y-42551D02*
X19472Y-38551D01*
X19472Y-38551D02*
X21472Y-38551D01*
X21472Y-47606D02*
X21472Y-51606D01*
X21472Y-51606D02*
X19472Y-51606D01*
X19472Y-51606D02*
X19472Y-47606D01*
X19472Y-47606D02*
X21472Y-47606D01*
X21472Y-28315D02*
X21472Y-32315D01*
X21472Y-32315D02*
X19472Y-32315D01*
X19472Y-32315D02*
X19472Y-28315D01*
X19472Y-28315D02*
X21472Y-28315D01*
X21472Y-19260D02*
X21472Y-23260D01*
X21472Y-23260D02*
X19472Y-23260D01*
X19472Y-23260D02*
X19472Y-19260D01*
X19472Y-19260D02*
X21472Y-19260D01*
G54D13*
X59811Y-36045D02*
X63811Y-36045D01*
X59811Y-36045D02*
X59659Y-36052D01*
X59508Y-36072D01*
X59359Y-36105D01*
X59213Y-36151D01*
X59072Y-36209D01*
X58937Y-36280D01*
X58808Y-36362D01*
X58687Y-36455D01*
X58574Y-36558D01*
X58471Y-36671D01*
X58378Y-36792D01*
X58296Y-36921D01*
X58225Y-37056D01*
X58167Y-37197D01*
X58121Y-37343D01*
X58088Y-37492D01*
X58068Y-37643D01*
X58061Y-37795D01*
X63811Y-39545D02*
X59811Y-39545D01*
X58061Y-37795D02*
X58068Y-37947D01*
X58088Y-38098D01*
X58121Y-38247D01*
X58167Y-38393D01*
X58225Y-38534D01*
X58296Y-38669D01*
X58378Y-38798D01*
X58471Y-38919D01*
X58574Y-39032D01*
X58687Y-39135D01*
X58808Y-39228D01*
X58937Y-39310D01*
X59072Y-39381D01*
X59213Y-39439D01*
X59359Y-39485D01*
X59508Y-39518D01*
X59659Y-39538D01*
X59811Y-39545D01*
X65561Y-37795D02*
X65554Y-37643D01*
X65534Y-37492D01*
X65501Y-37343D01*
X65455Y-37197D01*
X65397Y-37056D01*
X65326Y-36921D01*
X65244Y-36792D01*
X65151Y-36671D01*
X65048Y-36558D01*
X64935Y-36455D01*
X64814Y-36362D01*
X64686Y-36280D01*
X64550Y-36209D01*
X64409Y-36151D01*
X64263Y-36105D01*
X64114Y-36072D01*
X63963Y-36052D01*
X63811Y-36045D01*
X63811Y-39545D02*
X63963Y-39538D01*
X64114Y-39518D01*
X64263Y-39485D01*
X64409Y-39439D01*
X64550Y-39381D01*
X64686Y-39310D01*
X64814Y-39228D01*
X64935Y-39135D01*
X65048Y-39032D01*
X65151Y-38919D01*
X65244Y-38798D01*
X65326Y-38669D01*
X65397Y-38534D01*
X65455Y-38393D01*
X65501Y-38247D01*
X65534Y-38098D01*
X65554Y-37947D01*
X65561Y-37795D01*
G54D11*
X69791Y-24933D02*
X69791Y-25433D01*
X69791Y-25433D02*
X68791Y-25433D01*
X68791Y-25433D02*
X68791Y-24933D01*
X71791Y-24933D02*
X71791Y-45933D01*
X71791Y-45933D02*
X66791Y-45933D01*
X66791Y-45933D02*
X66791Y-24933D01*
X66791Y-24933D02*
X71791Y-24933D01*
X44201Y-36445D02*
X44201Y-36445D01*
X44201Y-36445D02*
X44201Y-36945D01*
X44201Y-36945D02*
X43201Y-36945D01*
X43201Y-36945D02*
X43201Y-36445D01*
X44701Y-36445D02*
X44701Y-45445D01*
X44701Y-45445D02*
X42701Y-45445D01*
X42701Y-45445D02*
X42701Y-36445D01*
X42701Y-36445D02*
X44701Y-36445D01*
X43807Y-23453D02*
X43807Y-23453D01*
X43807Y-23453D02*
X43807Y-23953D01*
X43807Y-23953D02*
X42807Y-23953D01*
X42807Y-23953D02*
X42807Y-23453D01*
X44307Y-23453D02*
X44307Y-32453D01*
X44307Y-32453D02*
X42307Y-32453D01*
X42307Y-32453D02*
X42307Y-23453D01*
X42307Y-23453D02*
X44307Y-23453D01*
G54D12*
X78665Y-16933D02*
X78665Y-53933D01*
X78665Y-53933D02*
X75665Y-53933D01*
X75665Y-16933D02*
X78665Y-16933D01*
X75665Y-18933D02*
X78665Y-18933D01*
X75665Y-51933D02*
X78665Y-51933D01*
X75665Y-16933D02*
X75665Y-53933D01*
G54D14*
X44951Y-34646D02*
X44927Y-34888D01*
X44856Y-35122D01*
X44742Y-35337D01*
X44587Y-35526D01*
X44399Y-35682D01*
X44185Y-35798D01*
X43952Y-35870D01*
X43709Y-35895D01*
X43467Y-35873D01*
X43233Y-35804D01*
X43017Y-35691D01*
X42827Y-35539D01*
X42670Y-35352D01*
X42553Y-35138D01*
X42479Y-34905D01*
X42452Y-34663D01*
X42472Y-34421D01*
X42539Y-34186D01*
X42651Y-33969D01*
X42802Y-33778D01*
X42988Y-33620D01*
X43201Y-33501D01*
X43433Y-33426D01*
X43675Y-33397D01*
X43918Y-33415D01*
X44153Y-33481D01*
X44370Y-33591D01*
X44563Y-33741D01*
X44722Y-33926D01*
X44842Y-34138D01*
X44919Y-34370D01*
X44950Y-34612D01*
X44951Y-34646D01*
X40620Y-30709D02*
X40596Y-30951D01*
X40525Y-31185D01*
X40411Y-31400D01*
X40256Y-31589D01*
X40068Y-31745D01*
X39854Y-31861D01*
X39621Y-31933D01*
X39378Y-31958D01*
X39136Y-31936D01*
X38902Y-31867D01*
X38686Y-31754D01*
X38496Y-31602D01*
X38339Y-31415D01*
X38222Y-31201D01*
X38148Y-30968D01*
X38121Y-30726D01*
X38141Y-30484D01*
X38208Y-30249D01*
X38320Y-30032D01*
X38471Y-29841D01*
X38657Y-29683D01*
X38870Y-29564D01*
X39102Y-29489D01*
X39344Y-29460D01*
X39587Y-29478D01*
X39822Y-29544D01*
X40039Y-29654D01*
X40232Y-29804D01*
X40391Y-29989D01*
X40511Y-30201D01*
X40588Y-30433D01*
X40619Y-30675D01*
X40620Y-30709D01*
X48101Y-24803D02*
X48077Y-25045D01*
X48006Y-25279D01*
X47892Y-25494D01*
X47737Y-25683D01*
X47549Y-25839D01*
X47335Y-25955D01*
X47102Y-26027D01*
X46859Y-26052D01*
X46617Y-26030D01*
X46383Y-25961D01*
X46167Y-25848D01*
X45977Y-25696D01*
X45820Y-25509D01*
X45703Y-25295D01*
X45629Y-25062D01*
X45602Y-24820D01*
X45622Y-24578D01*
X45689Y-24343D01*
X45801Y-24126D01*
X45952Y-23935D01*
X46138Y-23777D01*
X46351Y-23658D01*
X46583Y-23583D01*
X46825Y-23554D01*
X47068Y-23572D01*
X47303Y-23638D01*
X47520Y-23748D01*
X47713Y-23898D01*
X47872Y-24083D01*
X47992Y-24295D01*
X48069Y-24527D01*
X48100Y-24769D01*
X48101Y-24803D01*
X48494Y-37795D02*
X48470Y-38037D01*
X48399Y-38271D01*
X48285Y-38486D01*
X48130Y-38675D01*
X47942Y-38831D01*
X47728Y-38947D01*
X47495Y-39019D01*
X47252Y-39044D01*
X47010Y-39022D01*
X46776Y-38953D01*
X46560Y-38840D01*
X46370Y-38688D01*
X46213Y-38501D01*
X46096Y-38287D01*
X46022Y-38054D01*
X45995Y-37812D01*
X46015Y-37570D01*
X46082Y-37335D01*
X46194Y-37118D01*
X46345Y-36927D01*
X46531Y-36769D01*
X46744Y-36650D01*
X46976Y-36575D01*
X47218Y-36546D01*
X47461Y-36564D01*
X47696Y-36630D01*
X47913Y-36740D01*
X48106Y-36890D01*
X48265Y-37075D01*
X48385Y-37287D01*
X48462Y-37519D01*
X48493Y-37761D01*
X48494Y-37795D01*
X40620Y-27953D02*
X40596Y-28195D01*
X40525Y-28429D01*
X40411Y-28644D01*
X40256Y-28833D01*
X40068Y-28989D01*
X39854Y-29105D01*
X39621Y-29177D01*
X39378Y-29202D01*
X39136Y-29180D01*
X38902Y-29111D01*
X38686Y-28998D01*
X38496Y-28846D01*
X38339Y-28659D01*
X38222Y-28445D01*
X38148Y-28212D01*
X38121Y-27970D01*
X38141Y-27728D01*
X38208Y-27493D01*
X38320Y-27276D01*
X38471Y-27085D01*
X38657Y-26927D01*
X38870Y-26808D01*
X39102Y-26733D01*
X39344Y-26704D01*
X39587Y-26722D01*
X39822Y-26788D01*
X40039Y-26898D01*
X40232Y-27048D01*
X40391Y-27233D01*
X40511Y-27445D01*
X40588Y-27677D01*
X40619Y-27919D01*
X40620Y-27953D01*
X40620Y-24803D02*
X40596Y-25045D01*
X40525Y-25279D01*
X40411Y-25494D01*
X40256Y-25683D01*
X40068Y-25839D01*
X39854Y-25955D01*
X39621Y-26027D01*
X39378Y-26052D01*
X39136Y-26030D01*
X38902Y-25961D01*
X38686Y-25848D01*
X38496Y-25696D01*
X38339Y-25509D01*
X38222Y-25295D01*
X38148Y-25062D01*
X38121Y-24820D01*
X38141Y-24578D01*
X38208Y-24343D01*
X38320Y-24126D01*
X38471Y-23935D01*
X38657Y-23777D01*
X38870Y-23658D01*
X39102Y-23583D01*
X39344Y-23554D01*
X39587Y-23572D01*
X39822Y-23638D01*
X40039Y-23748D01*
X40232Y-23898D01*
X40391Y-24083D01*
X40511Y-24295D01*
X40588Y-24527D01*
X40619Y-24769D01*
X40620Y-24803D01*
X40620Y-40945D02*
X40596Y-41187D01*
X40525Y-41421D01*
X40411Y-41636D01*
X40256Y-41825D01*
X40068Y-41981D01*
X39854Y-42097D01*
X39621Y-42169D01*
X39378Y-42194D01*
X39136Y-42172D01*
X38902Y-42103D01*
X38686Y-41990D01*
X38496Y-41838D01*
X38339Y-41651D01*
X38222Y-41437D01*
X38148Y-41204D01*
X38121Y-40962D01*
X38141Y-40720D01*
X38208Y-40485D01*
X38320Y-40268D01*
X38471Y-40077D01*
X38657Y-39919D01*
X38870Y-39800D01*
X39102Y-39725D01*
X39344Y-39696D01*
X39587Y-39714D01*
X39822Y-39780D01*
X40039Y-39890D01*
X40232Y-40040D01*
X40391Y-40225D01*
X40511Y-40437D01*
X40588Y-40669D01*
X40619Y-40911D01*
X40620Y-40945D01*
X40620Y-37795D02*
X40596Y-38037D01*
X40525Y-38271D01*
X40411Y-38486D01*
X40256Y-38675D01*
X40068Y-38831D01*
X39854Y-38947D01*
X39621Y-39019D01*
X39378Y-39044D01*
X39136Y-39022D01*
X38902Y-38953D01*
X38686Y-38840D01*
X38496Y-38688D01*
X38339Y-38501D01*
X38222Y-38287D01*
X38148Y-38054D01*
X38121Y-37812D01*
X38141Y-37570D01*
X38208Y-37335D01*
X38320Y-37118D01*
X38471Y-36927D01*
X38657Y-36769D01*
X38870Y-36650D01*
X39102Y-36575D01*
X39344Y-36546D01*
X39587Y-36564D01*
X39822Y-36630D01*
X40039Y-36740D01*
X40232Y-36890D01*
X40391Y-37075D01*
X40511Y-37287D01*
X40588Y-37519D01*
X40619Y-37761D01*
X40620Y-37795D01*
G54D13*
X22134Y-40846D02*
X21734Y-40846D01*
X21734Y-40693D01*
X21753Y-40655D01*
X21772Y-40636D01*
X21810Y-40617D01*
X21867Y-40617D01*
X21905Y-40636D01*
X21924Y-40655D01*
X21943Y-40693D01*
X21943Y-40846D01*
X21867Y-40274D02*
X22134Y-40274D01*
X21715Y-40370D02*
X22001Y-40465D01*
X22001Y-40217D01*
X22134Y-49901D02*
X21734Y-49901D01*
X21734Y-49748D01*
X21753Y-49710D01*
X21772Y-49691D01*
X21810Y-49672D01*
X21867Y-49672D01*
X21905Y-49691D01*
X21924Y-49710D01*
X21943Y-49748D01*
X21943Y-49901D01*
X21734Y-49539D02*
X21734Y-49291D01*
X21886Y-49425D01*
X21886Y-49367D01*
X21905Y-49329D01*
X21924Y-49310D01*
X21962Y-49291D01*
X22058Y-49291D01*
X22096Y-49310D01*
X22115Y-49329D01*
X22134Y-49367D01*
X22134Y-49482D01*
X22115Y-49520D01*
X22096Y-49539D01*
X22134Y-30610D02*
X21734Y-30610D01*
X21734Y-30457D01*
X21753Y-30419D01*
X21772Y-30400D01*
X21810Y-30381D01*
X21867Y-30381D01*
X21905Y-30400D01*
X21924Y-30419D01*
X21943Y-30457D01*
X21943Y-30610D01*
X21772Y-30229D02*
X21753Y-30210D01*
X21734Y-30172D01*
X21734Y-30076D01*
X21753Y-30038D01*
X21772Y-30019D01*
X21810Y-30000D01*
X21848Y-30000D01*
X21905Y-30019D01*
X22134Y-30248D01*
X22134Y-30000D01*
X22134Y-21555D02*
X21734Y-21555D01*
X21734Y-21402D01*
X21753Y-21364D01*
X21772Y-21345D01*
X21810Y-21326D01*
X21867Y-21326D01*
X21905Y-21345D01*
X21924Y-21364D01*
X21943Y-21402D01*
X21943Y-21555D01*
X22134Y-20945D02*
X22134Y-21174D01*
X22134Y-21060D02*
X21734Y-21060D01*
X21791Y-21098D01*
X21829Y-21136D01*
X21848Y-21174D01*
G54D12*
X61326Y-38438D02*
X61726Y-39038D01*
X61726Y-38438D02*
X61326Y-39038D01*
X62268Y-39038D02*
X61925Y-39038D01*
X62097Y-39038D02*
X62097Y-38438D01*
X62040Y-38524D01*
X61982Y-38581D01*
X61925Y-38609D01*
X60176Y-36981D02*
X60147Y-37009D01*
X60061Y-37038D01*
X60004Y-37038D01*
X59919Y-37009D01*
X59861Y-36952D01*
X59833Y-36895D01*
X59804Y-36781D01*
X59804Y-36695D01*
X59833Y-36581D01*
X59861Y-36524D01*
X59919Y-36466D01*
X60004Y-36438D01*
X60061Y-36438D01*
X60147Y-36466D01*
X60176Y-36495D01*
X60776Y-37038D02*
X60576Y-36752D01*
X60433Y-37038D02*
X60433Y-36438D01*
X60661Y-36438D01*
X60719Y-36466D01*
X60747Y-36495D01*
X60776Y-36552D01*
X60776Y-36638D01*
X60747Y-36695D01*
X60719Y-36724D01*
X60661Y-36752D01*
X60433Y-36752D01*
X61147Y-36752D02*
X61147Y-37038D01*
X60947Y-36438D02*
X61147Y-36752D01*
X61347Y-36438D01*
X61518Y-37009D02*
X61604Y-37038D01*
X61747Y-37038D01*
X61804Y-37009D01*
X61833Y-36981D01*
X61861Y-36924D01*
X61861Y-36866D01*
X61833Y-36809D01*
X61804Y-36781D01*
X61747Y-36752D01*
X61633Y-36724D01*
X61575Y-36695D01*
X61547Y-36666D01*
X61518Y-36609D01*
X61518Y-36552D01*
X61547Y-36495D01*
X61575Y-36466D01*
X61633Y-36438D01*
X61775Y-36438D01*
X61861Y-36466D01*
X62032Y-36438D02*
X62375Y-36438D01*
X62204Y-37038D02*
X62204Y-36438D01*
X62546Y-36866D02*
X62832Y-36866D01*
X62489Y-37038D02*
X62689Y-36438D01*
X62889Y-37038D01*
X63375Y-37038D02*
X63089Y-37038D01*
X63089Y-36438D01*
G54D15*
X71074Y-28372D02*
X70374Y-28372D01*
X71008Y-27901D02*
X71041Y-27922D01*
X71074Y-27986D01*
X71074Y-28029D01*
X71041Y-28094D01*
X70974Y-28136D01*
X70908Y-28158D01*
X70774Y-28179D01*
X70674Y-28179D01*
X70541Y-28158D01*
X70474Y-28136D01*
X70408Y-28094D01*
X70374Y-28029D01*
X70374Y-27986D01*
X70408Y-27922D01*
X70441Y-27901D01*
X71074Y-27472D02*
X71074Y-27729D01*
X71074Y-27601D02*
X70374Y-27601D01*
X70474Y-27644D01*
X70541Y-27686D01*
X70574Y-27729D01*
G54D12*
X68374Y-44817D02*
X68374Y-44483D01*
X68574Y-44883D02*
X67874Y-44650D01*
X68574Y-44417D01*
X67874Y-44283D02*
X67874Y-43883D01*
X68574Y-44083D02*
X67874Y-44083D01*
X68574Y-43650D02*
X67874Y-43650D01*
X68374Y-43417D01*
X67874Y-43184D01*
X68574Y-43184D01*
X68208Y-42850D02*
X68208Y-42617D01*
X68574Y-42517D02*
X68574Y-42850D01*
X67874Y-42850D01*
X67874Y-42517D01*
X67908Y-41851D02*
X67874Y-41917D01*
X67874Y-42017D01*
X67908Y-42117D01*
X67974Y-42184D01*
X68041Y-42217D01*
X68174Y-42251D01*
X68274Y-42251D01*
X68408Y-42217D01*
X68474Y-42184D01*
X68541Y-42117D01*
X68574Y-42017D01*
X68574Y-41951D01*
X68541Y-41851D01*
X68508Y-41817D01*
X68274Y-41817D01*
X68274Y-41951D01*
X68374Y-41551D02*
X68374Y-41217D01*
X68574Y-41617D02*
X67874Y-41384D01*
X68574Y-41151D01*
X67874Y-40984D02*
X67874Y-40551D01*
X68141Y-40784D01*
X68141Y-40684D01*
X68174Y-40617D01*
X68208Y-40584D01*
X68274Y-40551D01*
X68441Y-40551D01*
X68508Y-40584D01*
X68541Y-40617D01*
X68574Y-40684D01*
X68574Y-40884D01*
X68541Y-40951D01*
X68508Y-40984D01*
X67941Y-40284D02*
X67908Y-40250D01*
X67874Y-40184D01*
X67874Y-40017D01*
X67908Y-39950D01*
X67941Y-39917D01*
X68008Y-39884D01*
X68074Y-39884D01*
X68174Y-39917D01*
X68574Y-40317D01*
X68574Y-39884D01*
X68108Y-39283D02*
X68574Y-39283D01*
X67841Y-39450D02*
X68341Y-39617D01*
X68341Y-39183D01*
X68374Y-38950D02*
X68374Y-38616D01*
X68574Y-39016D02*
X67874Y-38783D01*
X68574Y-38550D01*
X68308Y-38316D02*
X68308Y-37783D01*
X68574Y-37449D02*
X67874Y-37449D01*
X67874Y-37183D01*
X67908Y-37116D01*
X67941Y-37083D01*
X68008Y-37049D01*
X68108Y-37049D01*
X68174Y-37083D01*
X68208Y-37116D01*
X68241Y-37183D01*
X68241Y-37449D01*
G54D15*
X43844Y-38788D02*
X44330Y-38788D01*
X44387Y-38766D01*
X44415Y-38745D01*
X44444Y-38702D01*
X44444Y-38616D01*
X44415Y-38574D01*
X44387Y-38552D01*
X44330Y-38531D01*
X43844Y-38531D01*
X44444Y-38081D02*
X44444Y-38338D01*
X44444Y-38210D02*
X43844Y-38210D01*
X43930Y-38253D01*
X43987Y-38295D01*
X44015Y-38338D01*
X43444Y-43146D02*
X42844Y-43146D01*
X43272Y-42996D01*
X42844Y-42846D01*
X43444Y-42846D01*
X43272Y-42653D02*
X43272Y-42439D01*
X43444Y-42696D02*
X42844Y-42546D01*
X43444Y-42396D01*
X42844Y-42289D02*
X43444Y-41989D01*
X42844Y-41989D02*
X43444Y-42289D01*
X42901Y-41838D02*
X42872Y-41817D01*
X42844Y-41774D01*
X42844Y-41667D01*
X42872Y-41624D01*
X42901Y-41603D01*
X42958Y-41581D01*
X43015Y-41581D01*
X43101Y-41603D01*
X43444Y-41860D01*
X43444Y-41581D01*
X42844Y-41431D02*
X42844Y-41152D01*
X43072Y-41302D01*
X43072Y-41238D01*
X43101Y-41195D01*
X43130Y-41174D01*
X43187Y-41152D01*
X43330Y-41152D01*
X43387Y-41174D01*
X43415Y-41195D01*
X43444Y-41238D01*
X43444Y-41366D01*
X43415Y-41409D01*
X43387Y-41431D01*
X42901Y-40980D02*
X42872Y-40959D01*
X42844Y-40916D01*
X42844Y-40809D01*
X42872Y-40766D01*
X42901Y-40745D01*
X42958Y-40723D01*
X43015Y-40723D01*
X43101Y-40745D01*
X43444Y-41002D01*
X43444Y-40723D01*
X43450Y-25796D02*
X43936Y-25796D01*
X43993Y-25774D01*
X44021Y-25753D01*
X44050Y-25710D01*
X44050Y-25624D01*
X44021Y-25582D01*
X43993Y-25560D01*
X43936Y-25539D01*
X43450Y-25539D01*
X43507Y-25346D02*
X43478Y-25325D01*
X43450Y-25282D01*
X43450Y-25175D01*
X43478Y-25132D01*
X43507Y-25111D01*
X43564Y-25089D01*
X43621Y-25089D01*
X43707Y-25111D01*
X44050Y-25368D01*
X44050Y-25089D01*
X43050Y-30154D02*
X42450Y-30154D01*
X42878Y-30004D01*
X42450Y-29854D01*
X43050Y-29854D01*
X42878Y-29661D02*
X42878Y-29447D01*
X43050Y-29704D02*
X42450Y-29554D01*
X43050Y-29404D01*
X42450Y-29297D02*
X43050Y-28997D01*
X42450Y-28997D02*
X43050Y-29297D01*
X42507Y-28846D02*
X42478Y-28825D01*
X42450Y-28782D01*
X42450Y-28675D01*
X42478Y-28632D01*
X42507Y-28611D01*
X42564Y-28589D01*
X42621Y-28589D01*
X42707Y-28611D01*
X43050Y-28868D01*
X43050Y-28589D01*
X42450Y-28439D02*
X42450Y-28160D01*
X42678Y-28310D01*
X42678Y-28246D01*
X42707Y-28203D01*
X42736Y-28182D01*
X42793Y-28160D01*
X42936Y-28160D01*
X42993Y-28182D01*
X43021Y-28203D01*
X43050Y-28246D01*
X43050Y-28374D01*
X43021Y-28417D01*
X42993Y-28439D01*
X42507Y-27988D02*
X42478Y-27967D01*
X42450Y-27924D01*
X42450Y-27817D01*
X42478Y-27774D01*
X42507Y-27753D01*
X42564Y-27731D01*
X42621Y-27731D01*
X42707Y-27753D01*
X43050Y-28010D01*
X43050Y-27731D01*
G54D12*
X79698Y-27449D02*
X78998Y-27449D01*
X78998Y-27183D01*
X79032Y-27116D01*
X79065Y-27083D01*
X79132Y-27049D01*
X79232Y-27049D01*
X79298Y-27083D01*
X79332Y-27116D01*
X79365Y-27183D01*
X79365Y-27449D01*
X78998Y-26416D02*
X78998Y-26749D01*
X79332Y-26783D01*
X79298Y-26749D01*
X79265Y-26683D01*
X79265Y-26516D01*
X79298Y-26449D01*
X79332Y-26416D01*
X79398Y-26383D01*
X79565Y-26383D01*
X79632Y-26416D01*
X79665Y-26449D01*
X79698Y-26516D01*
X79698Y-26683D01*
X79665Y-26749D01*
X79632Y-26783D01*
X79632Y-46033D02*
X79665Y-46067D01*
X79698Y-46167D01*
X79698Y-46233D01*
X79665Y-46333D01*
X79598Y-46400D01*
X79532Y-46433D01*
X79398Y-46467D01*
X79298Y-46467D01*
X79165Y-46433D01*
X79098Y-46400D01*
X79032Y-46333D01*
X78998Y-46233D01*
X78998Y-46167D01*
X79032Y-46067D01*
X79065Y-46033D01*
X78998Y-45433D02*
X78998Y-45567D01*
X79032Y-45633D01*
X79065Y-45667D01*
X79165Y-45733D01*
X79298Y-45767D01*
X79565Y-45767D01*
X79632Y-45733D01*
X79665Y-45700D01*
X79698Y-45633D01*
X79698Y-45500D01*
X79665Y-45433D01*
X79632Y-45400D01*
X79565Y-45367D01*
X79398Y-45367D01*
X79332Y-45400D01*
X79298Y-45433D01*
X79265Y-45500D01*
X79265Y-45633D01*
X79298Y-45700D01*
X79332Y-45733D01*
X79398Y-45767D01*
X79232Y-44766D02*
X79698Y-44766D01*
X78965Y-44933D02*
X79465Y-45100D01*
X79465Y-44666D01*
X79498Y-44433D02*
X79498Y-44099D01*
X79698Y-44499D02*
X78998Y-44266D01*
X79698Y-44033D01*
X79632Y-43399D02*
X79665Y-43433D01*
X79698Y-43533D01*
X79698Y-43599D01*
X79665Y-43699D01*
X79598Y-43766D01*
X79532Y-43799D01*
X79398Y-43833D01*
X79298Y-43833D01*
X79165Y-43799D01*
X79098Y-43766D01*
X79032Y-43699D01*
X78998Y-43599D01*
X78998Y-43533D01*
X79032Y-43433D01*
X79065Y-43399D01*
G54D13*
X43240Y-34704D02*
X43262Y-34720D01*
X43283Y-34770D01*
X43283Y-34804D01*
X43262Y-34854D01*
X43219Y-34887D01*
X43176Y-34904D01*
X43090Y-34920D01*
X43026Y-34920D01*
X42940Y-34904D01*
X42897Y-34887D01*
X42855Y-34854D01*
X42833Y-34804D01*
X42833Y-34770D01*
X42855Y-34720D01*
X42876Y-34704D01*
X42833Y-34587D02*
X42833Y-34354D01*
X43283Y-34504D01*
X44440Y-34879D02*
X44462Y-34895D01*
X44483Y-34945D01*
X44483Y-34979D01*
X44462Y-35029D01*
X44419Y-35062D01*
X44376Y-35079D01*
X44290Y-35095D01*
X44226Y-35095D01*
X44140Y-35079D01*
X44097Y-35062D01*
X44055Y-35029D01*
X44033Y-34979D01*
X44033Y-34945D01*
X44055Y-34895D01*
X44076Y-34879D01*
X44483Y-34729D02*
X44033Y-34729D01*
X44033Y-34595D01*
X44055Y-34562D01*
X44076Y-34545D01*
X44119Y-34529D01*
X44183Y-34529D01*
X44226Y-34545D01*
X44247Y-34562D01*
X44269Y-34595D01*
X44269Y-34729D01*
X44483Y-34195D02*
X44483Y-34395D01*
X44483Y-34295D02*
X44033Y-34295D01*
X44097Y-34329D01*
X44140Y-34362D01*
X44162Y-34395D01*
G54D15*
X43712Y-33817D02*
X43712Y-33474D01*
X43883Y-33645D02*
X43540Y-33645D01*
G54D13*
X38909Y-30767D02*
X38931Y-30783D01*
X38952Y-30833D01*
X38952Y-30867D01*
X38931Y-30917D01*
X38888Y-30950D01*
X38845Y-30967D01*
X38759Y-30983D01*
X38695Y-30983D01*
X38609Y-30967D01*
X38566Y-30950D01*
X38524Y-30917D01*
X38502Y-30867D01*
X38502Y-30833D01*
X38524Y-30783D01*
X38545Y-30767D01*
X38695Y-30567D02*
X38674Y-30600D01*
X38652Y-30617D01*
X38609Y-30633D01*
X38588Y-30633D01*
X38545Y-30617D01*
X38524Y-30600D01*
X38502Y-30567D01*
X38502Y-30500D01*
X38524Y-30467D01*
X38545Y-30450D01*
X38588Y-30433D01*
X38609Y-30433D01*
X38652Y-30450D01*
X38674Y-30467D01*
X38695Y-30500D01*
X38695Y-30567D01*
X38716Y-30600D01*
X38738Y-30617D01*
X38781Y-30633D01*
X38866Y-30633D01*
X38909Y-30617D01*
X38931Y-30600D01*
X38952Y-30567D01*
X38952Y-30500D01*
X38931Y-30467D01*
X38909Y-30450D01*
X38866Y-30433D01*
X38781Y-30433D01*
X38738Y-30450D01*
X38716Y-30467D01*
X38695Y-30500D01*
X40109Y-30942D02*
X40131Y-30958D01*
X40152Y-31008D01*
X40152Y-31042D01*
X40131Y-31092D01*
X40088Y-31125D01*
X40045Y-31142D01*
X39959Y-31158D01*
X39895Y-31158D01*
X39809Y-31142D01*
X39766Y-31125D01*
X39724Y-31092D01*
X39702Y-31042D01*
X39702Y-31008D01*
X39724Y-30958D01*
X39745Y-30942D01*
X40152Y-30792D02*
X39702Y-30792D01*
X39702Y-30658D01*
X39724Y-30625D01*
X39745Y-30608D01*
X39788Y-30592D01*
X39852Y-30592D01*
X39895Y-30608D01*
X39916Y-30625D01*
X39938Y-30658D01*
X39938Y-30792D01*
X40152Y-30258D02*
X40152Y-30458D01*
X40152Y-30358D02*
X39702Y-30358D01*
X39766Y-30392D01*
X39809Y-30425D01*
X39831Y-30458D01*
G54D15*
X39381Y-29880D02*
X39381Y-29537D01*
X39552Y-29708D02*
X39209Y-29708D01*
G54D13*
X46390Y-24861D02*
X46412Y-24877D01*
X46433Y-24927D01*
X46433Y-24961D01*
X46412Y-25011D01*
X46369Y-25044D01*
X46326Y-25061D01*
X46240Y-25077D01*
X46176Y-25077D01*
X46090Y-25061D01*
X46047Y-25044D01*
X46005Y-25011D01*
X45983Y-24961D01*
X45983Y-24927D01*
X46005Y-24877D01*
X46026Y-24861D01*
X45983Y-24561D02*
X45983Y-24627D01*
X46005Y-24661D01*
X46026Y-24677D01*
X46090Y-24711D01*
X46176Y-24727D01*
X46347Y-24727D01*
X46390Y-24711D01*
X46412Y-24694D01*
X46433Y-24661D01*
X46433Y-24594D01*
X46412Y-24561D01*
X46390Y-24544D01*
X46347Y-24527D01*
X46240Y-24527D01*
X46197Y-24544D01*
X46176Y-24561D01*
X46155Y-24594D01*
X46155Y-24661D01*
X46176Y-24694D01*
X46197Y-24711D01*
X46240Y-24727D01*
X47590Y-25036D02*
X47612Y-25052D01*
X47633Y-25102D01*
X47633Y-25136D01*
X47612Y-25186D01*
X47569Y-25219D01*
X47526Y-25236D01*
X47440Y-25252D01*
X47376Y-25252D01*
X47290Y-25236D01*
X47247Y-25219D01*
X47205Y-25186D01*
X47183Y-25136D01*
X47183Y-25102D01*
X47205Y-25052D01*
X47226Y-25036D01*
X47633Y-24886D02*
X47183Y-24886D01*
X47183Y-24752D01*
X47205Y-24719D01*
X47226Y-24702D01*
X47269Y-24686D01*
X47333Y-24686D01*
X47376Y-24702D01*
X47397Y-24719D01*
X47419Y-24752D01*
X47419Y-24886D01*
X47633Y-24352D02*
X47633Y-24552D01*
X47633Y-24452D02*
X47183Y-24452D01*
X47247Y-24486D01*
X47290Y-24519D01*
X47312Y-24552D01*
G54D15*
X46862Y-23974D02*
X46862Y-23631D01*
X47033Y-23802D02*
X46690Y-23802D01*
G54D13*
X46783Y-37853D02*
X46805Y-37869D01*
X46826Y-37919D01*
X46826Y-37953D01*
X46805Y-38003D01*
X46762Y-38036D01*
X46719Y-38053D01*
X46633Y-38069D01*
X46569Y-38069D01*
X46483Y-38053D01*
X46440Y-38036D01*
X46398Y-38003D01*
X46376Y-37953D01*
X46376Y-37919D01*
X46398Y-37869D01*
X46419Y-37853D01*
X46376Y-37536D02*
X46376Y-37703D01*
X46590Y-37719D01*
X46569Y-37703D01*
X46548Y-37669D01*
X46548Y-37586D01*
X46569Y-37553D01*
X46590Y-37536D01*
X46633Y-37519D01*
X46740Y-37519D01*
X46783Y-37536D01*
X46805Y-37553D01*
X46826Y-37586D01*
X46826Y-37669D01*
X46805Y-37703D01*
X46783Y-37719D01*
X47983Y-38028D02*
X48005Y-38044D01*
X48026Y-38094D01*
X48026Y-38128D01*
X48005Y-38178D01*
X47962Y-38211D01*
X47919Y-38228D01*
X47833Y-38244D01*
X47769Y-38244D01*
X47683Y-38228D01*
X47640Y-38211D01*
X47598Y-38178D01*
X47576Y-38128D01*
X47576Y-38094D01*
X47598Y-38044D01*
X47619Y-38028D01*
X48026Y-37878D02*
X47576Y-37878D01*
X47576Y-37744D01*
X47598Y-37711D01*
X47619Y-37694D01*
X47662Y-37678D01*
X47726Y-37678D01*
X47769Y-37694D01*
X47790Y-37711D01*
X47812Y-37744D01*
X47812Y-37878D01*
X48026Y-37344D02*
X48026Y-37544D01*
X48026Y-37444D02*
X47576Y-37444D01*
X47640Y-37478D01*
X47683Y-37511D01*
X47705Y-37544D01*
G54D15*
X47255Y-36966D02*
X47255Y-36623D01*
X47426Y-36794D02*
X47083Y-36794D01*
G54D13*
X38909Y-28011D02*
X38931Y-28027D01*
X38952Y-28077D01*
X38952Y-28111D01*
X38931Y-28161D01*
X38888Y-28194D01*
X38845Y-28211D01*
X38759Y-28227D01*
X38695Y-28227D01*
X38609Y-28211D01*
X38566Y-28194D01*
X38524Y-28161D01*
X38502Y-28111D01*
X38502Y-28077D01*
X38524Y-28027D01*
X38545Y-28011D01*
X38652Y-27711D02*
X38952Y-27711D01*
X38481Y-27794D02*
X38802Y-27877D01*
X38802Y-27661D01*
X40109Y-28186D02*
X40131Y-28202D01*
X40152Y-28252D01*
X40152Y-28286D01*
X40131Y-28336D01*
X40088Y-28369D01*
X40045Y-28386D01*
X39959Y-28402D01*
X39895Y-28402D01*
X39809Y-28386D01*
X39766Y-28369D01*
X39724Y-28336D01*
X39702Y-28286D01*
X39702Y-28252D01*
X39724Y-28202D01*
X39745Y-28186D01*
X40152Y-28036D02*
X39702Y-28036D01*
X39702Y-27902D01*
X39724Y-27869D01*
X39745Y-27852D01*
X39788Y-27836D01*
X39852Y-27836D01*
X39895Y-27852D01*
X39916Y-27869D01*
X39938Y-27902D01*
X39938Y-28036D01*
X40152Y-27502D02*
X40152Y-27702D01*
X40152Y-27602D02*
X39702Y-27602D01*
X39766Y-27636D01*
X39809Y-27669D01*
X39831Y-27702D01*
G54D15*
X39381Y-27124D02*
X39381Y-26781D01*
X39552Y-26952D02*
X39209Y-26952D01*
G54D13*
X38909Y-24861D02*
X38931Y-24877D01*
X38952Y-24927D01*
X38952Y-24961D01*
X38931Y-25011D01*
X38888Y-25044D01*
X38845Y-25061D01*
X38759Y-25077D01*
X38695Y-25077D01*
X38609Y-25061D01*
X38566Y-25044D01*
X38524Y-25011D01*
X38502Y-24961D01*
X38502Y-24927D01*
X38524Y-24877D01*
X38545Y-24861D01*
X38502Y-24744D02*
X38502Y-24527D01*
X38674Y-24644D01*
X38674Y-24594D01*
X38695Y-24561D01*
X38716Y-24544D01*
X38759Y-24527D01*
X38866Y-24527D01*
X38909Y-24544D01*
X38931Y-24561D01*
X38952Y-24594D01*
X38952Y-24694D01*
X38931Y-24727D01*
X38909Y-24744D01*
X40109Y-25036D02*
X40131Y-25052D01*
X40152Y-25102D01*
X40152Y-25136D01*
X40131Y-25186D01*
X40088Y-25219D01*
X40045Y-25236D01*
X39959Y-25252D01*
X39895Y-25252D01*
X39809Y-25236D01*
X39766Y-25219D01*
X39724Y-25186D01*
X39702Y-25136D01*
X39702Y-25102D01*
X39724Y-25052D01*
X39745Y-25036D01*
X40152Y-24886D02*
X39702Y-24886D01*
X39702Y-24752D01*
X39724Y-24719D01*
X39745Y-24702D01*
X39788Y-24686D01*
X39852Y-24686D01*
X39895Y-24702D01*
X39916Y-24719D01*
X39938Y-24752D01*
X39938Y-24886D01*
X40152Y-24352D02*
X40152Y-24552D01*
X40152Y-24452D02*
X39702Y-24452D01*
X39766Y-24486D01*
X39809Y-24519D01*
X39831Y-24552D01*
G54D15*
X39381Y-23974D02*
X39381Y-23631D01*
X39552Y-23802D02*
X39209Y-23802D01*
G54D13*
X38909Y-41003D02*
X38931Y-41019D01*
X38952Y-41069D01*
X38952Y-41103D01*
X38931Y-41153D01*
X38888Y-41186D01*
X38845Y-41203D01*
X38759Y-41219D01*
X38695Y-41219D01*
X38609Y-41203D01*
X38566Y-41186D01*
X38524Y-41153D01*
X38502Y-41103D01*
X38502Y-41069D01*
X38524Y-41019D01*
X38545Y-41003D01*
X38545Y-40869D02*
X38524Y-40853D01*
X38502Y-40819D01*
X38502Y-40736D01*
X38524Y-40703D01*
X38545Y-40686D01*
X38588Y-40669D01*
X38631Y-40669D01*
X38695Y-40686D01*
X38952Y-40886D01*
X38952Y-40669D01*
X40109Y-41178D02*
X40131Y-41194D01*
X40152Y-41244D01*
X40152Y-41278D01*
X40131Y-41328D01*
X40088Y-41361D01*
X40045Y-41378D01*
X39959Y-41394D01*
X39895Y-41394D01*
X39809Y-41378D01*
X39766Y-41361D01*
X39724Y-41328D01*
X39702Y-41278D01*
X39702Y-41244D01*
X39724Y-41194D01*
X39745Y-41178D01*
X40152Y-41028D02*
X39702Y-41028D01*
X39702Y-40894D01*
X39724Y-40861D01*
X39745Y-40844D01*
X39788Y-40828D01*
X39852Y-40828D01*
X39895Y-40844D01*
X39916Y-40861D01*
X39938Y-40894D01*
X39938Y-41028D01*
X40152Y-40494D02*
X40152Y-40694D01*
X40152Y-40594D02*
X39702Y-40594D01*
X39766Y-40628D01*
X39809Y-40661D01*
X39831Y-40694D01*
G54D15*
X39381Y-40116D02*
X39381Y-39773D01*
X39552Y-39944D02*
X39209Y-39944D01*
G54D13*
X38909Y-37853D02*
X38931Y-37869D01*
X38952Y-37919D01*
X38952Y-37953D01*
X38931Y-38003D01*
X38888Y-38036D01*
X38845Y-38053D01*
X38759Y-38069D01*
X38695Y-38069D01*
X38609Y-38053D01*
X38566Y-38036D01*
X38524Y-38003D01*
X38502Y-37953D01*
X38502Y-37919D01*
X38524Y-37869D01*
X38545Y-37853D01*
X38952Y-37519D02*
X38952Y-37719D01*
X38952Y-37619D02*
X38502Y-37619D01*
X38566Y-37653D01*
X38609Y-37686D01*
X38631Y-37719D01*
X40109Y-38028D02*
X40131Y-38044D01*
X40152Y-38094D01*
X40152Y-38128D01*
X40131Y-38178D01*
X40088Y-38211D01*
X40045Y-38228D01*
X39959Y-38244D01*
X39895Y-38244D01*
X39809Y-38228D01*
X39766Y-38211D01*
X39724Y-38178D01*
X39702Y-38128D01*
X39702Y-38094D01*
X39724Y-38044D01*
X39745Y-38028D01*
X40152Y-37878D02*
X39702Y-37878D01*
X39702Y-37744D01*
X39724Y-37711D01*
X39745Y-37694D01*
X39788Y-37678D01*
X39852Y-37678D01*
X39895Y-37694D01*
X39916Y-37711D01*
X39938Y-37744D01*
X39938Y-37878D01*
X40152Y-37344D02*
X40152Y-37544D01*
X40152Y-37444D02*
X39702Y-37444D01*
X39766Y-37478D01*
X39809Y-37511D01*
X39831Y-37544D01*
G54D15*
X39381Y-36966D02*
X39381Y-36623D01*
X39552Y-36794D02*
X39209Y-36794D01*
M02*
