0
SECTION
2
HEADER
9
$ANGBASE
50
0.0
9
$ANGDIR
70
0
0
ENDSEC
0
SECTION
2
TABLES
0
TABLE
2
LTYPE
70
1
0
LTYPE
2
CONTINUOUS
70
0
3
Solid line
72
65
73
0
40
0.0
0
ENDTAB
0
TABLE
2
LAYER
70
24
0
LAYER
2
BLACK
70
0
62
1
6
CONTINUOUS
0
LAYER
2
BLUE
70
0
62
2
6
CONTINUOUS
0
LAYER
2
GREEN
70
0
62
3
6
CONTINUOUS
0
LAYER
2
CYAN
70
0
62
4
6
CONTINUOUS
0
LAYER
2
RED
70
0
62
5
6
CONTINUOUS
0
LAYER
2
MAGENTA
70
0
62
6
6
CONTINUOUS
0
LAYER
2
BROWN
70
0
62
7
6
CONTINUOUS
0
LAYER
2
GRAY
70
0
62
8
6
CONTINUOUS
0
LAYER
2
DARKGRAY
70
0
62
9
6
CONTINUOUS
0
LAYER
2
LIGHTBLUE
70
0
62
10
6
CONTINUOUS
0
LAYER
2
LIGHTGREEN
70
0
62
11
6
CONTINUOUS
0
LAYER
2
LIGHTCYAN
70
0
62
12
6
CONTINUOUS
0
LAYER
2
LIGHTRED
70
0
62
13
6
CONTINUOUS
0
LAYER
2
LIGHTMAGENTA
70
0
62
14
6
CONTINUOUS
0
LAYER
2
YELLOW
70
0
62
15
6
CONTINUOUS
0
LAYER
2
WHITE
70
0
62
16
6
CONTINUOUS
0
LAYER
2
DARKDARKGRAY
70
0
62
17
6
CONTINUOUS
0
LAYER
2
DARKBLUE
70
0
62
18
6
CONTINUOUS
0
LAYER
2
DARKGREEN
70
0
62
19
6
CONTINUOUS
0
LAYER
2
DARKCYAN
70
0
62
20
6
CONTINUOUS
0
LAYER
2
DARKRED
70
0
62
21
6
CONTINUOUS
0
LAYER
2
DARKMAGENTA
70
0
62
22
6
CONTINUOUS
0
LAYER
2
DARKBROWN
70
0
62
23
6
CONTINUOUS
0
LAYER
2
LIGHTYELLOW
70
0
62
24
6
CONTINUOUS
0
ENDTAB
0
ENDSEC
0
SECTION
2
ENTITIES
0
CIRCLE
8
BLACK
10
17323.0
20
29127.0
40
1250
0
LINE
8
BLACK
10
14823.0
20
29052.0
11
19823.0
21
29052.0
0
LINE
8
BLACK
10
14823.0
20
29202.0
11
19823.0
21
29202.0
0
ARC
8
BLACK
10
19823.0
20
29127.0
40
75.0
50
270.0
51
450.0
0
ARC
8
BLACK
10
14823.0
20
29127.0
40
75.0
50
90.0
51
270.0
0
LINE
8
BLACK
10
17398.0
20
26627.0
11
17398.0
21
31627.0
0
LINE
8
BLACK
10
17248.0
20
26627.0
11
17248.0
21
31627.0
0
ARC
8
BLACK
10
17323.0
20
31627.0
40
75.0
50
360.0
51
540.0
0
ARC
8
BLACK
10
17323.0
20
26627.0
40
75.0
50
180.0
51
360.0
0
CIRCLE
8
BLACK
10
73622.0
20
64953.0
40
1250
0
LINE
8
BLACK
10
71122.0
20
64878.0
11
76122.0
21
64878.0
0
LINE
8
BLACK
10
71122.0
20
65028.0
11
76122.0
21
65028.0
0
ARC
8
BLACK
10
76122.0
20
64953.0
40
75.0
50
270.0
51
450.0
0
ARC
8
BLACK
10
71122.0
20
64953.0
40
75.0
50
90.0
51
270.0
0
LINE
8
BLACK
10
73697.0
20
62453.0
11
73697.0
21
67453.0
0
LINE
8
BLACK
10
73547.0
20
62453.0
11
73547.0
21
67453.0
0
ARC
8
BLACK
10
73622.0
20
67453.0
40
75.0
50
360.0
51
540.0
0
ARC
8
BLACK
10
73622.0
20
62453.0
40
75.0
50
180.0
51
360.0
0
CIRCLE
8
BLACK
10
73622.0
20
29127.0
40
1250
0
LINE
8
BLACK
10
71122.0
20
29052.0
11
76122.0
21
29052.0
0
LINE
8
BLACK
10
71122.0
20
29202.0
11
76122.0
21
29202.0
0
ARC
8
BLACK
10
76122.0
20
29127.0
40
75.0
50
270.0
51
450.0
0
ARC
8
BLACK
10
71122.0
20
29127.0
40
75.0
50
90.0
51
270.0
0
LINE
8
BLACK
10
73697.0
20
26627.0
11
73697.0
21
31627.0
0
LINE
8
BLACK
10
73547.0
20
26627.0
11
73547.0
21
31627.0
0
ARC
8
BLACK
10
73622.0
20
31627.0
40
75.0
50
360.0
51
540.0
0
ARC
8
BLACK
10
73622.0
20
26627.0
40
75.0
50
180.0
51
360.0
0
CIRCLE
8
BLACK
10
17717.0
20
64953.0
40
1250
0
LINE
8
BLACK
10
15217.0
20
64878.0
11
20217.0
21
64878.0
0
LINE
8
BLACK
10
15217.0
20
65028.0
11
20217.0
21
65028.0
0
ARC
8
BLACK
10
20217.0
20
64953.0
40
75.0
50
270.0
51
450.0
0
ARC
8
BLACK
10
15217.0
20
64953.0
40
75.0
50
90.0
51
270.0
0
LINE
8
BLACK
10
17792.0
20
62453.0
11
17792.0
21
67453.0
0
LINE
8
BLACK
10
17642.0
20
62453.0
11
17642.0
21
67453.0
0
ARC
8
BLACK
10
17717.0
20
67453.0
40
75.0
50
360.0
51
540.0
0
ARC
8
BLACK
10
17717.0
20
62453.0
40
75.0
50
180.0
51
360.0
0
LINE
8
BLACK
10
15748.0
20
66847.0
11
78740.0
21
66847.0
0
LINE
8
BLACK
10
15748.0
20
66997.0
11
78740.0
21
66997.0
0
ARC
8
BLACK
10
78740.0
20
66922.0
40
75.0
50
270.0
51
450.0
0
ARC
8
BLACK
10
15748.0
20
66922.0
40
75.0
50
90.0
51
270.0
0
LINE
8
BLACK
10
78815.0
20
27552.0
11
78815.0
21
66922.0
0
LINE
8
BLACK
10
78665.0
20
27552.0
11
78665.0
21
66922.0
0
ARC
8
BLACK
10
78740.0
20
66922.0
40
75.0
50
360.0
51
540.0
0
ARC
8
BLACK
10
78740.0
20
27552.0
40
75.0
50
180.0
51
360.0
0
LINE
8
BLACK
10
15748.0
20
27477.0
11
78740.0
21
27477.0
0
LINE
8
BLACK
10
15748.0
20
27627.0
11
78740.0
21
27627.0
0
ARC
8
BLACK
10
78740.0
20
27552.0
40
75.0
50
270.0
51
450.0
0
ARC
8
BLACK
10
15748.0
20
27552.0
40
75.0
50
90.0
51
270.0
0
LINE
8
BLACK
10
15823.0
20
27552.0
11
15823.0
21
66922.0
0
LINE
8
BLACK
10
15673.0
20
27552.0
11
15673.0
21
66922.0
0
ARC
8
BLACK
10
15748.0
20
66922.0
40
75.0
50
360.0
51
540.0
0
ARC
8
BLACK
10
15748.0
20
27552.0
40
75.0
50
180.0
51
360.0
0
ENDSEC
0
EOF
