<?xml version="1.0" standalone="no"?>
<!DOCTYPE svg PUBLIC "-//W3C//DTD SVG 20010904//EN" 
"http://www.w3.org/TR/2001/REC-SVG-20010904/DTD/svg10.dtd"> 
<svg xmlns="http://www.w3.org/2000/svg" xmlns:xlink="http://www.w3.org/1999/xlink" 
    width="29.72cm" height="21.00cm" viewBox="0 0 117000 82670 "> 
<title>SVG Picture created as Translator-Platinenumrisse.svg </title>
<desc>Picture generated by wxSVG v0100 </desc>
<g style="fill:black; stroke:black; stroke-width:1">
</g>
<g style="fill:#000000; fill-opacity:0.0; stroke:#000000; stroke-opacity:1.00; stroke-linecap:round; stroke-linejoin:round; stroke-width:60" 
   transform="translate(0.00 0.00) scale(1.00 1.00)">
<polygon style="fill-rule:evenodd; " 
points="4000,4000
4000,4000
4000,78670
113000,78670
113000,4000
" /> 
<polygon style="fill-rule:evenodd; " 
points="4700,4700
4700,4700
4700,77970
112300,77970
112300,4700
" /> 
<path d="M25800 4000 L25800 4700" /> 
<path d="M15043 4552 L14757 4552" /> 
<g style = "stroke-linecap:round;" > 
<path d="M14757 4552 L14757 4552" /> 
</g><path d="M14900 4552 L14900 4052" /> 
<path d="M14900 4052 L14852 4124" /> 
<path d="M14852 4124 L14805 4171" /> 
<path d="M14805 4171 L14757 4195" /> 
<g style = "stroke-linecap:round;" > 
<path d="M14757 4195 L14757 4195" /> 
</g><path d="M25800 78670 L25800 77970" /> 
<path d="M15043 78522 L14757 78522" /> 
<g style = "stroke-linecap:round;" > 
<path d="M14757 78522 L14757 78522" /> 
</g><path d="M14900 78522 L14900 78022" /> 
<path d="M14900 78022 L14852 78094" /> 
<path d="M14852 78094 L14805 78141" /> 
<path d="M14805 78141 L14757 78165" /> 
<g style = "stroke-linecap:round;" > 
<path d="M14757 78165 L14757 78165" /> 
</g><path d="M47600 4000 L47600 4700" /> 
<path d="M36557 4100 L36581 4076" /> 
<path d="M36581 4076 L36629 4052" /> 
<path d="M36629 4052 L36748 4052" /> 
<path d="M36748 4052 L36795 4076" /> 
<path d="M36795 4076 L36819 4100" /> 
<path d="M36819 4100 L36843 4148" /> 
<path d="M36843 4148 L36843 4195" /> 
<path d="M36843 4195 L36819 4267" /> 
<path d="M36819 4267 L36533 4552" /> 
<path d="M36533 4552 L36843 4552" /> 
<g style = "stroke-linecap:round;" > 
<path d="M36843 4552 L36843 4552" /> 
</g><path d="M47600 78670 L47600 77970" /> 
<path d="M36557 78070 L36581 78046" /> 
<path d="M36581 78046 L36629 78022" /> 
<path d="M36629 78022 L36748 78022" /> 
<path d="M36748 78022 L36795 78046" /> 
<path d="M36795 78046 L36819 78070" /> 
<path d="M36819 78070 L36843 78118" /> 
<path d="M36843 78118 L36843 78165" /> 
<path d="M36843 78165 L36819 78237" /> 
<path d="M36819 78237 L36533 78522" /> 
<path d="M36533 78522 L36843 78522" /> 
<g style = "stroke-linecap:round;" > 
<path d="M36843 78522 L36843 78522" /> 
</g><path d="M69400 4000 L69400 4700" /> 
<path d="M58333 4052 L58643 4052" /> 
<path d="M58643 4052 L58476 4243" /> 
<path d="M58476 4243 L58548 4243" /> 
<path d="M58548 4243 L58595 4267" /> 
<path d="M58595 4267 L58619 4290" /> 
<path d="M58619 4290 L58643 4338" /> 
<path d="M58643 4338 L58643 4457" /> 
<path d="M58643 4457 L58619 4505" /> 
<path d="M58619 4505 L58595 4529" /> 
<path d="M58595 4529 L58548 4552" /> 
<path d="M58548 4552 L58405 4552" /> 
<path d="M58405 4552 L58357 4529" /> 
<path d="M58357 4529 L58333 4505" /> 
<g style = "stroke-linecap:round;" > 
<path d="M58333 4505 L58333 4505" /> 
</g><path d="M69400 78670 L69400 77970" /> 
<path d="M58333 78022 L58643 78022" /> 
<path d="M58643 78022 L58476 78213" /> 
<path d="M58476 78213 L58548 78213" /> 
<path d="M58548 78213 L58595 78237" /> 
<path d="M58595 78237 L58619 78260" /> 
<path d="M58619 78260 L58643 78308" /> 
<path d="M58643 78308 L58643 78427" /> 
<path d="M58643 78427 L58619 78475" /> 
<path d="M58619 78475 L58595 78499" /> 
<path d="M58595 78499 L58548 78522" /> 
<path d="M58548 78522 L58405 78522" /> 
<path d="M58405 78522 L58357 78499" /> 
<path d="M58357 78499 L58333 78475" /> 
<g style = "stroke-linecap:round;" > 
<path d="M58333 78475 L58333 78475" /> 
</g><path d="M91200 4000 L91200 4700" /> 
<path d="M80395 4219 L80395 4552" /> 
<g style = "stroke-linecap:round;" > 
<path d="M80395 4552 L80395 4552" /> 
</g><path d="M80276 4029 L80157 4386" /> 
<path d="M80157 4386 L80467 4386" /> 
<g style = "stroke-linecap:round;" > 
<path d="M80467 4386 L80467 4386" /> 
</g><path d="M91200 78670 L91200 77970" /> 
<path d="M80395 78189 L80395 78522" /> 
<g style = "stroke-linecap:round;" > 
<path d="M80395 78522 L80395 78522" /> 
</g><path d="M80276 77999 L80157 78356" /> 
<path d="M80157 78356 L80467 78356" /> 
<g style = "stroke-linecap:round;" > 
<path d="M80467 78356 L80467 78356" /> 
</g><path d="M102219 4052 L101981 4052" /> 
<path d="M101981 4052 L101957 4290" /> 
<path d="M101957 4290 L101981 4267" /> 
<path d="M101981 4267 L102029 4243" /> 
<path d="M102029 4243 L102148 4243" /> 
<path d="M102148 4243 L102195 4267" /> 
<path d="M102195 4267 L102219 4290" /> 
<path d="M102219 4290 L102243 4338" /> 
<path d="M102243 4338 L102243 4457" /> 
<path d="M102243 4457 L102219 4505" /> 
<path d="M102219 4505 L102195 4529" /> 
<path d="M102195 4529 L102148 4552" /> 
<path d="M102148 4552 L102029 4552" /> 
<path d="M102029 4552 L101981 4529" /> 
<path d="M101981 4529 L101957 4505" /> 
<g style = "stroke-linecap:round;" > 
<path d="M101957 4505 L101957 4505" /> 
</g><path d="M102219 78022 L101981 78022" /> 
<path d="M101981 78022 L101957 78260" /> 
<path d="M101957 78260 L101981 78237" /> 
<path d="M101981 78237 L102029 78213" /> 
<path d="M102029 78213 L102148 78213" /> 
<path d="M102148 78213 L102195 78237" /> 
<path d="M102195 78237 L102219 78260" /> 
<path d="M102219 78260 L102243 78308" /> 
<path d="M102243 78308 L102243 78427" /> 
<path d="M102243 78427 L102219 78475" /> 
<path d="M102219 78475 L102195 78499" /> 
<path d="M102195 78499 L102148 78522" /> 
<path d="M102148 78522 L102029 78522" /> 
<path d="M102029 78522 L101981 78499" /> 
<path d="M101981 78499 L101957 78475" /> 
<g style = "stroke-linecap:round;" > 
<path d="M101957 78475 L101957 78475" /> 
</g><path d="M4000 28890 L4700 28890" /> 
<path d="M4231 16510 L4469 16510" /> 
<g style = "stroke-linecap:round;" > 
<path d="M4469 16510 L4469 16510" /> 
</g><path d="M4184 16652 L4350 16152" /> 
<path d="M4350 16152 L4517 16652" /> 
<g style = "stroke-linecap:round;" > 
<path d="M4517 16652 L4517 16652" /> 
</g><path d="M113000 28890 L112300 28890" /> 
<path d="M112531 18050 L112769 18050" /> 
<g style = "stroke-linecap:round;" > 
<path d="M112769 18050 L112769 18050" /> 
</g><path d="M112484 18192 L112650 17692" /> 
<path d="M112650 17692 L112817 18192" /> 
<g style = "stroke-linecap:round;" > 
<path d="M112817 18192 L112817 18192" /> 
</g><path d="M4000 53780 L4700 53780" /> 
<path d="M4386 41280 L4457 41304" /> 
<path d="M4457 41304 L4481 41328" /> 
<path d="M4481 41328 L4505 41376" /> 
<path d="M4505 41376 L4505 41447" /> 
<path d="M4505 41447 L4481 41495" /> 
<path d="M4481 41495 L4457 41519" /> 
<path d="M4457 41519 L4410 41542" /> 
<path d="M4410 41542 L4219 41542" /> 
<path d="M4219 41542 L4219 41042" /> 
<path d="M4219 41042 L4386 41042" /> 
<path d="M4386 41042 L4433 41066" /> 
<path d="M4433 41066 L4457 41090" /> 
<path d="M4457 41090 L4481 41138" /> 
<path d="M4481 41138 L4481 41185" /> 
<path d="M4481 41185 L4457 41233" /> 
<path d="M4457 41233 L4433 41257" /> 
<path d="M4433 41257 L4386 41280" /> 
<path d="M4386 41280 L4219 41280" /> 
<g style = "stroke-linecap:round;" > 
<path d="M4219 41280 L4219 41280" /> 
</g><path d="M113000 53780 L112300 53780" /> 
<path d="M112686 42820 L112757 42844" /> 
<path d="M112757 42844 L112781 42868" /> 
<path d="M112781 42868 L112805 42916" /> 
<path d="M112805 42916 L112805 42987" /> 
<path d="M112805 42987 L112781 43035" /> 
<path d="M112781 43035 L112757 43059" /> 
<path d="M112757 43059 L112710 43082" /> 
<path d="M112710 43082 L112519 43082" /> 
<path d="M112519 43082 L112519 42582" /> 
<path d="M112519 42582 L112686 42582" /> 
<path d="M112686 42582 L112733 42606" /> 
<path d="M112733 42606 L112757 42630" /> 
<path d="M112757 42630 L112781 42678" /> 
<path d="M112781 42678 L112781 42725" /> 
<path d="M112781 42725 L112757 42773" /> 
<path d="M112757 42773 L112733 42797" /> 
<path d="M112733 42797 L112686 42820" /> 
<path d="M112686 42820 L112519 42820" /> 
<g style = "stroke-linecap:round;" > 
<path d="M112519 42820 L112519 42820" /> 
</g><path d="M4505 66385 L4481 66409" /> 
<path d="M4481 66409 L4410 66432" /> 
<path d="M4410 66432 L4362 66432" /> 
<path d="M4362 66432 L4290 66409" /> 
<path d="M4290 66409 L4243 66361" /> 
<path d="M4243 66361 L4219 66313" /> 
<path d="M4219 66313 L4195 66218" /> 
<path d="M4195 66218 L4195 66147" /> 
<path d="M4195 66147 L4219 66051" /> 
<path d="M4219 66051 L4243 66004" /> 
<path d="M4243 66004 L4290 65956" /> 
<path d="M4290 65956 L4362 65932" /> 
<path d="M4362 65932 L4410 65932" /> 
<path d="M4410 65932 L4481 65956" /> 
<path d="M4481 65956 L4505 65980" /> 
<g style = "stroke-linecap:round;" > 
<path d="M4505 65980 L4505 65980" /> 
</g><path d="M112805 67925 L112781 67949" /> 
<path d="M112781 67949 L112710 67972" /> 
<path d="M112710 67972 L112662 67972" /> 
<path d="M112662 67972 L112590 67949" /> 
<path d="M112590 67949 L112543 67901" /> 
<path d="M112543 67901 L112519 67853" /> 
<path d="M112519 67853 L112495 67758" /> 
<path d="M112495 67758 L112495 67687" /> 
<path d="M112495 67687 L112519 67591" /> 
<path d="M112519 67591 L112543 67544" /> 
<path d="M112543 67544 L112590 67496" /> 
<path d="M112590 67496 L112662 67472" /> 
<path d="M112662 67472 L112710 67472" /> 
<path d="M112710 67472 L112781 67496" /> 
<path d="M112781 67496 L112805 67520" /> 
<g style = "stroke-linecap:round;" > 
<path d="M112805 67520 L112805 67520" /> 
</g><path d="M79443 76413 L79443 75813" /> 
<path d="M79443 75813 L79586 75813" /> 
<path d="M79586 75813 L79671 75841" /> 
<path d="M79671 75841 L79729 75899" /> 
<path d="M79729 75899 L79757 75956" /> 
<path d="M79757 75956 L79786 76070" /> 
<path d="M79786 76070 L79786 76156" /> 
<path d="M79786 76156 L79757 76270" /> 
<path d="M79757 76270 L79729 76327" /> 
<path d="M79729 76327 L79671 76384" /> 
<path d="M79671 76384 L79586 76413" /> 
<path d="M79586 76413 L79443 76413" /> 
<path d="M80300 76413 L80300 76099" /> 
<path d="M80300 76099 L80271 76041" /> 
<path d="M80271 76041 L80214 76013" /> 
<path d="M80214 76013 L80100 76013" /> 
<path d="M80100 76013 L80043 76041" /> 
<g style = "stroke-linecap:round;" > 
<path d="M80043 76041 L80043 76041" /> 
</g><path d="M80300 76384 L80243 76413" /> 
<path d="M80243 76413 L80100 76413" /> 
<path d="M80100 76413 L80043 76384" /> 
<path d="M80043 76384 L80014 76327" /> 
<path d="M80014 76327 L80014 76270" /> 
<path d="M80014 76270 L80043 76213" /> 
<path d="M80043 76213 L80100 76184" /> 
<path d="M80100 76184 L80243 76184" /> 
<path d="M80243 76184 L80300 76156" /> 
<g style = "stroke-linecap:round;" > 
<path d="M80300 76156 L80300 76156" /> 
</g><path d="M80500 76013 L80729 76013" /> 
<g style = "stroke-linecap:round;" > 
<path d="M80729 76013 L80729 76013" /> 
</g><path d="M80586 75813 L80586 76327" /> 
<path d="M80586 76327 L80614 76384" /> 
<path d="M80614 76384 L80672 76413" /> 
<path d="M80672 76413 L80729 76413" /> 
<g style = "stroke-linecap:round;" > 
<path d="M80729 76413 L80729 76413" /> 
</g><path d="M81157 76384 L81100 76413" /> 
<path d="M81100 76413 L80986 76413" /> 
<path d="M80986 76413 L80929 76384" /> 
<path d="M80929 76384 L80900 76327" /> 
<path d="M80900 76327 L80900 76099" /> 
<path d="M80900 76099 L80929 76041" /> 
<path d="M80929 76041 L80986 76013" /> 
<path d="M80986 76013 L81100 76013" /> 
<path d="M81100 76013 L81157 76041" /> 
<path d="M81157 76041 L81186 76099" /> 
<path d="M81186 76099 L81186 76156" /> 
<path d="M81186 76156 L80900 76213" /> 
<g style = "stroke-linecap:round;" > 
<path d="M80900 76213 L80900 76213" /> 
</g><path d="M81443 76356 L81471 76384" /> 
<path d="M81471 76384 L81443 76413" /> 
<path d="M81443 76413 L81414 76384" /> 
<path d="M81414 76384 L81443 76356" /> 
<path d="M81443 76356 L81443 76413" /> 
<g style = "stroke-linecap:round;" > 
<path d="M81443 76413 L81443 76413" /> 
</g><path d="M81443 76041 L81471 76070" /> 
<path d="M81471 76070 L81443 76099" /> 
<path d="M81443 76099 L81414 76070" /> 
<path d="M81414 76070 L81443 76041" /> 
<path d="M81443 76041 L81443 76099" /> 
<g style = "stroke-linecap:round;" > 
<path d="M81443 76099 L81443 76099" /> 
</g><path d="M82157 75870 L82186 75841" /> 
<path d="M82186 75841 L82243 75813" /> 
<path d="M82243 75813 L82386 75813" /> 
<path d="M82386 75813 L82443 75841" /> 
<path d="M82443 75841 L82472 75870" /> 
<path d="M82472 75870 L82500 75927" /> 
<path d="M82500 75927 L82500 75984" /> 
<path d="M82500 75984 L82472 76070" /> 
<path d="M82472 76070 L82129 76413" /> 
<path d="M82129 76413 L82500 76413" /> 
<g style = "stroke-linecap:round;" > 
<path d="M82500 76413 L82500 76413" /> 
</g><path d="M83043 75813 L82757 75813" /> 
<path d="M82757 75813 L82728 76099" /> 
<path d="M82728 76099 L82757 76070" /> 
<path d="M82757 76070 L82814 76041" /> 
<path d="M82814 76041 L82957 76041" /> 
<path d="M82957 76041 L83014 76070" /> 
<path d="M83014 76070 L83043 76099" /> 
<path d="M83043 76099 L83071 76156" /> 
<path d="M83071 76156 L83071 76299" /> 
<path d="M83071 76299 L83043 76356" /> 
<path d="M83043 76356 L83014 76384" /> 
<path d="M83014 76384 L82957 76413" /> 
<path d="M82957 76413 L82814 76413" /> 
<path d="M82814 76413 L82757 76384" /> 
<path d="M82757 76384 L82728 76356" /> 
<g style = "stroke-linecap:round;" > 
<path d="M82728 76356 L82728 76356" /> 
</g><path d="M83785 76013 L83785 76527" /> 
<path d="M83785 76527 L83756 76584" /> 
<path d="M83756 76584 L83699 76613" /> 
<path d="M83699 76613 L83671 76613" /> 
<g style = "stroke-linecap:round;" > 
<path d="M83671 76613 L83671 76613" /> 
</g><path d="M83785 75813 L83756 75841" /> 
<path d="M83756 75841 L83785 75870" /> 
<path d="M83785 75870 L83813 75841" /> 
<path d="M83813 75841 L83785 75813" /> 
<path d="M83785 75813 L83785 75870" /> 
<g style = "stroke-linecap:round;" > 
<path d="M83785 75870 L83785 75870" /> 
</g><path d="M84328 76413 L84328 76099" /> 
<path d="M84328 76099 L84299 76041" /> 
<path d="M84299 76041 L84242 76013" /> 
<path d="M84242 76013 L84128 76013" /> 
<path d="M84128 76013 L84071 76041" /> 
<g style = "stroke-linecap:round;" > 
<path d="M84071 76041 L84071 76041" /> 
</g><path d="M84328 76384 L84271 76413" /> 
<path d="M84271 76413 L84128 76413" /> 
<path d="M84128 76413 L84071 76384" /> 
<path d="M84071 76384 L84042 76327" /> 
<path d="M84042 76327 L84042 76270" /> 
<path d="M84042 76270 L84071 76213" /> 
<path d="M84071 76213 L84128 76184" /> 
<path d="M84128 76184 L84271 76184" /> 
<path d="M84271 76184 L84328 76156" /> 
<g style = "stroke-linecap:round;" > 
<path d="M84328 76156 L84328 76156" /> 
</g><path d="M84614 76013 L84614 76413" /> 
<g style = "stroke-linecap:round;" > 
<path d="M84614 76413 L84614 76413" /> 
</g><path d="M84614 76070 L84642 76041" /> 
<path d="M84642 76041 L84700 76013" /> 
<path d="M84700 76013 L84785 76013" /> 
<path d="M84785 76013 L84842 76041" /> 
<path d="M84842 76041 L84871 76099" /> 
<path d="M84871 76099 L84871 76413" /> 
<g style = "stroke-linecap:round;" > 
<path d="M84871 76413 L84871 76413" /> 
</g><path d="M85585 75870 L85614 75841" /> 
<path d="M85614 75841 L85671 75813" /> 
<path d="M85671 75813 L85814 75813" /> 
<path d="M85814 75813 L85871 75841" /> 
<path d="M85871 75841 L85900 75870" /> 
<path d="M85900 75870 L85928 75927" /> 
<path d="M85928 75927 L85928 75984" /> 
<path d="M85928 75984 L85900 76070" /> 
<path d="M85900 76070 L85557 76413" /> 
<path d="M85557 76413 L85928 76413" /> 
<g style = "stroke-linecap:round;" > 
<path d="M85928 76413 L85928 76413" /> 
</g><path d="M86299 75813 L86356 75813" /> 
<path d="M86356 75813 L86413 75841" /> 
<path d="M86413 75841 L86442 75870" /> 
<path d="M86442 75870 L86471 75927" /> 
<path d="M86471 75927 L86499 76041" /> 
<path d="M86499 76041 L86499 76184" /> 
<path d="M86499 76184 L86471 76299" /> 
<path d="M86471 76299 L86442 76356" /> 
<path d="M86442 76356 L86413 76384" /> 
<path d="M86413 76384 L86356 76413" /> 
<path d="M86356 76413 L86299 76413" /> 
<path d="M86299 76413 L86242 76384" /> 
<path d="M86242 76384 L86213 76356" /> 
<path d="M86213 76356 L86185 76299" /> 
<path d="M86185 76299 L86156 76184" /> 
<path d="M86156 76184 L86156 76041" /> 
<path d="M86156 76041 L86185 75927" /> 
<path d="M86185 75927 L86213 75870" /> 
<path d="M86213 75870 L86242 75841" /> 
<path d="M86242 75841 L86299 75813" /> 
<path d="M87070 76413 L86727 76413" /> 
<g style = "stroke-linecap:round;" > 
<path d="M86727 76413 L86727 76413" /> 
</g><path d="M86899 76413 L86899 75813" /> 
<path d="M86899 75813 L86842 75899" /> 
<path d="M86842 75899 L86784 75956" /> 
<path d="M86784 75956 L86727 75984" /> 
<g style = "stroke-linecap:round;" > 
<path d="M86727 75984 L86727 75984" /> 
</g><path d="M87298 75870 L87327 75841" /> 
<path d="M87327 75841 L87384 75813" /> 
<path d="M87384 75813 L87527 75813" /> 
<path d="M87527 75813 L87584 75841" /> 
<path d="M87584 75841 L87613 75870" /> 
<path d="M87613 75870 L87641 75927" /> 
<path d="M87641 75927 L87641 75984" /> 
<path d="M87641 75984 L87613 76070" /> 
<path d="M87613 76070 L87270 76413" /> 
<path d="M87270 76413 L87641 76413" /> 
<g style = "stroke-linecap:round;" > 
<path d="M87641 76413 L87641 76413" /> 
</g><path d="M71043 77613 L71043 77013" /> 
<g style = "stroke-linecap:round;" > 
<path d="M71043 77013 L71043 77013" /> 
</g><path d="M71386 77613 L71129 77270" /> 
<g style = "stroke-linecap:round;" > 
<path d="M71129 77270 L71129 77270" /> 
</g><path d="M71386 77013 L71043 77356" /> 
<g style = "stroke-linecap:round;" > 
<path d="M71043 77356 L71043 77356" /> 
</g><path d="M71643 77613 L71643 77213" /> 
<g style = "stroke-linecap:round;" > 
<path d="M71643 77213 L71643 77213" /> 
</g><path d="M71643 77013 L71614 77041" /> 
<path d="M71614 77041 L71643 77070" /> 
<path d="M71643 77070 L71671 77041" /> 
<path d="M71671 77041 L71643 77013" /> 
<path d="M71643 77013 L71643 77070" /> 
<g style = "stroke-linecap:round;" > 
<path d="M71643 77070 L71643 77070" /> 
</g><path d="M72272 77556 L72243 77584" /> 
<path d="M72243 77584 L72157 77613" /> 
<path d="M72157 77613 L72100 77613" /> 
<path d="M72100 77613 L72015 77584" /> 
<path d="M72015 77584 L71957 77527" /> 
<path d="M71957 77527 L71929 77470" /> 
<path d="M71929 77470 L71900 77356" /> 
<path d="M71900 77356 L71900 77270" /> 
<path d="M71900 77270 L71929 77156" /> 
<path d="M71929 77156 L71957 77099" /> 
<path d="M71957 77099 L72015 77041" /> 
<path d="M72015 77041 L72100 77013" /> 
<path d="M72100 77013 L72157 77013" /> 
<path d="M72157 77013 L72243 77041" /> 
<path d="M72243 77041 L72272 77070" /> 
<g style = "stroke-linecap:round;" > 
<path d="M72272 77070 L72272 77070" /> 
</g><path d="M72786 77613 L72786 77299" /> 
<path d="M72786 77299 L72757 77241" /> 
<path d="M72757 77241 L72700 77213" /> 
<path d="M72700 77213 L72586 77213" /> 
<path d="M72586 77213 L72529 77241" /> 
<g style = "stroke-linecap:round;" > 
<path d="M72529 77241 L72529 77241" /> 
</g><path d="M72786 77584 L72729 77613" /> 
<path d="M72729 77613 L72586 77613" /> 
<path d="M72586 77613 L72529 77584" /> 
<path d="M72529 77584 L72500 77527" /> 
<path d="M72500 77527 L72500 77470" /> 
<path d="M72500 77470 L72529 77413" /> 
<path d="M72529 77413 L72586 77384" /> 
<path d="M72586 77384 L72729 77384" /> 
<path d="M72729 77384 L72786 77356" /> 
<g style = "stroke-linecap:round;" > 
<path d="M72786 77356 L72786 77356" /> 
</g><path d="M73329 77613 L73329 77013" /> 
<g style = "stroke-linecap:round;" > 
<path d="M73329 77013 L73329 77013" /> 
</g><path d="M73329 77584 L73272 77613" /> 
<path d="M73272 77613 L73158 77613" /> 
<path d="M73158 77613 L73100 77584" /> 
<path d="M73100 77584 L73072 77556" /> 
<path d="M73072 77556 L73043 77499" /> 
<path d="M73043 77499 L73043 77327" /> 
<path d="M73043 77327 L73072 77270" /> 
<path d="M73072 77270 L73100 77241" /> 
<path d="M73100 77241 L73158 77213" /> 
<path d="M73158 77213 L73272 77213" /> 
<path d="M73272 77213 L73329 77241" /> 
<g style = "stroke-linecap:round;" > 
<path d="M73329 77241 L73329 77241" /> 
</g><path d="M74072 77299 L74272 77299" /> 
<g style = "stroke-linecap:round;" > 
<path d="M74272 77299 L74272 77299" /> 
</g><path d="M74358 77613 L74072 77613" /> 
<path d="M74072 77613 L74072 77013" /> 
<path d="M74072 77013 L74358 77013" /> 
<g style = "stroke-linecap:round;" > 
<path d="M74358 77013 L74358 77013" /> 
</g><path d="M74615 77556 L74643 77584" /> 
<path d="M74643 77584 L74615 77613" /> 
<path d="M74615 77613 L74586 77584" /> 
<path d="M74586 77584 L74615 77556" /> 
<path d="M74615 77556 L74615 77613" /> 
<g style = "stroke-linecap:round;" > 
<path d="M74615 77613 L74615 77613" /> 
</g><path d="M74901 77613 L74901 77013" /> 
<path d="M74901 77013 L75044 77013" /> 
<path d="M75044 77013 L75129 77041" /> 
<path d="M75129 77041 L75187 77099" /> 
<path d="M75187 77099 L75215 77156" /> 
<path d="M75215 77156 L75244 77270" /> 
<path d="M75244 77270 L75244 77356" /> 
<path d="M75244 77356 L75215 77470" /> 
<path d="M75215 77470 L75187 77527" /> 
<path d="M75187 77527 L75129 77584" /> 
<path d="M75129 77584 L75044 77613" /> 
<path d="M75044 77613 L74901 77613" /> 
<path d="M75501 77556 L75529 77584" /> 
<path d="M75529 77584 L75501 77613" /> 
<path d="M75501 77613 L75472 77584" /> 
<path d="M75472 77584 L75501 77556" /> 
<path d="M75501 77556 L75501 77613" /> 
<g style = "stroke-linecap:round;" > 
<path d="M75501 77613 L75501 77613" /> 
</g><path d="M75758 77441 L76044 77441" /> 
<g style = "stroke-linecap:round;" > 
<path d="M76044 77441 L76044 77441" /> 
</g><path d="M75701 77613 L75901 77013" /> 
<path d="M75901 77013 L76101 77613" /> 
<g style = "stroke-linecap:round;" > 
<path d="M76101 77613 L76101 77613" /> 
</g><path d="M76301 77556 L76329 77584" /> 
<path d="M76329 77584 L76301 77613" /> 
<path d="M76301 77613 L76272 77584" /> 
<path d="M76272 77584 L76301 77556" /> 
<path d="M76301 77556 L76301 77613" /> 
<g style = "stroke-linecap:round;" > 
<path d="M76301 77613 L76301 77613" /> 
</g><path d="M77501 77213 L77501 77813" /> 
<g style = "stroke-linecap:round;" > 
<path d="M77501 77813 L77501 77813" /> 
</g><path d="M77501 77241 L77558 77213" /> 
<path d="M77558 77213 L77672 77213" /> 
<path d="M77672 77213 L77729 77241" /> 
<path d="M77729 77241 L77758 77270" /> 
<path d="M77758 77270 L77787 77327" /> 
<path d="M77787 77327 L77787 77499" /> 
<path d="M77787 77499 L77758 77556" /> 
<path d="M77758 77556 L77729 77584" /> 
<path d="M77729 77584 L77672 77613" /> 
<path d="M77672 77613 L77558 77613" /> 
<path d="M77558 77613 L77501 77584" /> 
<g style = "stroke-linecap:round;" > 
<path d="M77501 77584 L77501 77584" /> 
</g><path d="M78301 77584 L78244 77613" /> 
<path d="M78244 77613 L78130 77613" /> 
<path d="M78130 77613 L78072 77584" /> 
<path d="M78072 77584 L78044 77556" /> 
<path d="M78044 77556 L78015 77499" /> 
<path d="M78015 77499 L78015 77327" /> 
<path d="M78015 77327 L78044 77270" /> 
<path d="M78044 77270 L78072 77241" /> 
<path d="M78072 77241 L78130 77213" /> 
<path d="M78130 77213 L78244 77213" /> 
<path d="M78244 77213 L78301 77241" /> 
<g style = "stroke-linecap:round;" > 
<path d="M78301 77241 L78301 77241" /> 
</g><path d="M78558 77613 L78558 77013" /> 
<g style = "stroke-linecap:round;" > 
<path d="M78558 77013 L78558 77013" /> 
</g><path d="M78558 77241 L78615 77213" /> 
<path d="M78615 77213 L78729 77213" /> 
<path d="M78729 77213 L78786 77241" /> 
<path d="M78786 77241 L78815 77270" /> 
<path d="M78815 77270 L78844 77327" /> 
<path d="M78844 77327 L78844 77499" /> 
<path d="M78844 77499 L78815 77556" /> 
<path d="M78815 77556 L78786 77584" /> 
<path d="M78786 77584 L78729 77613" /> 
<path d="M78729 77613 L78615 77613" /> 
<path d="M78615 77613 L78558 77584" /> 
<g style = "stroke-linecap:round;" > 
<path d="M78558 77584 L78558 77584" /> 
</g><path d="M79101 77213 L79101 77613" /> 
<g style = "stroke-linecap:round;" > 
<path d="M79101 77613 L79101 77613" /> 
</g><path d="M79101 77270 L79129 77241" /> 
<path d="M79129 77241 L79187 77213" /> 
<path d="M79187 77213 L79272 77213" /> 
<path d="M79272 77213 L79329 77241" /> 
<path d="M79329 77241 L79358 77299" /> 
<path d="M79358 77299 L79358 77613" /> 
<g style = "stroke-linecap:round;" > 
<path d="M79358 77613 L79358 77613" /> 
</g><path d="M79872 77584 L79815 77613" /> 
<path d="M79815 77613 L79701 77613" /> 
<path d="M79701 77613 L79644 77584" /> 
<path d="M79644 77584 L79615 77527" /> 
<path d="M79615 77527 L79615 77299" /> 
<path d="M79615 77299 L79644 77241" /> 
<path d="M79644 77241 L79701 77213" /> 
<path d="M79701 77213 L79815 77213" /> 
<path d="M79815 77213 L79872 77241" /> 
<path d="M79872 77241 L79901 77299" /> 
<path d="M79901 77299 L79901 77356" /> 
<path d="M79901 77356 L79615 77413" /> 
<g style = "stroke-linecap:round;" > 
<path d="M79615 77413 L79615 77413" /> 
</g><path d="M80101 77213 L80215 77613" /> 
<path d="M80215 77613 L80329 77327" /> 
<path d="M80329 77327 L80444 77613" /> 
<path d="M80444 77613 L80558 77213" /> 
<g style = "stroke-linecap:round;" > 
<path d="M80558 77213 L80558 77213" /> 
</g><path d="M81415 77841 L81387 77813" /> 
<path d="M81387 77813 L81330 77727" /> 
<path d="M81330 77727 L81301 77670" /> 
<path d="M81301 77670 L81272 77584" /> 
<path d="M81272 77584 L81244 77441" /> 
<path d="M81244 77441 L81244 77327" /> 
<path d="M81244 77327 L81272 77184" /> 
<path d="M81272 77184 L81301 77099" /> 
<path d="M81301 77099 L81330 77041" /> 
<path d="M81330 77041 L81387 76956" /> 
<path d="M81387 76956 L81415 76927" /> 
<g style = "stroke-linecap:round;" > 
<path d="M81415 76927 L81415 76927" /> 
</g><path d="M81615 77070 L81644 77041" /> 
<path d="M81644 77041 L81701 77013" /> 
<path d="M81701 77013 L81844 77013" /> 
<path d="M81844 77013 L81901 77041" /> 
<path d="M81901 77041 L81930 77070" /> 
<path d="M81930 77070 L81958 77127" /> 
<path d="M81958 77127 L81958 77184" /> 
<path d="M81958 77184 L81930 77270" /> 
<path d="M81930 77270 L81587 77613" /> 
<path d="M81587 77613 L81958 77613" /> 
<g style = "stroke-linecap:round;" > 
<path d="M81958 77613 L81958 77613" /> 
</g><path d="M82329 77013 L82386 77013" /> 
<path d="M82386 77013 L82443 77041" /> 
<path d="M82443 77041 L82472 77070" /> 
<path d="M82472 77070 L82501 77127" /> 
<path d="M82501 77127 L82529 77241" /> 
<path d="M82529 77241 L82529 77384" /> 
<path d="M82529 77384 L82501 77499" /> 
<path d="M82501 77499 L82472 77556" /> 
<path d="M82472 77556 L82443 77584" /> 
<path d="M82443 77584 L82386 77613" /> 
<path d="M82386 77613 L82329 77613" /> 
<path d="M82329 77613 L82272 77584" /> 
<path d="M82272 77584 L82243 77556" /> 
<path d="M82243 77556 L82215 77499" /> 
<path d="M82215 77499 L82186 77384" /> 
<path d="M82186 77384 L82186 77241" /> 
<path d="M82186 77241 L82215 77127" /> 
<path d="M82215 77127 L82243 77070" /> 
<path d="M82243 77070 L82272 77041" /> 
<path d="M82272 77041 L82329 77013" /> 
<path d="M83100 77613 L82757 77613" /> 
<g style = "stroke-linecap:round;" > 
<path d="M82757 77613 L82757 77613" /> 
</g><path d="M82929 77613 L82929 77013" /> 
<path d="M82929 77013 L82872 77099" /> 
<path d="M82872 77099 L82814 77156" /> 
<path d="M82814 77156 L82757 77184" /> 
<g style = "stroke-linecap:round;" > 
<path d="M82757 77184 L82757 77184" /> 
</g><path d="M83671 77613 L83328 77613" /> 
<g style = "stroke-linecap:round;" > 
<path d="M83328 77613 L83328 77613" /> 
</g><path d="M83500 77613 L83500 77013" /> 
<path d="M83500 77013 L83443 77099" /> 
<path d="M83443 77099 L83385 77156" /> 
<path d="M83385 77156 L83328 77184" /> 
<g style = "stroke-linecap:round;" > 
<path d="M83328 77184 L83328 77184" /> 
</g><path d="M83928 77384 L84385 77384" /> 
<g style = "stroke-linecap:round;" > 
<path d="M84385 77384 L84385 77384" /> 
</g><path d="M84985 77613 L84642 77613" /> 
<g style = "stroke-linecap:round;" > 
<path d="M84642 77613 L84642 77613" /> 
</g><path d="M84814 77613 L84814 77013" /> 
<path d="M84814 77013 L84757 77099" /> 
<path d="M84757 77099 L84699 77156" /> 
<path d="M84699 77156 L84642 77184" /> 
<g style = "stroke-linecap:round;" > 
<path d="M84642 77184 L84642 77184" /> 
</g><path d="M85556 77613 L85213 77613" /> 
<g style = "stroke-linecap:round;" > 
<path d="M85213 77613 L85213 77613" /> 
</g><path d="M85385 77613 L85385 77013" /> 
<path d="M85385 77013 L85328 77099" /> 
<path d="M85328 77099 L85270 77156" /> 
<path d="M85270 77156 L85213 77184" /> 
<g style = "stroke-linecap:round;" > 
<path d="M85213 77184 L85213 77184" /> 
</g><path d="M85813 77384 L86270 77384" /> 
<g style = "stroke-linecap:round;" > 
<path d="M86270 77384 L86270 77384" /> 
</g><path d="M86527 77070 L86556 77041" /> 
<path d="M86556 77041 L86613 77013" /> 
<path d="M86613 77013 L86756 77013" /> 
<path d="M86756 77013 L86813 77041" /> 
<path d="M86813 77041 L86842 77070" /> 
<path d="M86842 77070 L86870 77127" /> 
<path d="M86870 77127 L86870 77184" /> 
<path d="M86870 77184 L86842 77270" /> 
<path d="M86842 77270 L86499 77613" /> 
<path d="M86499 77613 L86870 77613" /> 
<g style = "stroke-linecap:round;" > 
<path d="M86870 77613 L86870 77613" /> 
</g><path d="M87070 77013 L87470 77013" /> 
<path d="M87470 77013 L87213 77613" /> 
<g style = "stroke-linecap:round;" > 
<path d="M87213 77613 L87213 77613" /> 
</g><path d="M88355 77299 L88441 77327" /> 
<path d="M88441 77327 L88469 77356" /> 
<path d="M88469 77356 L88498 77413" /> 
<path d="M88498 77413 L88498 77499" /> 
<path d="M88498 77499 L88469 77556" /> 
<path d="M88469 77556 L88441 77584" /> 
<path d="M88441 77584 L88383 77613" /> 
<path d="M88383 77613 L88155 77613" /> 
<path d="M88155 77613 L88155 77013" /> 
<path d="M88155 77013 L88355 77013" /> 
<path d="M88355 77013 L88412 77041" /> 
<path d="M88412 77041 L88441 77070" /> 
<path d="M88441 77070 L88469 77127" /> 
<path d="M88469 77127 L88469 77184" /> 
<path d="M88469 77184 L88441 77241" /> 
<path d="M88441 77241 L88412 77270" /> 
<path d="M88412 77270 L88355 77299" /> 
<path d="M88355 77299 L88155 77299" /> 
<g style = "stroke-linecap:round;" > 
<path d="M88155 77299 L88155 77299" /> 
</g><path d="M88698 77013 L89098 77013" /> 
<path d="M89098 77013 L88698 77613" /> 
<path d="M88698 77613 L89098 77613" /> 
<g style = "stroke-linecap:round;" > 
<path d="M89098 77613 L89098 77613" /> 
</g><path d="M89669 77613 L89469 77327" /> 
<g style = "stroke-linecap:round;" > 
<path d="M89469 77327 L89469 77327" /> 
</g><path d="M89326 77613 L89326 77013" /> 
<path d="M89326 77013 L89554 77013" /> 
<path d="M89554 77013 L89612 77041" /> 
<path d="M89612 77041 L89640 77070" /> 
<path d="M89640 77070 L89669 77127" /> 
<path d="M89669 77127 L89669 77213" /> 
<path d="M89669 77213 L89640 77270" /> 
<path d="M89640 77270 L89612 77299" /> 
<path d="M89612 77299 L89554 77327" /> 
<path d="M89554 77327 L89326 77327" /> 
<g style = "stroke-linecap:round;" > 
<path d="M89326 77327 L89326 77327" /> 
</g><path d="M90326 77013 L90697 77013" /> 
<path d="M90697 77013 L90497 77241" /> 
<path d="M90497 77241 L90583 77241" /> 
<path d="M90583 77241 L90640 77270" /> 
<path d="M90640 77270 L90669 77299" /> 
<path d="M90669 77299 L90697 77356" /> 
<path d="M90697 77356 L90697 77499" /> 
<path d="M90697 77499 L90669 77556" /> 
<path d="M90669 77556 L90640 77584" /> 
<path d="M90640 77584 L90583 77613" /> 
<path d="M90583 77613 L90411 77613" /> 
<path d="M90411 77613 L90354 77584" /> 
<path d="M90354 77584 L90326 77556" /> 
<g style = "stroke-linecap:round;" > 
<path d="M90326 77556 L90326 77556" /> 
</g><path d="M90925 77070 L90954 77041" /> 
<path d="M90954 77041 L91011 77013" /> 
<path d="M91011 77013 L91154 77013" /> 
<path d="M91154 77013 L91211 77041" /> 
<path d="M91211 77041 L91240 77070" /> 
<path d="M91240 77070 L91268 77127" /> 
<path d="M91268 77127 L91268 77184" /> 
<path d="M91268 77184 L91240 77270" /> 
<path d="M91240 77270 L90897 77613" /> 
<path d="M90897 77613 L91268 77613" /> 
<g style = "stroke-linecap:round;" > 
<path d="M91268 77613 L91268 77613" /> 
</g><path d="M91782 77213 L91782 77613" /> 
<g style = "stroke-linecap:round;" > 
<path d="M91782 77613 L91782 77613" /> 
</g><path d="M91639 76984 L91496 77413" /> 
<path d="M91496 77413 L91868 77413" /> 
<g style = "stroke-linecap:round;" > 
<path d="M91868 77413 L91868 77413" /> 
</g><path d="M92124 77613 L92239 77613" /> 
<path d="M92239 77613 L92296 77584" /> 
<path d="M92296 77584 L92324 77556" /> 
<path d="M92324 77556 L92382 77470" /> 
<path d="M92382 77470 L92410 77356" /> 
<path d="M92410 77356 L92410 77127" /> 
<path d="M92410 77127 L92382 77070" /> 
<path d="M92382 77070 L92353 77041" /> 
<path d="M92353 77041 L92296 77013" /> 
<path d="M92296 77013 L92182 77013" /> 
<path d="M92182 77013 L92124 77041" /> 
<path d="M92124 77041 L92096 77070" /> 
<path d="M92096 77070 L92067 77127" /> 
<path d="M92067 77127 L92067 77270" /> 
<path d="M92067 77270 L92096 77327" /> 
<path d="M92096 77327 L92124 77356" /> 
<path d="M92124 77356 L92182 77384" /> 
<path d="M92182 77384 L92296 77384" /> 
<path d="M92296 77384 L92353 77356" /> 
<path d="M92353 77356 L92382 77327" /> 
<path d="M92382 77327 L92410 77270" /> 
<g style = "stroke-linecap:round;" > 
<path d="M92410 77270 L92410 77270" /> 
</g><path d="M92610 77841 L92638 77813" /> 
<path d="M92638 77813 L92695 77727" /> 
<path d="M92695 77727 L92724 77670" /> 
<path d="M92724 77670 L92753 77584" /> 
<path d="M92753 77584 L92781 77441" /> 
<path d="M92781 77441 L92781 77327" /> 
<path d="M92781 77327 L92753 77184" /> 
<path d="M92753 77184 L92724 77099" /> 
<path d="M92724 77099 L92695 77041" /> 
<path d="M92695 77041 L92638 76956" /> 
<path d="M92638 76956 L92610 76927" /> 
<g style = "stroke-linecap:round;" > 
<path d="M92610 76927 L92610 76927" /> 
</g><path d="M93067 77384 L93524 77384" /> 
<g style = "stroke-linecap:round;" > 
<path d="M93524 77384 L93524 77384" /> 
</g><path d="M93781 77584 L93838 77613" /> 
<path d="M93838 77613 L93953 77613" /> 
<path d="M93953 77613 L94010 77584" /> 
<path d="M94010 77584 L94038 77527" /> 
<path d="M94038 77527 L94038 77499" /> 
<path d="M94038 77499 L94010 77441" /> 
<path d="M94010 77441 L93953 77413" /> 
<path d="M93953 77413 L93867 77413" /> 
<path d="M93867 77413 L93810 77384" /> 
<path d="M93810 77384 L93781 77327" /> 
<path d="M93781 77327 L93781 77299" /> 
<path d="M93781 77299 L93810 77241" /> 
<path d="M93810 77241 L93867 77213" /> 
<path d="M93867 77213 L93953 77213" /> 
<path d="M93953 77213 L94010 77241" /> 
<g style = "stroke-linecap:round;" > 
<path d="M94010 77241 L94010 77241" /> 
</g><path d="M94210 77213 L94439 77213" /> 
<g style = "stroke-linecap:round;" > 
<path d="M94439 77213 L94439 77213" /> 
</g><path d="M94296 77013 L94296 77527" /> 
<path d="M94296 77527 L94324 77584" /> 
<path d="M94324 77584 L94382 77613" /> 
<path d="M94382 77613 L94439 77613" /> 
<g style = "stroke-linecap:round;" > 
<path d="M94439 77613 L94439 77613" /> 
</g><path d="M94896 77613 L94896 77299" /> 
<path d="M94896 77299 L94867 77241" /> 
<path d="M94867 77241 L94810 77213" /> 
<path d="M94810 77213 L94696 77213" /> 
<path d="M94696 77213 L94639 77241" /> 
<g style = "stroke-linecap:round;" > 
<path d="M94639 77241 L94639 77241" /> 
</g><path d="M94896 77584 L94839 77613" /> 
<path d="M94839 77613 L94696 77613" /> 
<path d="M94696 77613 L94639 77584" /> 
<path d="M94639 77584 L94610 77527" /> 
<path d="M94610 77527 L94610 77470" /> 
<path d="M94610 77470 L94639 77413" /> 
<path d="M94639 77413 L94696 77384" /> 
<path d="M94696 77384 L94839 77384" /> 
<path d="M94839 77384 L94896 77356" /> 
<g style = "stroke-linecap:round;" > 
<path d="M94896 77356 L94896 77356" /> 
</g><path d="M95182 77613 L95182 77013" /> 
<g style = "stroke-linecap:round;" > 
<path d="M95182 77013 L95182 77013" /> 
</g><path d="M95182 77241 L95239 77213" /> 
<path d="M95239 77213 L95353 77213" /> 
<path d="M95353 77213 L95410 77241" /> 
<path d="M95410 77241 L95439 77270" /> 
<path d="M95439 77270 L95468 77327" /> 
<path d="M95468 77327 L95468 77499" /> 
<path d="M95468 77499 L95439 77556" /> 
<path d="M95439 77556 L95410 77584" /> 
<path d="M95410 77584 L95353 77613" /> 
<path d="M95353 77613 L95239 77613" /> 
<path d="M95239 77613 L95182 77584" /> 
<g style = "stroke-linecap:round;" > 
<path d="M95182 77584 L95182 77584" /> 
</g><path d="M95811 77613 L95753 77584" /> 
<path d="M95753 77584 L95725 77527" /> 
<path d="M95725 77527 L95725 77013" /> 
<g style = "stroke-linecap:round;" > 
<path d="M95725 77013 L95725 77013" /> 
</g><path d="M96267 77584 L96210 77613" /> 
<path d="M96210 77613 L96096 77613" /> 
<path d="M96096 77613 L96039 77584" /> 
<path d="M96039 77584 L96010 77527" /> 
<path d="M96010 77527 L96010 77299" /> 
<path d="M96010 77299 L96039 77241" /> 
<path d="M96039 77241 L96096 77213" /> 
<path d="M96096 77213 L96210 77213" /> 
<path d="M96210 77213 L96267 77241" /> 
<path d="M96267 77241 L96296 77299" /> 
<path d="M96296 77299 L96296 77356" /> 
<path d="M96296 77356 L96010 77413" /> 
<g style = "stroke-linecap:round;" > 
<path d="M96010 77413 L96010 77413" /> 
</g></g>
<g style="fill:#000000; fill-opacity:0.0; stroke:#000000; stroke-opacity:1.00; stroke-linecap:round; stroke-linejoin:round; stroke-width:120" 
   transform="translate(0.00 0.00) scale(1.00 1.00)">
<path d="M104586 76413 L104386 76127" /> 
<g style = "stroke-linecap:round;" > 
<path d="M104386 76127 L104386 76127" /> 
</g><path d="M104243 76413 L104243 75813" /> 
<path d="M104243 75813 L104471 75813" /> 
<path d="M104471 75813 L104529 75841" /> 
<path d="M104529 75841 L104557 75870" /> 
<path d="M104557 75870 L104586 75927" /> 
<path d="M104586 75927 L104586 76013" /> 
<path d="M104586 76013 L104557 76070" /> 
<path d="M104557 76070 L104529 76099" /> 
<path d="M104529 76099 L104471 76127" /> 
<path d="M104471 76127 L104243 76127" /> 
<g style = "stroke-linecap:round;" > 
<path d="M104243 76127 L104243 76127" /> 
</g><path d="M105071 76384 L105014 76413" /> 
<path d="M105014 76413 L104900 76413" /> 
<path d="M104900 76413 L104843 76384" /> 
<path d="M104843 76384 L104814 76327" /> 
<path d="M104814 76327 L104814 76099" /> 
<path d="M104814 76099 L104843 76041" /> 
<path d="M104843 76041 L104900 76013" /> 
<path d="M104900 76013 L105014 76013" /> 
<path d="M105014 76013 L105071 76041" /> 
<path d="M105071 76041 L105100 76099" /> 
<path d="M105100 76099 L105100 76156" /> 
<path d="M105100 76156 L104814 76213" /> 
<g style = "stroke-linecap:round;" > 
<path d="M104814 76213 L104814 76213" /> 
</g><path d="M105300 76013 L105443 76413" /> 
<path d="M105443 76413 L105585 76013" /> 
<g style = "stroke-linecap:round;" > 
<path d="M105585 76013 L105585 76013" /> 
</g><path d="M105814 76356 L105842 76384" /> 
<path d="M105842 76384 L105814 76413" /> 
<path d="M105814 76413 L105785 76384" /> 
<path d="M105785 76384 L105814 76356" /> 
<path d="M105814 76356 L105814 76413" /> 
<g style = "stroke-linecap:round;" > 
<path d="M105814 76413 L105814 76413" /> 
</g><path d="M105814 76041 L105842 76070" /> 
<path d="M105842 76070 L105814 76099" /> 
<path d="M105814 76099 L105785 76070" /> 
<path d="M105785 76070 L105814 76041" /> 
<path d="M105814 76041 L105814 76099" /> 
<g style = "stroke-linecap:round;" > 
<path d="M105814 76099 L105814 76099" /> 
</g></g>
<g style="fill:#000000; fill-opacity:0.0; stroke:#000000; stroke-opacity:1.00; stroke-linecap:round; stroke-linejoin:round; stroke-width:60" 
   transform="translate(0.00 0.00) scale(1.00 1.00)">
<path d="M71014 76384 L71100 76413" /> 
<path d="M71100 76413 L71243 76413" /> 
<path d="M71243 76413 L71300 76384" /> 
<path d="M71300 76384 L71329 76356" /> 
<path d="M71329 76356 L71357 76299" /> 
<path d="M71357 76299 L71357 76241" /> 
<path d="M71357 76241 L71329 76184" /> 
<path d="M71329 76184 L71300 76156" /> 
<path d="M71300 76156 L71243 76127" /> 
<path d="M71243 76127 L71129 76099" /> 
<path d="M71129 76099 L71071 76070" /> 
<path d="M71071 76070 L71043 76041" /> 
<path d="M71043 76041 L71014 75984" /> 
<path d="M71014 75984 L71014 75927" /> 
<path d="M71014 75927 L71043 75870" /> 
<path d="M71043 75870 L71071 75841" /> 
<path d="M71071 75841 L71129 75813" /> 
<path d="M71129 75813 L71271 75813" /> 
<path d="M71271 75813 L71357 75841" /> 
<g style = "stroke-linecap:round;" > 
<path d="M71357 75841 L71357 75841" /> 
</g><path d="M71614 76413 L71614 76013" /> 
<g style = "stroke-linecap:round;" > 
<path d="M71614 76013 L71614 76013" /> 
</g><path d="M71614 75813 L71585 75841" /> 
<path d="M71585 75841 L71614 75870" /> 
<path d="M71614 75870 L71642 75841" /> 
<path d="M71642 75841 L71614 75813" /> 
<path d="M71614 75813 L71614 75870" /> 
<g style = "stroke-linecap:round;" > 
<path d="M71614 75870 L71614 75870" /> 
</g><path d="M71843 76013 L72157 76013" /> 
<path d="M72157 76013 L71843 76413" /> 
<path d="M71843 76413 L72157 76413" /> 
<g style = "stroke-linecap:round;" > 
<path d="M72157 76413 L72157 76413" /> 
</g><path d="M72614 76384 L72557 76413" /> 
<path d="M72557 76413 L72443 76413" /> 
<path d="M72443 76413 L72386 76384" /> 
<path d="M72386 76384 L72357 76327" /> 
<path d="M72357 76327 L72357 76099" /> 
<path d="M72357 76099 L72386 76041" /> 
<path d="M72386 76041 L72443 76013" /> 
<path d="M72443 76013 L72557 76013" /> 
<path d="M72557 76013 L72614 76041" /> 
<path d="M72614 76041 L72643 76099" /> 
<path d="M72643 76099 L72643 76156" /> 
<path d="M72643 76156 L72357 76213" /> 
<g style = "stroke-linecap:round;" > 
<path d="M72357 76213 L72357 76213" /> 
</g><path d="M72900 76356 L72928 76384" /> 
<path d="M72928 76384 L72900 76413" /> 
<path d="M72900 76413 L72871 76384" /> 
<path d="M72871 76384 L72900 76356" /> 
<path d="M72900 76356 L72900 76413" /> 
<g style = "stroke-linecap:round;" > 
<path d="M72900 76413 L72900 76413" /> 
</g><path d="M72900 76041 L72928 76070" /> 
<path d="M72928 76070 L72900 76099" /> 
<path d="M72900 76099 L72871 76070" /> 
<path d="M72871 76070 L72900 76041" /> 
<path d="M72900 76041 L72900 76099" /> 
<g style = "stroke-linecap:round;" > 
<path d="M72900 76099 L72900 76099" /> 
</g><path d="M73614 76241 L73900 76241" /> 
<g style = "stroke-linecap:round;" > 
<path d="M73900 76241 L73900 76241" /> 
</g><path d="M73557 76413 L73757 75813" /> 
<path d="M73757 75813 L73957 76413" /> 
<g style = "stroke-linecap:round;" > 
<path d="M73957 76413 L73957 76413" /> 
</g><path d="M74414 76013 L74414 76413" /> 
<g style = "stroke-linecap:round;" > 
<path d="M74414 76413 L74414 76413" /> 
</g><path d="M74271 75784 L74128 76213" /> 
<path d="M74128 76213 L74500 76213" /> 
<g style = "stroke-linecap:round;" > 
<path d="M74500 76213 L74500 76213" /> 
</g><path d="M104243 77613 L104243 77013" /> 
<g style = "stroke-linecap:round;" > 
<path d="M104243 77013 L104243 77013" /> 
</g><path d="M104786 77613 L104786 77013" /> 
<g style = "stroke-linecap:round;" > 
<path d="M104786 77013 L104786 77013" /> 
</g><path d="M104786 77584 L104729 77613" /> 
<path d="M104729 77613 L104615 77613" /> 
<path d="M104615 77613 L104557 77584" /> 
<path d="M104557 77584 L104529 77556" /> 
<path d="M104529 77556 L104500 77499" /> 
<path d="M104500 77499 L104500 77327" /> 
<path d="M104500 77327 L104529 77270" /> 
<path d="M104529 77270 L104557 77241" /> 
<path d="M104557 77241 L104615 77213" /> 
<path d="M104615 77213 L104729 77213" /> 
<path d="M104729 77213 L104786 77241" /> 
<g style = "stroke-linecap:round;" > 
<path d="M104786 77241 L104786 77241" /> 
</g><path d="M105072 77556 L105100 77584" /> 
<path d="M105100 77584 L105072 77613" /> 
<path d="M105072 77613 L105043 77584" /> 
<path d="M105043 77584 L105072 77556" /> 
<path d="M105072 77556 L105072 77613" /> 
<g style = "stroke-linecap:round;" > 
<path d="M105072 77613 L105072 77613" /> 
</g><path d="M105072 77241 L105100 77270" /> 
<path d="M105100 77270 L105072 77299" /> 
<path d="M105072 77299 L105043 77270" /> 
<path d="M105043 77270 L105072 77241" /> 
<path d="M105072 77241 L105072 77299" /> 
<g style = "stroke-linecap:round;" > 
<path d="M105072 77299 L105072 77299" /> 
</g><path d="M106129 77613 L105786 77613" /> 
<g style = "stroke-linecap:round;" > 
<path d="M105786 77613 L105786 77613" /> 
</g><path d="M105958 77613 L105958 77013" /> 
<path d="M105958 77013 L105901 77099" /> 
<path d="M105901 77099 L105843 77156" /> 
<path d="M105843 77156 L105786 77184" /> 
<g style = "stroke-linecap:round;" > 
<path d="M105786 77184 L105786 77184" /> 
</g><path d="M106814 76984 L106300 77756" /> 
<g style = "stroke-linecap:round;" > 
<path d="M106300 77756 L106300 77756" /> 
</g><path d="M107329 77613 L106986 77613" /> 
<g style = "stroke-linecap:round;" > 
<path d="M106986 77613 L106986 77613" /> 
</g><path d="M107158 77613 L107158 77013" /> 
<path d="M107158 77013 L107101 77099" /> 
<path d="M107101 77099 L107043 77156" /> 
<path d="M107043 77156 L106986 77184" /> 
<g style = "stroke-linecap:round;" > 
<path d="M106986 77184 L106986 77184" /> 
</g></g>
<g style="fill:#000000; fill-opacity:0.0; stroke:#000000; stroke-opacity:1.00; stroke-linecap:round; stroke-linejoin:round; stroke-width:120" 
   transform="translate(0.00 0.00) scale(1.00 1.00)">
<path d="M70957 74613 L71300 74613" /> 
<g style = "stroke-linecap:round;" > 
<path d="M71300 74613 L71300 74613" /> 
</g><path d="M71129 75213 L71129 74613" /> 
<g style = "stroke-linecap:round;" > 
<path d="M71129 74613 L71129 74613" /> 
</g><path d="M71500 75213 L71500 74813" /> 
<g style = "stroke-linecap:round;" > 
<path d="M71500 74813 L71500 74813" /> 
</g><path d="M71500 74613 L71471 74641" /> 
<path d="M71471 74641 L71500 74670" /> 
<path d="M71500 74670 L71528 74641" /> 
<path d="M71528 74641 L71500 74613" /> 
<path d="M71500 74613 L71500 74670" /> 
<g style = "stroke-linecap:round;" > 
<path d="M71500 74670 L71500 74670" /> 
</g><path d="M71700 74813 L71929 74813" /> 
<g style = "stroke-linecap:round;" > 
<path d="M71929 74813 L71929 74813" /> 
</g><path d="M71786 74613 L71786 75127" /> 
<path d="M71786 75127 L71814 75184" /> 
<path d="M71814 75184 L71872 75213" /> 
<path d="M71872 75213 L71929 75213" /> 
<g style = "stroke-linecap:round;" > 
<path d="M71929 75213 L71929 75213" /> 
</g><path d="M72215 75213 L72157 75184" /> 
<path d="M72157 75184 L72129 75127" /> 
<path d="M72129 75127 L72129 74613" /> 
<g style = "stroke-linecap:round;" > 
<path d="M72129 74613 L72129 74613" /> 
</g><path d="M72671 75184 L72614 75213" /> 
<path d="M72614 75213 L72500 75213" /> 
<path d="M72500 75213 L72443 75184" /> 
<path d="M72443 75184 L72414 75127" /> 
<path d="M72414 75127 L72414 74899" /> 
<path d="M72414 74899 L72443 74841" /> 
<path d="M72443 74841 L72500 74813" /> 
<path d="M72500 74813 L72614 74813" /> 
<path d="M72614 74813 L72671 74841" /> 
<path d="M72671 74841 L72700 74899" /> 
<path d="M72700 74899 L72700 74956" /> 
<path d="M72700 74956 L72414 75013" /> 
<g style = "stroke-linecap:round;" > 
<path d="M72414 75013 L72414 75013" /> 
</g><path d="M72957 75156 L72985 75184" /> 
<path d="M72985 75184 L72957 75213" /> 
<path d="M72957 75213 L72928 75184" /> 
<path d="M72928 75184 L72957 75156" /> 
<path d="M72957 75156 L72957 75213" /> 
<g style = "stroke-linecap:round;" > 
<path d="M72957 75213 L72957 75213" /> 
</g><path d="M72957 74841 L72985 74870" /> 
<path d="M72985 74870 L72957 74899" /> 
<path d="M72957 74899 L72928 74870" /> 
<path d="M72928 74870 L72957 74841" /> 
<path d="M72957 74841 L72957 74899" /> 
<g style = "stroke-linecap:round;" > 
<path d="M72957 74899 L72957 74899" /> 
</g></g>
<g style="fill:#000000; fill-opacity:0.0; stroke:#000000; stroke-opacity:1.00; stroke-linecap:round; stroke-linejoin:round; stroke-width:60" 
   transform="translate(0.00 0.00) scale(1.00 1.00)">
<path d="M71243 72499 L71043 72499" /> 
<g style = "stroke-linecap:round;" > 
<path d="M71043 72499 L71043 72499" /> 
</g><path d="M71043 72813 L71043 72213" /> 
<path d="M71043 72213 L71329 72213" /> 
<g style = "stroke-linecap:round;" > 
<path d="M71329 72213 L71329 72213" /> 
</g><path d="M71557 72813 L71557 72413" /> 
<g style = "stroke-linecap:round;" > 
<path d="M71557 72413 L71557 72413" /> 
</g><path d="M71557 72213 L71528 72241" /> 
<path d="M71528 72241 L71557 72270" /> 
<path d="M71557 72270 L71585 72241" /> 
<path d="M71585 72241 L71557 72213" /> 
<path d="M71557 72213 L71557 72270" /> 
<g style = "stroke-linecap:round;" > 
<path d="M71557 72270 L71557 72270" /> 
</g><path d="M71929 72813 L71871 72784" /> 
<path d="M71871 72784 L71843 72727" /> 
<path d="M71843 72727 L71843 72213" /> 
<g style = "stroke-linecap:round;" > 
<path d="M71843 72213 L71843 72213" /> 
</g><path d="M72385 72784 L72328 72813" /> 
<path d="M72328 72813 L72214 72813" /> 
<path d="M72214 72813 L72157 72784" /> 
<path d="M72157 72784 L72128 72727" /> 
<path d="M72128 72727 L72128 72499" /> 
<path d="M72128 72499 L72157 72441" /> 
<path d="M72157 72441 L72214 72413" /> 
<path d="M72214 72413 L72328 72413" /> 
<path d="M72328 72413 L72385 72441" /> 
<path d="M72385 72441 L72414 72499" /> 
<path d="M72414 72499 L72414 72556" /> 
<path d="M72414 72556 L72128 72613" /> 
<g style = "stroke-linecap:round;" > 
<path d="M72128 72613 L72128 72613" /> 
</g><path d="M72671 72756 L72699 72784" /> 
<path d="M72699 72784 L72671 72813" /> 
<path d="M72671 72813 L72642 72784" /> 
<path d="M72642 72784 L72671 72756" /> 
<path d="M72671 72756 L72671 72813" /> 
<g style = "stroke-linecap:round;" > 
<path d="M72671 72813 L72671 72813" /> 
</g><path d="M72671 72441 L72699 72470" /> 
<path d="M72699 72470 L72671 72499" /> 
<path d="M72671 72499 L72642 72470" /> 
<path d="M72642 72470 L72671 72441" /> 
<path d="M72671 72441 L72671 72499" /> 
<g style = "stroke-linecap:round;" > 
<path d="M72671 72499 L72671 72499" /> 
</g><path d="M73328 72213 L73671 72213" /> 
<g style = "stroke-linecap:round;" > 
<path d="M73671 72213 L73671 72213" /> 
</g><path d="M73500 72813 L73500 72213" /> 
<g style = "stroke-linecap:round;" > 
<path d="M73500 72213 L73500 72213" /> 
</g><path d="M73871 72813 L73871 72413" /> 
<g style = "stroke-linecap:round;" > 
<path d="M73871 72413 L73871 72413" /> 
</g><path d="M73871 72527 L73899 72470" /> 
<path d="M73899 72470 L73928 72441" /> 
<path d="M73928 72441 L73985 72413" /> 
<path d="M73985 72413 L74042 72413" /> 
<g style = "stroke-linecap:round;" > 
<path d="M74042 72413 L74042 72413" /> 
</g><path d="M74499 72813 L74499 72499" /> 
<path d="M74499 72499 L74470 72441" /> 
<path d="M74470 72441 L74413 72413" /> 
<path d="M74413 72413 L74299 72413" /> 
<path d="M74299 72413 L74242 72441" /> 
<g style = "stroke-linecap:round;" > 
<path d="M74242 72441 L74242 72441" /> 
</g><path d="M74499 72784 L74442 72813" /> 
<path d="M74442 72813 L74299 72813" /> 
<path d="M74299 72813 L74242 72784" /> 
<path d="M74242 72784 L74213 72727" /> 
<path d="M74213 72727 L74213 72670" /> 
<path d="M74213 72670 L74242 72613" /> 
<path d="M74242 72613 L74299 72584" /> 
<path d="M74299 72584 L74442 72584" /> 
<path d="M74442 72584 L74499 72556" /> 
<g style = "stroke-linecap:round;" > 
<path d="M74499 72556 L74499 72556" /> 
</g><path d="M74785 72413 L74785 72813" /> 
<g style = "stroke-linecap:round;" > 
<path d="M74785 72813 L74785 72813" /> 
</g><path d="M74785 72470 L74813 72441" /> 
<path d="M74813 72441 L74871 72413" /> 
<path d="M74871 72413 L74956 72413" /> 
<path d="M74956 72413 L75013 72441" /> 
<path d="M75013 72441 L75042 72499" /> 
<path d="M75042 72499 L75042 72813" /> 
<g style = "stroke-linecap:round;" > 
<path d="M75042 72813 L75042 72813" /> 
</g><path d="M75299 72784 L75356 72813" /> 
<path d="M75356 72813 L75471 72813" /> 
<path d="M75471 72813 L75528 72784" /> 
<path d="M75528 72784 L75556 72727" /> 
<path d="M75556 72727 L75556 72699" /> 
<path d="M75556 72699 L75528 72641" /> 
<path d="M75528 72641 L75471 72613" /> 
<path d="M75471 72613 L75385 72613" /> 
<path d="M75385 72613 L75328 72584" /> 
<path d="M75328 72584 L75299 72527" /> 
<path d="M75299 72527 L75299 72499" /> 
<path d="M75299 72499 L75328 72441" /> 
<path d="M75328 72441 L75385 72413" /> 
<path d="M75385 72413 L75471 72413" /> 
<path d="M75471 72413 L75528 72441" /> 
<g style = "stroke-linecap:round;" > 
<path d="M75528 72441 L75528 72441" /> 
</g><path d="M75900 72813 L75842 72784" /> 
<path d="M75842 72784 L75814 72727" /> 
<path d="M75814 72727 L75814 72213" /> 
<g style = "stroke-linecap:round;" > 
<path d="M75814 72213 L75814 72213" /> 
</g><path d="M76385 72813 L76385 72499" /> 
<path d="M76385 72499 L76356 72441" /> 
<path d="M76356 72441 L76299 72413" /> 
<path d="M76299 72413 L76185 72413" /> 
<path d="M76185 72413 L76128 72441" /> 
<g style = "stroke-linecap:round;" > 
<path d="M76128 72441 L76128 72441" /> 
</g><path d="M76385 72784 L76328 72813" /> 
<path d="M76328 72813 L76185 72813" /> 
<path d="M76185 72813 L76128 72784" /> 
<path d="M76128 72784 L76099 72727" /> 
<path d="M76099 72727 L76099 72670" /> 
<path d="M76099 72670 L76128 72613" /> 
<path d="M76128 72613 L76185 72584" /> 
<path d="M76185 72584 L76328 72584" /> 
<path d="M76328 72584 L76385 72556" /> 
<g style = "stroke-linecap:round;" > 
<path d="M76385 72556 L76385 72556" /> 
</g><path d="M76585 72413 L76814 72413" /> 
<g style = "stroke-linecap:round;" > 
<path d="M76814 72413 L76814 72413" /> 
</g><path d="M76671 72213 L76671 72727" /> 
<path d="M76671 72727 L76699 72784" /> 
<path d="M76699 72784 L76757 72813" /> 
<path d="M76757 72813 L76814 72813" /> 
<g style = "stroke-linecap:round;" > 
<path d="M76814 72813 L76814 72813" /> 
</g><path d="M77100 72813 L77042 72784" /> 
<path d="M77042 72784 L77014 72756" /> 
<path d="M77014 72756 L76985 72699" /> 
<path d="M76985 72699 L76985 72527" /> 
<path d="M76985 72527 L77014 72470" /> 
<path d="M77014 72470 L77042 72441" /> 
<path d="M77042 72441 L77100 72413" /> 
<path d="M77100 72413 L77185 72413" /> 
<path d="M77185 72413 L77242 72441" /> 
<path d="M77242 72441 L77271 72470" /> 
<path d="M77271 72470 L77300 72527" /> 
<path d="M77300 72527 L77300 72699" /> 
<path d="M77300 72699 L77271 72756" /> 
<path d="M77271 72756 L77242 72784" /> 
<path d="M77242 72784 L77185 72813" /> 
<path d="M77185 72813 L77100 72813" /> 
<path d="M77557 72813 L77557 72413" /> 
<g style = "stroke-linecap:round;" > 
<path d="M77557 72413 L77557 72413" /> 
</g><path d="M77557 72527 L77585 72470" /> 
<path d="M77585 72470 L77614 72441" /> 
<path d="M77614 72441 L77671 72413" /> 
<path d="M77671 72413 L77728 72413" /> 
<g style = "stroke-linecap:round;" > 
<path d="M77728 72413 L77728 72413" /> 
</g><path d="M77928 72756 L77956 72784" /> 
<path d="M77956 72784 L77928 72813" /> 
<path d="M77928 72813 L77899 72784" /> 
<path d="M77899 72784 L77928 72756" /> 
<path d="M77928 72756 L77928 72813" /> 
<g style = "stroke-linecap:round;" > 
<path d="M77928 72813 L77928 72813" /> 
</g><path d="M78214 72813 L78214 72213" /> 
<g style = "stroke-linecap:round;" > 
<path d="M78214 72213 L78214 72213" /> 
</g><path d="M78214 72441 L78271 72413" /> 
<path d="M78271 72413 L78385 72413" /> 
<path d="M78385 72413 L78442 72441" /> 
<path d="M78442 72441 L78471 72470" /> 
<path d="M78471 72470 L78500 72527" /> 
<path d="M78500 72527 L78500 72699" /> 
<path d="M78500 72699 L78471 72756" /> 
<path d="M78471 72756 L78442 72784" /> 
<path d="M78442 72784 L78385 72813" /> 
<path d="M78385 72813 L78271 72813" /> 
<path d="M78271 72813 L78214 72784" /> 
<g style = "stroke-linecap:round;" > 
<path d="M78214 72784 L78214 72784" /> 
</g><path d="M78757 72813 L78757 72413" /> 
<g style = "stroke-linecap:round;" > 
<path d="M78757 72413 L78757 72413" /> 
</g><path d="M78757 72527 L78785 72470" /> 
<path d="M78785 72470 L78814 72441" /> 
<path d="M78814 72441 L78871 72413" /> 
<path d="M78871 72413 L78928 72413" /> 
<g style = "stroke-linecap:round;" > 
<path d="M78928 72413 L78928 72413" /> 
</g><path d="M79385 72813 L79385 72213" /> 
<g style = "stroke-linecap:round;" > 
<path d="M79385 72213 L79385 72213" /> 
</g><path d="M79385 72784 L79328 72813" /> 
<path d="M79328 72813 L79214 72813" /> 
<path d="M79214 72813 L79156 72784" /> 
<path d="M79156 72784 L79128 72756" /> 
<path d="M79128 72756 L79099 72699" /> 
<path d="M79099 72699 L79099 72527" /> 
<path d="M79099 72527 L79128 72470" /> 
<path d="M79128 72470 L79156 72441" /> 
<path d="M79156 72441 L79214 72413" /> 
<path d="M79214 72413 L79328 72413" /> 
<path d="M79328 72413 L79385 72441" /> 
<g style = "stroke-linecap:round;" > 
<path d="M79385 72441 L79385 72441" /> 
</g><path d="M71014 73984 L71100 74013" /> 
<path d="M71100 74013 L71243 74013" /> 
<path d="M71243 74013 L71300 73984" /> 
<path d="M71300 73984 L71329 73956" /> 
<path d="M71329 73956 L71357 73899" /> 
<path d="M71357 73899 L71357 73841" /> 
<path d="M71357 73841 L71329 73784" /> 
<path d="M71329 73784 L71300 73756" /> 
<path d="M71300 73756 L71243 73727" /> 
<path d="M71243 73727 L71129 73699" /> 
<path d="M71129 73699 L71071 73670" /> 
<path d="M71071 73670 L71043 73641" /> 
<path d="M71043 73641 L71014 73584" /> 
<path d="M71014 73584 L71014 73527" /> 
<path d="M71014 73527 L71043 73470" /> 
<path d="M71043 73470 L71071 73441" /> 
<path d="M71071 73441 L71129 73413" /> 
<path d="M71129 73413 L71271 73413" /> 
<path d="M71271 73413 L71357 73441" /> 
<g style = "stroke-linecap:round;" > 
<path d="M71357 73441 L71357 73441" /> 
</g><path d="M71614 74013 L71614 73413" /> 
<g style = "stroke-linecap:round;" > 
<path d="M71614 73413 L71614 73413" /> 
</g><path d="M71871 74013 L71871 73699" /> 
<path d="M71871 73699 L71842 73641" /> 
<path d="M71842 73641 L71785 73613" /> 
<path d="M71785 73613 L71700 73613" /> 
<path d="M71700 73613 L71642 73641" /> 
<path d="M71642 73641 L71614 73670" /> 
<g style = "stroke-linecap:round;" > 
<path d="M71614 73670 L71614 73670" /> 
</g><path d="M72385 73984 L72328 74013" /> 
<path d="M72328 74013 L72214 74013" /> 
<path d="M72214 74013 L72157 73984" /> 
<path d="M72157 73984 L72128 73927" /> 
<path d="M72128 73927 L72128 73699" /> 
<path d="M72128 73699 L72157 73641" /> 
<path d="M72157 73641 L72214 73613" /> 
<path d="M72214 73613 L72328 73613" /> 
<path d="M72328 73613 L72385 73641" /> 
<path d="M72385 73641 L72414 73699" /> 
<path d="M72414 73699 L72414 73756" /> 
<path d="M72414 73756 L72128 73813" /> 
<g style = "stroke-linecap:round;" > 
<path d="M72128 73813 L72128 73813" /> 
</g><path d="M72899 73984 L72842 74013" /> 
<path d="M72842 74013 L72728 74013" /> 
<path d="M72728 74013 L72671 73984" /> 
<path d="M72671 73984 L72642 73927" /> 
<path d="M72642 73927 L72642 73699" /> 
<path d="M72642 73699 L72671 73641" /> 
<path d="M72671 73641 L72728 73613" /> 
<path d="M72728 73613 L72842 73613" /> 
<path d="M72842 73613 L72899 73641" /> 
<path d="M72899 73641 L72928 73699" /> 
<path d="M72928 73699 L72928 73756" /> 
<path d="M72928 73756 L72642 73813" /> 
<g style = "stroke-linecap:round;" > 
<path d="M72642 73813 L72642 73813" /> 
</g><path d="M73099 73613 L73328 73613" /> 
<g style = "stroke-linecap:round;" > 
<path d="M73328 73613 L73328 73613" /> 
</g><path d="M73185 73413 L73185 73927" /> 
<path d="M73185 73927 L73213 73984" /> 
<path d="M73213 73984 L73271 74013" /> 
<path d="M73271 74013 L73328 74013" /> 
<g style = "stroke-linecap:round;" > 
<path d="M73328 74013 L73328 74013" /> 
</g><path d="M73528 73956 L73556 73984" /> 
<path d="M73556 73984 L73528 74013" /> 
<path d="M73528 74013 L73499 73984" /> 
<path d="M73499 73984 L73528 73956" /> 
<path d="M73528 73956 L73528 74013" /> 
<g style = "stroke-linecap:round;" > 
<path d="M73528 74013 L73528 74013" /> 
</g><path d="M73528 73641 L73556 73670" /> 
<path d="M73556 73670 L73528 73699" /> 
<path d="M73528 73699 L73499 73670" /> 
<path d="M73499 73670 L73528 73641" /> 
<path d="M73528 73641 L73528 73699" /> 
<g style = "stroke-linecap:round;" > 
<path d="M73528 73699 L73528 73699" /> 
</g><path d="M74585 74013 L74242 74013" /> 
<g style = "stroke-linecap:round;" > 
<path d="M74242 74013 L74242 74013" /> 
</g><path d="M74414 74013 L74414 73413" /> 
<path d="M74414 73413 L74357 73499" /> 
<path d="M74357 73499 L74299 73556" /> 
<path d="M74299 73556 L74242 73584" /> 
<g style = "stroke-linecap:round;" > 
<path d="M74242 73584 L74242 73584" /> 
</g><path d="M75270 73384 L74756 74156" /> 
<g style = "stroke-linecap:round;" > 
<path d="M74756 74156 L74756 74156" /> 
</g><path d="M75785 74013 L75442 74013" /> 
<g style = "stroke-linecap:round;" > 
<path d="M75442 74013 L75442 74013" /> 
</g><path d="M75614 74013 L75614 73413" /> 
<path d="M75614 73413 L75557 73499" /> 
<path d="M75557 73499 L75499 73556" /> 
<path d="M75499 73556 L75442 73584" /> 
<g style = "stroke-linecap:round;" > 
<path d="M75442 73584 L75442 73584" /> 
</g><path d="M70300 71970 L70300 77970" /> 
<path d="M70300 71970 L112300 71970" /> 
<path d="M70300 71970 L112300 71970" /> 
<path d="M70300 74370 L112300 74370" /> 
<path d="M103500 75570 L103500 77970" /> 
<path d="M70300 76770 L112300 76770" /> 
<path d="M70300 75570 L112300 75570" /> 
<path d="M76900 75570 L76900 76770" /> 
</g>
<g style="fill:#000000; fill-opacity:0.0; stroke:#000000; stroke-opacity:1.00; stroke-linecap:round; stroke-linejoin:round; stroke-width:150" 
   transform="translate(0.00 0.00) scale(1.00 1.00)">
<path d="M78740 15748 L15748 15748" /> 
<path d="M78740 55118 L78740 15748" /> 
<path d="M15748 55118 L78740 55118" /> 
<path d="M15748 15748 L15748 55118" /> 
</g> 
</svg> 
