0
SECTION
2
HEADER
9
$ANGBASE
50
0.0
9
$ANGDIR
70
0
0
ENDSEC
0
SECTION
2
TABLES
0
TABLE
2
LTYPE
70
1
0
LTYPE
2
CONTINUOUS
70
0
3
Solid line
72
65
73
0
40
0.0
0
ENDTAB
0
TABLE
2
LAYER
70
24
0
LAYER
2
BLACK
70
0
62
1
6
CONTINUOUS
0
LAYER
2
BLUE
70
0
62
2
6
CONTINUOUS
0
LAYER
2
GREEN
70
0
62
3
6
CONTINUOUS
0
LAYER
2
CYAN
70
0
62
4
6
CONTINUOUS
0
LAYER
2
RED
70
0
62
5
6
CONTINUOUS
0
LAYER
2
MAGENTA
70
0
62
6
6
CONTINUOUS
0
LAYER
2
BROWN
70
0
62
7
6
CONTINUOUS
0
LAYER
2
GRAY
70
0
62
8
6
CONTINUOUS
0
LAYER
2
DARKGRAY
70
0
62
9
6
CONTINUOUS
0
LAYER
2
LIGHTBLUE
70
0
62
10
6
CONTINUOUS
0
LAYER
2
LIGHTGREEN
70
0
62
11
6
CONTINUOUS
0
LAYER
2
LIGHTCYAN
70
0
62
12
6
CONTINUOUS
0
LAYER
2
LIGHTRED
70
0
62
13
6
CONTINUOUS
0
LAYER
2
LIGHTMAGENTA
70
0
62
14
6
CONTINUOUS
0
LAYER
2
YELLOW
70
0
62
15
6
CONTINUOUS
0
LAYER
2
WHITE
70
0
62
16
6
CONTINUOUS
0
LAYER
2
DARKDARKGRAY
70
0
62
17
6
CONTINUOUS
0
LAYER
2
DARKBLUE
70
0
62
18
6
CONTINUOUS
0
LAYER
2
DARKGREEN
70
0
62
19
6
CONTINUOUS
0
LAYER
2
DARKCYAN
70
0
62
20
6
CONTINUOUS
0
LAYER
2
DARKRED
70
0
62
21
6
CONTINUOUS
0
LAYER
2
DARKMAGENTA
70
0
62
22
6
CONTINUOUS
0
LAYER
2
DARKBROWN
70
0
62
23
6
CONTINUOUS
0
LAYER
2
LIGHTYELLOW
70
0
62
24
6
CONTINUOUS
0
ENDTAB
0
ENDSEC
0
SECTION
2
ENTITIES
0
CIRCLE
8
BLACK
10
17323.0
20
29127.0
40
1250
0
LINE
8
BLACK
10
14823.0
20
29052.0
11
19823.0
21
29052.0
0
LINE
8
BLACK
10
14823.0
20
29202.0
11
19823.0
21
29202.0
0
ARC
8
BLACK
10
19823.0
20
29127.0
40
75.0
50
270.0
51
450.0
0
ARC
8
BLACK
10
14823.0
20
29127.0
40
75.0
50
90.0
51
270.0
0
LINE
8
BLACK
10
17398.0
20
26627.0
11
17398.0
21
31627.0
0
LINE
8
BLACK
10
17248.0
20
26627.0
11
17248.0
21
31627.0
0
ARC
8
BLACK
10
17323.0
20
31627.0
40
75.0
50
360.0
51
540.0
0
ARC
8
BLACK
10
17323.0
20
26627.0
40
75.0
50
180.0
51
360.0
0
CIRCLE
8
BLACK
10
73622.0
20
64953.0
40
1250
0
LINE
8
BLACK
10
71122.0
20
64878.0
11
76122.0
21
64878.0
0
LINE
8
BLACK
10
71122.0
20
65028.0
11
76122.0
21
65028.0
0
ARC
8
BLACK
10
76122.0
20
64953.0
40
75.0
50
270.0
51
450.0
0
ARC
8
BLACK
10
71122.0
20
64953.0
40
75.0
50
90.0
51
270.0
0
LINE
8
BLACK
10
73697.0
20
62453.0
11
73697.0
21
67453.0
0
LINE
8
BLACK
10
73547.0
20
62453.0
11
73547.0
21
67453.0
0
ARC
8
BLACK
10
73622.0
20
67453.0
40
75.0
50
360.0
51
540.0
0
ARC
8
BLACK
10
73622.0
20
62453.0
40
75.0
50
180.0
51
360.0
0
CIRCLE
8
BLACK
10
73622.0
20
29127.0
40
1250
0
LINE
8
BLACK
10
71122.0
20
29052.0
11
76122.0
21
29052.0
0
LINE
8
BLACK
10
71122.0
20
29202.0
11
76122.0
21
29202.0
0
ARC
8
BLACK
10
76122.0
20
29127.0
40
75.0
50
270.0
51
450.0
0
ARC
8
BLACK
10
71122.0
20
29127.0
40
75.0
50
90.0
51
270.0
0
LINE
8
BLACK
10
73697.0
20
26627.0
11
73697.0
21
31627.0
0
LINE
8
BLACK
10
73547.0
20
26627.0
11
73547.0
21
31627.0
0
ARC
8
BLACK
10
73622.0
20
31627.0
40
75.0
50
360.0
51
540.0
0
ARC
8
BLACK
10
73622.0
20
26627.0
40
75.0
50
180.0
51
360.0
0
CIRCLE
8
BLACK
10
17717.0
20
64953.0
40
1250
0
LINE
8
BLACK
10
15217.0
20
64878.0
11
20217.0
21
64878.0
0
LINE
8
BLACK
10
15217.0
20
65028.0
11
20217.0
21
65028.0
0
ARC
8
BLACK
10
20217.0
20
64953.0
40
75.0
50
270.0
51
450.0
0
ARC
8
BLACK
10
15217.0
20
64953.0
40
75.0
50
90.0
51
270.0
0
LINE
8
BLACK
10
17792.0
20
62453.0
11
17792.0
21
67453.0
0
LINE
8
BLACK
10
17642.0
20
62453.0
11
17642.0
21
67453.0
0
ARC
8
BLACK
10
17717.0
20
67453.0
40
75.0
50
360.0
51
540.0
0
ARC
8
BLACK
10
17717.0
20
62453.0
40
75.0
50
180.0
51
360.0
0
LINE
8
BLACK
10
15748.0
20
66847.0
11
78740.0
21
66847.0
0
LINE
8
BLACK
10
15748.0
20
66997.0
11
78740.0
21
66997.0
0
ARC
8
BLACK
10
78740.0
20
66922.0
40
75.0
50
270.0
51
450.0
0
ARC
8
BLACK
10
15748.0
20
66922.0
40
75.0
50
90.0
51
270.0
0
LINE
8
BLACK
10
78815.0
20
27552.0
11
78815.0
21
66922.0
0
LINE
8
BLACK
10
78665.0
20
27552.0
11
78665.0
21
66922.0
0
ARC
8
BLACK
10
78740.0
20
66922.0
40
75.0
50
360.0
51
540.0
0
ARC
8
BLACK
10
78740.0
20
27552.0
40
75.0
50
180.0
51
360.0
0
LINE
8
BLACK
10
15748.0
20
27477.0
11
78740.0
21
27477.0
0
LINE
8
BLACK
10
15748.0
20
27627.0
11
78740.0
21
27627.0
0
ARC
8
BLACK
10
78740.0
20
27552.0
40
75.0
50
270.0
51
450.0
0
ARC
8
BLACK
10
15748.0
20
27552.0
40
75.0
50
90.0
51
270.0
0
LINE
8
BLACK
10
15823.0
20
27552.0
11
15823.0
21
66922.0
0
LINE
8
BLACK
10
15673.0
20
27552.0
11
15673.0
21
66922.0
0
ARC
8
BLACK
10
15748.0
20
66922.0
40
75.0
50
360.0
51
540.0
0
ARC
8
BLACK
10
15748.0
20
27552.0
40
75.0
50
180.0
51
360.0
0
LINE
8
BLACK
10
20272.0
20
43919.0
11
19672.0
21
43919.0
0
LINE
8
BLACK
10
19672.0
20
43919.0
11
19672.0
21
43319.0
0
LINE
8
BLACK
10
19672.0
20
43319.0
11
20272.0
21
43319.0
0
LINE
8
BLACK
10
20272.0
20
43319.0
11
20272.0
21
43919.0
0
CIRCLE
8
BLACK
10
20972.0
20
43619.0
40
300
0
CIRCLE
8
BLACK
10
19972.0
20
42619.0
40
300
0
CIRCLE
8
BLACK
10
20972.0
20
42619.0
40
300
0
CIRCLE
8
BLACK
10
19972.0
20
41619.0
40
300
0
CIRCLE
8
BLACK
10
20972.0
20
41619.0
40
300
0
CIRCLE
8
BLACK
10
19972.0
20
40619.0
40
300
0
CIRCLE
8
BLACK
10
20972.0
20
40619.0
40
300
0
LINE
8
BLACK
10
20272.0
20
34864.0
11
19672.0
21
34864.0
0
LINE
8
BLACK
10
19672.0
20
34864.0
11
19672.0
21
34264.0
0
LINE
8
BLACK
10
19672.0
20
34264.0
11
20272.0
21
34264.0
0
LINE
8
BLACK
10
20272.0
20
34264.0
11
20272.0
21
34864.0
0
CIRCLE
8
BLACK
10
20972.0
20
34564.0
40
300
0
CIRCLE
8
BLACK
10
19972.0
20
33564.0
40
300
0
CIRCLE
8
BLACK
10
20972.0
20
33564.0
40
300
0
CIRCLE
8
BLACK
10
19972.0
20
32564.0
40
300
0
CIRCLE
8
BLACK
10
20972.0
20
32564.0
40
300
0
CIRCLE
8
BLACK
10
19972.0
20
31564.0
40
300
0
CIRCLE
8
BLACK
10
20972.0
20
31564.0
40
300
0
LINE
8
BLACK
10
20272.0
20
54155.0
11
19672.0
21
54155.0
0
LINE
8
BLACK
10
19672.0
20
54155.0
11
19672.0
21
53555.0
0
LINE
8
BLACK
10
19672.0
20
53555.0
11
20272.0
21
53555.0
0
LINE
8
BLACK
10
20272.0
20
53555.0
11
20272.0
21
54155.0
0
CIRCLE
8
BLACK
10
20972.0
20
53855.0
40
300
0
CIRCLE
8
BLACK
10
19972.0
20
52855.0
40
300
0
CIRCLE
8
BLACK
10
20972.0
20
52855.0
40
300
0
CIRCLE
8
BLACK
10
19972.0
20
51855.0
40
300
0
CIRCLE
8
BLACK
10
20972.0
20
51855.0
40
300
0
CIRCLE
8
BLACK
10
19972.0
20
50855.0
40
300
0
CIRCLE
8
BLACK
10
20972.0
20
50855.0
40
300
0
LINE
8
BLACK
10
20272.0
20
63210.0
11
19672.0
21
63210.0
0
LINE
8
BLACK
10
19672.0
20
63210.0
11
19672.0
21
62610.0
0
LINE
8
BLACK
10
19672.0
20
62610.0
11
20272.0
21
62610.0
0
LINE
8
BLACK
10
20272.0
20
62610.0
11
20272.0
21
63210.0
0
CIRCLE
8
BLACK
10
20972.0
20
62910.0
40
300
0
CIRCLE
8
BLACK
10
19972.0
20
61910.0
40
300
0
CIRCLE
8
BLACK
10
20972.0
20
61910.0
40
300
0
CIRCLE
8
BLACK
10
19972.0
20
60910.0
40
300
0
CIRCLE
8
BLACK
10
20972.0
20
60910.0
40
300
0
CIRCLE
8
BLACK
10
19972.0
20
59910.0
40
300
0
CIRCLE
8
BLACK
10
20972.0
20
59910.0
40
300
0
CIRCLE
8
BLACK
10
63811.0
20
44875.0
40
400
0
CIRCLE
8
BLACK
10
59811.0
20
44875.0
40
350
0
LINE
8
BLACK
10
66566.0
20
57012.0
11
66016.0
21
57012.0
0
LINE
8
BLACK
10
66016.0
20
57012.0
11
66016.0
21
56462.0
0
LINE
8
BLACK
10
66016.0
20
56462.0
11
66566.0
21
56462.0
0
LINE
8
BLACK
10
66566.0
20
56462.0
11
66566.0
21
57012.0
0
CIRCLE
8
BLACK
10
66291.0
20
55737.0
40
275
0
CIRCLE
8
BLACK
10
66291.0
20
54737.0
40
275
0
CIRCLE
8
BLACK
10
66291.0
20
53737.0
40
275
0
CIRCLE
8
BLACK
10
66291.0
20
52737.0
40
275
0
CIRCLE
8
BLACK
10
66291.0
20
51737.0
40
275
0
CIRCLE
8
BLACK
10
66291.0
20
50737.0
40
275
0
CIRCLE
8
BLACK
10
66291.0
20
49737.0
40
275
0
CIRCLE
8
BLACK
10
66291.0
20
48737.0
40
275
0
CIRCLE
8
BLACK
10
66291.0
20
47737.0
40
275
0
CIRCLE
8
BLACK
10
66291.0
20
46737.0
40
275
0
CIRCLE
8
BLACK
10
66291.0
20
45737.0
40
275
0
CIRCLE
8
BLACK
10
66291.0
20
44737.0
40
275
0
CIRCLE
8
BLACK
10
66291.0
20
43737.0
40
275
0
CIRCLE
8
BLACK
10
66291.0
20
42737.0
40
275
0
CIRCLE
8
BLACK
10
66291.0
20
41737.0
40
275
0
CIRCLE
8
BLACK
10
66291.0
20
40737.0
40
275
0
CIRCLE
8
BLACK
10
66291.0
20
39737.0
40
275
0
CIRCLE
8
BLACK
10
66291.0
20
38737.0
40
275
0
CIRCLE
8
BLACK
10
66291.0
20
37737.0
40
275
0
CIRCLE
8
BLACK
10
72291.0
20
37737.0
40
275
0
CIRCLE
8
BLACK
10
72291.0
20
38737.0
40
275
0
CIRCLE
8
BLACK
10
72291.0
20
39737.0
40
275
0
CIRCLE
8
BLACK
10
72291.0
20
40737.0
40
275
0
CIRCLE
8
BLACK
10
72291.0
20
41737.0
40
275
0
CIRCLE
8
BLACK
10
72291.0
20
42737.0
40
275
0
CIRCLE
8
BLACK
10
72291.0
20
43737.0
40
275
0
CIRCLE
8
BLACK
10
72291.0
20
44737.0
40
275
0
CIRCLE
8
BLACK
10
72291.0
20
45737.0
40
275
0
CIRCLE
8
BLACK
10
72291.0
20
46737.0
40
275
0
CIRCLE
8
BLACK
10
72291.0
20
47737.0
40
275
0
CIRCLE
8
BLACK
10
72291.0
20
48737.0
40
275
0
CIRCLE
8
BLACK
10
72291.0
20
49737.0
40
275
0
CIRCLE
8
BLACK
10
72291.0
20
50737.0
40
275
0
CIRCLE
8
BLACK
10
72291.0
20
51737.0
40
275
0
CIRCLE
8
BLACK
10
72291.0
20
52737.0
40
275
0
CIRCLE
8
BLACK
10
72291.0
20
53737.0
40
275
0
CIRCLE
8
BLACK
10
72291.0
20
54737.0
40
275
0
CIRCLE
8
BLACK
10
72291.0
20
55737.0
40
275
0
CIRCLE
8
BLACK
10
72291.0
20
56737.0
40
275
0
LINE
8
BLACK
10
42476.0
20
45500.0
11
41926.0
21
45500.0
0
LINE
8
BLACK
10
41926.0
20
45500.0
11
41926.0
21
44950.0
0
LINE
8
BLACK
10
41926.0
20
44950.0
11
42476.0
21
44950.0
0
LINE
8
BLACK
10
42476.0
20
44950.0
11
42476.0
21
45500.0
0
CIRCLE
8
BLACK
10
42201.0
20
44225.0
40
275
0
CIRCLE
8
BLACK
10
42201.0
20
43225.0
40
275
0
CIRCLE
8
BLACK
10
42201.0
20
42225.0
40
275
0
CIRCLE
8
BLACK
10
42201.0
20
41225.0
40
275
0
CIRCLE
8
BLACK
10
42201.0
20
40225.0
40
275
0
CIRCLE
8
BLACK
10
42201.0
20
39225.0
40
275
0
CIRCLE
8
BLACK
10
42201.0
20
38225.0
40
275
0
CIRCLE
8
BLACK
10
45201.0
20
38225.0
40
275
0
CIRCLE
8
BLACK
10
45201.0
20
39225.0
40
275
0
CIRCLE
8
BLACK
10
45201.0
20
40225.0
40
275
0
CIRCLE
8
BLACK
10
45201.0
20
41225.0
40
275
0
CIRCLE
8
BLACK
10
45201.0
20
42225.0
40
275
0
CIRCLE
8
BLACK
10
45201.0
20
43225.0
40
275
0
CIRCLE
8
BLACK
10
45201.0
20
44225.0
40
275
0
CIRCLE
8
BLACK
10
45201.0
20
45225.0
40
275
0
LINE
8
BLACK
10
42082.0
20
58492.0
11
41532.0
21
58492.0
0
LINE
8
BLACK
10
41532.0
20
58492.0
11
41532.0
21
57942.0
0
LINE
8
BLACK
10
41532.0
20
57942.0
11
42082.0
21
57942.0
0
LINE
8
BLACK
10
42082.0
20
57942.0
11
42082.0
21
58492.0
0
CIRCLE
8
BLACK
10
41807.0
20
57217.0
40
275
0
CIRCLE
8
BLACK
10
41807.0
20
56217.0
40
275
0
CIRCLE
8
BLACK
10
41807.0
20
55217.0
40
275
0
CIRCLE
8
BLACK
10
41807.0
20
54217.0
40
275
0
CIRCLE
8
BLACK
10
41807.0
20
53217.0
40
275
0
CIRCLE
8
BLACK
10
41807.0
20
52217.0
40
275
0
CIRCLE
8
BLACK
10
41807.0
20
51217.0
40
275
0
CIRCLE
8
BLACK
10
44807.0
20
51217.0
40
275
0
CIRCLE
8
BLACK
10
44807.0
20
52217.0
40
275
0
CIRCLE
8
BLACK
10
44807.0
20
53217.0
40
275
0
CIRCLE
8
BLACK
10
44807.0
20
54217.0
40
275
0
CIRCLE
8
BLACK
10
44807.0
20
55217.0
40
275
0
CIRCLE
8
BLACK
10
44807.0
20
56217.0
40
275
0
CIRCLE
8
BLACK
10
44807.0
20
57217.0
40
275
0
CIRCLE
8
BLACK
10
44807.0
20
58217.0
40
275
0
CIRCLE
8
BLACK
10
76665.0
20
64737.0
40
750
0
CIRCLE
8
BLACK
10
76665.0
20
29737.0
40
750
0
CIRCLE
8
BLACK
10
77665.0
20
60737.0
40
300
0
CIRCLE
8
BLACK
10
77665.0
20
59737.0
40
300
0
CIRCLE
8
BLACK
10
77665.0
20
58737.0
40
300
0
CIRCLE
8
BLACK
10
77665.0
20
57737.0
40
300
0
CIRCLE
8
BLACK
10
77665.0
20
56737.0
40
300
0
CIRCLE
8
BLACK
10
77665.0
20
55737.0
40
300
0
CIRCLE
8
BLACK
10
77665.0
20
54737.0
40
300
0
CIRCLE
8
BLACK
10
77665.0
20
53737.0
40
300
0
CIRCLE
8
BLACK
10
77665.0
20
52737.0
40
300
0
CIRCLE
8
BLACK
10
77665.0
20
51737.0
40
300
0
CIRCLE
8
BLACK
10
77665.0
20
50737.0
40
300
0
CIRCLE
8
BLACK
10
77665.0
20
49737.0
40
300
0
CIRCLE
8
BLACK
10
77665.0
20
48737.0
40
300
0
CIRCLE
8
BLACK
10
77665.0
20
47737.0
40
300
0
CIRCLE
8
BLACK
10
77665.0
20
46737.0
40
300
0
CIRCLE
8
BLACK
10
77665.0
20
45737.0
40
300
0
CIRCLE
8
BLACK
10
77665.0
20
44737.0
40
300
0
CIRCLE
8
BLACK
10
77665.0
20
43737.0
40
300
0
CIRCLE
8
BLACK
10
77665.0
20
42737.0
40
300
0
CIRCLE
8
BLACK
10
77665.0
20
41737.0
40
300
0
CIRCLE
8
BLACK
10
77665.0
20
40737.0
40
300
0
CIRCLE
8
BLACK
10
77665.0
20
39737.0
40
300
0
CIRCLE
8
BLACK
10
77665.0
20
38737.0
40
300
0
CIRCLE
8
BLACK
10
77665.0
20
37737.0
40
300
0
CIRCLE
8
BLACK
10
77665.0
20
36737.0
40
300
0
CIRCLE
8
BLACK
10
77665.0
20
35737.0
40
300
0
CIRCLE
8
BLACK
10
77665.0
20
34737.0
40
300
0
CIRCLE
8
BLACK
10
77665.0
20
33737.0
40
300
0
CIRCLE
8
BLACK
10
77665.0
20
32737.0
40
300
0
CIRCLE
8
BLACK
10
77665.0
20
31737.0
40
300
0
CIRCLE
8
BLACK
10
77665.0
20
61737.0
40
300
0
LINE
8
BLACK
10
77965.0
20
63037.0
11
77365.0
21
63037.0
0
LINE
8
BLACK
10
77365.0
20
63037.0
11
77365.0
21
62437.0
0
LINE
8
BLACK
10
77365.0
20
62437.0
11
77965.0
21
62437.0
0
LINE
8
BLACK
10
77965.0
20
62437.0
11
77965.0
21
63037.0
0
CIRCLE
8
BLACK
10
76665.0
20
62737.0
40
300
0
CIRCLE
8
BLACK
10
76665.0
20
61737.0
40
300
0
CIRCLE
8
BLACK
10
76665.0
20
60737.0
40
300
0
CIRCLE
8
BLACK
10
76665.0
20
59737.0
40
300
0
CIRCLE
8
BLACK
10
76665.0
20
58737.0
40
300
0
CIRCLE
8
BLACK
10
76665.0
20
57737.0
40
300
0
CIRCLE
8
BLACK
10
76665.0
20
56737.0
40
300
0
CIRCLE
8
BLACK
10
76665.0
20
55737.0
40
300
0
CIRCLE
8
BLACK
10
76665.0
20
54737.0
40
300
0
CIRCLE
8
BLACK
10
76665.0
20
53737.0
40
300
0
CIRCLE
8
BLACK
10
76665.0
20
52737.0
40
300
0
CIRCLE
8
BLACK
10
76665.0
20
51737.0
40
300
0
CIRCLE
8
BLACK
10
76665.0
20
50737.0
40
300
0
CIRCLE
8
BLACK
10
76665.0
20
49737.0
40
300
0
CIRCLE
8
BLACK
10
76665.0
20
48737.0
40
300
0
CIRCLE
8
BLACK
10
76665.0
20
47737.0
40
300
0
CIRCLE
8
BLACK
10
76665.0
20
46737.0
40
300
0
CIRCLE
8
BLACK
10
76665.0
20
45737.0
40
300
0
CIRCLE
8
BLACK
10
76665.0
20
44737.0
40
300
0
CIRCLE
8
BLACK
10
76665.0
20
43737.0
40
300
0
CIRCLE
8
BLACK
10
76665.0
20
42737.0
40
300
0
CIRCLE
8
BLACK
10
76665.0
20
41737.0
40
300
0
CIRCLE
8
BLACK
10
76665.0
20
40737.0
40
300
0
CIRCLE
8
BLACK
10
76665.0
20
39737.0
40
300
0
CIRCLE
8
BLACK
10
76665.0
20
38737.0
40
300
0
CIRCLE
8
BLACK
10
76665.0
20
37737.0
40
300
0
CIRCLE
8
BLACK
10
76665.0
20
36737.0
40
300
0
CIRCLE
8
BLACK
10
76665.0
20
35737.0
40
300
0
CIRCLE
8
BLACK
10
76665.0
20
34737.0
40
300
0
CIRCLE
8
BLACK
10
76665.0
20
33737.0
40
300
0
CIRCLE
8
BLACK
10
76665.0
20
32737.0
40
300
0
CIRCLE
8
BLACK
10
76665.0
20
31737.0
40
300
0
LINE
8
BLACK
10
44001.0
20
48824.0
11
43401.0
21
48824.0
0
LINE
8
BLACK
10
43401.0
20
48824.0
11
43401.0
21
48224.0
0
LINE
8
BLACK
10
43401.0
20
48224.0
11
44001.0
21
48224.0
0
LINE
8
BLACK
10
44001.0
20
48224.0
11
44001.0
21
48824.0
0
CIRCLE
8
BLACK
10
43701.0
20
47524.0
40
300
0
LINE
8
BLACK
10
39670.0
20
52761.0
11
39070.0
21
52761.0
0
LINE
8
BLACK
10
39070.0
20
52761.0
11
39070.0
21
52161.0
0
LINE
8
BLACK
10
39070.0
20
52161.0
11
39670.0
21
52161.0
0
LINE
8
BLACK
10
39670.0
20
52161.0
11
39670.0
21
52761.0
0
CIRCLE
8
BLACK
10
39370.0
20
51461.0
40
300
0
LINE
8
BLACK
10
47151.0
20
58667.0
11
46551.0
21
58667.0
0
LINE
8
BLACK
10
46551.0
20
58667.0
11
46551.0
21
58067.0
0
LINE
8
BLACK
10
46551.0
20
58067.0
11
47151.0
21
58067.0
0
LINE
8
BLACK
10
47151.0
20
58067.0
11
47151.0
21
58667.0
0
CIRCLE
8
BLACK
10
46851.0
20
57367.0
40
300
0
LINE
8
BLACK
10
47544.0
20
45675.0
11
46944.0
21
45675.0
0
LINE
8
BLACK
10
46944.0
20
45675.0
11
46944.0
21
45075.0
0
LINE
8
BLACK
10
46944.0
20
45075.0
11
47544.0
21
45075.0
0
LINE
8
BLACK
10
47544.0
20
45075.0
11
47544.0
21
45675.0
0
CIRCLE
8
BLACK
10
47244.0
20
44375.0
40
300
0
LINE
8
BLACK
10
39670.0
20
55517.0
11
39070.0
21
55517.0
0
LINE
8
BLACK
10
39070.0
20
55517.0
11
39070.0
21
54917.0
0
LINE
8
BLACK
10
39070.0
20
54917.0
11
39670.0
21
54917.0
0
LINE
8
BLACK
10
39670.0
20
54917.0
11
39670.0
21
55517.0
0
CIRCLE
8
BLACK
10
39370.0
20
54217.0
40
300
0
LINE
8
BLACK
10
39670.0
20
58667.0
11
39070.0
21
58667.0
0
LINE
8
BLACK
10
39070.0
20
58667.0
11
39070.0
21
58067.0
0
LINE
8
BLACK
10
39070.0
20
58067.0
11
39670.0
21
58067.0
0
LINE
8
BLACK
10
39670.0
20
58067.0
11
39670.0
21
58667.0
0
CIRCLE
8
BLACK
10
39370.0
20
57367.0
40
300
0
LINE
8
BLACK
10
39670.0
20
42525.0
11
39070.0
21
42525.0
0
LINE
8
BLACK
10
39070.0
20
42525.0
11
39070.0
21
41925.0
0
LINE
8
BLACK
10
39070.0
20
41925.0
11
39670.0
21
41925.0
0
LINE
8
BLACK
10
39670.0
20
41925.0
11
39670.0
21
42525.0
0
CIRCLE
8
BLACK
10
39370.0
20
41225.0
40
300
0
LINE
8
BLACK
10
39670.0
20
45675.0
11
39070.0
21
45675.0
0
LINE
8
BLACK
10
39070.0
20
45675.0
11
39070.0
21
45075.0
0
LINE
8
BLACK
10
39070.0
20
45075.0
11
39670.0
21
45075.0
0
LINE
8
BLACK
10
39670.0
20
45075.0
11
39670.0
21
45675.0
0
CIRCLE
8
BLACK
10
39370.0
20
44375.0
40
300
0
CIRCLE
8
BLACK
10
54392.0
20
41834.0
40
175
0
CIRCLE
8
BLACK
10
46381.0
20
52720.0
40
175
0
CIRCLE
8
BLACK
10
73167.0
20
45285.0
40
175
0
CIRCLE
8
BLACK
10
54639.0
20
31563.0
40
175
0
LINE
8
BLACK
10
53047.0
20
50590.0
11
53047.0
21
52270.0
0
LINE
8
BLACK
10
52849.0
20
50590.0
11
52849.0
21
52270.0
0
ARC
8
BLACK
10
52948.0
20
52270.0
40
99.0
50
360.0
51
540.0
0
ARC
8
BLACK
10
52948.0
20
50590.0
40
99.0
50
180.0
51
360.0
0
LINE
8
BLACK
10
53017.0
20
52341.0
11
46921.0
21
58437.0
0
LINE
8
BLACK
10
52877.0
20
52201.0
11
46781.0
21
58297.0
0
ARC
8
BLACK
10
46851.0
20
58367.0
40
99.0
50
405.0
51
585.0
0
ARC
8
BLACK
10
52947.0
20
52271.0
40
99.0
50
225.0
51
405.0
0
LINE
8
BLACK
10
55801.0
20
47638.0
11
66291.0
21
47638.0
0
LINE
8
BLACK
10
55801.0
20
47836.0
11
66291.0
21
47836.0
0
ARC
8
BLACK
10
66291.0
20
47737.0
40
99.0
50
270.0
51
450.0
0
ARC
8
BLACK
10
55801.0
20
47737.0
40
99.0
50
90.0
51
270.0
0
LINE
8
BLACK
10
55870.0
20
47808.0
11
53018.0
21
50660.0
0
LINE
8
BLACK
10
55730.0
20
47668.0
11
52878.0
21
50520.0
0
ARC
8
BLACK
10
52948.0
20
50590.0
40
99.0
50
405.0
51
585.0
0
ARC
8
BLACK
10
55800.0
20
47738.0
40
99.0
50
225.0
51
405.0
0
LINE
8
BLACK
10
47244.0
20
45276.0
11
47732.0
21
45276.0
0
LINE
8
BLACK
10
47244.0
20
45474.0
11
47732.0
21
45474.0
0
ARC
8
BLACK
10
47732.0
20
45375.0
40
99.0
50
270.0
51
450.0
0
ARC
8
BLACK
10
47244.0
20
45375.0
40
99.0
50
90.0
51
270.0
0
LINE
8
BLACK
10
47803.0
20
45306.0
11
53017.0
21
50520.0
0
LINE
8
BLACK
10
47663.0
20
45446.0
11
52877.0
21
50660.0
0
ARC
8
BLACK
10
52947.0
20
50590.0
40
99.0
50
315.0
51
495.0
0
ARC
8
BLACK
10
47733.0
20
45376.0
40
99.0
50
135.0
51
315.0
0
LINE
8
BLACK
10
45271.0
20
45155.0
11
45421.0
21
45305.0
0
LINE
8
BLACK
10
45131.0
20
45295.0
11
45281.0
21
45445.0
0
ARC
8
BLACK
10
45351.0
20
45375.0
40
99.0
50
315.0
51
495.0
0
ARC
8
BLACK
10
45201.0
20
45225.0
40
99.0
50
135.0
51
315.0
0
LINE
8
BLACK
10
45351.0
20
45276.0
11
47243.0
21
45276.0
0
LINE
8
BLACK
10
45351.0
20
45474.0
11
47243.0
21
45474.0
0
ARC
8
BLACK
10
47243.0
20
45375.0
40
99.0
50
270.0
51
450.0
0
ARC
8
BLACK
10
45351.0
20
45375.0
40
99.0
50
90.0
51
270.0
0
LINE
8
BLACK
10
72877.0
20
47225.0
11
72877.0
21
48737.0
0
LINE
8
BLACK
10
72679.0
20
47225.0
11
72679.0
21
48737.0
0
ARC
8
BLACK
10
72778.0
20
48737.0
40
99.0
50
360.0
51
540.0
0
ARC
8
BLACK
10
72778.0
20
47225.0
40
99.0
50
180.0
51
360.0
0
LINE
8
BLACK
10
72707.0
20
47294.0
11
72221.0
21
46808.0
0
LINE
8
BLACK
10
72847.0
20
47154.0
11
72361.0
21
46668.0
0
ARC
8
BLACK
10
72291.0
20
46738.0
40
99.0
50
135.0
51
315.0
0
ARC
8
BLACK
10
72777.0
20
47224.0
40
99.0
50
-45.0
51
135.0
0
LINE
8
BLACK
10
77594.0
20
49807.0
11
77082.0
21
49295.0
0
LINE
8
BLACK
10
77734.0
20
49667.0
11
77222.0
21
49155.0
0
ARC
8
BLACK
10
77152.0
20
49225.0
40
99.0
50
135.0
51
315.0
0
ARC
8
BLACK
10
77664.0
20
49737.0
40
99.0
50
-45.0
51
135.0
0
LINE
8
BLACK
10
73265.0
20
49125.0
11
77151.0
21
49125.0
0
LINE
8
BLACK
10
73265.0
20
49323.0
11
77151.0
21
49323.0
0
ARC
8
BLACK
10
77151.0
20
49224.0
40
99.0
50
270.0
51
450.0
0
ARC
8
BLACK
10
73265.0
20
49224.0
40
99.0
50
90.0
51
270.0
0
LINE
8
BLACK
10
73194.0
20
49294.0
11
72708.0
21
48808.0
0
LINE
8
BLACK
10
73334.0
20
49154.0
11
72848.0
21
48668.0
0
ARC
8
BLACK
10
72778.0
20
48738.0
40
99.0
50
135.0
51
315.0
0
ARC
8
BLACK
10
73264.0
20
49224.0
40
99.0
50
-45.0
51
135.0
0
LINE
8
BLACK
10
72291.0
20
48638.0
11
72777.0
21
48638.0
0
LINE
8
BLACK
10
72291.0
20
48836.0
11
72777.0
21
48836.0
0
ARC
8
BLACK
10
72777.0
20
48737.0
40
99.0
50
270.0
51
450.0
0
ARC
8
BLACK
10
72291.0
20
48737.0
40
99.0
50
90.0
51
270.0
0
LINE
8
BLACK
10
66390.0
20
47737.0
11
66390.0
21
48737.0
0
LINE
8
BLACK
10
66192.0
20
47737.0
11
66192.0
21
48737.0
0
ARC
8
BLACK
10
66291.0
20
48737.0
40
99.0
50
360.0
51
540.0
0
ARC
8
BLACK
10
66291.0
20
47737.0
40
99.0
50
180.0
51
360.0
0
LINE
8
BLACK
10
44957.0
20
58268.0
11
46851.0
21
58268.0
0
LINE
8
BLACK
10
44957.0
20
58466.0
11
46851.0
21
58466.0
0
ARC
8
BLACK
10
46851.0
20
58367.0
40
99.0
50
270.0
51
450.0
0
ARC
8
BLACK
10
44957.0
20
58367.0
40
99.0
50
90.0
51
270.0
0
LINE
8
BLACK
10
44877.0
20
58147.0
11
45027.0
21
58297.0
0
LINE
8
BLACK
10
44737.0
20
58287.0
11
44887.0
21
58437.0
0
ARC
8
BLACK
10
44957.0
20
58367.0
40
99.0
50
315.0
51
495.0
0
ARC
8
BLACK
10
44807.0
20
58217.0
40
99.0
50
135.0
51
315.0
0
LINE
8
BLACK
10
66291.0
20
48638.0
11
72291.0
21
48638.0
0
LINE
8
BLACK
10
66291.0
20
48836.0
11
72291.0
21
48836.0
0
ARC
8
BLACK
10
72291.0
20
48737.0
40
99.0
50
270.0
51
450.0
0
ARC
8
BLACK
10
66291.0
20
48737.0
40
99.0
50
90.0
51
270.0
0
LINE
8
BLACK
10
71731.0
20
46758.0
11
71731.0
21
47078.0
0
LINE
8
BLACK
10
71533.0
20
46758.0
11
71533.0
21
47078.0
0
ARC
8
BLACK
10
71632.0
20
47078.0
40
99.0
50
360.0
51
540.0
0
ARC
8
BLACK
10
71632.0
20
46758.0
40
99.0
50
180.0
51
360.0
0
LINE
8
BLACK
10
72220.0
20
47807.0
11
71562.0
21
47149.0
0
LINE
8
BLACK
10
72360.0
20
47667.0
11
71702.0
21
47009.0
0
ARC
8
BLACK
10
71632.0
20
47079.0
40
99.0
50
135.0
51
315.0
0
ARC
8
BLACK
10
72290.0
20
47737.0
40
99.0
50
-45.0
51
135.0
0
LINE
8
BLACK
10
72186.0
20
46344.0
11
71702.0
21
46828.0
0
LINE
8
BLACK
10
72046.0
20
46204.0
11
71562.0
21
46688.0
0
ARC
8
BLACK
10
71632.0
20
46758.0
40
99.0
50
405.0
51
585.0
0
ARC
8
BLACK
10
72116.0
20
46274.0
40
99.0
50
225.0
51
405.0
0
LINE
8
BLACK
10
43771.0
20
48455.0
11
46795.0
21
51479.0
0
LINE
8
BLACK
10
43631.0
20
48595.0
11
46655.0
21
51619.0
0
ARC
8
BLACK
10
46725.0
20
51549.0
40
99.0
50
315.0
51
495.0
0
ARC
8
BLACK
10
43701.0
20
48525.0
40
99.0
50
135.0
51
315.0
0
LINE
8
BLACK
10
46825.0
20
51550.0
11
46825.0
21
53310.0
0
LINE
8
BLACK
10
46627.0
20
51550.0
11
46627.0
21
53310.0
0
ARC
8
BLACK
10
46726.0
20
53310.0
40
99.0
50
360.0
51
540.0
0
ARC
8
BLACK
10
46726.0
20
51550.0
40
99.0
50
180.0
51
360.0
0
LINE
8
BLACK
10
46796.0
20
53380.0
11
45308.0
21
54868.0
0
LINE
8
BLACK
10
46656.0
20
53240.0
11
45168.0
21
54728.0
0
ARC
8
BLACK
10
45238.0
20
54798.0
40
99.0
50
405.0
51
585.0
0
ARC
8
BLACK
10
46726.0
20
53310.0
40
99.0
50
225.0
51
405.0
0
LINE
8
BLACK
10
44795.0
20
54699.0
11
45237.0
21
54699.0
0
LINE
8
BLACK
10
44795.0
20
54897.0
11
45237.0
21
54897.0
0
ARC
8
BLACK
10
45237.0
20
54798.0
40
99.0
50
270.0
51
450.0
0
ARC
8
BLACK
10
44795.0
20
54798.0
40
99.0
50
90.0
51
270.0
0
LINE
8
BLACK
10
44724.0
20
54868.0
11
43644.0
21
53788.0
0
LINE
8
BLACK
10
44864.0
20
54728.0
11
43784.0
21
53648.0
0
ARC
8
BLACK
10
43714.0
20
53718.0
40
99.0
50
135.0
51
315.0
0
ARC
8
BLACK
10
44794.0
20
54798.0
40
99.0
50
-45.0
51
135.0
0
LINE
8
BLACK
10
40626.0
20
53618.0
11
43714.0
21
53618.0
0
LINE
8
BLACK
10
40626.0
20
53816.0
11
43714.0
21
53816.0
0
ARC
8
BLACK
10
43714.0
20
53717.0
40
99.0
50
270.0
51
450.0
0
ARC
8
BLACK
10
40626.0
20
53717.0
40
99.0
50
90.0
51
270.0
0
LINE
8
BLACK
10
40556.0
20
53787.0
11
39300.0
21
52531.0
0
LINE
8
BLACK
10
40696.0
20
53647.0
11
39440.0
21
52391.0
0
ARC
8
BLACK
10
39370.0
20
52461.0
40
99.0
50
135.0
51
315.0
0
ARC
8
BLACK
10
40626.0
20
53717.0
40
99.0
50
-45.0
51
135.0
0
LINE
8
BLACK
10
45337.0
20
54798.0
11
45337.0
21
56786.0
0
LINE
8
BLACK
10
45139.0
20
54798.0
11
45139.0
21
56786.0
0
ARC
8
BLACK
10
45238.0
20
56786.0
40
99.0
50
360.0
51
540.0
0
ARC
8
BLACK
10
45238.0
20
54798.0
40
99.0
50
180.0
51
360.0
0
LINE
8
BLACK
10
45307.0
20
56857.0
11
44877.0
21
57287.0
0
LINE
8
BLACK
10
45167.0
20
56717.0
11
44737.0
21
57147.0
0
ARC
8
BLACK
10
44807.0
20
57217.0
40
99.0
50
405.0
51
585.0
0
ARC
8
BLACK
10
45237.0
20
56787.0
40
99.0
50
225.0
51
405.0
0
LINE
8
BLACK
10
54578.0
20
46638.0
11
66290.0
21
46638.0
0
LINE
8
BLACK
10
54578.0
20
46836.0
11
66290.0
21
46836.0
0
ARC
8
BLACK
10
66290.0
20
46737.0
40
99.0
50
270.0
51
450.0
0
ARC
8
BLACK
10
54578.0
20
46737.0
40
99.0
50
90.0
51
270.0
0
LINE
8
BLACK
10
54507.0
20
46807.0
11
52635.0
21
44935.0
0
LINE
8
BLACK
10
54647.0
20
46667.0
11
52775.0
21
44795.0
0
ARC
8
BLACK
10
52705.0
20
44865.0
40
99.0
50
135.0
51
315.0
0
ARC
8
BLACK
10
54577.0
20
46737.0
40
99.0
50
-45.0
51
135.0
0
LINE
8
BLACK
10
45840.0
20
44765.0
11
52704.0
21
44765.0
0
LINE
8
BLACK
10
45840.0
20
44963.0
11
52704.0
21
44963.0
0
ARC
8
BLACK
10
52704.0
20
44864.0
40
99.0
50
270.0
51
450.0
0
ARC
8
BLACK
10
45840.0
20
44864.0
40
99.0
50
90.0
51
270.0
0
LINE
8
BLACK
10
45769.0
20
44934.0
11
45131.0
21
44296.0
0
LINE
8
BLACK
10
45909.0
20
44794.0
11
45271.0
21
44156.0
0
ARC
8
BLACK
10
45201.0
20
44226.0
40
99.0
50
135.0
51
315.0
0
ARC
8
BLACK
10
45839.0
20
44864.0
40
99.0
50
-45.0
51
135.0
0
LINE
8
BLACK
10
45271.0
20
44295.0
11
44877.0
21
44689.0
0
LINE
8
BLACK
10
45131.0
20
44155.0
11
44737.0
21
44549.0
0
ARC
8
BLACK
10
44807.0
20
44619.0
40
99.0
50
405.0
51
585.0
0
ARC
8
BLACK
10
45201.0
20
44225.0
40
99.0
50
225.0
51
405.0
0
LINE
8
BLACK
10
44906.0
20
44620.0
11
44906.0
21
47418.0
0
LINE
8
BLACK
10
44708.0
20
44620.0
11
44708.0
21
47418.0
0
ARC
8
BLACK
10
44807.0
20
47418.0
40
99.0
50
360.0
51
540.0
0
ARC
8
BLACK
10
44807.0
20
44620.0
40
99.0
50
180.0
51
360.0
0
LINE
8
BLACK
10
44877.0
20
47488.0
11
43771.0
21
48594.0
0
LINE
8
BLACK
10
44737.0
20
47348.0
11
43631.0
21
48454.0
0
ARC
8
BLACK
10
43701.0
20
48524.0
40
99.0
50
405.0
51
585.0
0
ARC
8
BLACK
10
44807.0
20
47418.0
40
99.0
50
225.0
51
405.0
0
LINE
8
BLACK
10
66312.0
20
46659.0
11
71632.0
21
46659.0
0
LINE
8
BLACK
10
66312.0
20
46857.0
11
71632.0
21
46857.0
0
ARC
8
BLACK
10
71632.0
20
46758.0
40
99.0
50
270.0
51
450.0
0
ARC
8
BLACK
10
66312.0
20
46758.0
40
99.0
50
90.0
51
270.0
0
LINE
8
BLACK
10
66241.0
20
46828.0
11
66221.0
21
46808.0
0
LINE
8
BLACK
10
66381.0
20
46688.0
11
66361.0
21
46668.0
0
ARC
8
BLACK
10
66291.0
20
46738.0
40
99.0
50
135.0
51
315.0
0
ARC
8
BLACK
10
66311.0
20
46758.0
40
99.0
50
-45.0
51
135.0
0
LINE
8
BLACK
10
77735.0
20
44807.0
11
77235.0
21
45307.0
0
LINE
8
BLACK
10
77595.0
20
44667.0
11
77095.0
21
45167.0
0
ARC
8
BLACK
10
77165.0
20
45237.0
40
99.0
50
405.0
51
585.0
0
ARC
8
BLACK
10
77665.0
20
44737.0
40
99.0
50
225.0
51
405.0
0
LINE
8
BLACK
10
75541.0
20
45138.0
11
77165.0
21
45138.0
0
LINE
8
BLACK
10
75541.0
20
45336.0
11
77165.0
21
45336.0
0
ARC
8
BLACK
10
77165.0
20
45237.0
40
99.0
50
270.0
51
450.0
0
ARC
8
BLACK
10
75541.0
20
45237.0
40
99.0
50
90.0
51
270.0
0
LINE
8
BLACK
10
75611.0
20
45307.0
11
74575.0
21
46343.0
0
LINE
8
BLACK
10
75471.0
20
45167.0
11
74435.0
21
46203.0
0
ARC
8
BLACK
10
74505.0
20
46273.0
40
99.0
50
405.0
51
585.0
0
ARC
8
BLACK
10
75541.0
20
45237.0
40
99.0
50
225.0
51
405.0
0
LINE
8
BLACK
10
72117.0
20
46174.0
11
74505.0
21
46174.0
0
LINE
8
BLACK
10
72117.0
20
46372.0
11
74505.0
21
46372.0
0
ARC
8
BLACK
10
74505.0
20
46273.0
40
99.0
50
270.0
51
450.0
0
ARC
8
BLACK
10
72117.0
20
46273.0
40
99.0
50
90.0
51
270.0
0
LINE
8
BLACK
10
45300.0
20
38225.0
11
45300.0
21
39225.0
0
LINE
8
BLACK
10
45102.0
20
38225.0
11
45102.0
21
39225.0
0
ARC
8
BLACK
10
45201.0
20
39225.0
40
99.0
50
360.0
51
540.0
0
ARC
8
BLACK
10
45201.0
20
38225.0
40
99.0
50
180.0
51
360.0
0
LINE
8
BLACK
10
19546.0
20
38126.0
11
42200.0
21
38126.0
0
LINE
8
BLACK
10
19546.0
20
38324.0
11
42200.0
21
38324.0
0
ARC
8
BLACK
10
42200.0
20
38225.0
40
99.0
50
270.0
51
450.0
0
ARC
8
BLACK
10
19546.0
20
38225.0
40
99.0
50
90.0
51
270.0
0
LINE
8
BLACK
10
19615.0
20
38296.0
11
18351.0
21
39560.0
0
LINE
8
BLACK
10
19475.0
20
38156.0
11
18211.0
21
39420.0
0
ARC
8
BLACK
10
18281.0
20
39490.0
40
99.0
50
405.0
51
585.0
0
ARC
8
BLACK
10
19545.0
20
38226.0
40
99.0
50
225.0
51
405.0
0
LINE
8
BLACK
10
18380.0
20
39490.0
11
18380.0
21
41928.0
0
LINE
8
BLACK
10
18182.0
20
39490.0
11
18182.0
21
41928.0
0
ARC
8
BLACK
10
18281.0
20
41928.0
40
99.0
50
360.0
51
540.0
0
ARC
8
BLACK
10
18281.0
20
39490.0
40
99.0
50
180.0
51
360.0
0
LINE
8
BLACK
10
18351.0
20
41859.0
11
20041.0
21
43549.0
0
LINE
8
BLACK
10
18211.0
20
41999.0
11
19901.0
21
43689.0
0
ARC
8
BLACK
10
19971.0
20
43619.0
40
99.0
50
315.0
51
495.0
0
ARC
8
BLACK
10
18281.0
20
41929.0
40
99.0
50
135.0
51
315.0
0
LINE
8
BLACK
10
20476.0
20
42983.0
11
21042.0
21
43549.0
0
LINE
8
BLACK
10
20336.0
20
43123.0
11
20902.0
21
43689.0
0
ARC
8
BLACK
10
20972.0
20
43619.0
40
99.0
50
315.0
51
495.0
0
ARC
8
BLACK
10
20406.0
20
43053.0
40
99.0
50
135.0
51
315.0
0
LINE
8
BLACK
10
19806.0
20
42954.0
11
20406.0
21
42954.0
0
LINE
8
BLACK
10
19806.0
20
43152.0
11
20406.0
21
43152.0
0
ARC
8
BLACK
10
20406.0
20
43053.0
40
99.0
50
270.0
51
450.0
0
ARC
8
BLACK
10
19806.0
20
43053.0
40
99.0
50
90.0
51
270.0
0
LINE
8
BLACK
10
18581.0
20
41689.0
11
19875.0
21
42983.0
0
LINE
8
BLACK
10
18441.0
20
41829.0
11
19735.0
21
43123.0
0
ARC
8
BLACK
10
19805.0
20
43053.0
40
99.0
50
315.0
51
495.0
0
ARC
8
BLACK
10
18511.0
20
41759.0
40
99.0
50
135.0
51
315.0
0
LINE
8
BLACK
10
18610.0
20
39588.0
11
18610.0
21
41758.0
0
LINE
8
BLACK
10
18412.0
20
39588.0
11
18412.0
21
41758.0
0
ARC
8
BLACK
10
18511.0
20
41758.0
40
99.0
50
360.0
51
540.0
0
ARC
8
BLACK
10
18511.0
20
39588.0
40
99.0
50
180.0
51
360.0
0
LINE
8
BLACK
10
19198.0
20
39040.0
11
18582.0
21
39656.0
0
LINE
8
BLACK
10
19058.0
20
38900.0
11
18442.0
21
39516.0
0
ARC
8
BLACK
10
18512.0
20
39586.0
40
99.0
50
405.0
51
585.0
0
ARC
8
BLACK
10
19128.0
20
38970.0
40
99.0
50
225.0
51
405.0
0
LINE
8
BLACK
10
19129.0
20
38870.0
11
41945.0
21
38870.0
0
LINE
8
BLACK
10
19129.0
20
39068.0
11
41945.0
21
39068.0
0
ARC
8
BLACK
10
41945.0
20
38969.0
40
99.0
50
270.0
51
450.0
0
ARC
8
BLACK
10
19129.0
20
38969.0
40
99.0
50
90.0
51
270.0
0
LINE
8
BLACK
10
42131.0
20
39295.0
11
41875.0
21
39039.0
0
LINE
8
BLACK
10
42271.0
20
39155.0
11
42015.0
21
38899.0
0
ARC
8
BLACK
10
41945.0
20
38969.0
40
99.0
50
135.0
51
315.0
0
ARC
8
BLACK
10
42201.0
20
39225.0
40
99.0
50
-45.0
51
135.0
0
LINE
8
BLACK
10
39370.0
20
41126.0
11
42200.0
21
41126.0
0
LINE
8
BLACK
10
39370.0
20
41324.0
11
42200.0
21
41324.0
0
ARC
8
BLACK
10
42200.0
20
41225.0
40
99.0
50
270.0
51
450.0
0
ARC
8
BLACK
10
39370.0
20
41225.0
40
99.0
50
90.0
51
270.0
0
LINE
8
BLACK
10
39370.0
20
42126.0
11
42200.0
21
42126.0
0
LINE
8
BLACK
10
39370.0
20
42324.0
11
42200.0
21
42324.0
0
ARC
8
BLACK
10
42200.0
20
42225.0
40
99.0
50
270.0
51
450.0
0
ARC
8
BLACK
10
39370.0
20
42225.0
40
99.0
50
90.0
51
270.0
0
LINE
8
BLACK
10
40590.0
20
43295.0
11
39440.0
21
44445.0
0
LINE
8
BLACK
10
40450.0
20
43155.0
11
39300.0
21
44305.0
0
ARC
8
BLACK
10
39370.0
20
44375.0
40
99.0
50
405.0
51
585.0
0
ARC
8
BLACK
10
40520.0
20
43225.0
40
99.0
50
225.0
51
405.0
0
LINE
8
BLACK
10
40520.0
20
43126.0
11
42200.0
21
43126.0
0
LINE
8
BLACK
10
40520.0
20
43324.0
11
42200.0
21
43324.0
0
ARC
8
BLACK
10
42200.0
20
43225.0
40
99.0
50
270.0
51
450.0
0
ARC
8
BLACK
10
40520.0
20
43225.0
40
99.0
50
90.0
51
270.0
0
LINE
8
BLACK
10
42671.0
20
43895.0
11
42271.0
21
44295.0
0
LINE
8
BLACK
10
42531.0
20
43755.0
11
42131.0
21
44155.0
0
ARC
8
BLACK
10
42201.0
20
44225.0
40
99.0
50
405.0
51
585.0
0
ARC
8
BLACK
10
42601.0
20
43825.0
40
99.0
50
225.0
51
405.0
0
LINE
8
BLACK
10
42602.0
20
43725.0
11
46692.0
21
43725.0
0
LINE
8
BLACK
10
42602.0
20
43923.0
11
46692.0
21
43923.0
0
ARC
8
BLACK
10
46692.0
20
43824.0
40
99.0
50
270.0
51
450.0
0
ARC
8
BLACK
10
42602.0
20
43824.0
40
99.0
50
90.0
51
270.0
0
LINE
8
BLACK
10
47173.0
20
44445.0
11
46623.0
21
43895.0
0
LINE
8
BLACK
10
47313.0
20
44305.0
11
46763.0
21
43755.0
0
ARC
8
BLACK
10
46693.0
20
43825.0
40
99.0
50
135.0
51
315.0
0
ARC
8
BLACK
10
47243.0
20
44375.0
40
99.0
50
-45.0
51
135.0
0
LINE
8
BLACK
10
41981.0
20
45305.0
11
42131.0
21
45155.0
0
LINE
8
BLACK
10
42121.0
20
45445.0
11
42271.0
21
45295.0
0
ARC
8
BLACK
10
42201.0
20
45225.0
40
99.0
50
225.0
51
405.0
0
ARC
8
BLACK
10
42051.0
20
45375.0
40
99.0
50
45.0
51
225.0
0
LINE
8
BLACK
10
39370.0
20
45276.0
11
42050.0
21
45276.0
0
LINE
8
BLACK
10
39370.0
20
45474.0
11
42050.0
21
45474.0
0
ARC
8
BLACK
10
42050.0
20
45375.0
40
99.0
50
270.0
51
450.0
0
ARC
8
BLACK
10
39370.0
20
45375.0
40
99.0
50
90.0
51
270.0
0
LINE
8
BLACK
10
44484.0
20
55755.0
11
44876.0
21
56147.0
0
LINE
8
BLACK
10
44344.0
20
55895.0
11
44736.0
21
56287.0
0
ARC
8
BLACK
10
44806.0
20
56217.0
40
99.0
50
315.0
51
495.0
0
ARC
8
BLACK
10
44414.0
20
55825.0
40
99.0
50
135.0
51
315.0
0
LINE
8
BLACK
10
36177.0
20
55725.0
11
44413.0
21
55725.0
0
LINE
8
BLACK
10
36177.0
20
55923.0
11
44413.0
21
55923.0
0
ARC
8
BLACK
10
44413.0
20
55824.0
40
99.0
50
270.0
51
450.0
0
ARC
8
BLACK
10
36177.0
20
55824.0
40
99.0
50
90.0
51
270.0
0
LINE
8
BLACK
10
21042.0
20
40550.0
11
36246.0
21
55754.0
0
LINE
8
BLACK
10
20902.0
20
40690.0
11
36106.0
21
55894.0
0
ARC
8
BLACK
10
36176.0
20
55824.0
40
99.0
50
315.0
51
495.0
0
ARC
8
BLACK
10
20972.0
20
40620.0
40
99.0
50
135.0
51
315.0
0
LINE
8
BLACK
10
54558.0
20
41808.0
11
54462.0
21
41904.0
0
LINE
8
BLACK
10
54418.0
20
41668.0
11
54322.0
21
41764.0
0
ARC
8
BLACK
10
54392.0
20
41834.0
40
99.0
50
405.0
51
585.0
0
ARC
8
BLACK
10
54488.0
20
41738.0
40
99.0
50
225.0
51
405.0
0
LINE
8
BLACK
10
54489.0
20
41638.0
11
66291.0
21
41638.0
0
LINE
8
BLACK
10
54489.0
20
41836.0
11
66291.0
21
41836.0
0
ARC
8
BLACK
10
66291.0
20
41737.0
40
99.0
50
270.0
51
450.0
0
ARC
8
BLACK
10
54489.0
20
41737.0
40
99.0
50
90.0
51
270.0
0
LINE
8
BLACK
10
44814.0
20
54147.0
11
46310.0
21
52651.0
0
LINE
8
BLACK
10
44954.0
20
54287.0
11
46450.0
21
52791.0
0
ARC
8
BLACK
10
46380.0
20
52721.0
40
99.0
50
225.0
51
405.0
0
ARC
8
BLACK
10
44884.0
20
54217.0
40
99.0
50
45.0
51
225.0
0
LINE
8
BLACK
10
44807.0
20
54118.0
11
44883.0
21
54118.0
0
LINE
8
BLACK
10
44807.0
20
54316.0
11
44883.0
21
54316.0
0
ARC
8
BLACK
10
44883.0
20
54217.0
40
99.0
50
270.0
51
450.0
0
ARC
8
BLACK
10
44807.0
20
54217.0
40
99.0
50
90.0
51
270.0
0
LINE
8
BLACK
10
44906.0
20
51217.0
11
44906.0
21
52217.0
0
LINE
8
BLACK
10
44708.0
20
51217.0
11
44708.0
21
52217.0
0
ARC
8
BLACK
10
44807.0
20
52217.0
40
99.0
50
360.0
51
540.0
0
ARC
8
BLACK
10
44807.0
20
51217.0
40
99.0
50
180.0
51
360.0
0
LINE
8
BLACK
10
41736.0
20
51287.0
11
30504.0
21
40055.0
0
LINE
8
BLACK
10
41876.0
20
51147.0
11
30644.0
21
39915.0
0
ARC
8
BLACK
10
30574.0
20
39985.0
40
99.0
50
135.0
51
315.0
0
ARC
8
BLACK
10
41806.0
20
51217.0
40
99.0
50
-45.0
51
135.0
0
LINE
8
BLACK
10
19817.0
20
39885.0
11
30573.0
21
39885.0
0
LINE
8
BLACK
10
19817.0
20
40083.0
11
30573.0
21
40083.0
0
ARC
8
BLACK
10
30573.0
20
39984.0
40
99.0
50
270.0
51
450.0
0
ARC
8
BLACK
10
19817.0
20
39984.0
40
99.0
50
90.0
51
270.0
0
LINE
8
BLACK
10
19887.0
20
40054.0
11
19615.0
21
40326.0
0
LINE
8
BLACK
10
19747.0
20
39914.0
11
19475.0
21
40186.0
0
ARC
8
BLACK
10
19545.0
20
40256.0
40
99.0
50
405.0
51
585.0
0
ARC
8
BLACK
10
19817.0
20
39984.0
40
99.0
50
225.0
51
405.0
0
LINE
8
BLACK
10
19644.0
20
40256.0
11
19644.0
21
41016.0
0
LINE
8
BLACK
10
19446.0
20
40256.0
11
19446.0
21
41016.0
0
ARC
8
BLACK
10
19545.0
20
41016.0
40
99.0
50
360.0
51
540.0
0
ARC
8
BLACK
10
19545.0
20
40256.0
40
99.0
50
180.0
51
360.0
0
LINE
8
BLACK
10
19615.0
20
40947.0
11
19671.0
21
41003.0
0
LINE
8
BLACK
10
19475.0
20
41087.0
11
19531.0
21
41143.0
0
ARC
8
BLACK
10
19601.0
20
41073.0
40
99.0
50
315.0
51
495.0
0
ARC
8
BLACK
10
19545.0
20
41017.0
40
99.0
50
135.0
51
315.0
0
LINE
8
BLACK
10
19602.0
20
40974.0
11
20426.0
21
40974.0
0
LINE
8
BLACK
10
19602.0
20
41172.0
11
20426.0
21
41172.0
0
ARC
8
BLACK
10
20426.0
20
41073.0
40
99.0
50
270.0
51
450.0
0
ARC
8
BLACK
10
19602.0
20
41073.0
40
99.0
50
90.0
51
270.0
0
LINE
8
BLACK
10
20496.0
20
41003.0
11
21042.0
21
41549.0
0
LINE
8
BLACK
10
20356.0
20
41143.0
11
20902.0
21
41689.0
0
ARC
8
BLACK
10
20972.0
20
41619.0
40
99.0
50
315.0
51
495.0
0
ARC
8
BLACK
10
20426.0
20
41073.0
40
99.0
50
135.0
51
315.0
0
LINE
8
BLACK
10
19618.0
20
41520.0
11
19972.0
21
41520.0
0
LINE
8
BLACK
10
19618.0
20
41718.0
11
19972.0
21
41718.0
0
ARC
8
BLACK
10
19972.0
20
41619.0
40
99.0
50
270.0
51
450.0
0
ARC
8
BLACK
10
19618.0
20
41619.0
40
99.0
50
90.0
51
270.0
0
LINE
8
BLACK
10
41737.0
20
52147.0
11
42201.0
21
51683.0
0
LINE
8
BLACK
10
41877.0
20
52287.0
11
42341.0
21
51823.0
0
ARC
8
BLACK
10
42271.0
20
51753.0
40
99.0
50
225.0
51
405.0
0
ARC
8
BLACK
10
41807.0
20
52217.0
40
99.0
50
45.0
51
225.0
0
LINE
8
BLACK
10
42371.0
20
51090.0
11
42371.0
21
51752.0
0
LINE
8
BLACK
10
42173.0
20
51090.0
11
42173.0
21
51752.0
0
ARC
8
BLACK
10
42272.0
20
51752.0
40
99.0
50
360.0
51
540.0
0
ARC
8
BLACK
10
42272.0
20
51090.0
40
99.0
50
180.0
51
360.0
0
LINE
8
BLACK
10
42202.0
20
51159.0
11
30882.0
21
39839.0
0
LINE
8
BLACK
10
42342.0
20
51019.0
11
31022.0
21
39699.0
0
ARC
8
BLACK
10
30952.0
20
39769.0
40
99.0
50
135.0
51
315.0
0
ARC
8
BLACK
10
42272.0
20
51089.0
40
99.0
50
-45.0
51
135.0
0
LINE
8
BLACK
10
19558.0
20
39670.0
11
30952.0
21
39670.0
0
LINE
8
BLACK
10
19558.0
20
39868.0
11
30952.0
21
39868.0
0
ARC
8
BLACK
10
30952.0
20
39769.0
40
99.0
50
270.0
51
450.0
0
ARC
8
BLACK
10
19558.0
20
39769.0
40
99.0
50
90.0
51
270.0
0
LINE
8
BLACK
10
19627.0
20
39840.0
11
19399.0
21
40068.0
0
LINE
8
BLACK
10
19487.0
20
39700.0
11
19259.0
21
39928.0
0
ARC
8
BLACK
10
19329.0
20
39998.0
40
99.0
50
405.0
51
585.0
0
ARC
8
BLACK
10
19557.0
20
39770.0
40
99.0
50
225.0
51
405.0
0
LINE
8
BLACK
10
19428.0
20
39998.0
11
19428.0
21
41330.0
0
LINE
8
BLACK
10
19230.0
20
39998.0
11
19230.0
21
41330.0
0
ARC
8
BLACK
10
19329.0
20
41330.0
40
99.0
50
360.0
51
540.0
0
ARC
8
BLACK
10
19329.0
20
39998.0
40
99.0
50
180.0
51
360.0
0
LINE
8
BLACK
10
19399.0
20
41261.0
11
19687.0
21
41549.0
0
LINE
8
BLACK
10
19259.0
20
41401.0
11
19547.0
21
41689.0
0
ARC
8
BLACK
10
19617.0
20
41619.0
40
99.0
50
315.0
51
495.0
0
ARC
8
BLACK
10
19329.0
20
41331.0
40
99.0
50
135.0
51
315.0
0
LINE
8
BLACK
10
72360.0
20
56808.0
11
66648.0
21
62520.0
0
LINE
8
BLACK
10
72220.0
20
56668.0
11
66508.0
21
62380.0
0
ARC
8
BLACK
10
66578.0
20
62450.0
40
99.0
50
405.0
51
585.0
0
ARC
8
BLACK
10
72290.0
20
56738.0
40
99.0
50
225.0
51
405.0
0
LINE
8
BLACK
10
20432.0
20
62351.0
11
66578.0
21
62351.0
0
LINE
8
BLACK
10
20432.0
20
62549.0
11
66578.0
21
62549.0
0
ARC
8
BLACK
10
66578.0
20
62450.0
40
99.0
50
270.0
51
450.0
0
ARC
8
BLACK
10
20432.0
20
62450.0
40
99.0
50
90.0
51
270.0
0
LINE
8
BLACK
10
20502.0
20
62520.0
11
20042.0
21
62980.0
0
LINE
8
BLACK
10
20362.0
20
62380.0
11
19902.0
21
62840.0
0
ARC
8
BLACK
10
19972.0
20
62910.0
40
99.0
50
405.0
51
585.0
0
ARC
8
BLACK
10
20432.0
20
62450.0
40
99.0
50
225.0
51
405.0
0
LINE
8
BLACK
10
57102.0
20
58786.0
11
66220.0
21
49668.0
0
LINE
8
BLACK
10
57242.0
20
58926.0
11
66360.0
21
49808.0
0
ARC
8
BLACK
10
66290.0
20
49738.0
40
99.0
50
225.0
51
405.0
0
ARC
8
BLACK
10
57172.0
20
58856.0
40
99.0
50
45.0
51
225.0
0
LINE
8
BLACK
10
29590.0
20
58757.0
11
57172.0
21
58757.0
0
LINE
8
BLACK
10
29590.0
20
58955.0
11
57172.0
21
58955.0
0
ARC
8
BLACK
10
57172.0
20
58856.0
40
99.0
50
270.0
51
450.0
0
ARC
8
BLACK
10
29590.0
20
58856.0
40
99.0
50
90.0
51
270.0
0
LINE
8
BLACK
10
21659.0
20
50786.0
11
29659.0
21
58786.0
0
LINE
8
BLACK
10
21519.0
20
50926.0
11
29519.0
21
58926.0
0
ARC
8
BLACK
10
29589.0
20
58856.0
40
99.0
50
315.0
51
495.0
0
ARC
8
BLACK
10
21589.0
20
50856.0
40
99.0
50
135.0
51
315.0
0
LINE
8
BLACK
10
20972.0
20
50756.0
11
21588.0
21
50756.0
0
LINE
8
BLACK
10
20972.0
20
50954.0
11
21588.0
21
50954.0
0
ARC
8
BLACK
10
21588.0
20
50855.0
40
99.0
50
270.0
51
450.0
0
ARC
8
BLACK
10
20972.0
20
50855.0
40
99.0
50
90.0
51
270.0
0
LINE
8
BLACK
10
58639.0
20
59249.0
11
66221.0
21
51667.0
0
LINE
8
BLACK
10
58779.0
20
59389.0
11
66361.0
21
51807.0
0
ARC
8
BLACK
10
66291.0
20
51737.0
40
99.0
50
225.0
51
405.0
0
ARC
8
BLACK
10
58709.0
20
59319.0
40
99.0
50
45.0
51
225.0
0
LINE
8
BLACK
10
29302.0
20
59220.0
11
58708.0
21
59220.0
0
LINE
8
BLACK
10
29302.0
20
59418.0
11
58708.0
21
59418.0
0
ARC
8
BLACK
10
58708.0
20
59319.0
40
99.0
50
270.0
51
450.0
0
ARC
8
BLACK
10
29302.0
20
59319.0
40
99.0
50
90.0
51
270.0
0
LINE
8
BLACK
10
21909.0
20
51786.0
11
29371.0
21
59248.0
0
LINE
8
BLACK
10
21769.0
20
51926.0
11
29231.0
21
59388.0
0
ARC
8
BLACK
10
29301.0
20
59318.0
40
99.0
50
315.0
51
495.0
0
ARC
8
BLACK
10
21839.0
20
51856.0
40
99.0
50
135.0
51
315.0
0
LINE
8
BLACK
10
20972.0
20
51756.0
11
21838.0
21
51756.0
0
LINE
8
BLACK
10
20972.0
20
51954.0
11
21838.0
21
51954.0
0
ARC
8
BLACK
10
21838.0
20
51855.0
40
99.0
50
270.0
51
450.0
0
ARC
8
BLACK
10
20972.0
20
51855.0
40
99.0
50
90.0
51
270.0
0
LINE
8
BLACK
10
59410.0
20
59478.0
11
66220.0
21
52668.0
0
LINE
8
BLACK
10
59550.0
20
59618.0
11
66360.0
21
52808.0
0
ARC
8
BLACK
10
66290.0
20
52738.0
40
99.0
50
225.0
51
405.0
0
ARC
8
BLACK
10
59480.0
20
59548.0
40
99.0
50
45.0
51
225.0
0
LINE
8
BLACK
10
29065.0
20
59450.0
11
59479.0
21
59450.0
0
LINE
8
BLACK
10
29065.0
20
59648.0
11
59479.0
21
59648.0
0
ARC
8
BLACK
10
59479.0
20
59549.0
40
99.0
50
270.0
51
450.0
0
ARC
8
BLACK
10
29065.0
20
59549.0
40
99.0
50
90.0
51
270.0
0
LINE
8
BLACK
10
21942.0
20
52286.0
11
29134.0
21
59478.0
0
LINE
8
BLACK
10
21802.0
20
52426.0
11
28994.0
21
59618.0
0
ARC
8
BLACK
10
29064.0
20
59548.0
40
99.0
50
315.0
51
495.0
0
ARC
8
BLACK
10
21872.0
20
52356.0
40
99.0
50
135.0
51
315.0
0
LINE
8
BLACK
10
20042.0
20
51785.0
11
20542.0
21
52285.0
0
LINE
8
BLACK
10
19902.0
20
51925.0
11
20402.0
21
52425.0
0
ARC
8
BLACK
10
20472.0
20
52355.0
40
99.0
50
315.0
51
495.0
0
ARC
8
BLACK
10
19972.0
20
51855.0
40
99.0
50
135.0
51
315.0
0
LINE
8
BLACK
10
20472.0
20
52256.0
11
21870.0
21
52256.0
0
LINE
8
BLACK
10
20472.0
20
52454.0
11
21870.0
21
52454.0
0
ARC
8
BLACK
10
21870.0
20
52355.0
40
99.0
50
270.0
51
450.0
0
ARC
8
BLACK
10
20472.0
20
52355.0
40
99.0
50
90.0
51
270.0
0
LINE
8
BLACK
10
20972.0
20
52756.0
11
21976.0
21
52756.0
0
LINE
8
BLACK
10
20972.0
20
52954.0
11
21976.0
21
52954.0
0
ARC
8
BLACK
10
21976.0
20
52855.0
40
99.0
50
270.0
51
450.0
0
ARC
8
BLACK
10
20972.0
20
52855.0
40
99.0
50
90.0
51
270.0
0
LINE
8
BLACK
10
22047.0
20
52786.0
11
29015.0
21
59754.0
0
LINE
8
BLACK
10
21907.0
20
52926.0
11
28875.0
21
59894.0
0
ARC
8
BLACK
10
28945.0
20
59824.0
40
99.0
50
315.0
51
495.0
0
ARC
8
BLACK
10
21977.0
20
52856.0
40
99.0
50
135.0
51
315.0
0
LINE
8
BLACK
10
28946.0
20
59725.0
11
60204.0
21
59725.0
0
LINE
8
BLACK
10
28946.0
20
59923.0
11
60204.0
21
59923.0
0
ARC
8
BLACK
10
60204.0
20
59824.0
40
99.0
50
270.0
51
450.0
0
ARC
8
BLACK
10
28946.0
20
59824.0
40
99.0
50
90.0
51
270.0
0
LINE
8
BLACK
10
60134.0
20
59754.0
11
66220.0
21
53668.0
0
LINE
8
BLACK
10
60274.0
20
59894.0
11
66360.0
21
53808.0
0
ARC
8
BLACK
10
66290.0
20
53738.0
40
99.0
50
225.0
51
405.0
0
ARC
8
BLACK
10
60204.0
20
59824.0
40
99.0
50
45.0
51
225.0
0
LINE
8
BLACK
10
20972.0
20
53756.0
11
21580.0
21
53756.0
0
LINE
8
BLACK
10
20972.0
20
53954.0
11
21580.0
21
53954.0
0
ARC
8
BLACK
10
21580.0
20
53855.0
40
99.0
50
270.0
51
450.0
0
ARC
8
BLACK
10
20972.0
20
53855.0
40
99.0
50
90.0
51
270.0
0
LINE
8
BLACK
10
21651.0
20
53786.0
11
28205.0
21
60340.0
0
LINE
8
BLACK
10
21511.0
20
53926.0
11
28065.0
21
60480.0
0
ARC
8
BLACK
10
28135.0
20
60410.0
40
99.0
50
315.0
51
495.0
0
ARC
8
BLACK
10
21581.0
20
53856.0
40
99.0
50
135.0
51
315.0
0
LINE
8
BLACK
10
28136.0
20
60311.0
11
61618.0
21
60311.0
0
LINE
8
BLACK
10
28136.0
20
60509.0
11
61618.0
21
60509.0
0
ARC
8
BLACK
10
61618.0
20
60410.0
40
99.0
50
270.0
51
450.0
0
ARC
8
BLACK
10
28136.0
20
60410.0
40
99.0
50
90.0
51
270.0
0
LINE
8
BLACK
10
61548.0
20
60340.0
11
66220.0
21
55668.0
0
LINE
8
BLACK
10
61688.0
20
60480.0
11
66360.0
21
55808.0
0
ARC
8
BLACK
10
66290.0
20
55738.0
40
99.0
50
225.0
51
405.0
0
ARC
8
BLACK
10
61618.0
20
60410.0
40
99.0
50
45.0
51
225.0
0
LINE
8
BLACK
10
19209.0
20
37889.0
11
18139.0
21
38959.0
0
LINE
8
BLACK
10
19069.0
20
37749.0
11
17999.0
21
38819.0
0
ARC
8
BLACK
10
18069.0
20
38889.0
40
99.0
50
405.0
51
585.0
0
ARC
8
BLACK
10
19139.0
20
37819.0
40
99.0
50
225.0
51
405.0
0
LINE
8
BLACK
10
19140.0
20
37719.0
11
48764.0
21
37719.0
0
LINE
8
BLACK
10
19140.0
20
37917.0
11
48764.0
21
37917.0
0
ARC
8
BLACK
10
48764.0
20
37818.0
40
99.0
50
270.0
51
450.0
0
ARC
8
BLACK
10
19140.0
20
37818.0
40
99.0
50
90.0
51
270.0
0
LINE
8
BLACK
10
53074.0
20
42269.0
11
48694.0
21
37889.0
0
LINE
8
BLACK
10
53214.0
20
42129.0
11
48834.0
21
37749.0
0
ARC
8
BLACK
10
48764.0
20
37819.0
40
99.0
50
135.0
51
315.0
0
ARC
8
BLACK
10
53144.0
20
42199.0
40
99.0
50
-45.0
51
135.0
0
LINE
8
BLACK
10
53145.0
20
42100.0
11
66303.0
21
42100.0
0
LINE
8
BLACK
10
53145.0
20
42298.0
11
66303.0
21
42298.0
0
ARC
8
BLACK
10
66303.0
20
42199.0
40
99.0
50
270.0
51
450.0
0
ARC
8
BLACK
10
53145.0
20
42199.0
40
99.0
50
90.0
51
270.0
0
LINE
8
BLACK
10
66835.0
20
42871.0
11
66233.0
21
42269.0
0
LINE
8
BLACK
10
66975.0
20
42731.0
11
66373.0
21
42129.0
0
ARC
8
BLACK
10
66303.0
20
42199.0
40
99.0
50
135.0
51
315.0
0
ARC
8
BLACK
10
66905.0
20
42801.0
40
99.0
50
-45.0
51
135.0
0
LINE
8
BLACK
10
18168.0
20
38890.0
11
18168.0
21
42494.0
0
LINE
8
BLACK
10
17970.0
20
38890.0
11
17970.0
21
42494.0
0
ARC
8
BLACK
10
18069.0
20
42494.0
40
99.0
50
360.0
51
540.0
0
ARC
8
BLACK
10
18069.0
20
38890.0
40
99.0
50
180.0
51
360.0
0
LINE
8
BLACK
10
18139.0
20
42425.0
11
19695.0
21
43981.0
0
LINE
8
BLACK
10
17999.0
20
42565.0
11
19555.0
21
44121.0
0
ARC
8
BLACK
10
19625.0
20
44051.0
40
99.0
50
315.0
51
495.0
0
ARC
8
BLACK
10
18069.0
20
42495.0
40
99.0
50
135.0
51
315.0
0
LINE
8
BLACK
10
21346.0
20
43134.0
11
20902.0
21
42690.0
0
LINE
8
BLACK
10
21486.0
20
42994.0
11
21042.0
21
42550.0
0
ARC
8
BLACK
10
20972.0
20
42620.0
40
99.0
50
135.0
51
315.0
0
ARC
8
BLACK
10
21416.0
20
43064.0
40
99.0
50
-45.0
51
135.0
0
LINE
8
BLACK
10
21516.0
20
43065.0
11
21516.0
21
43965.0
0
LINE
8
BLACK
10
21318.0
20
43065.0
11
21318.0
21
43965.0
0
ARC
8
BLACK
10
21417.0
20
43965.0
40
99.0
50
360.0
51
540.0
0
ARC
8
BLACK
10
21417.0
20
43065.0
40
99.0
50
180.0
51
360.0
0
LINE
8
BLACK
10
21262.0
20
43980.0
11
21346.0
21
43896.0
0
LINE
8
BLACK
10
21402.0
20
44120.0
11
21486.0
21
44036.0
0
ARC
8
BLACK
10
21416.0
20
43966.0
40
99.0
50
225.0
51
405.0
0
ARC
8
BLACK
10
21332.0
20
44050.0
40
99.0
50
45.0
51
225.0
0
LINE
8
BLACK
10
19626.0
20
43952.0
11
21330.0
21
43952.0
0
LINE
8
BLACK
10
19626.0
20
44150.0
11
21330.0
21
44150.0
0
ARC
8
BLACK
10
21330.0
20
44051.0
40
99.0
50
270.0
51
450.0
0
ARC
8
BLACK
10
19626.0
20
44051.0
40
99.0
50
90.0
51
270.0
0
LINE
8
BLACK
10
67004.0
20
42801.0
11
67004.0
21
43653.0
0
LINE
8
BLACK
10
66806.0
20
42801.0
11
66806.0
21
43653.0
0
ARC
8
BLACK
10
66905.0
20
43653.0
40
99.0
50
360.0
51
540.0
0
ARC
8
BLACK
10
66905.0
20
42801.0
40
99.0
50
180.0
51
360.0
0
LINE
8
BLACK
10
66362.0
20
44056.0
11
66834.0
21
43584.0
0
LINE
8
BLACK
10
66502.0
20
44196.0
11
66974.0
21
43724.0
0
ARC
8
BLACK
10
66904.0
20
43654.0
40
99.0
50
225.0
51
405.0
0
ARC
8
BLACK
10
66432.0
20
44126.0
40
99.0
50
45.0
51
225.0
0
LINE
8
BLACK
10
47810.0
20
44027.0
11
66432.0
21
44027.0
0
LINE
8
BLACK
10
47810.0
20
44225.0
11
66432.0
21
44225.0
0
ARC
8
BLACK
10
66432.0
20
44126.0
40
99.0
50
270.0
51
450.0
0
ARC
8
BLACK
10
47810.0
20
44126.0
40
99.0
50
90.0
51
270.0
0
LINE
8
BLACK
10
46979.0
20
43156.0
11
47879.0
21
44056.0
0
LINE
8
BLACK
10
46839.0
20
43296.0
11
47739.0
21
44196.0
0
ARC
8
BLACK
10
47809.0
20
44126.0
40
99.0
50
315.0
51
495.0
0
ARC
8
BLACK
10
46909.0
20
43226.0
40
99.0
50
135.0
51
315.0
0
LINE
8
BLACK
10
45201.0
20
43126.0
11
46909.0
21
43126.0
0
LINE
8
BLACK
10
45201.0
20
43324.0
11
46909.0
21
43324.0
0
ARC
8
BLACK
10
46909.0
20
43225.0
40
99.0
50
270.0
51
450.0
0
ARC
8
BLACK
10
45201.0
20
43225.0
40
99.0
50
90.0
51
270.0
0
LINE
8
BLACK
10
73237.0
20
45355.0
11
72785.0
21
45807.0
0
LINE
8
BLACK
10
73097.0
20
45215.0
11
72645.0
21
45667.0
0
ARC
8
BLACK
10
72715.0
20
45737.0
40
99.0
50
405.0
51
585.0
0
ARC
8
BLACK
10
73167.0
20
45285.0
40
99.0
50
225.0
51
405.0
0
LINE
8
BLACK
10
72291.0
20
45638.0
11
72715.0
21
45638.0
0
LINE
8
BLACK
10
72291.0
20
45836.0
11
72715.0
21
45836.0
0
ARC
8
BLACK
10
72715.0
20
45737.0
40
99.0
50
270.0
51
450.0
0
ARC
8
BLACK
10
72291.0
20
45737.0
40
99.0
50
90.0
51
270.0
0
LINE
8
BLACK
10
20972.0
20
31465.0
11
54638.0
21
31465.0
0
LINE
8
BLACK
10
20972.0
20
31663.0
11
54638.0
21
31663.0
0
ARC
8
BLACK
10
54638.0
20
31564.0
40
99.0
50
270.0
51
450.0
0
ARC
8
BLACK
10
20972.0
20
31564.0
40
99.0
50
90.0
51
270.0
0
ARC
8
BLACK
10
54638.0
20
31564.0
40
99.0
50
225.0
51
405.0
0
ARC
8
BLACK
10
54638.0
20
31564.0
40
99.0
50
45.0
51
225.0
0
LINE
8
BLACK
10
21358.0
20
33090.0
11
20902.0
21
32634.0
0
LINE
8
BLACK
10
21498.0
20
32950.0
11
21042.0
21
32494.0
0
ARC
8
BLACK
10
20972.0
20
32564.0
40
99.0
50
135.0
51
315.0
0
ARC
8
BLACK
10
21428.0
20
33020.0
40
99.0
50
-45.0
51
135.0
0
LINE
8
BLACK
10
21527.0
20
33021.0
11
21527.0
21
34911.0
0
LINE
8
BLACK
10
21329.0
20
33021.0
11
21329.0
21
34911.0
0
ARC
8
BLACK
10
21428.0
20
34911.0
40
99.0
50
360.0
51
540.0
0
ARC
8
BLACK
10
21428.0
20
33021.0
40
99.0
50
180.0
51
360.0
0
LINE
8
BLACK
10
21301.0
20
34898.0
11
21357.0
21
34842.0
0
LINE
8
BLACK
10
21441.0
20
35038.0
11
21497.0
21
34982.0
0
ARC
8
BLACK
10
21427.0
20
34912.0
40
99.0
50
225.0
51
405.0
0
ARC
8
BLACK
10
21371.0
20
34968.0
40
99.0
50
45.0
51
225.0
0
LINE
8
BLACK
10
19514.0
20
34869.0
11
21370.0
21
34869.0
0
LINE
8
BLACK
10
19514.0
20
35067.0
11
21370.0
21
35067.0
0
ARC
8
BLACK
10
21370.0
20
34968.0
40
99.0
50
270.0
51
450.0
0
ARC
8
BLACK
10
19514.0
20
34968.0
40
99.0
50
90.0
51
270.0
0
LINE
8
BLACK
10
18189.0
20
33504.0
11
19583.0
21
34898.0
0
LINE
8
BLACK
10
18049.0
20
33644.0
11
19443.0
21
35038.0
0
ARC
8
BLACK
10
19513.0
20
34968.0
40
99.0
50
315.0
51
495.0
0
ARC
8
BLACK
10
18119.0
20
33574.0
40
99.0
50
135.0
51
315.0
0
LINE
8
BLACK
10
18218.0
20
30797.0
11
18218.0
21
33573.0
0
LINE
8
BLACK
10
18020.0
20
30797.0
11
18020.0
21
33573.0
0
ARC
8
BLACK
10
18119.0
20
33573.0
40
99.0
50
360.0
51
540.0
0
ARC
8
BLACK
10
18119.0
20
30797.0
40
99.0
50
180.0
51
360.0
0
LINE
8
BLACK
10
19537.0
20
29518.0
11
18189.0
21
30866.0
0
LINE
8
BLACK
10
19397.0
20
29378.0
11
18049.0
21
30726.0
0
ARC
8
BLACK
10
18119.0
20
30796.0
40
99.0
50
405.0
51
585.0
0
ARC
8
BLACK
10
19467.0
20
29448.0
40
99.0
50
225.0
51
405.0
0
LINE
8
BLACK
10
19468.0
20
29348.0
11
63348.0
21
29348.0
0
LINE
8
BLACK
10
19468.0
20
29546.0
11
63348.0
21
29546.0
0
ARC
8
BLACK
10
63348.0
20
29447.0
40
99.0
50
270.0
51
450.0
0
ARC
8
BLACK
10
19468.0
20
29447.0
40
99.0
50
90.0
51
270.0
0
LINE
8
BLACK
10
72170.0
20
38409.0
11
63278.0
21
29517.0
0
LINE
8
BLACK
10
72310.0
20
38269.0
11
63418.0
21
29377.0
0
ARC
8
BLACK
10
63348.0
20
29447.0
40
99.0
50
135.0
51
315.0
0
ARC
8
BLACK
10
72240.0
20
38339.0
40
99.0
50
-45.0
51
135.0
0
LINE
8
BLACK
10
72240.0
20
38240.0
11
72618.0
21
38240.0
0
LINE
8
BLACK
10
72240.0
20
38438.0
11
72618.0
21
38438.0
0
ARC
8
BLACK
10
72618.0
20
38339.0
40
99.0
50
270.0
51
450.0
0
ARC
8
BLACK
10
72240.0
20
38339.0
40
99.0
50
90.0
51
270.0
0
LINE
8
BLACK
10
72605.0
20
38466.0
11
72549.0
21
38410.0
0
LINE
8
BLACK
10
72745.0
20
38326.0
11
72689.0
21
38270.0
0
ARC
8
BLACK
10
72619.0
20
38340.0
40
99.0
50
135.0
51
315.0
0
ARC
8
BLACK
10
72675.0
20
38396.0
40
99.0
50
-45.0
51
135.0
0
LINE
8
BLACK
10
72775.0
20
38396.0
11
72775.0
21
43352.0
0
LINE
8
BLACK
10
72577.0
20
38396.0
11
72577.0
21
43352.0
0
ARC
8
BLACK
10
72676.0
20
43352.0
40
99.0
50
360.0
51
540.0
0
ARC
8
BLACK
10
72676.0
20
38396.0
40
99.0
50
180.0
51
360.0
0
LINE
8
BLACK
10
72221.0
20
43667.0
11
72605.0
21
43283.0
0
LINE
8
BLACK
10
72361.0
20
43807.0
11
72745.0
21
43423.0
0
ARC
8
BLACK
10
72675.0
20
43353.0
40
99.0
50
225.0
51
405.0
0
ARC
8
BLACK
10
72291.0
20
43737.0
40
99.0
50
45.0
51
225.0
0
LINE
8
BLACK
10
20542.0
20
32994.0
11
21042.0
21
33494.0
0
LINE
8
BLACK
10
20402.0
20
33134.0
11
20902.0
21
33634.0
0
ARC
8
BLACK
10
20972.0
20
33564.0
40
99.0
50
315.0
51
495.0
0
ARC
8
BLACK
10
20472.0
20
33064.0
40
99.0
50
135.0
51
315.0
0
LINE
8
BLACK
10
19784.0
20
32965.0
11
20472.0
21
32965.0
0
LINE
8
BLACK
10
19784.0
20
33163.0
11
20472.0
21
33163.0
0
ARC
8
BLACK
10
20472.0
20
33064.0
40
99.0
50
270.0
51
450.0
0
ARC
8
BLACK
10
19784.0
20
33064.0
40
99.0
50
90.0
51
270.0
0
LINE
8
BLACK
10
19342.0
20
32482.0
11
19854.0
21
32994.0
0
LINE
8
BLACK
10
19202.0
20
32622.0
11
19714.0
21
33134.0
0
ARC
8
BLACK
10
19784.0
20
33064.0
40
99.0
50
315.0
51
495.0
0
ARC
8
BLACK
10
19272.0
20
32552.0
40
99.0
50
135.0
51
315.0
0
LINE
8
BLACK
10
19371.0
20
31246.0
11
19371.0
21
32552.0
0
LINE
8
BLACK
10
19173.0
20
31246.0
11
19173.0
21
32552.0
0
ARC
8
BLACK
10
19272.0
20
32552.0
40
99.0
50
360.0
51
540.0
0
ARC
8
BLACK
10
19272.0
20
31246.0
40
99.0
50
180.0
51
360.0
0
LINE
8
BLACK
10
19972.0
20
30686.0
11
19342.0
21
31316.0
0
LINE
8
BLACK
10
19832.0
20
30546.0
11
19202.0
21
31176.0
0
ARC
8
BLACK
10
19272.0
20
31246.0
40
99.0
50
405.0
51
585.0
0
ARC
8
BLACK
10
19902.0
20
30616.0
40
99.0
50
225.0
51
405.0
0
LINE
8
BLACK
10
19903.0
20
30516.0
11
61169.0
21
30516.0
0
LINE
8
BLACK
10
19903.0
20
30714.0
11
61169.0
21
30714.0
0
ARC
8
BLACK
10
61169.0
20
30615.0
40
99.0
50
270.0
51
450.0
0
ARC
8
BLACK
10
19903.0
20
30615.0
40
99.0
50
90.0
51
270.0
0
LINE
8
BLACK
10
72221.0
20
41807.0
11
61099.0
21
30685.0
0
LINE
8
BLACK
10
72361.0
20
41667.0
11
61239.0
21
30545.0
0
ARC
8
BLACK
10
61169.0
20
30615.0
40
99.0
50
135.0
51
315.0
0
ARC
8
BLACK
10
72291.0
20
41737.0
40
99.0
50
-45.0
51
135.0
0
LINE
8
BLACK
10
20551.0
20
34003.0
11
21041.0
21
34493.0
0
LINE
8
BLACK
10
20411.0
20
34143.0
11
20901.0
21
34633.0
0
ARC
8
BLACK
10
20971.0
20
34563.0
40
99.0
50
315.0
51
495.0
0
ARC
8
BLACK
10
20481.0
20
34073.0
40
99.0
50
135.0
51
315.0
0
LINE
8
BLACK
10
19647.0
20
33973.0
11
20479.0
21
33973.0
0
LINE
8
BLACK
10
19647.0
20
34171.0
11
20479.0
21
34171.0
0
ARC
8
BLACK
10
20479.0
20
34072.0
40
99.0
50
270.0
51
450.0
0
ARC
8
BLACK
10
19647.0
20
34072.0
40
99.0
50
90.0
51
270.0
0
LINE
8
BLACK
10
18768.0
20
33054.0
11
19716.0
21
34002.0
0
LINE
8
BLACK
10
18628.0
20
33194.0
11
19576.0
21
34142.0
0
ARC
8
BLACK
10
19646.0
20
34072.0
40
99.0
50
315.0
51
495.0
0
ARC
8
BLACK
10
18698.0
20
33124.0
40
99.0
50
135.0
51
315.0
0
LINE
8
BLACK
10
18797.0
20
30997.0
11
18797.0
21
33123.0
0
LINE
8
BLACK
10
18599.0
20
30997.0
11
18599.0
21
33123.0
0
ARC
8
BLACK
10
18698.0
20
33123.0
40
99.0
50
360.0
51
540.0
0
ARC
8
BLACK
10
18698.0
20
30997.0
40
99.0
50
180.0
51
360.0
0
LINE
8
BLACK
10
19722.0
20
30112.0
11
18768.0
21
31066.0
0
LINE
8
BLACK
10
19582.0
20
29972.0
11
18628.0
21
30926.0
0
ARC
8
BLACK
10
18698.0
20
30996.0
40
99.0
50
405.0
51
585.0
0
ARC
8
BLACK
10
19652.0
20
30042.0
40
99.0
50
225.0
51
405.0
0
LINE
8
BLACK
10
19653.0
20
29942.0
11
62595.0
21
29942.0
0
LINE
8
BLACK
10
19653.0
20
30140.0
11
62595.0
21
30140.0
0
ARC
8
BLACK
10
62595.0
20
30041.0
40
99.0
50
270.0
51
450.0
0
ARC
8
BLACK
10
19653.0
20
30041.0
40
99.0
50
90.0
51
270.0
0
LINE
8
BLACK
10
72221.0
20
39807.0
11
62525.0
21
30111.0
0
LINE
8
BLACK
10
72361.0
20
39667.0
11
62665.0
21
29971.0
0
ARC
8
BLACK
10
62595.0
20
30041.0
40
99.0
50
135.0
51
315.0
0
ARC
8
BLACK
10
72291.0
20
39737.0
40
99.0
50
-45.0
51
135.0
0
LINE
8
BLACK
10
39370.0
20
54118.0
11
41806.0
21
54118.0
0
LINE
8
BLACK
10
39370.0
20
54316.0
11
41806.0
21
54316.0
0
ARC
8
BLACK
10
41806.0
20
54217.0
40
99.0
50
270.0
51
450.0
0
ARC
8
BLACK
10
39370.0
20
54217.0
40
99.0
50
90.0
51
270.0
0
LINE
8
BLACK
10
39370.0
20
55118.0
11
41806.0
21
55118.0
0
LINE
8
BLACK
10
39370.0
20
55316.0
11
41806.0
21
55316.0
0
ARC
8
BLACK
10
41806.0
20
55217.0
40
99.0
50
270.0
51
450.0
0
ARC
8
BLACK
10
39370.0
20
55217.0
40
99.0
50
90.0
51
270.0
0
LINE
8
BLACK
10
40520.0
20
56118.0
11
41806.0
21
56118.0
0
LINE
8
BLACK
10
40520.0
20
56316.0
11
41806.0
21
56316.0
0
ARC
8
BLACK
10
41806.0
20
56217.0
40
99.0
50
270.0
51
450.0
0
ARC
8
BLACK
10
40520.0
20
56217.0
40
99.0
50
90.0
51
270.0
0
LINE
8
BLACK
10
39300.0
20
57297.0
11
40450.0
21
56147.0
0
LINE
8
BLACK
10
39440.0
20
57437.0
11
40590.0
21
56287.0
0
ARC
8
BLACK
10
40520.0
20
56217.0
40
99.0
50
225.0
51
405.0
0
ARC
8
BLACK
10
39370.0
20
57367.0
40
99.0
50
45.0
51
225.0
0
LINE
8
BLACK
10
42237.0
20
57787.0
11
41737.0
21
57287.0
0
LINE
8
BLACK
10
42377.0
20
57647.0
11
41877.0
21
57147.0
0
ARC
8
BLACK
10
41807.0
20
57217.0
40
99.0
50
135.0
51
315.0
0
ARC
8
BLACK
10
42307.0
20
57717.0
40
99.0
50
-45.0
51
135.0
0
LINE
8
BLACK
10
42307.0
20
57618.0
11
46501.0
21
57618.0
0
LINE
8
BLACK
10
42307.0
20
57816.0
11
46501.0
21
57816.0
0
ARC
8
BLACK
10
46501.0
20
57717.0
40
99.0
50
270.0
51
450.0
0
ARC
8
BLACK
10
42307.0
20
57717.0
40
99.0
50
90.0
51
270.0
0
LINE
8
BLACK
10
46921.0
20
57437.0
11
46571.0
21
57787.0
0
LINE
8
BLACK
10
46781.0
20
57297.0
11
46431.0
21
57647.0
0
ARC
8
BLACK
10
46501.0
20
57717.0
40
99.0
50
405.0
51
585.0
0
ARC
8
BLACK
10
46851.0
20
57367.0
40
99.0
50
225.0
51
405.0
0
LINE
8
BLACK
10
41587.0
20
58297.0
11
41737.0
21
58147.0
0
LINE
8
BLACK
10
41727.0
20
58437.0
11
41877.0
21
58287.0
0
ARC
8
BLACK
10
41807.0
20
58217.0
40
99.0
50
225.0
51
405.0
0
ARC
8
BLACK
10
41657.0
20
58367.0
40
99.0
50
45.0
51
225.0
0
LINE
8
BLACK
10
39370.0
20
58268.0
11
41656.0
21
58268.0
0
LINE
8
BLACK
10
39370.0
20
58466.0
11
41656.0
21
58466.0
0
ARC
8
BLACK
10
41656.0
20
58367.0
40
99.0
50
270.0
51
450.0
0
ARC
8
BLACK
10
39370.0
20
58367.0
40
99.0
50
90.0
51
270.0
0
LINE
8
BLACK
10
42201.0
20
40126.0
11
43617.0
21
40126.0
0
LINE
8
BLACK
10
42201.0
20
40324.0
11
43617.0
21
40324.0
0
ARC
8
BLACK
10
43617.0
20
40225.0
40
99.0
50
270.0
51
450.0
0
ARC
8
BLACK
10
42201.0
20
40225.0
40
99.0
50
90.0
51
270.0
0
LINE
8
BLACK
10
45012.0
20
41759.0
11
43548.0
21
40295.0
0
LINE
8
BLACK
10
45152.0
20
41619.0
11
43688.0
21
40155.0
0
ARC
8
BLACK
10
43618.0
20
40225.0
40
99.0
50
135.0
51
315.0
0
ARC
8
BLACK
10
45082.0
20
41689.0
40
99.0
50
-45.0
51
135.0
0
LINE
8
BLACK
10
45082.0
20
41590.0
11
45258.0
21
41590.0
0
LINE
8
BLACK
10
45082.0
20
41788.0
11
45258.0
21
41788.0
0
ARC
8
BLACK
10
45258.0
20
41689.0
40
99.0
50
270.0
51
450.0
0
ARC
8
BLACK
10
45082.0
20
41689.0
40
99.0
50
90.0
51
270.0
0
LINE
8
BLACK
10
45518.0
20
42089.0
11
45188.0
21
41759.0
0
LINE
8
BLACK
10
45658.0
20
41949.0
11
45328.0
21
41619.0
0
ARC
8
BLACK
10
45258.0
20
41689.0
40
99.0
50
135.0
51
315.0
0
ARC
8
BLACK
10
45588.0
20
42019.0
40
99.0
50
-45.0
51
135.0
0
LINE
8
BLACK
10
45687.0
20
42020.0
11
45687.0
21
42412.0
0
LINE
8
BLACK
10
45489.0
20
42020.0
11
45489.0
21
42412.0
0
ARC
8
BLACK
10
45588.0
20
42412.0
40
99.0
50
360.0
51
540.0
0
ARC
8
BLACK
10
45588.0
20
42020.0
40
99.0
50
180.0
51
360.0
0
LINE
8
BLACK
10
45284.0
20
42576.0
11
45518.0
21
42342.0
0
LINE
8
BLACK
10
45424.0
20
42716.0
11
45658.0
21
42482.0
0
ARC
8
BLACK
10
45588.0
20
42412.0
40
99.0
50
225.0
51
405.0
0
ARC
8
BLACK
10
45354.0
20
42646.0
40
99.0
50
45.0
51
225.0
0
LINE
8
BLACK
10
40483.0
20
42547.0
11
45353.0
21
42547.0
0
LINE
8
BLACK
10
40483.0
20
42745.0
11
45353.0
21
42745.0
0
ARC
8
BLACK
10
45353.0
20
42646.0
40
99.0
50
270.0
51
450.0
0
ARC
8
BLACK
10
40483.0
20
42646.0
40
99.0
50
90.0
51
270.0
0
LINE
8
BLACK
10
38853.0
20
44136.0
11
40413.0
21
42576.0
0
LINE
8
BLACK
10
38993.0
20
44276.0
11
40553.0
21
42716.0
0
ARC
8
BLACK
10
40483.0
20
42646.0
40
99.0
50
225.0
51
405.0
0
ARC
8
BLACK
10
38923.0
20
44206.0
40
99.0
50
45.0
51
225.0
0
LINE
8
BLACK
10
39022.0
20
44206.0
11
39022.0
21
45750.0
0
LINE
8
BLACK
10
38824.0
20
44206.0
11
38824.0
21
45750.0
0
ARC
8
BLACK
10
38923.0
20
45750.0
40
99.0
50
360.0
51
540.0
0
ARC
8
BLACK
10
38923.0
20
44206.0
40
99.0
50
180.0
51
360.0
0
LINE
8
BLACK
10
40627.0
20
47594.0
11
38853.0
21
45820.0
0
LINE
8
BLACK
10
40767.0
20
47454.0
11
38993.0
21
45680.0
0
ARC
8
BLACK
10
38923.0
20
45750.0
40
99.0
50
135.0
51
315.0
0
ARC
8
BLACK
10
40697.0
20
47524.0
40
99.0
50
-45.0
51
135.0
0
LINE
8
BLACK
10
40697.0
20
47425.0
11
43701.0
21
47425.0
0
LINE
8
BLACK
10
40697.0
20
47623.0
11
43701.0
21
47623.0
0
ARC
8
BLACK
10
43701.0
20
47524.0
40
99.0
50
270.0
51
450.0
0
ARC
8
BLACK
10
40697.0
20
47524.0
40
99.0
50
90.0
51
270.0
0
LINE
8
BLACK
10
39370.0
20
51362.0
11
40050.0
21
51362.0
0
LINE
8
BLACK
10
39370.0
20
51560.0
11
40050.0
21
51560.0
0
ARC
8
BLACK
10
40050.0
20
51461.0
40
99.0
50
270.0
51
450.0
0
ARC
8
BLACK
10
39370.0
20
51461.0
40
99.0
50
90.0
51
270.0
0
LINE
8
BLACK
10
41737.0
20
53287.0
11
39981.0
21
51531.0
0
LINE
8
BLACK
10
41877.0
20
53147.0
11
40121.0
21
51391.0
0
ARC
8
BLACK
10
40051.0
20
51461.0
40
99.0
50
135.0
51
315.0
0
ARC
8
BLACK
10
41807.0
20
53217.0
40
99.0
50
-45.0
51
135.0
0
LINE
8
BLACK
10
20042.0
20
61980.0
11
19610.0
21
62412.0
0
LINE
8
BLACK
10
19902.0
20
61840.0
11
19470.0
21
62272.0
0
ARC
8
BLACK
10
19540.0
20
62342.0
40
99.0
50
405.0
51
585.0
0
ARC
8
BLACK
10
19972.0
20
61910.0
40
99.0
50
225.0
51
405.0
0
LINE
8
BLACK
10
19639.0
20
62342.0
11
19639.0
21
63284.0
0
LINE
8
BLACK
10
19441.0
20
62342.0
11
19441.0
21
63284.0
0
ARC
8
BLACK
10
19540.0
20
63284.0
40
99.0
50
360.0
51
540.0
0
ARC
8
BLACK
10
19540.0
20
62342.0
40
99.0
50
180.0
51
360.0
0
LINE
8
BLACK
10
19610.0
20
63215.0
11
19666.0
21
63271.0
0
LINE
8
BLACK
10
19470.0
20
63355.0
11
19526.0
21
63411.0
0
ARC
8
BLACK
10
19596.0
20
63341.0
40
99.0
50
315.0
51
495.0
0
ARC
8
BLACK
10
19540.0
20
63285.0
40
99.0
50
135.0
51
315.0
0
LINE
8
BLACK
10
19597.0
20
63242.0
11
66627.0
21
63242.0
0
LINE
8
BLACK
10
19597.0
20
63440.0
11
66627.0
21
63440.0
0
ARC
8
BLACK
10
66627.0
20
63341.0
40
99.0
50
270.0
51
450.0
0
ARC
8
BLACK
10
19597.0
20
63341.0
40
99.0
50
90.0
51
270.0
0
LINE
8
BLACK
10
66558.0
20
63271.0
11
73208.0
21
56621.0
0
LINE
8
BLACK
10
66698.0
20
63411.0
11
73348.0
21
56761.0
0
ARC
8
BLACK
10
73278.0
20
56691.0
40
99.0
50
225.0
51
405.0
0
ARC
8
BLACK
10
66628.0
20
63341.0
40
99.0
50
45.0
51
225.0
0
LINE
8
BLACK
10
73378.0
20
55726.0
11
73378.0
21
56690.0
0
LINE
8
BLACK
10
73180.0
20
55726.0
11
73180.0
21
56690.0
0
ARC
8
BLACK
10
73279.0
20
56690.0
40
99.0
50
360.0
51
540.0
0
ARC
8
BLACK
10
73279.0
20
55726.0
40
99.0
50
180.0
51
360.0
0
LINE
8
BLACK
10
73209.0
20
55795.0
11
72221.0
21
54807.0
0
LINE
8
BLACK
10
73349.0
20
55655.0
11
72361.0
21
54667.0
0
ARC
8
BLACK
10
72291.0
20
54737.0
40
99.0
50
135.0
51
315.0
0
ARC
8
BLACK
10
73279.0
20
55725.0
40
99.0
50
-45.0
51
135.0
0
LINE
8
BLACK
10
19902.0
20
31494.0
11
20306.0
21
31090.0
0
LINE
8
BLACK
10
20042.0
20
31634.0
11
20446.0
21
31230.0
0
ARC
8
BLACK
10
20376.0
20
31160.0
40
99.0
50
225.0
51
405.0
0
ARC
8
BLACK
10
19972.0
20
31564.0
40
99.0
50
45.0
51
225.0
0
LINE
8
BLACK
10
20377.0
20
31060.0
11
56699.0
21
31060.0
0
LINE
8
BLACK
10
20377.0
20
31258.0
11
56699.0
21
31258.0
0
ARC
8
BLACK
10
56699.0
20
31159.0
40
99.0
50
270.0
51
450.0
0
ARC
8
BLACK
10
20377.0
20
31159.0
40
99.0
50
90.0
51
270.0
0
LINE
8
BLACK
10
56770.0
20
31090.0
11
62162.0
21
36482.0
0
LINE
8
BLACK
10
56630.0
20
31230.0
11
62022.0
21
36622.0
0
ARC
8
BLACK
10
62092.0
20
36552.0
40
99.0
50
315.0
51
495.0
0
ARC
8
BLACK
10
56700.0
20
31160.0
40
99.0
50
135.0
51
315.0
0
LINE
8
BLACK
10
62093.0
20
36453.0
11
62639.0
21
36453.0
0
LINE
8
BLACK
10
62093.0
20
36651.0
11
62639.0
21
36651.0
0
ARC
8
BLACK
10
62639.0
20
36552.0
40
99.0
50
270.0
51
450.0
0
ARC
8
BLACK
10
62093.0
20
36552.0
40
99.0
50
90.0
51
270.0
0
LINE
8
BLACK
10
62709.0
20
36483.0
11
65283.0
21
39057.0
0
LINE
8
BLACK
10
62569.0
20
36623.0
11
65143.0
21
39197.0
0
ARC
8
BLACK
10
65213.0
20
39127.0
40
99.0
50
315.0
51
495.0
0
ARC
8
BLACK
10
62639.0
20
36553.0
40
99.0
50
135.0
51
315.0
0
LINE
8
BLACK
10
65214.0
20
39028.0
11
66274.0
21
39028.0
0
LINE
8
BLACK
10
65214.0
20
39226.0
11
66274.0
21
39226.0
0
ARC
8
BLACK
10
66274.0
20
39127.0
40
99.0
50
270.0
51
450.0
0
ARC
8
BLACK
10
65214.0
20
39127.0
40
99.0
50
90.0
51
270.0
0
LINE
8
BLACK
10
66344.0
20
39058.0
11
71952.0
21
44666.0
0
LINE
8
BLACK
10
66204.0
20
39198.0
11
71812.0
21
44806.0
0
ARC
8
BLACK
10
71882.0
20
44736.0
40
99.0
50
315.0
51
495.0
0
ARC
8
BLACK
10
66274.0
20
39128.0
40
99.0
50
135.0
51
315.0
0
LINE
8
BLACK
10
71883.0
20
44637.0
11
72291.0
21
44637.0
0
LINE
8
BLACK
10
71883.0
20
44835.0
11
72291.0
21
44835.0
0
ARC
8
BLACK
10
72291.0
20
44736.0
40
99.0
50
270.0
51
450.0
0
ARC
8
BLACK
10
71883.0
20
44736.0
40
99.0
50
90.0
51
270.0
0
ARC
8
BLACK
10
72291.0
20
44737.0
40
99.0
50
360.0
51
540.0
0
ARC
8
BLACK
10
72291.0
20
44737.0
40
99.0
50
180.0
51
360.0
0
LINE
8
BLACK
10
17654.0
20
38912.0
11
17654.0
21
42408.0
0
LINE
8
BLACK
10
17456.0
20
38912.0
11
17456.0
21
42408.0
0
ARC
8
BLACK
10
17555.0
20
42408.0
40
99.0
50
360.0
51
540.0
0
ARC
8
BLACK
10
17555.0
20
38912.0
40
99.0
50
180.0
51
360.0
0
LINE
8
BLACK
10
17485.0
20
38842.0
11
19275.0
21
37052.0
0
LINE
8
BLACK
10
17625.0
20
38982.0
11
19415.0
21
37192.0
0
ARC
8
BLACK
10
19345.0
20
37122.0
40
99.0
50
225.0
51
405.0
0
ARC
8
BLACK
10
17555.0
20
38912.0
40
99.0
50
45.0
51
225.0
0
LINE
8
BLACK
10
19346.0
20
37022.0
11
62082.0
21
37022.0
0
LINE
8
BLACK
10
19346.0
20
37220.0
11
62082.0
21
37220.0
0
ARC
8
BLACK
10
62082.0
20
37121.0
40
99.0
50
270.0
51
450.0
0
ARC
8
BLACK
10
19346.0
20
37121.0
40
99.0
50
90.0
51
270.0
0
LINE
8
BLACK
10
62153.0
20
37052.0
11
65767.0
21
40666.0
0
LINE
8
BLACK
10
62013.0
20
37192.0
11
65627.0
21
40806.0
0
ARC
8
BLACK
10
65697.0
20
40736.0
40
99.0
50
315.0
51
495.0
0
ARC
8
BLACK
10
62083.0
20
37122.0
40
99.0
50
135.0
51
315.0
0
LINE
8
BLACK
10
65698.0
20
40638.0
11
66290.0
21
40638.0
0
LINE
8
BLACK
10
65698.0
20
40836.0
11
66290.0
21
40836.0
0
ARC
8
BLACK
10
66290.0
20
40737.0
40
99.0
50
270.0
51
450.0
0
ARC
8
BLACK
10
65698.0
20
40737.0
40
99.0
50
90.0
51
270.0
0
LINE
8
BLACK
10
19351.0
20
44344.0
11
17485.0
21
42478.0
0
LINE
8
BLACK
10
19491.0
20
44204.0
11
17625.0
21
42338.0
0
ARC
8
BLACK
10
17555.0
20
42408.0
40
99.0
50
135.0
51
315.0
0
ARC
8
BLACK
10
19421.0
20
44274.0
40
99.0
50
-45.0
51
135.0
0
LINE
8
BLACK
10
19421.0
20
44175.0
11
21547.0
21
44175.0
0
LINE
8
BLACK
10
19421.0
20
44373.0
11
21547.0
21
44373.0
0
ARC
8
BLACK
10
21547.0
20
44274.0
40
99.0
50
270.0
51
450.0
0
ARC
8
BLACK
10
19421.0
20
44274.0
40
99.0
50
90.0
51
270.0
0
LINE
8
BLACK
10
21692.0
20
44270.0
11
21618.0
21
44344.0
0
LINE
8
BLACK
10
21552.0
20
44130.0
11
21478.0
21
44204.0
0
ARC
8
BLACK
10
21548.0
20
44274.0
40
99.0
50
405.0
51
585.0
0
ARC
8
BLACK
10
21622.0
20
44200.0
40
99.0
50
225.0
51
405.0
0
LINE
8
BLACK
10
21722.0
20
42269.0
11
21722.0
21
44199.0
0
LINE
8
BLACK
10
21524.0
20
42269.0
11
21524.0
21
44199.0
0
ARC
8
BLACK
10
21623.0
20
44199.0
40
99.0
50
360.0
51
540.0
0
ARC
8
BLACK
10
21623.0
20
42269.0
40
99.0
50
180.0
51
360.0
0
LINE
8
BLACK
10
21642.0
20
42148.0
11
21692.0
21
42198.0
0
LINE
8
BLACK
10
21502.0
20
42288.0
11
21552.0
21
42338.0
0
ARC
8
BLACK
10
21622.0
20
42268.0
40
99.0
50
315.0
51
495.0
0
ARC
8
BLACK
10
21572.0
20
42218.0
40
99.0
50
135.0
51
315.0
0
LINE
8
BLACK
10
19794.0
20
42118.0
11
21570.0
21
42118.0
0
LINE
8
BLACK
10
19794.0
20
42316.0
11
21570.0
21
42316.0
0
ARC
8
BLACK
10
21570.0
20
42217.0
40
99.0
50
270.0
51
450.0
0
ARC
8
BLACK
10
19794.0
20
42217.0
40
99.0
50
90.0
51
270.0
0
LINE
8
BLACK
10
19155.0
20
41439.0
11
19863.0
21
42147.0
0
LINE
8
BLACK
10
19015.0
20
41579.0
11
19723.0
21
42287.0
0
ARC
8
BLACK
10
19793.0
20
42217.0
40
99.0
50
315.0
51
495.0
0
ARC
8
BLACK
10
19085.0
20
41509.0
40
99.0
50
135.0
51
315.0
0
LINE
8
BLACK
10
19184.0
20
39880.0
11
19184.0
21
41508.0
0
LINE
8
BLACK
10
18986.0
20
39880.0
11
18986.0
21
41508.0
0
ARC
8
BLACK
10
19085.0
20
41508.0
40
99.0
50
360.0
51
540.0
0
ARC
8
BLACK
10
19085.0
20
39880.0
40
99.0
50
180.0
51
360.0
0
LINE
8
BLACK
10
19495.0
20
39609.0
11
19155.0
21
39949.0
0
LINE
8
BLACK
10
19355.0
20
39469.0
11
19015.0
21
39809.0
0
ARC
8
BLACK
10
19085.0
20
39879.0
40
99.0
50
405.0
51
585.0
0
ARC
8
BLACK
10
19425.0
20
39539.0
40
99.0
50
225.0
51
405.0
0
LINE
8
BLACK
10
19425.0
20
39440.0
11
31129.0
21
39440.0
0
LINE
8
BLACK
10
19425.0
20
39638.0
11
31129.0
21
39638.0
0
ARC
8
BLACK
10
31129.0
20
39539.0
40
99.0
50
270.0
51
450.0
0
ARC
8
BLACK
10
19425.0
20
39539.0
40
99.0
50
90.0
51
270.0
0
LINE
8
BLACK
10
44736.0
20
53286.0
11
31060.0
21
39610.0
0
LINE
8
BLACK
10
44876.0
20
53146.0
11
31200.0
21
39470.0
0
ARC
8
BLACK
10
31130.0
20
39540.0
40
99.0
50
135.0
51
315.0
0
ARC
8
BLACK
10
44806.0
20
53216.0
40
99.0
50
-45.0
51
135.0
0
LINE
8
BLACK
10
60470.0
20
30776.0
11
72360.0
21
42666.0
0
LINE
8
BLACK
10
60330.0
20
30916.0
11
72220.0
21
42806.0
0
ARC
8
BLACK
10
72290.0
20
42736.0
40
99.0
50
315.0
51
495.0
0
ARC
8
BLACK
10
60400.0
20
30846.0
40
99.0
50
135.0
51
315.0
0
LINE
8
BLACK
10
19964.0
20
30746.0
11
60398.0
21
30746.0
0
LINE
8
BLACK
10
19964.0
20
30944.0
11
60398.0
21
30944.0
0
ARC
8
BLACK
10
60398.0
20
30845.0
40
99.0
50
270.0
51
450.0
0
ARC
8
BLACK
10
19964.0
20
30845.0
40
99.0
50
90.0
51
270.0
0
LINE
8
BLACK
10
19489.0
20
31180.0
11
19893.0
21
30776.0
0
LINE
8
BLACK
10
19629.0
20
31320.0
11
20033.0
21
30916.0
0
ARC
8
BLACK
10
19963.0
20
30846.0
40
99.0
50
225.0
51
405.0
0
ARC
8
BLACK
10
19559.0
20
31250.0
40
99.0
50
45.0
51
225.0
0
LINE
8
BLACK
10
19658.0
20
31251.0
11
19658.0
21
32151.0
0
LINE
8
BLACK
10
19460.0
20
31251.0
11
19460.0
21
32151.0
0
ARC
8
BLACK
10
19559.0
20
32151.0
40
99.0
50
360.0
51
540.0
0
ARC
8
BLACK
10
19559.0
20
31251.0
40
99.0
50
180.0
51
360.0
0
LINE
8
BLACK
10
19901.0
20
32634.0
11
19489.0
21
32222.0
0
LINE
8
BLACK
10
20041.0
20
32494.0
11
19629.0
21
32082.0
0
ARC
8
BLACK
10
19559.0
20
32152.0
40
99.0
50
135.0
51
315.0
0
ARC
8
BLACK
10
19971.0
20
32564.0
40
99.0
50
-45.0
51
135.0
0
LINE
8
BLACK
10
47643.0
20
42807.0
11
45131.0
21
40295.0
0
LINE
8
BLACK
10
47783.0
20
42667.0
11
45271.0
21
40155.0
0
ARC
8
BLACK
10
45201.0
20
40225.0
40
99.0
50
135.0
51
315.0
0
ARC
8
BLACK
10
47713.0
20
42737.0
40
99.0
50
-45.0
51
135.0
0
LINE
8
BLACK
10
47713.0
20
42638.0
11
66291.0
21
42638.0
0
LINE
8
BLACK
10
47713.0
20
42836.0
11
66291.0
21
42836.0
0
ARC
8
BLACK
10
66291.0
20
42737.0
40
99.0
50
270.0
51
450.0
0
ARC
8
BLACK
10
47713.0
20
42737.0
40
99.0
50
90.0
51
270.0
0
LINE
8
BLACK
10
20800.0
20
59222.0
11
20042.0
21
59980.0
0
LINE
8
BLACK
10
20660.0
20
59082.0
11
19902.0
21
59840.0
0
ARC
8
BLACK
10
19972.0
20
59910.0
40
99.0
50
405.0
51
585.0
0
ARC
8
BLACK
10
20730.0
20
59152.0
40
99.0
50
225.0
51
405.0
0
LINE
8
BLACK
10
20731.0
20
59052.0
11
20811.0
21
59052.0
0
LINE
8
BLACK
10
20731.0
20
59250.0
11
20811.0
21
59250.0
0
ARC
8
BLACK
10
20811.0
20
59151.0
40
99.0
50
270.0
51
450.0
0
ARC
8
BLACK
10
20731.0
20
59151.0
40
99.0
50
90.0
51
270.0
0
LINE
8
BLACK
10
21211.0
20
59692.0
11
20741.0
21
59222.0
0
LINE
8
BLACK
10
21351.0
20
59552.0
11
20881.0
21
59082.0
0
ARC
8
BLACK
10
20811.0
20
59152.0
40
99.0
50
135.0
51
315.0
0
ARC
8
BLACK
10
21281.0
20
59622.0
40
99.0
50
-45.0
51
135.0
0
LINE
8
BLACK
10
21282.0
20
59523.0
11
26504.0
21
59523.0
0
LINE
8
BLACK
10
21282.0
20
59721.0
11
26504.0
21
59721.0
0
ARC
8
BLACK
10
26504.0
20
59622.0
40
99.0
50
270.0
51
450.0
0
ARC
8
BLACK
10
21282.0
20
59622.0
40
99.0
50
90.0
51
270.0
0
LINE
8
BLACK
10
27717.0
20
60975.0
11
26435.0
21
59693.0
0
LINE
8
BLACK
10
27857.0
20
60835.0
11
26575.0
21
59553.0
0
ARC
8
BLACK
10
26505.0
20
59623.0
40
99.0
50
135.0
51
315.0
0
ARC
8
BLACK
10
27787.0
20
60905.0
40
99.0
50
-45.0
51
135.0
0
LINE
8
BLACK
10
27788.0
20
60807.0
11
63126.0
21
60807.0
0
LINE
8
BLACK
10
27788.0
20
61005.0
11
63126.0
21
61005.0
0
ARC
8
BLACK
10
63126.0
20
60906.0
40
99.0
50
270.0
51
450.0
0
ARC
8
BLACK
10
27788.0
20
60906.0
40
99.0
50
90.0
51
270.0
0
LINE
8
BLACK
10
67054.0
20
57118.0
11
63196.0
21
60976.0
0
LINE
8
BLACK
10
66914.0
20
56978.0
11
63056.0
21
60836.0
0
ARC
8
BLACK
10
63126.0
20
60906.0
40
99.0
50
405.0
51
585.0
0
ARC
8
BLACK
10
66984.0
20
57048.0
40
99.0
50
225.0
51
405.0
0
LINE
8
BLACK
10
67084.0
20
54079.0
11
67084.0
21
57047.0
0
LINE
8
BLACK
10
66886.0
20
54079.0
11
66886.0
21
57047.0
0
ARC
8
BLACK
10
66985.0
20
57047.0
40
99.0
50
360.0
51
540.0
0
ARC
8
BLACK
10
66985.0
20
54079.0
40
99.0
50
180.0
51
360.0
0
LINE
8
BLACK
10
71783.0
20
49421.0
11
67055.0
21
54149.0
0
LINE
8
BLACK
10
71643.0
20
49281.0
11
66915.0
21
54009.0
0
ARC
8
BLACK
10
66985.0
20
54079.0
40
99.0
50
405.0
51
585.0
0
ARC
8
BLACK
10
71713.0
20
49351.0
40
99.0
50
225.0
51
405.0
0
LINE
8
BLACK
10
71713.0
20
49252.0
11
72633.0
21
49252.0
0
LINE
8
BLACK
10
71713.0
20
49450.0
11
72633.0
21
49450.0
0
ARC
8
BLACK
10
72633.0
20
49351.0
40
99.0
50
270.0
51
450.0
0
ARC
8
BLACK
10
71713.0
20
49351.0
40
99.0
50
90.0
51
270.0
0
LINE
8
BLACK
10
72619.0
20
49478.0
11
72563.0
21
49422.0
0
LINE
8
BLACK
10
72759.0
20
49338.0
11
72703.0
21
49282.0
0
ARC
8
BLACK
10
72633.0
20
49352.0
40
99.0
50
135.0
51
315.0
0
ARC
8
BLACK
10
72689.0
20
49408.0
40
99.0
50
-45.0
51
135.0
0
LINE
8
BLACK
10
72789.0
20
49408.0
11
72789.0
21
50338.0
0
LINE
8
BLACK
10
72591.0
20
49408.0
11
72591.0
21
50338.0
0
ARC
8
BLACK
10
72690.0
20
50338.0
40
99.0
50
360.0
51
540.0
0
ARC
8
BLACK
10
72690.0
20
49408.0
40
99.0
50
180.0
51
360.0
0
LINE
8
BLACK
10
72221.0
20
50667.0
11
72619.0
21
50269.0
0
LINE
8
BLACK
10
72361.0
20
50807.0
11
72759.0
21
50409.0
0
ARC
8
BLACK
10
72689.0
20
50339.0
40
99.0
50
225.0
51
405.0
0
ARC
8
BLACK
10
72291.0
20
50737.0
40
99.0
50
45.0
51
225.0
0
LINE
8
BLACK
10
19055.0
20
32508.0
11
20041.0
21
33494.0
0
LINE
8
BLACK
10
18915.0
20
32648.0
11
19901.0
21
33634.0
0
ARC
8
BLACK
10
19971.0
20
33564.0
40
99.0
50
315.0
51
495.0
0
ARC
8
BLACK
10
18985.0
20
32578.0
40
99.0
50
135.0
51
315.0
0
LINE
8
BLACK
10
19084.0
20
31127.0
11
19084.0
21
32577.0
0
LINE
8
BLACK
10
18886.0
20
31127.0
11
18886.0
21
32577.0
0
ARC
8
BLACK
10
18985.0
20
32577.0
40
99.0
50
360.0
51
540.0
0
ARC
8
BLACK
10
18985.0
20
31127.0
40
99.0
50
180.0
51
360.0
0
LINE
8
BLACK
10
19853.0
20
30399.0
11
19055.0
21
31197.0
0
LINE
8
BLACK
10
19713.0
20
30259.0
11
18915.0
21
31057.0
0
ARC
8
BLACK
10
18985.0
20
31127.0
40
99.0
50
405.0
51
585.0
0
ARC
8
BLACK
10
19783.0
20
30329.0
40
99.0
50
225.0
51
405.0
0
LINE
8
BLACK
10
19784.0
20
30229.0
11
61882.0
21
30229.0
0
LINE
8
BLACK
10
19784.0
20
30427.0
11
61882.0
21
30427.0
0
ARC
8
BLACK
10
61882.0
20
30328.0
40
99.0
50
270.0
51
450.0
0
ARC
8
BLACK
10
19784.0
20
30328.0
40
99.0
50
90.0
51
270.0
0
LINE
8
BLACK
10
72220.0
20
40807.0
11
61812.0
21
30399.0
0
LINE
8
BLACK
10
72360.0
20
40667.0
11
61952.0
21
30259.0
0
ARC
8
BLACK
10
61882.0
20
30329.0
40
99.0
50
135.0
51
315.0
0
ARC
8
BLACK
10
72290.0
20
40737.0
40
99.0
50
-45.0
51
135.0
0
LINE
8
BLACK
10
47713.0
20
43638.0
11
66291.0
21
43638.0
0
LINE
8
BLACK
10
47713.0
20
43836.0
11
66291.0
21
43836.0
0
ARC
8
BLACK
10
66291.0
20
43737.0
40
99.0
50
270.0
51
450.0
0
ARC
8
BLACK
10
47713.0
20
43737.0
40
99.0
50
90.0
51
270.0
0
LINE
8
BLACK
10
45271.0
20
41155.0
11
47783.0
21
43667.0
0
LINE
8
BLACK
10
45131.0
20
41295.0
11
47643.0
21
43807.0
0
ARC
8
BLACK
10
47713.0
20
43737.0
40
99.0
50
315.0
51
495.0
0
ARC
8
BLACK
10
45201.0
20
41225.0
40
99.0
50
135.0
51
315.0
0
LINE
8
BLACK
10
63949.0
20
44638.0
11
66291.0
21
44638.0
0
LINE
8
BLACK
10
63949.0
20
44836.0
11
66291.0
21
44836.0
0
ARC
8
BLACK
10
66291.0
20
44737.0
40
99.0
50
270.0
51
450.0
0
ARC
8
BLACK
10
63949.0
20
44737.0
40
99.0
50
90.0
51
270.0
0
LINE
8
BLACK
10
64019.0
20
44807.0
11
63881.0
21
44945.0
0
LINE
8
BLACK
10
63879.0
20
44667.0
11
63741.0
21
44805.0
0
ARC
8
BLACK
10
63811.0
20
44875.0
40
99.0
50
405.0
51
585.0
0
ARC
8
BLACK
10
63949.0
20
44737.0
40
99.0
50
225.0
51
405.0
0
LINE
8
BLACK
10
72220.0
20
38807.0
11
63154.0
21
29741.0
0
LINE
8
BLACK
10
72360.0
20
38667.0
11
63294.0
21
29601.0
0
ARC
8
BLACK
10
63224.0
20
29671.0
40
99.0
50
135.0
51
315.0
0
ARC
8
BLACK
10
72290.0
20
38737.0
40
99.0
50
-45.0
51
135.0
0
LINE
8
BLACK
10
19568.0
20
29571.0
11
63224.0
21
29571.0
0
LINE
8
BLACK
10
19568.0
20
29769.0
11
63224.0
21
29769.0
0
ARC
8
BLACK
10
63224.0
20
29670.0
40
99.0
50
270.0
51
450.0
0
ARC
8
BLACK
10
19568.0
20
29670.0
40
99.0
50
90.0
51
270.0
0
LINE
8
BLACK
10
19637.0
20
29741.0
11
18481.0
21
30897.0
0
LINE
8
BLACK
10
19497.0
20
29601.0
11
18341.0
21
30757.0
0
ARC
8
BLACK
10
18411.0
20
30827.0
40
99.0
50
405.0
51
585.0
0
ARC
8
BLACK
10
19567.0
20
29671.0
40
99.0
50
225.0
51
405.0
0
LINE
8
BLACK
10
18510.0
20
30828.0
11
18510.0
21
33340.0
0
LINE
8
BLACK
10
18312.0
20
30828.0
11
18312.0
21
33340.0
0
ARC
8
BLACK
10
18411.0
20
33340.0
40
99.0
50
360.0
51
540.0
0
ARC
8
BLACK
10
18411.0
20
30828.0
40
99.0
50
180.0
51
360.0
0
LINE
8
BLACK
10
18481.0
20
33270.0
11
19705.0
21
34494.0
0
LINE
8
BLACK
10
18341.0
20
33410.0
11
19565.0
21
34634.0
0
ARC
8
BLACK
10
19635.0
20
34564.0
40
99.0
50
315.0
51
495.0
0
ARC
8
BLACK
10
18411.0
20
33340.0
40
99.0
50
135.0
51
315.0
0
LINE
8
BLACK
10
19635.0
20
34465.0
11
19971.0
21
34465.0
0
LINE
8
BLACK
10
19635.0
20
34663.0
11
19971.0
21
34663.0
0
ARC
8
BLACK
10
19971.0
20
34564.0
40
99.0
50
270.0
51
450.0
0
ARC
8
BLACK
10
19635.0
20
34564.0
40
99.0
50
90.0
51
270.0
0
ARC
8
BLACK
10
20972.0
20
59911.0
40
99.0
50
360.0
51
540.0
0
ARC
8
BLACK
10
20972.0
20
59911.0
40
99.0
50
180.0
51
360.0
0
LINE
8
BLACK
10
20972.0
20
59812.0
11
26244.0
21
59812.0
0
LINE
8
BLACK
10
20972.0
20
60010.0
11
26244.0
21
60010.0
0
ARC
8
BLACK
10
26244.0
20
59911.0
40
99.0
50
270.0
51
450.0
0
ARC
8
BLACK
10
20972.0
20
59911.0
40
99.0
50
90.0
51
270.0
0
LINE
8
BLACK
10
27598.0
20
61406.0
11
26174.0
21
59982.0
0
LINE
8
BLACK
10
27738.0
20
61266.0
11
26314.0
21
59842.0
0
ARC
8
BLACK
10
26244.0
20
59912.0
40
99.0
50
135.0
51
315.0
0
ARC
8
BLACK
10
27668.0
20
61336.0
40
99.0
50
-45.0
51
135.0
0
LINE
8
BLACK
10
27669.0
20
61237.0
11
63041.0
21
61237.0
0
LINE
8
BLACK
10
27669.0
20
61435.0
11
63041.0
21
61435.0
0
ARC
8
BLACK
10
63041.0
20
61336.0
40
99.0
50
270.0
51
450.0
0
ARC
8
BLACK
10
27669.0
20
61336.0
40
99.0
50
90.0
51
270.0
0
LINE
8
BLACK
10
67709.0
20
56808.0
11
63111.0
21
61406.0
0
LINE
8
BLACK
10
67569.0
20
56668.0
11
62971.0
21
61266.0
0
ARC
8
BLACK
10
63041.0
20
61336.0
40
99.0
50
405.0
51
585.0
0
ARC
8
BLACK
10
67639.0
20
56738.0
40
99.0
50
225.0
51
405.0
0
LINE
8
BLACK
10
67739.0
20
54389.0
11
67739.0
21
56737.0
0
LINE
8
BLACK
10
67541.0
20
54389.0
11
67541.0
21
56737.0
0
ARC
8
BLACK
10
67640.0
20
56737.0
40
99.0
50
360.0
51
540.0
0
ARC
8
BLACK
10
67640.0
20
54389.0
40
99.0
50
180.0
51
360.0
0
LINE
8
BLACK
10
72360.0
20
49808.0
11
67710.0
21
54458.0
0
LINE
8
BLACK
10
72220.0
20
49668.0
11
67570.0
21
54318.0
0
ARC
8
BLACK
10
67640.0
20
54388.0
40
99.0
50
405.0
51
585.0
0
ARC
8
BLACK
10
72290.0
20
49738.0
40
99.0
50
225.0
51
405.0
0
LINE
8
BLACK
10
20042.0
20
53786.0
11
25312.0
21
59056.0
0
LINE
8
BLACK
10
19902.0
20
53926.0
11
25172.0
21
59196.0
0
ARC
8
BLACK
10
25242.0
20
59126.0
40
99.0
50
315.0
51
495.0
0
ARC
8
BLACK
10
19972.0
20
53856.0
40
99.0
50
135.0
51
315.0
0
LINE
8
BLACK
10
25243.0
20
59027.0
11
26441.0
21
59027.0
0
LINE
8
BLACK
10
25243.0
20
59225.0
11
26441.0
21
59225.0
0
ARC
8
BLACK
10
26441.0
20
59126.0
40
99.0
50
270.0
51
450.0
0
ARC
8
BLACK
10
25243.0
20
59126.0
40
99.0
50
90.0
51
270.0
0
LINE
8
BLACK
10
26511.0
20
59057.0
11
28081.0
21
60627.0
0
LINE
8
BLACK
10
26371.0
20
59197.0
11
27941.0
21
60767.0
0
ARC
8
BLACK
10
28011.0
20
60697.0
40
99.0
50
315.0
51
495.0
0
ARC
8
BLACK
10
26441.0
20
59127.0
40
99.0
50
135.0
51
315.0
0
LINE
8
BLACK
10
28012.0
20
60598.0
11
62330.0
21
60598.0
0
LINE
8
BLACK
10
28012.0
20
60796.0
11
62330.0
21
60796.0
0
ARC
8
BLACK
10
62330.0
20
60697.0
40
99.0
50
270.0
51
450.0
0
ARC
8
BLACK
10
28012.0
20
60697.0
40
99.0
50
90.0
51
270.0
0
LINE
8
BLACK
10
62261.0
20
60627.0
11
66221.0
21
56667.0
0
LINE
8
BLACK
10
62401.0
20
60767.0
11
66361.0
21
56807.0
0
ARC
8
BLACK
10
66291.0
20
56737.0
40
99.0
50
225.0
51
405.0
0
ARC
8
BLACK
10
62331.0
20
60697.0
40
99.0
50
45.0
51
225.0
0
LINE
8
BLACK
10
60848.0
20
60040.0
11
66220.0
21
54668.0
0
LINE
8
BLACK
10
60988.0
20
60180.0
11
66360.0
21
54808.0
0
ARC
8
BLACK
10
66290.0
20
54738.0
40
99.0
50
225.0
51
405.0
0
ARC
8
BLACK
10
60918.0
20
60110.0
40
99.0
50
45.0
51
225.0
0
LINE
8
BLACK
10
28827.0
20
60012.0
11
60917.0
21
60012.0
0
LINE
8
BLACK
10
28827.0
20
60210.0
11
60917.0
21
60210.0
0
ARC
8
BLACK
10
60917.0
20
60111.0
40
99.0
50
270.0
51
450.0
0
ARC
8
BLACK
10
28827.0
20
60111.0
40
99.0
50
90.0
51
270.0
0
LINE
8
BLACK
10
22141.0
20
53285.0
11
28897.0
21
60041.0
0
LINE
8
BLACK
10
22001.0
20
53425.0
11
28757.0
21
60181.0
0
ARC
8
BLACK
10
28827.0
20
60111.0
40
99.0
50
315.0
51
495.0
0
ARC
8
BLACK
10
22071.0
20
53355.0
40
99.0
50
135.0
51
315.0
0
LINE
8
BLACK
10
20472.0
20
53256.0
11
22070.0
21
53256.0
0
LINE
8
BLACK
10
20472.0
20
53454.0
11
22070.0
21
53454.0
0
ARC
8
BLACK
10
22070.0
20
53355.0
40
99.0
50
270.0
51
450.0
0
ARC
8
BLACK
10
20472.0
20
53355.0
40
99.0
50
90.0
51
270.0
0
LINE
8
BLACK
10
20042.0
20
52785.0
11
20542.0
21
53285.0
0
LINE
8
BLACK
10
19902.0
20
52925.0
11
20402.0
21
53425.0
0
ARC
8
BLACK
10
20472.0
20
53355.0
40
99.0
50
315.0
51
495.0
0
ARC
8
BLACK
10
19972.0
20
52855.0
40
99.0
50
135.0
51
315.0
0
LINE
8
BLACK
10
20042.0
20
50785.0
11
20542.0
21
51285.0
0
LINE
8
BLACK
10
19902.0
20
50925.0
11
20402.0
21
51425.0
0
ARC
8
BLACK
10
20472.0
20
51355.0
40
99.0
50
315.0
51
495.0
0
ARC
8
BLACK
10
19972.0
20
50855.0
40
99.0
50
135.0
51
315.0
0
LINE
8
BLACK
10
20472.0
20
51256.0
11
21730.0
21
51256.0
0
LINE
8
BLACK
10
20472.0
20
51454.0
11
21730.0
21
51454.0
0
ARC
8
BLACK
10
21730.0
20
51355.0
40
99.0
50
270.0
51
450.0
0
ARC
8
BLACK
10
20472.0
20
51355.0
40
99.0
50
90.0
51
270.0
0
LINE
8
BLACK
10
21800.0
20
51286.0
11
29540.0
21
59026.0
0
LINE
8
BLACK
10
21660.0
20
51426.0
11
29400.0
21
59166.0
0
ARC
8
BLACK
10
29470.0
20
59096.0
40
99.0
50
315.0
51
495.0
0
ARC
8
BLACK
10
21730.0
20
51356.0
40
99.0
50
135.0
51
315.0
0
LINE
8
BLACK
10
29471.0
20
58997.0
11
57931.0
21
58997.0
0
LINE
8
BLACK
10
29471.0
20
59195.0
11
57931.0
21
59195.0
0
ARC
8
BLACK
10
57931.0
20
59096.0
40
99.0
50
270.0
51
450.0
0
ARC
8
BLACK
10
29471.0
20
59096.0
40
99.0
50
90.0
51
270.0
0
LINE
8
BLACK
10
57862.0
20
59026.0
11
66220.0
21
50668.0
0
LINE
8
BLACK
10
58002.0
20
59166.0
11
66360.0
21
50808.0
0
ARC
8
BLACK
10
66290.0
20
50738.0
40
99.0
50
225.0
51
405.0
0
ARC
8
BLACK
10
57932.0
20
59096.0
40
99.0
50
45.0
51
225.0
0
LINE
8
BLACK
10
60673.0
20
45638.0
11
66291.0
21
45638.0
0
LINE
8
BLACK
10
60673.0
20
45836.0
11
66291.0
21
45836.0
0
ARC
8
BLACK
10
66291.0
20
45737.0
40
99.0
50
270.0
51
450.0
0
ARC
8
BLACK
10
60673.0
20
45737.0
40
99.0
50
90.0
51
270.0
0
LINE
8
BLACK
10
60603.0
20
45807.0
11
59741.0
21
44945.0
0
LINE
8
BLACK
10
60743.0
20
45667.0
11
59881.0
21
44805.0
0
ARC
8
BLACK
10
59811.0
20
44875.0
40
99.0
50
135.0
51
315.0
0
ARC
8
BLACK
10
60673.0
20
45737.0
40
99.0
50
-45.0
51
135.0
0
LINE
8
BLACK
10
78167.0
20
46375.0
11
77735.0
21
46807.0
0
LINE
8
BLACK
10
78027.0
20
46235.0
11
77595.0
21
46667.0
0
ARC
8
BLACK
10
77665.0
20
46737.0
40
99.0
50
405.0
51
585.0
0
ARC
8
BLACK
10
78097.0
20
46305.0
40
99.0
50
225.0
51
405.0
0
LINE
8
BLACK
10
78196.0
20
44351.0
11
78196.0
21
46305.0
0
LINE
8
BLACK
10
77998.0
20
44351.0
11
77998.0
21
46305.0
0
ARC
8
BLACK
10
78097.0
20
46305.0
40
99.0
50
360.0
51
540.0
0
ARC
8
BLACK
10
78097.0
20
44351.0
40
99.0
50
180.0
51
360.0
0
LINE
8
BLACK
10
78110.0
20
44225.0
11
78166.0
21
44281.0
0
LINE
8
BLACK
10
77970.0
20
44365.0
11
78026.0
21
44421.0
0
ARC
8
BLACK
10
78096.0
20
44351.0
40
99.0
50
315.0
51
495.0
0
ARC
8
BLACK
10
78040.0
20
44295.0
40
99.0
50
135.0
51
315.0
0
LINE
8
BLACK
10
71848.0
20
44195.0
11
78040.0
21
44195.0
0
LINE
8
BLACK
10
71848.0
20
44393.0
11
78040.0
21
44393.0
0
ARC
8
BLACK
10
78040.0
20
44294.0
40
99.0
50
270.0
51
450.0
0
ARC
8
BLACK
10
71848.0
20
44294.0
40
99.0
50
90.0
51
270.0
0
LINE
8
BLACK
10
66361.0
20
38668.0
11
71917.0
21
44224.0
0
LINE
8
BLACK
10
66221.0
20
38808.0
11
71777.0
21
44364.0
0
ARC
8
BLACK
10
71847.0
20
44294.0
40
99.0
50
315.0
51
495.0
0
ARC
8
BLACK
10
66291.0
20
38738.0
40
99.0
50
135.0
51
315.0
0
LINE
8
BLACK
10
77596.0
20
47666.0
11
78424.0
21
46838.0
0
LINE
8
BLACK
10
77736.0
20
47806.0
11
78564.0
21
46978.0
0
ARC
8
BLACK
10
78494.0
20
46908.0
40
99.0
50
225.0
51
405.0
0
ARC
8
BLACK
10
77666.0
20
47736.0
40
99.0
50
45.0
51
225.0
0
LINE
8
BLACK
10
78594.0
20
42879.0
11
78594.0
21
46907.0
0
LINE
8
BLACK
10
78396.0
20
42879.0
11
78396.0
21
46907.0
0
ARC
8
BLACK
10
78495.0
20
46907.0
40
99.0
50
360.0
51
540.0
0
ARC
8
BLACK
10
78495.0
20
42879.0
40
99.0
50
180.0
51
360.0
0
LINE
8
BLACK
10
78425.0
20
42949.0
11
77737.0
21
42261.0
0
LINE
8
BLACK
10
78565.0
20
42809.0
11
77877.0
21
42121.0
0
ARC
8
BLACK
10
77807.0
20
42191.0
40
99.0
50
135.0
51
315.0
0
ARC
8
BLACK
10
78495.0
20
42879.0
40
99.0
50
-45.0
51
135.0
0
LINE
8
BLACK
10
77290.0
20
42092.0
11
77806.0
21
42092.0
0
LINE
8
BLACK
10
77290.0
20
42290.0
11
77806.0
21
42290.0
0
ARC
8
BLACK
10
77806.0
20
42191.0
40
99.0
50
270.0
51
450.0
0
ARC
8
BLACK
10
77290.0
20
42191.0
40
99.0
50
90.0
51
270.0
0
LINE
8
BLACK
10
77219.0
20
42261.0
11
77163.0
21
42205.0
0
LINE
8
BLACK
10
77359.0
20
42121.0
11
77303.0
21
42065.0
0
ARC
8
BLACK
10
77233.0
20
42135.0
40
99.0
50
135.0
51
315.0
0
ARC
8
BLACK
10
77289.0
20
42191.0
40
99.0
50
-45.0
51
135.0
0
LINE
8
BLACK
10
77332.0
20
41618.0
11
77332.0
21
42134.0
0
LINE
8
BLACK
10
77134.0
20
41618.0
11
77134.0
21
42134.0
0
ARC
8
BLACK
10
77233.0
20
42134.0
40
99.0
50
360.0
51
540.0
0
ARC
8
BLACK
10
77233.0
20
41618.0
40
99.0
50
180.0
51
360.0
0
LINE
8
BLACK
10
77162.0
20
41687.0
11
76794.0
21
41319.0
0
LINE
8
BLACK
10
77302.0
20
41547.0
11
76934.0
21
41179.0
0
ARC
8
BLACK
10
76864.0
20
41249.0
40
99.0
50
135.0
51
315.0
0
ARC
8
BLACK
10
77232.0
20
41617.0
40
99.0
50
-45.0
51
135.0
0
LINE
8
BLACK
10
76407.0
20
41149.0
11
76863.0
21
41149.0
0
LINE
8
BLACK
10
76407.0
20
41347.0
11
76863.0
21
41347.0
0
ARC
8
BLACK
10
76863.0
20
41248.0
40
99.0
50
270.0
51
450.0
0
ARC
8
BLACK
10
76407.0
20
41248.0
40
99.0
50
90.0
51
270.0
0
LINE
8
BLACK
10
76336.0
20
41318.0
11
64248.0
21
29230.0
0
LINE
8
BLACK
10
76476.0
20
41178.0
11
64388.0
21
29090.0
0
ARC
8
BLACK
10
64318.0
20
29160.0
40
99.0
50
135.0
51
315.0
0
ARC
8
BLACK
10
76406.0
20
41248.0
40
99.0
50
-45.0
51
135.0
0
LINE
8
BLACK
10
19298.0
20
29060.0
11
64318.0
21
29060.0
0
LINE
8
BLACK
10
19298.0
20
29258.0
11
64318.0
21
29258.0
0
ARC
8
BLACK
10
64318.0
20
29159.0
40
99.0
50
270.0
51
450.0
0
ARC
8
BLACK
10
19298.0
20
29159.0
40
99.0
50
90.0
51
270.0
0
LINE
8
BLACK
10
19367.0
20
29230.0
11
17901.0
21
30696.0
0
LINE
8
BLACK
10
19227.0
20
29090.0
11
17761.0
21
30556.0
0
ARC
8
BLACK
10
17831.0
20
30626.0
40
99.0
50
405.0
51
585.0
0
ARC
8
BLACK
10
19297.0
20
29160.0
40
99.0
50
225.0
51
405.0
0
LINE
8
BLACK
10
17930.0
20
30626.0
11
17930.0
21
34014.0
0
LINE
8
BLACK
10
17732.0
20
30626.0
11
17732.0
21
34014.0
0
ARC
8
BLACK
10
17831.0
20
34014.0
40
99.0
50
360.0
51
540.0
0
ARC
8
BLACK
10
17831.0
20
30626.0
40
99.0
50
180.0
51
360.0
0
LINE
8
BLACK
10
17901.0
20
33945.0
11
20719.0
21
36763.0
0
LINE
8
BLACK
10
17761.0
20
34085.0
11
20579.0
21
36903.0
0
ARC
8
BLACK
10
20649.0
20
36833.0
40
99.0
50
315.0
51
495.0
0
ARC
8
BLACK
10
17831.0
20
34015.0
40
99.0
50
135.0
51
315.0
0
LINE
8
BLACK
10
20650.0
20
36734.0
11
62576.0
21
36734.0
0
LINE
8
BLACK
10
20650.0
20
36932.0
11
62576.0
21
36932.0
0
ARC
8
BLACK
10
62576.0
20
36833.0
40
99.0
50
270.0
51
450.0
0
ARC
8
BLACK
10
20650.0
20
36833.0
40
99.0
50
90.0
51
270.0
0
LINE
8
BLACK
10
62646.0
20
36763.0
11
65550.0
21
39667.0
0
LINE
8
BLACK
10
62506.0
20
36903.0
11
65410.0
21
39807.0
0
ARC
8
BLACK
10
65480.0
20
39737.0
40
99.0
50
315.0
51
495.0
0
ARC
8
BLACK
10
62576.0
20
36833.0
40
99.0
50
135.0
51
315.0
0
LINE
8
BLACK
10
65480.0
20
39638.0
11
66290.0
21
39638.0
0
LINE
8
BLACK
10
65480.0
20
39836.0
11
66290.0
21
39836.0
0
ARC
8
BLACK
10
66290.0
20
39737.0
40
99.0
50
270.0
51
450.0
0
ARC
8
BLACK
10
65480.0
20
39737.0
40
99.0
50
90.0
51
270.0
0
LINE
8
BLACK
10
44737.0
20
55287.0
11
44237.0
21
54787.0
0
LINE
8
BLACK
10
44877.0
20
55147.0
11
44377.0
21
54647.0
0
ARC
8
BLACK
10
44307.0
20
54717.0
40
99.0
50
135.0
51
315.0
0
ARC
8
BLACK
10
44807.0
20
55217.0
40
99.0
50
-45.0
51
135.0
0
LINE
8
BLACK
10
37282.0
20
54618.0
11
44306.0
21
54618.0
0
LINE
8
BLACK
10
37282.0
20
54816.0
11
44306.0
21
54816.0
0
ARC
8
BLACK
10
44306.0
20
54717.0
40
99.0
50
270.0
51
450.0
0
ARC
8
BLACK
10
37282.0
20
54717.0
40
99.0
50
90.0
51
270.0
0
LINE
8
BLACK
10
37211.0
20
54786.0
11
22695.0
21
40270.0
0
LINE
8
BLACK
10
37351.0
20
54646.0
11
22835.0
21
40130.0
0
ARC
8
BLACK
10
22765.0
20
40200.0
40
99.0
50
135.0
51
315.0
0
ARC
8
BLACK
10
37281.0
20
54716.0
40
99.0
50
-45.0
51
135.0
0
LINE
8
BLACK
10
20392.0
20
40100.0
11
22764.0
21
40100.0
0
LINE
8
BLACK
10
20392.0
20
40298.0
11
22764.0
21
40298.0
0
ARC
8
BLACK
10
22764.0
20
40199.0
40
99.0
50
270.0
51
450.0
0
ARC
8
BLACK
10
20392.0
20
40199.0
40
99.0
50
90.0
51
270.0
0
LINE
8
BLACK
10
20461.0
20
40270.0
11
20043.0
21
40688.0
0
LINE
8
BLACK
10
20321.0
20
40130.0
11
19903.0
21
40548.0
0
ARC
8
BLACK
10
19973.0
20
40618.0
40
99.0
50
405.0
51
585.0
0
ARC
8
BLACK
10
20391.0
20
40200.0
40
99.0
50
225.0
51
405.0
0
LINE
8
BLACK
10
45131.0
20
42295.0
11
44595.0
21
41759.0
0
LINE
8
BLACK
10
45271.0
20
42155.0
11
44735.0
21
41619.0
0
ARC
8
BLACK
10
44665.0
20
41689.0
40
99.0
50
135.0
51
315.0
0
ARC
8
BLACK
10
45201.0
20
42225.0
40
99.0
50
-45.0
51
135.0
0
LINE
8
BLACK
10
34219.0
20
41590.0
11
44665.0
21
41590.0
0
LINE
8
BLACK
10
34219.0
20
41788.0
11
44665.0
21
41788.0
0
ARC
8
BLACK
10
44665.0
20
41689.0
40
99.0
50
270.0
51
450.0
0
ARC
8
BLACK
10
34219.0
20
41689.0
40
99.0
50
90.0
51
270.0
0
LINE
8
BLACK
10
34148.0
20
41759.0
11
31712.0
21
39323.0
0
LINE
8
BLACK
10
34288.0
20
41619.0
11
31852.0
21
39183.0
0
ARC
8
BLACK
10
31782.0
20
39253.0
40
99.0
50
135.0
51
315.0
0
ARC
8
BLACK
10
34218.0
20
41689.0
40
99.0
50
-45.0
51
135.0
0
LINE
8
BLACK
10
19306.0
20
39153.0
11
31782.0
21
39153.0
0
LINE
8
BLACK
10
19306.0
20
39351.0
11
31782.0
21
39351.0
0
ARC
8
BLACK
10
31782.0
20
39252.0
40
99.0
50
270.0
51
450.0
0
ARC
8
BLACK
10
19306.0
20
39252.0
40
99.0
50
90.0
51
270.0
0
LINE
8
BLACK
10
19376.0
20
39322.0
11
18868.0
21
39830.0
0
LINE
8
BLACK
10
19236.0
20
39182.0
11
18728.0
21
39690.0
0
ARC
8
BLACK
10
18798.0
20
39760.0
40
99.0
50
405.0
51
585.0
0
ARC
8
BLACK
10
19306.0
20
39252.0
40
99.0
50
225.0
51
405.0
0
LINE
8
BLACK
10
18897.0
20
39761.0
11
18897.0
21
41639.0
0
LINE
8
BLACK
10
18699.0
20
39761.0
11
18699.0
21
41639.0
0
ARC
8
BLACK
10
18798.0
20
41639.0
40
99.0
50
360.0
51
540.0
0
ARC
8
BLACK
10
18798.0
20
39761.0
40
99.0
50
180.0
51
360.0
0
LINE
8
BLACK
10
18869.0
20
41570.0
11
19847.0
21
42548.0
0
LINE
8
BLACK
10
18729.0
20
41710.0
11
19707.0
21
42688.0
0
ARC
8
BLACK
10
19777.0
20
42618.0
40
99.0
50
315.0
51
495.0
0
ARC
8
BLACK
10
18799.0
20
41640.0
40
99.0
50
135.0
51
315.0
0
LINE
8
BLACK
10
19778.0
20
42520.0
11
19972.0
21
42520.0
0
LINE
8
BLACK
10
19778.0
20
42718.0
11
19972.0
21
42718.0
0
ARC
8
BLACK
10
19972.0
20
42619.0
40
99.0
50
270.0
51
450.0
0
ARC
8
BLACK
10
19778.0
20
42619.0
40
99.0
50
90.0
51
270.0
0
LINE
8
BLACK
10
21042.0
20
60980.0
11
20542.0
21
61480.0
0
LINE
8
BLACK
10
20902.0
20
60840.0
11
20402.0
21
61340.0
0
ARC
8
BLACK
10
20472.0
20
61410.0
40
99.0
50
405.0
51
585.0
0
ARC
8
BLACK
10
20972.0
20
60910.0
40
99.0
50
225.0
51
405.0
0
LINE
8
BLACK
10
19803.0
20
61311.0
11
20471.0
21
61311.0
0
LINE
8
BLACK
10
19803.0
20
61509.0
11
20471.0
21
61509.0
0
ARC
8
BLACK
10
20471.0
20
61410.0
40
99.0
50
270.0
51
450.0
0
ARC
8
BLACK
10
19803.0
20
61410.0
40
99.0
50
90.0
51
270.0
0
LINE
8
BLACK
10
19872.0
20
61481.0
11
19324.0
21
62029.0
0
LINE
8
BLACK
10
19732.0
20
61341.0
11
19184.0
21
61889.0
0
ARC
8
BLACK
10
19254.0
20
61959.0
40
99.0
50
405.0
51
585.0
0
ARC
8
BLACK
10
19802.0
20
61411.0
40
99.0
50
225.0
51
405.0
0
LINE
8
BLACK
10
19352.0
20
61961.0
11
19352.0
21
63403.0
0
LINE
8
BLACK
10
19154.0
20
61961.0
11
19154.0
21
63403.0
0
ARC
8
BLACK
10
19253.0
20
63403.0
40
99.0
50
360.0
51
540.0
0
ARC
8
BLACK
10
19253.0
20
61961.0
40
99.0
50
180.0
51
360.0
0
LINE
8
BLACK
10
19323.0
20
63334.0
11
19547.0
21
63558.0
0
LINE
8
BLACK
10
19183.0
20
63474.0
11
19407.0
21
63698.0
0
ARC
8
BLACK
10
19477.0
20
63628.0
40
99.0
50
315.0
51
495.0
0
ARC
8
BLACK
10
19253.0
20
63404.0
40
99.0
50
135.0
51
315.0
0
LINE
8
BLACK
10
19478.0
20
63529.0
11
66748.0
21
63529.0
0
LINE
8
BLACK
10
19478.0
20
63727.0
11
66748.0
21
63727.0
0
ARC
8
BLACK
10
66748.0
20
63628.0
40
99.0
50
270.0
51
450.0
0
ARC
8
BLACK
10
19478.0
20
63628.0
40
99.0
50
90.0
51
270.0
0
LINE
8
BLACK
10
66678.0
20
63558.0
11
73496.0
21
56740.0
0
LINE
8
BLACK
10
66818.0
20
63698.0
11
73636.0
21
56880.0
0
ARC
8
BLACK
10
73566.0
20
56810.0
40
99.0
50
225.0
51
405.0
0
ARC
8
BLACK
10
66748.0
20
63628.0
40
99.0
50
45.0
51
225.0
0
LINE
8
BLACK
10
73665.0
20
53012.0
11
73665.0
21
56810.0
0
LINE
8
BLACK
10
73467.0
20
53012.0
11
73467.0
21
56810.0
0
ARC
8
BLACK
10
73566.0
20
56810.0
40
99.0
50
360.0
51
540.0
0
ARC
8
BLACK
10
73566.0
20
53012.0
40
99.0
50
180.0
51
360.0
0
LINE
8
BLACK
10
73495.0
20
53082.0
11
72221.0
21
51808.0
0
LINE
8
BLACK
10
73635.0
20
52942.0
11
72361.0
21
51668.0
0
ARC
8
BLACK
10
72291.0
20
51738.0
40
99.0
50
135.0
51
315.0
0
ARC
8
BLACK
10
73565.0
20
53012.0
40
99.0
50
-45.0
51
135.0
0
LINE
8
BLACK
10
20542.0
20
60480.0
11
20042.0
21
60980.0
0
LINE
8
BLACK
10
20402.0
20
60340.0
11
19902.0
21
60840.0
0
ARC
8
BLACK
10
19972.0
20
60910.0
40
99.0
50
405.0
51
585.0
0
ARC
8
BLACK
10
20472.0
20
60410.0
40
99.0
50
225.0
51
405.0
0
LINE
8
BLACK
10
20472.0
20
60311.0
11
25758.0
21
60311.0
0
LINE
8
BLACK
10
20472.0
20
60509.0
11
25758.0
21
60509.0
0
ARC
8
BLACK
10
25758.0
20
60410.0
40
99.0
50
270.0
51
450.0
0
ARC
8
BLACK
10
20472.0
20
60410.0
40
99.0
50
90.0
51
270.0
0
LINE
8
BLACK
10
26900.0
20
61693.0
11
25688.0
21
60481.0
0
LINE
8
BLACK
10
27040.0
20
61553.0
11
25828.0
21
60341.0
0
ARC
8
BLACK
10
25758.0
20
60411.0
40
99.0
50
135.0
51
315.0
0
ARC
8
BLACK
10
26970.0
20
61623.0
40
99.0
50
-45.0
51
135.0
0
LINE
8
BLACK
10
26971.0
20
61524.0
11
63405.0
21
61524.0
0
LINE
8
BLACK
10
26971.0
20
61722.0
11
63405.0
21
61722.0
0
ARC
8
BLACK
10
63405.0
20
61623.0
40
99.0
50
270.0
51
450.0
0
ARC
8
BLACK
10
26971.0
20
61623.0
40
99.0
50
90.0
51
270.0
0
LINE
8
BLACK
10
72361.0
20
52807.0
11
63475.0
21
61693.0
0
LINE
8
BLACK
10
72221.0
20
52667.0
11
63335.0
21
61553.0
0
ARC
8
BLACK
10
63405.0
20
61623.0
40
99.0
50
405.0
51
585.0
0
ARC
8
BLACK
10
72291.0
20
52737.0
40
99.0
50
225.0
51
405.0
0
LINE
8
BLACK
10
20972.0
20
61811.0
11
64118.0
21
61811.0
0
LINE
8
BLACK
10
20972.0
20
62009.0
11
64118.0
21
62009.0
0
ARC
8
BLACK
10
64118.0
20
61910.0
40
99.0
50
270.0
51
450.0
0
ARC
8
BLACK
10
20972.0
20
61910.0
40
99.0
50
90.0
51
270.0
0
LINE
8
BLACK
10
72360.0
20
53808.0
11
64188.0
21
61980.0
0
LINE
8
BLACK
10
72220.0
20
53668.0
11
64048.0
21
61840.0
0
ARC
8
BLACK
10
64118.0
20
61910.0
40
99.0
50
405.0
51
585.0
0
ARC
8
BLACK
10
72290.0
20
53738.0
40
99.0
50
225.0
51
405.0
0
LINE
8
BLACK
10
72750.0
20
56336.0
11
72222.0
21
55808.0
0
LINE
8
BLACK
10
72890.0
20
56196.0
11
72362.0
21
55668.0
0
ARC
8
BLACK
10
72292.0
20
55738.0
40
99.0
50
135.0
51
315.0
0
ARC
8
BLACK
10
72820.0
20
56266.0
40
99.0
50
-45.0
51
135.0
0
LINE
8
BLACK
10
72920.0
20
56268.0
11
72920.0
21
56742.0
0
LINE
8
BLACK
10
72722.0
20
56268.0
11
72722.0
21
56742.0
0
ARC
8
BLACK
10
72821.0
20
56742.0
40
99.0
50
360.0
51
540.0
0
ARC
8
BLACK
10
72821.0
20
56268.0
40
99.0
50
180.0
51
360.0
0
LINE
8
BLACK
10
66583.0
20
62840.0
11
72751.0
21
56672.0
0
LINE
8
BLACK
10
66723.0
20
62980.0
11
72891.0
21
56812.0
0
ARC
8
BLACK
10
72821.0
20
56742.0
40
99.0
50
225.0
51
405.0
0
ARC
8
BLACK
10
66653.0
20
62910.0
40
99.0
50
45.0
51
225.0
0
LINE
8
BLACK
10
20972.0
20
62811.0
11
66652.0
21
62811.0
0
LINE
8
BLACK
10
20972.0
20
63009.0
11
66652.0
21
63009.0
0
ARC
8
BLACK
10
66652.0
20
62910.0
40
99.0
50
270.0
51
450.0
0
ARC
8
BLACK
10
20972.0
20
62910.0
40
99.0
50
90.0
51
270.0
0
ENDSEC
0
EOF
