<?xml version="1.0" encoding="UTF-8" standalone="no"?>
<!-- Created with Inkscape (http://www.inkscape.org/) -->

<svg
   xmlns:dc="http://purl.org/dc/elements/1.1/"
   xmlns:cc="http://creativecommons.org/ns#"
   xmlns:rdf="http://www.w3.org/1999/02/22-rdf-syntax-ns#"
   xmlns:svg="http://www.w3.org/2000/svg"
   xmlns="http://www.w3.org/2000/svg"
   xmlns:sodipodi="http://sodipodi.sourceforge.net/DTD/sodipodi-0.dtd"
   xmlns:inkscape="http://www.inkscape.org/namespaces/inkscape"
   width="210mm"
   height="297mm"
   id="svg2"
   version="1.1"
   inkscape:version="0.48.2 r9819"
   sodipodi:docname="Unterschriften.svg">
  <defs
     id="defs4" />
  <sodipodi:namedview
     id="base"
     pagecolor="#ffffff"
     bordercolor="#666666"
     borderopacity="1.0"
     inkscape:pageopacity="0.0"
     inkscape:pageshadow="2"
     inkscape:zoom="0.70735467"
     inkscape:cx="367.36499"
     inkscape:cy="535.83737"
     inkscape:document-units="px"
     inkscape:current-layer="layer1"
     showgrid="false"
     inkscape:window-width="1029"
     inkscape:window-height="455"
     inkscape:window-x="101"
     inkscape:window-y="224"
     inkscape:window-maximized="1" />
  <metadata
     id="metadata7">
    <rdf:RDF>
      <cc:Work
         rdf:about="">
        <dc:format>image/svg+xml</dc:format>
        <dc:type
           rdf:resource="http://purl.org/dc/dcmitype/StillImage" />
        <dc:title></dc:title>
      </cc:Work>
    </rdf:RDF>
  </metadata>
  <g
     inkscape:label="Ebene 1"
     inkscape:groupmode="layer"
     id="layer1">
    <path
       style="fill:#000080;fill-opacity:1;fill-rule:nonzero;stroke:none"
       id="path3043"
       d="m 24.541757,454.14956 c 27.952777,-6.94037 56.462052,-14.87555 86.355103,-15.96638 10.9722,-0.40039 25.13307,0.14208 34.24763,5.78954 3.40238,2.10814 4.79455,5.48277 7.19183,8.22416 0.52154,3.57802 1.77167,7.1392 1.56461,10.73405 -0.48696,8.45431 -4.99495,18.13079 -9.07145,25.85709 -7.59134,14.38807 -17.75784,27.81318 -28.0821,41.22462 -18.93834,19.92754 -37.483667,42.99109 -55.961001,53.91033 -8.765562,6.17975 -20.809618,11.82555 -33.185198,10.95764 -6.645955,-0.46608 -6.545166,-6.46932 -5.567137,-9.7936 0.608015,-2.0666 1.844222,-4.00882 2.766334,-6.01322 8.68328,-14.20981 21.982401,-26.62009 37.480358,-37.27147 3.457397,-2.37619 7.151411,-4.56417 10.727117,-6.84626 16.264806,-9.80637 34.566607,-17.22294 53.065757,-24.61295 5.41703,-2.16398 14.27471,-4.81071 20.26316,-6.20455 2.92695,-0.68126 5.94373,-1.13942 8.9156,-1.70913 8.85979,-1.59544 17.5945,-1.12845 26.45157,-0.0422 l -20.30517,10.36781 0,0 c -8.50317,-0.85423 -16.88666,-1.24455 -25.32662,0.36293 -8.41848,1.69952 -9.69976,1.74382 -18.04699,4.37706 -3.4554,1.09005 -6.68716,4.56992 -10.18614,3.55576 -3.24823,-0.94149 11.61466,-5.59477 9.01729,-3.89455 -6.79526,4.44815 -16.36842,6.28679 -22.430271,11.48727 -3.59394,2.24187 -7.30927,4.38512 -10.78182,6.72561 -15.260284,10.28537 -30.228385,26.99162 -36.820101,36.20867 -26.817648,37.49853 39.492812,-21.32632 50.078921,-35.13349 10.433311,-13.35344 20.413721,-26.42078 27.927411,-40.83523 3.95667,-7.59055 8.08208,-16.64665 8.59504,-24.91481 0.20667,-3.33146 -0.89244,-6.63813 -1.33866,-9.9572 -2.0634,-2.52299 -3.1993,-5.59518 -6.19021,-7.56897 -8.28105,-5.46489 -21.22753,-6.27127 -31.535001,-6.0128 -29.95814,0.75122 -58.769852,9.01703 -86.4081723,16.5255 l 16.5883103,-9.53121 z"
       inkscape:connector-curvature="0"
       inkscape:export-filename="C:\Users\JoeD\Unterschrift.png"
       inkscape:export-xdpi="90"
       inkscape:export-ydpi="90"
       sodipodi:nodetypes="csscssccsscscsscccccssscsscsscssccc" />
    <path
       style="fill:#000080;fill-opacity:1;fill-rule:nonzero;stroke:none"
       id="path3079"
       d="m 152.24918,522.99517 c 2.93405,3.66319 6.70972,6.87984 10.76186,9.90427 0,0 -21.73007,9.53404 -21.73007,9.53404 l 0,0 c -3.70741,-3.34042 -7.48637,-6.63946 -10.96852,-10.10842 0,0 21.93673,-9.32989 21.93673,-9.32989 z"
       inkscape:connector-curvature="0"
       inkscape:export-filename="C:\Users\JoeD\Unterschrift.png"
       inkscape:export-xdpi="90"
       inkscape:export-ydpi="90" />
    <path
       style="fill:#000080;fill-opacity:1;fill-rule:nonzero;stroke:none"
       id="path3081"
       d="m 247.53791,458.91735 c -3.33966,8.27261 -7.02143,16.37541 -10.64709,24.50472 -4.34305,9.69494 -8.85169,19.29535 -13.59146,28.77152 -3.42212,6.89008 -7.15217,13.59917 -11.7724,19.63534 -7.19294,8.74335 -15.9568,12.35884 -26.05668,18.43824 -1.25922,0.75796 -2.18509,0.63793 -3.55274,0.70783 -4.07575,-0.56617 -6.42057,-3.56517 -8.49245,-7.07598 -2.40295,-4.68354 -2.75599,-9.79553 -2.36331,-15.01629 0.71202,-5.2246 2.80518,-9.77896 6.26186,-13.47481 11.41132,-9.19017 19.96503,-17.13382 32.67908,-12.39099 5.25004,2.54867 9.40324,6.99524 13.48884,11.25403 4.78983,5.01645 9.92266,8.88121 16.21802,11.29985 7.11369,2.19535 12.57032,1.98623 19.27914,-1.35534 -5.31992,3.18154 -10.51775,6.61276 -15.95976,9.54463 -0.96654,0.52072 1.71197,-1.43445 2.46203,-2.27278 0.82542,-0.92257 1.59104,-1.91765 2.24491,-2.98812 2.66351,-4.36053 3.45765,-9.05568 4.3019,-14.09406 1.76699,-14.30345 -0.57927,-28.03904 -4.71671,-41.59077 -2.61661,-6.92211 -6.23264,-13.71351 -12.32174,-17.73356 -1.14686,-0.75716 -2.33026,-1.64346 -3.66545,-1.8176 -1.70556,-0.22244 -3.41074,0.44819 -5.1161,0.67228 0,0 17.12519,-13.53804 17.12519,-13.53804 l 0,0 c 1.98931,0.0436 4.02788,-0.34549 5.96791,0.13075 1.42647,0.35016 2.64501,1.37848 3.84633,2.27842 6.15229,4.60884 9.90116,11.74027 12.61088,19.07277 4.13436,13.70939 6.65306,27.9509 5.3539,42.43044 -0.22345,1.97204 -0.32859,3.96389 -0.67035,5.91613 -2.98317,17.04091 -14.19757,19.83618 -28.53581,28.45545 -6.8978,2.52088 -13.24182,2.51881 -20.17212,-0.0852 -6.3531,-2.73092 -11.86235,-6.87992 -16.7638,-12.03267 -3.92365,-3.96895 -7.88048,-8.21017 -13.0314,-10.24428 -2.27919,-0.58564 -4.53078,-1.04723 -6.89093,-0.67636 -0.75511,0.11867 -2.86379,1.03897 -2.22194,0.59414 12.46672,-8.6399 23.18731,-13.83615 14.81835,-9.71122 -3.91445,3.1093 -5.88768,6.76038 -6.98963,11.87953 -0.60619,4.67789 -0.43733,9.31301 1.74818,13.53825 1.72711,2.81561 3.67628,5.26614 7.12452,4.76181 6.85365,-2.23322 18.34414,-10.74968 -13.95656,9.44352 -0.64989,0.40629 1.2961,-0.82421 1.90394,-1.30012 1.79938,-1.40884 2.39615,-2.18571 4.00277,-3.90231 4.94783,-5.76467 8.70355,-12.49157 12.2689,-19.31184 4.81261,-9.43137 9.38854,-18.98988 13.70929,-28.69511 3.49784,-7.93844 7.22742,-15.79836 9.99375,-24.07781 0,0 20.07874,-9.94435 20.07874,-9.94435 z"
       inkscape:connector-curvature="0"
       inkscape:export-filename="C:\Users\JoeD\Unterschrift.png"
       inkscape:export-xdpi="90"
       inkscape:export-ydpi="90" />
    <path
       style="fill:#000080;fill-opacity:1;fill-rule:nonzero;stroke:none"
       id="path3083"
       d="m 254.579,526.79248 c 8.55668,-0.78972 16.54372,-3.17514 24.09785,-6.09556 -33.24451,14.03935 -15.71563,6.92548 -9.17074,2.82821 3.28069,-2.05379 6.23211,-4.35967 9.08865,-6.71464 3.19583,-2.94132 8.41865,-5.01069 9.06578,-9.13337 1.02359,-6.52097 -0.3718,-1.11562 23.57997,-7.34256 0.52294,-0.13595 -0.56296,0.69603 -0.88073,1.02673 -1.6069,1.67264 -3.30823,3.30804 -4.9333,4.97308 -4.2252,4.06419 -7.44435,8.57608 -9.56903,13.41771 -1.06156,3.19231 -0.81175,6.57257 3.10592,8.58516 4.15622,1.43801 8.68968,0.37809 12.62515,-0.93912 9.20765,-3.95848 -2.31842,1.00655 -17.31797,7.18312 -0.80096,0.32983 1.57666,-0.6916 2.3471,-1.05773 2.26097,-1.07447 4.35863,-2.28223 6.44864,-3.52148 3.9943,-2.39409 7.63154,-5.05268 10.8649,-7.98641 2.82273,-2.7463 5.22396,-5.6689 6.68258,-8.93287 0.36397,-1.18096 1.5549,-4.19678 -0.89788,-4.64455 -0.22297,0.0327 -0.46244,0.0288 -0.66882,0.0982 -0.72599,0.24425 -1.35903,0.61343 -2.04482,0.9127 -0.52257,0.22802 -2.08189,0.92122 -1.55047,0.70424 20.39585,-8.32825 26.13039,-11.81863 18.19122,-7.15865 -4.43433,2.57799 -6.86876,6.10369 -8.51282,9.96036 -1.09291,3.9762 -0.36203,7.15742 4.11998,9.74435 4.37671,1.92498 8.95019,1.84369 13.61525,0.62697 0.80124,-0.26359 1.60939,-0.51629 2.40371,-0.79078 1.57205,-0.54328 3.85036,-1.40402 5.37399,-1.97998 0.99009,-0.3743 3.93113,-1.53631 2.96622,-1.12877 -6.16048,2.60194 -24.69344,10.34234 -18.55519,7.71294 8.30461,-3.55736 16.70309,-6.99802 25.05454,-10.49703 -34.57332,14.74352 -17.37246,7.46488 -10.28202,3.66886 4.17134,-2.23321 7.99578,-4.73352 11.82603,-7.26047 7.66585,-4.99781 14.18494,-10.81041 20.75078,-16.54886 5.81772,-5.39146 11.69288,-10.74517 17.22999,-16.29118 4.09952,-3.75618 6.80348,-7.97319 8.18704,-12.63121 0.12015,-0.2565 1.16871,-4.41681 -0.5198,-4.15954 -0.33944,0.0517 -0.52423,0.33399 -0.8219,0.46321 -0.52856,0.22943 -1.0977,0.40554 -1.64664,0.6083 -8.76771,4.63424 3.05501,-1.71507 16.57352,-6.39392 1.32584,-0.45889 -2.18295,1.42807 -3.22736,2.17777 -4.03146,2.89401 -7.60499,6.03027 -11.14089,9.23967 -7.76479,7.08581 -13.38665,15.19533 -18.00329,23.56167 -2.59082,5.23935 -4.38621,10.6743 -4.14986,16.25742 0.23901,3.24934 2.79691,5.52204 5.66067,7.80923 2.16498,1.63293 4.21773,2.86705 7.29451,3.35835 4.14663,-0.31575 8.00648,-1.59548 11.47747,-3.21602 -36.80625,15.49619 -18.52697,8.06761 -10.89127,3.92455 0.4393,-0.23836 5.60397,-3.24733 5.90753,-3.42391 6.72076,-3.84604 13.22629,-7.88601 19.77516,-11.88452 9.63488,-5.43985 23.52796,-16.63894 34.81132,-13.72796 0.44392,0.27807 1.01112,0.47783 1.33165,0.8342 2.68082,2.98115 -1.64259,7.12084 -3.57593,9.5993 -4.79369,5.18613 -9.32789,10.49202 -13.61939,15.90436 -1.32353,1.79503 -2.96714,3.49022 -3.9587,5.40858 -0.1954,0.37817 -0.74518,1.38108 -0.24907,1.19815 0.24612,-0.0907 0.36572,-0.30019 0.54857,-0.45029 0.45176,-0.22989 0.88755,-0.47719 1.35517,-0.68968 1.76956,-0.80406 7.20533,-3.06314 5.38237,-2.32459 -21.9394,8.88849 -23.13236,9.86021 -13.94601,5.50692 1.38283,-0.65531 2.75403,-1.3235 4.13105,-1.98525 6.29815,-3.14966 12.39582,-6.49901 18.97586,-9.33678 7.96232,-3.26139 15.89973,-6.55487 23.88685,-9.78415 2.36932,-0.95795 4.14156,-0.0644 3.93334,2.00386 -0.0396,0.38871 -0.42279,0.71656 -0.63414,1.07485 -2.38288,2.78977 -5.00634,5.48145 -6.8861,8.47785 -0.0387,0.15218 -0.46245,1.01224 0.0738,1.21458 0.78612,0.2965 6.50738,-1.40968 7.12972,-1.59859 7.67968,-2.14546 14.99217,-4.86683 22.41559,-7.4215 2.1375,-0.56917 7.6985,-4.336 10.09078,-2.29601 0.44087,0.37594 0.64705,0.86852 0.97054,1.30279 0.76629,2.99527 0.0267,4.68437 3.47689,6.90636 7.24489,2.54497 15.88931,0.7839 23.38355,-0.307 9.70265,-1.4241 19.10818,-3.63192 28.60142,-5.62144 4.09167,-1.45287 8.8186,-1.65584 12.981,-2.90078 -17.12561,9.92031 -13.63848,9.86919 -24.14163,11.14521 -2.52571,0.30685 -4.43249,0.61841 -6.78014,1.41308 -10.20955,4.3388 7.85027,-3.34518 17.00361,-7.00879 0.74932,-0.29991 -1.41538,0.70102 -2.07775,1.09419 -1.26783,0.75253 -2.37605,1.56872 -3.09125,2.6383 1.2174,1.23606 8.37432,-0.84538 9.84964,-1.21221 1.02181,-0.36052 2.0521,-0.70863 3.06552,-1.08157 1.09513,-0.40303 2.17678,-0.82507 3.25909,-1.24604 1.12997,-0.43955 2.25165,-0.8903 3.37748,-1.33545 -6.19643,2.56364 -12.34584,5.18816 -18.5894,7.69091 -0.952,0.38159 1.8261,-0.85893 2.70507,-1.32364 0.76343,-0.40359 1.47901,-0.85285 2.21846,-1.27929 8.26145,-5.69819 1.93288,-2.6719 25.79317,-8.348 0.54968,-0.13075 -0.54544,0.74065 -0.79774,1.11842 -0.24159,0.36178 -0.45553,0.73295 -0.68329,1.09943 -1.52124,3.18586 -0.35604,4.66287 4.12551,5.457 7.47644,0.57827 14.87294,-1.71003 21.73727,-3.62053 3.4792,-0.93502 6.91662,-1.96887 10.30821,-3.06092 1.73342,-0.55813 2.97249,-1.33035 4.8611,-1.0746 0.35788,0.41035 0.85685,0.7716 1.07382,1.23105 0.82706,1.75153 -2.36489,4.1168 -3.63623,5.47915 -1.82656,2.54921 -3.49755,3.90858 1.70161,3.14323 9.38921,-1.33856 18.41087,-3.81516 27.2872,-6.36138 1.9089,-0.43915 13.09664,-4.96025 14.67892,-3.84835 0.53354,0.37491 0.71133,0.9463 1.06699,1.41945 -0.0452,0.4288 0.0507,0.87814 -0.13564,1.28639 -0.21246,0.46591 -1.65651,1.68353 -2.02813,2.04216 -1.06764,1.03018 -1.71148,1.85689 -2.10098,3.10669 0.84937,2.98487 9.02267,1.06749 11.62593,0.62578 5.58608,-0.64918 11.1882,-3.49773 16.90568,-2.25417 4.00721,2.59633 5.46298,3.69307 10.83991,4.69544 5.08472,0.90287 7.53888,0.39918 12.63604,-0.50454 l -19.75432,10.87079 0,0 c -5.55814,0.7012 -8.47272,1.15681 -13.87363,0.0613 -2.72259,-0.6292 -5.03769,-1.24338 -7.30825,-2.53448 -1.11061,-0.63153 -1.35239,-1.02865 -2.53936,-1.55602 -0.33104,-0.14709 -0.71465,-0.21998 -1.07197,-0.32996 -5.52033,-0.0627 -10.58089,2.12928 -16.00154,2.63811 -5.45467,0.67831 -12.50002,1.42587 -14.46185,-3.41487 0.009,-0.48917 -0.0682,-0.98334 0.0277,-1.46752 0.26935,-1.3515 2.24206,-4.33136 4.39782,-4.35376 0.27995,0.22675 0.74969,0.38289 0.83978,0.68024 0.0194,0.0649 -1.20522,0.30585 -2.26899,0.60433 -3.7444,1.05064 -7.34615,2.34807 -11.0899,3.40057 -9.19825,2.51432 -18.52614,5.2537 -28.34655,6.09352 -0.91586,-0.0995 -1.87921,-0.0649 -2.74748,-0.29855 -3.87037,-1.04147 -3.32668,-4.12791 -1.75297,-6.23896 1.7822,-2.19929 0.13942,-0.25702 2.02933,-2.26719 0.9568,-1.01778 1.83799,-2.37132 3.19859,-0.78246 -1.16502,0.57188 -2.70433,0.92525 -3.97668,1.30905 -3.3679,1.0159 -6.74594,2.01808 -10.18474,2.90228 -7.35371,1.91075 -15.22722,4.14672 -23.107,2.75617 -5.13507,-1.67613 -7.54284,-3.73532 -6.21571,-7.94539 0.10162,-0.26752 0.66854,-2.1462 1.27069,-2.36539 45.02529,-16.39121 28.07562,-11.27276 21.2597,-6.32589 -11.32799,7.50814 -25.79289,12.26946 -39.71225,16.78511 -4.48008,0.89834 -10.6103,2.17899 -12.87561,-1.79857 0,-0.44268 -0.16994,-0.90023 -0.0129,-1.32803 0.51889,-1.41571 2.92076,-3.24995 4.57146,-3.9766 21.03277,-9.25928 16.10325,-7.54767 26.78234,-11.09317 2.43451,-0.53733 4.82394,-0.99285 7.38026,-1.09888 1.12362,-0.0466 4.22096,-0.26467 3.35739,0.25916 -6.51983,3.95473 -13.55024,7.44361 -20.32531,11.16542 -4.27804,0.61536 -8.37091,1.7207 -12.54594,2.61285 -9.42648,1.94234 -18.82962,3.94483 -28.45167,5.33536 -8.34546,1.11897 -17.67529,2.75469 -25.27834,-0.8702 -3.05161,-2.24716 -4.32166,-4.21209 -4.19044,-7.37946 -0.67951,0.82032 -6.98375,2.27512 -8.33808,3.16543 -7.46989,2.59767 -14.93463,5.21489 -22.70025,7.32624 -4.75256,0.98343 -10.30397,1.78081 -10.43159,-3.14557 1.55582,-3.10253 4.14663,-5.89228 6.65722,-8.62845 0.2357,-0.24134 0.31841,-0.63484 0.707,-0.72403 0.30808,-0.0707 1.35313,0.64192 1.31412,0.89181 -0.0147,0.0943 -2.30172,0.86962 -1.84223,0.67228 6.60679,-2.83711 13.26438,-5.61142 19.89652,-8.41713 -6.75027,2.82533 -13.17041,5.97835 -19.43803,9.3465 -10.76734,5.31089 -21.73884,9.78883 -33.13932,14.64414 -1.3523,0.57592 -4.38952,1.84091 -6.12128,2.0884 -0.73733,0.10536 -1.50242,-0.0313 -2.25359,-0.047 -0.59053,-0.31381 -1.30279,-0.53351 -1.7716,-0.94144 -2.75532,-2.39752 2.37781,-6.32742 3.64223,-8.32626 4.30118,-5.40039 8.77019,-10.7452 13.60501,-15.90323 1.5182,-1.85828 3.01361,-3.74918 4.27241,-5.70992 0.19835,-0.30893 0.32063,-0.6407 0.48357,-0.96037 0.0553,-0.10794 0.26539,-0.23049 0.17004,-0.32244 -0.14791,-0.1426 -0.46245,-0.12158 -0.69363,-0.18237 -7.47257,0.5161 -26.1302,10.35362 17.24789,-8.01792 0.78666,-0.33314 -1.56329,0.68068 -2.30837,1.06085 -2.03413,1.03793 -3.34383,1.91734 -5.25061,3.10554 -6.56464,3.99243 -13.11084,8.00048 -19.7416,11.9336 -12.99456,7.34096 6.45943,-3.72125 -5.7954,3.47971 -9.85415,5.79035 -22.31295,9.26399 -32.45933,14.46347 -3.98646,1.4648 -8.38419,2.832 -12.92762,2.11477 -3.2351,-0.88317 -5.66113,-2.40783 -7.96941,-4.25681 -3.17923,-2.63223 -5.97143,-5.36652 -6.39165,-8.99276 -0.26862,-5.88424 1.52613,-11.58275 4.24235,-17.1183 4.5414,-8.50171 10.20364,-16.75613 17.79305,-24.05761 11.81949,-11.3376 20.21815,-17.38642 40.90632,-23.43204 0.7649,-0.0505 1.53645,-0.23986 2.29481,-0.15133 4.19781,0.49 3.8332,4.31023 3.30629,6.48648 -1.28498,4.91101 -3.70096,9.48315 -8.02409,13.448 -5.63154,5.56724 -11.4902,10.99643 -17.34342,16.44173 -6.52416,5.81104 -13.08096,11.66034 -20.63901,16.78679 -3.77391,2.55369 -7.52993,5.15609 -11.61644,7.45095 -10.0892,5.66587 -21.82552,9.83103 -32.6373,14.52468 6.05175,-2.53935 24.21549,-10.14673 18.15525,-7.61804 -11.44962,4.77748 -23.28552,10.72756 -36.03369,14.06779 -5.36772,0.76355 -10.54686,0.3066 -15.04888,-2.12303 -4.82477,-3.27967 -6.28459,-6.83831 -5.42065,-11.59776 1.38366,-4.04722 3.49736,-8.03102 7.83608,-10.91034 8.33734,-5.81599 1.89294,-1.50931 25.47586,-11.47212 1.95833,-0.82729 4.09979,-1.07012 6.04474,-0.15238 2.64799,1.83272 3.08259,4.21531 2.25037,6.75531 -1.25391,3.50862 -3.55407,6.60841 -6.39488,9.58301 -3.07226,3.10805 -6.65473,5.88721 -10.66554,8.37277 -10.43334,6.57585 -22.62288,11.62577 -35.18948,15.76296 -4.81204,1.11343 -9.86318,1.58251 -14.26089,-0.62103 -4.43362,-2.9252 -5.31859,-6.34349 -4.35635,-10.57673 2.01015,-4.99978 5.05024,-9.73021 9.26796,-13.96572 9.95715,-10.2281 1.99364,-4.09934 29.61852,-13.28161 0.16589,-0.0551 -0.31887,-0.12856 -0.47831,-0.19285 -3.27835,3.09212 -5.98056,6.51133 -9.50614,9.48057 -11.78854,10.4596 -25.49454,16.02487 -42.6337,22.37005 -7.99573,2.81951 -16.35015,5.01769 -25.19091,5.94409 l 20.60616,-11.1941 z"
       inkscape:connector-curvature="0"
       inkscape:export-filename="C:\Users\JoeD\Unterschrift.png"
       inkscape:export-xdpi="90"
       inkscape:export-ydpi="90"
       sodipodi:nodetypes="ccscsscccccsscccccccccccccsscscccccccscccccccsccccccccccssccsccccccscccccscsccccccccccccccscccccccccccccccccscccccccsccscccsccccccccccscccccccccccccccsccsccccccccccsccccccccccccscsccccsccccccccccccccc" />
    <path
       style="fill:#000080;fill-opacity:1;fill-rule:nonzero;stroke:none"
       id="path3101"
       d="m 298.38058,481.83685 c -2.8089,-2.15817 -5.9979,-3.97843 -9.18001,-5.82164 -0.35336,-0.0889 -0.70672,-0.17774 -1.06018,-0.2666 0,0 12.90533,-6.19182 12.90533,-6.19182 l 0,0 c 0.39983,0.17002 0.79967,0.34005 1.1995,0.51007 3.18698,1.84799 6.22171,3.79684 9.22711,5.80135 0,0 -13.09175,5.96864 -13.09175,5.96864 z"
       inkscape:connector-curvature="0"
       inkscape:export-filename="C:\Users\JoeD\Unterschrift.png"
       inkscape:export-xdpi="90"
       inkscape:export-ydpi="90" />
    <path
       style="fill:#000080"
       id="path4015"
       d="m 112.48879,566.02602 c 13.53056,-1.35881 27.01962,-3.03672 40.48803,-4.90905 21.16414,-3.03211 42.41985,-5.37532 63.62982,-8.06277 26.22917,-3.12822 52.54697,-5.37689 78.8957,-7.19606 37.65177,-2.5378 75.40205,-2.15558 113.1118,-1.79755 37.21354,0.21404 74.40614,1.4434 111.56531,3.40824 34.09122,1.93387 68.10005,5.39079 101.91742,10.09342 21.70035,3.44713 43.42341,6.83512 65.02778,10.85067 2.76572,0.57061 5.53143,1.14123 8.29714,1.71184 0,0 -18.21896,2.51148 -18.21896,2.51148 l 0,0 c -2.78061,-0.55904 -5.56123,-1.11809 -8.34185,-1.67714 -21.25487,-4.03199 -42.61475,-7.52773 -63.98027,-10.91429 -33.55312,-4.7005 -67.29312,-8.20051 -101.12781,-10.06222 -37.27623,-1.92942 -74.58455,-3.10864 -111.91338,-3.28038 -25.94447,-0.21321 -52.49926,-0.158 -79.14764,1.75729 -26.17071,1.80248 -52.30339,4.08505 -78.35673,7.17289 -21.07954,2.69756 -42.20758,5.04032 -63.2387,8.09398 -13.08704,1.88384 -26.19801,3.56438 -39.32361,5.13558 0,0 -19.28405,-2.83593 -19.28405,-2.83593 z"
       inkscape:connector-curvature="0"
       inkscape:export-filename="C:\Users\JoeD\Unterschrift.png"
       inkscape:export-xdpi="90"
       inkscape:export-ydpi="90" />
  </g>
</svg>
